<svg width="900" height="900" viewBox="0 0 900 900" fill="none" xmlns="http://www.w3.org/2000/svg">
<rect width="900" height="900" fill="#F6F7EC"/>
<path d="M358.003 420.436C356.643 415.414 355.763 411.632 356.057 412.028C356.35 412.425 359.988 419.331 364.134 427.375C368.288 435.416 374.171 445.824 377.213 450.511C380.263 455.195 384.468 461.074 386.568 463.592C388.669 466.109 392.414 470.105 394.887 472.492C397.359 474.879 401.608 478.498 404.333 480.542C409.256 484.242 409.259 484.25 405.808 482.752C403.891 481.924 398.821 478.584 394.531 475.343C390.239 472.094 384.62 467.11 382.035 464.271C379.455 461.422 375.343 456.119 372.895 452.479C370.438 448.84 366.645 442.19 364.466 437.71C361.847 432.339 359.647 426.448 358.003 420.436Z" fill="#F6F7EC"/>
<path d="M437.081 224.983C438.045 223.523 439.896 221.391 441.188 220.254C442.562 219.042 445.587 217.452 448.489 216.412C451.76 215.242 454.816 214.663 457.496 214.7C459.931 214.738 463.657 215.654 466.827 217.002C470.078 218.384 473.305 220.443 475.241 222.37C477.995 225.117 478.674 226.332 480.781 232.342C482.1 236.107 483.352 240.426 483.952 244.681L488.197 244.731C490.528 244.759 492.749 244.673 493.126 244.541C493.502 244.409 493.742 242.68 493.664 240.701C493.578 238.725 493.787 236.6 494.121 235.975C494.449 235.353 495.217 234.915 495.822 234.995C496.719 235.119 496.929 236.006 497.028 244.71L499.165 244.776C500.338 244.811 501.973 244.784 502.793 244.711C504.049 244.609 504.299 243.853 504.371 239.893C504.419 237.001 504.843 235.054 505.48 234.831C506.041 234.634 506.798 234.799 507.162 235.202C507.526 235.605 507.817 237.924 507.811 244.774L514.972 244.371L514.882 240.275C514.831 238.025 515.182 235.781 515.659 235.299C516.153 234.803 517.025 234.659 517.656 234.968C518.546 235.402 518.749 236.484 518.624 240.009C518.538 242.483 518.548 244.486 518.651 244.473C518.751 244.453 519.812 244.519 521.011 244.606C522.203 244.696 523.797 244.552 524.55 244.288C525.598 243.921 525.878 242.924 525.747 240.026C525.648 237.947 525.965 235.845 526.442 235.363C526.925 234.879 527.718 234.685 528.22 234.932C528.8 235.228 529.118 236.946 529.137 244.218L531.274 244.284C532.447 244.319 534.08 244.285 534.9 244.212C536.151 244.097 536.368 243.421 536.253 239.849C536.176 237.524 536.436 235.304 536.829 234.913C537.213 234.517 537.969 234.436 538.494 234.729C539.135 235.088 539.513 236.431 539.653 238.826C539.764 240.786 539.965 242.829 540.092 243.369C540.239 243.986 542.052 244.311 544.902 244.243C547.418 244.183 549.453 244.024 549.423 243.896C549.401 243.765 549.679 240.962 550.043 237.66C550.518 233.42 551.497 230.141 553.391 226.464C555.18 222.994 557.246 220.271 559.622 218.255C562.6 215.72 564.123 214.956 569.094 213.483C573.719 212.116 575.894 211.853 579.058 212.304C581.281 212.617 584.651 213.657 586.546 214.614C588.442 215.572 591.11 217.527 592.469 218.949C593.987 220.538 595.447 222.994 596.265 225.305C596.992 227.379 597.646 230.432 597.716 232.098C597.781 233.797 596.967 237.003 595.859 239.39C594.265 242.823 593.21 244.069 590.413 245.802C587.683 247.489 586.212 248.005 583.565 248.194C581.519 248.343 578.863 247.805 576.822 246.83C574.579 245.751 572.973 244.356 572.005 242.646C571.21 241.233 570.402 238.926 570.206 237.512C569.994 235.964 570.566 233.473 571.638 231.245C573.361 227.675 573.551 227.516 577.164 226.618C579.845 225.956 581.61 225.991 585.836 227.807L584.75 226.266C584.161 225.419 582.266 224.093 580.55 223.318C578.67 222.471 576.352 222.107 574.714 222.389C573.217 222.66 570.833 223.488 569.406 224.241C567.979 224.995 565.797 226.928 564.553 228.532C563.316 230.134 561.848 233.162 561.298 235.253C560.75 237.352 560.371 240.943 560.459 243.233C560.573 246.191 561.439 249.692 563.435 255.257C564.983 259.587 567.745 265.69 569.578 268.86C571.409 272.023 576.675 280.469 581.281 287.625C585.88 294.783 591.94 304.596 594.753 309.421C598.964 316.676 600.597 320.285 604.132 330.153C607.332 339.108 608.594 343.585 609.148 347.995C609.553 351.235 609.931 356.636 609.988 359.998C610.044 363.36 609.776 368.473 609.4 371.349C609.027 374.231 607.909 379.465 606.926 382.976C605.946 386.494 603.504 392.707 601.506 396.789C599.515 400.869 595.749 407.008 593.145 410.434C590.541 413.86 586.347 418.65 583.817 421.081C581.29 423.519 577.033 427.163 574.359 429.184C571.686 431.205 567.927 433.813 566.011 434.969C564.09 436.134 562.379 436.933 562.216 436.752C562.043 436.567 562.041 435.33 562.213 434.002C562.378 432.676 562.121 430.429 561.641 429.014C560.935 426.933 561.124 425.652 562.626 422.328C563.656 420.069 564.71 416.586 564.971 414.589C565.308 412.042 565.093 410.288 564.257 408.69C563.597 407.445 549.375 418.796 549 418.121C548.455 417.159 564.891 403.203 568 398.5C570.714 395.389 572.928 391.447 574.359 389.5C575.791 387.553 577.854 383.426 579.213 380.813C580.566 378.202 582.344 373.759 583.154 370.939C583.965 368.119 584.908 363.638 585.239 360.985C585.57 358.333 585.832 353.576 585.813 350.408C585.796 347.247 585.168 341.241 584.411 337.064C583.343 331.166 582.02 326.842 578.474 317.624C575.875 310.887 571.182 300.434 567.596 293.382C564.124 286.567 559.521 276.943 557.355 271.991C554.811 266.157 552.814 260.501 551.684 255.916C550.341 250.484 549.703 248.794 548.925 248.636C548.361 248.518 546.195 248.478 544.101 248.536C542.01 248.6 540.285 248.766 540.273 248.908C540.253 249.046 540.63 275.147 541.096 306.896C541.564 338.652 541.695 408.893 541.671 412.006C541.645 415.528 541.177 418.228 540.43 419.167C539.768 419.998 539.044 420.652 538.819 420.623C538.587 420.597 538.175 349.794 537.6 314.27C537.028 278.753 536.313 249.428 536.017 249.109C535.72 248.79 534.218 248.54 532.684 248.548C531.142 248.557 529.837 248.846 529.771 249.184C529.705 249.522 530.044 280.448 530.512 317.907C530.981 355.366 529.255 413.493 528.649 415.49C528.623 416.137 527.959 417.315 527.173 418.121C526.387 418.927 525.66 419.351 525.548 419.075C525.443 418.796 527.59 358.937 527.077 320.648C526.556 282.362 525.977 250.575 525.785 250.005C525.602 249.438 524.305 248.94 522.91 248.906C521.521 248.87 519.991 248.976 519.523 249.132C518.996 249.317 518.874 261.143 519.202 279.405C519.501 295.895 519.995 328.318 520.311 351.458C520.62 374.6 519.184 414.679 519.203 416.049C519.225 417.647 518.659 419.014 517.606 419.89C516.697 420.632 515.861 421.186 515.739 421.121C515.614 421.05 516.086 406.143 515.994 395.815C515.905 385.493 516.537 338.123 516.114 307.196C515.693 276.277 515.188 250.513 514.995 249.943C514.779 249.327 513.356 248.972 511.424 249.05C509.484 249.13 508.157 249.488 508.088 249.95C508.021 250.373 508.466 285.681 509.07 328.419C510.092 400.748 509.004 419.778 507.574 420.279C506.727 420.583 505.909 420.44 505.75 419.965C505.591 419.49 506.034 370.549 505.442 327.846C504.858 285.147 504.149 249.939 503.866 249.616C503.591 249.289 502.109 249.032 500.575 249.04C497.868 249.058 497.777 249.129 497.69 251.204C497.635 252.384 497.909 280.91 498.299 314.592C498.689 348.274 498.056 396.168 498.17 404.367C498.286 412.573 498.256 419.548 498.109 419.876C497.96 420.197 497.044 420.433 496.085 420.393C494.524 420.325 494.339 420.083 494.429 418.168C494.484 416.988 494.43 403.433 494.309 388.042C494.19 372.658 494.844 324.934 494.476 298.639C494.11 272.35 493.709 250.524 493.583 250.145C493.458 249.766 491.338 249.395 488.866 249.316C486.394 249.236 484.139 249.25 483.856 249.342C483.566 249.436 482.84 252.188 482.229 255.469C481.626 258.747 480.277 263.978 479.244 267.084C478.206 270.199 475.03 278.506 472.191 285.558C469.348 292.603 465.459 302.297 463.553 307.1C461.64 311.906 459.015 319.459 457.718 323.895C456.425 328.322 454.88 335.404 454.284 339.625C453.69 343.853 453.299 350.039 453.416 353.38C453.527 356.723 454.098 362.057 454.681 365.234C455.312 368.68 456.727 373.31 458.187 376.688C459.536 379.812 462.138 384.603 463.98 387.339C465.816 390.078 468.847 393.858 474.118 399.159L470.815 404.298C468.998 407.117 465.891 412.441 460.301 422.832L457.786 420.831C456.409 419.73 453.631 417.245 451.622 415.305C449.612 413.365 446.174 409.213 443.974 406.072C440.82 401.566 439.168 398.302 436.141 390.563C433.708 384.344 431.957 378.778 431.349 375.332C430.826 372.349 430.301 367.691 430.181 364.981C430.071 362.276 430.462 355.737 431.062 350.453C431.662 345.17 433.146 337.648 434.357 333.734C435.575 329.818 437.943 323.285 439.613 319.211C441.289 315.134 447.439 302.833 453.279 291.863C459.126 280.89 465.313 268.784 467.034 264.945C468.749 261.108 470.677 255.797 471.315 253.145C471.954 250.492 472.581 246.383 472.71 244.009C472.841 241.511 472.441 238.262 471.752 236.275C470.984 234.084 469.623 231.956 467.963 230.355C466.536 228.979 463.784 227.269 461.842 226.551C459.899 225.833 456.957 225.334 455.305 225.444C453.65 225.548 451.274 226.181 450.034 226.853C448.788 227.529 447.485 228.746 447.139 229.559C446.552 230.91 446.722 230.912 449.088 229.637C451.015 228.6 452.402 228.368 454.536 228.734C456.107 229.006 458.303 230.074 459.402 231.103C460.503 232.139 461.778 234.067 462.232 235.384C462.688 236.707 462.795 239.229 462.469 240.996C462.143 242.763 461.311 245.06 460.625 246.108C459.932 247.158 457.889 248.719 456.079 249.584C453.883 250.63 451.687 251.126 449.49 251.071C447.641 251.035 444.813 250.181 443.049 249.139C441.312 248.111 454.466 248.275 451.466 249.775C440.941 252.91 435.338 242.394 434.73 240.701C434.001 238.666 434.338 234.921 434.73 232.025C435.055 229.62 436.112 226.452 437.081 224.983Z" fill="#021A22"/>
<path d="M488.937 438.371L481.461 435.183C471.927 431.117 461.963 425.589 454.681 418.213L473.315 399.585C473.111 399.188 473.584 398.779 473.95 399.036C484.444 406.41 497.354 412.859 509.875 414.883L512.92 415.376C521.786 416.809 530.846 416.5 539.594 414.466C552.516 411.461 564.299 404.799 573.536 395.276L594.56 373.599L584.793 417.419C584.149 419.307 583.152 421.063 581.735 422.466C574.234 429.89 560.74 439.217 551.835 441.356L547.087 442.461C539.271 444.278 531.254 445.087 523.232 444.868C511.431 444.545 499.796 443.002 488.937 438.371Z" fill="#021A22"/>
<path fill-rule="evenodd" clip-rule="evenodd" d="M351.361 166.156C349.569 167.474 346.646 170.207 344.857 172.234C343.068 174.261 340.133 178.724 338.339 182.162C336.541 185.591 334.651 190.961 334.138 194.086C333.627 197.218 333.605 202.706 334.086 206.282C334.57 209.866 335.176 212.817 335.451 212.848C335.717 212.882 337.436 211.07 339.279 208.834C341.119 206.59 344.101 202.545 345.898 199.843C347.693 197.133 350.28 192.246 351.635 188.981C352.99 185.716 354.584 180.695 355.169 177.827C355.765 174.964 356.325 170.442 356.42 167.782C356.552 164.346 356.313 163.066 355.606 163.359C355.059 163.587 353.155 164.845 351.361 166.156ZM371.434 165.083C369.092 166.958 365.645 170.556 363.782 173.072C361.919 175.588 359.078 181.356 357.473 185.88L354.559 194.109C365.439 191.65 368.1 190.581 371.428 188.406C373.866 186.806 378.141 183.236 380.911 180.457C383.69 177.674 387.344 172.931 389.031 169.913C390.716 166.887 392.371 162.844 392.699 160.93C393.025 159.007 392.885 157.257 392.387 157.031C391.893 156.813 387.936 157.764 383.588 159.152C377.236 161.178 374.853 162.34 371.434 165.083ZM308.038 195.544C306.192 196.708 301.247 200.104 297.048 203.085C290.173 207.948 287.75 209.152 273.033 214.954C261.304 219.583 255.54 222.248 252.7 224.361C250.522 225.979 247.238 228.875 245.407 230.78C243.578 232.693 240.742 236.868 239.114 240.056C237.487 243.244 235.764 248.183 235.306 251.024C234.839 253.869 234.509 260.265 234.572 265.242C234.642 270.215 234.357 276.041 233.945 278.185C233.533 280.329 231.521 284.779 229.485 288.073C227.447 291.359 225.158 295.434 224.397 297.127C223.642 298.81 222.87 302.079 222.691 304.396C222.512 306.712 222.752 310.509 223.233 312.84C223.816 315.698 225.136 318.635 227.28 321.873C229.032 324.513 231.943 327.737 233.754 329.039C235.567 330.348 239.374 332.213 242.215 333.189C245.06 334.174 247.336 334.549 247.279 334.023C247.225 333.506 246.242 332.178 245.11 331.075C243.978 329.972 241.753 326.762 240.175 323.943C237.757 319.638 237.133 317.648 236.238 311.463C235.649 307.425 235.434 302.22 235.756 299.899C236.079 297.577 236.754 295.405 237.258 295.055C237.763 294.706 240.748 296.223 243.888 298.412L249.605 302.407C248.254 297.464 247.354 293.444 246.739 290.288C246.124 287.132 245.704 281.344 245.815 277.433C245.934 273.52 246.926 266.938 248.037 262.795C249.143 258.663 251.139 252.946 252.479 250.105C254.418 245.99 255.185 245.067 256.254 245.601C256.992 245.969 259.362 248.92 261.516 252.163C263.671 255.407 265.82 259.153 266.296 260.486C266.764 261.821 267.696 263.34 268.358 263.853C269.392 264.654 269.497 264.59 269.08 263.373C268.816 262.593 269.085 258.2 269.679 253.62C270.495 247.363 271.623 243.632 274.205 238.628C276.101 234.964 278.703 230.899 279.993 229.602C281.818 227.753 282.62 227.372 283.615 227.878C284.321 228.231 286.189 230.32 287.75 232.518C289.322 234.721 290.892 237.334 291.235 238.34C291.579 239.347 292.141 240.068 292.473 239.952C292.802 239.827 293.53 236.409 294.087 232.342C294.794 227.15 296.274 222.478 299.044 216.663C302.111 210.245 304.279 207.095 308.7 202.619C311.841 199.446 315.314 196.52 316.42 196.123L318.436 195.39C321.02 205.617 321.711 211.791 321.716 216.525C321.712 221.025 321.383 226.257 320.972 228.146L320.225 231.589C324.157 226.757 326.718 223.561 328.45 221.372C331.465 217.553 331.549 217.223 330.416 213.367C329.761 211.161 329.187 207.318 329.135 204.836C329.092 202.352 329.362 197.859 329.736 194.856L330.42 189.39C327.085 188.923 322.804 189.832 318.75 191.099C314.697 192.374 309.881 194.371 308.038 195.544ZM310.52 206.516C308.782 208.688 306.225 212.338 304.836 214.624C303.455 216.908 301.379 221.771 300.222 225.421C299.068 229.079 297.949 234.988 297.738 238.561C297.519 242.137 297.72 247.664 298.176 250.858C298.637 254.041 299.352 256.754 299.771 256.888C300.188 257.015 302.511 254.592 304.924 251.493C307.337 248.393 310.366 243.914 311.659 241.535C312.951 239.155 314.733 234.332 315.623 230.83C316.511 227.319 317.234 221.395 317.236 217.641C317.233 213.897 316.713 208.862 316.08 206.458C315.454 204.051 314.658 202.194 314.313 202.324C313.96 202.457 312.258 204.344 310.52 206.516ZM356.322 199.762C353.861 201.297 349.971 204.487 347.674 206.855C345.378 209.223 343.817 211.461 344.191 211.829C344.566 212.198 347.66 211.977 351.066 211.347C354.471 210.717 360.474 208.886 364.409 207.28C369.502 205.213 372.771 203.313 375.729 200.704C378.014 198.695 379.731 196.693 379.55 196.257C379.362 195.823 377.318 195.23 375.008 194.94C372.698 194.65 368.553 194.985 365.802 195.694C362.949 196.422 358.874 198.177 356.322 199.762ZM279.977 237.36C278.78 238.952 277.115 242.498 276.273 245.256C275.42 248.009 274.501 251.975 274.227 254.071C273.953 256.167 273.86 260.907 274.025 264.594C274.217 269.007 275.082 273.575 276.559 277.947C277.793 281.595 279.176 284.791 279.631 285.05C280.082 285.301 282.601 282.555 285.214 278.94C287.825 275.317 290.649 271.055 291.485 269.472C292.317 267.88 293.056 264.722 293.113 262.448C293.196 259.338 292.352 255.817 289.683 248.2C287.734 242.639 285.51 237.175 284.75 236.069C283.99 234.963 283.088 234.152 282.756 234.268C282.421 234.377 281.173 235.768 279.977 237.36ZM380.241 202.222C378.523 203.906 376.924 205.566 376.693 205.892C376.456 206.23 377.456 208.124 378.908 210.115C380.601 212.43 382.812 214.227 385.05 215.115C388.164 216.35 388.91 216.298 391.993 214.672C393.896 213.669 397.377 211.931 399.727 210.807C403.794 208.873 404.214 208.853 408.036 210.449C411.41 211.857 412.506 212.909 414.857 216.947C417.646 221.741 417.649 221.749 417.914 219.057C418.062 217.56 417.811 214.64 417.351 212.547C416.869 210.344 415.59 207.548 414.3 205.891C413.077 204.32 410.895 202.322 409.439 201.46C407.818 200.492 405.006 199.987 402.127 200.151C399.553 200.299 395.353 201.152 392.798 202.057C388.171 203.687 388.133 203.683 386.344 201.147C385.355 199.749 384.278 198.726 383.958 198.875C383.637 199.023 381.965 200.527 380.241 202.222ZM338.192 219.348C337.673 219.994 337.477 220.599 337.755 220.692C338.033 220.786 341.242 220.297 344.875 219.615C348.505 218.925 353.857 218.43 356.761 218.521C359.662 218.604 363.338 219.161 364.918 219.753C366.653 220.399 368.074 221.627 368.503 222.85C368.894 223.967 368.689 225.429 368.053 226.106C367.418 226.783 364.159 229.153 360.81 231.371C355.794 234.692 354.381 236.133 352.765 239.535C351.687 241.803 348.407 246.161 345.481 249.222C342.552 252.275 337.642 256.368 334.577 258.305C331.503 260.246 326.858 262.446 324.249 263.197C321.64 263.948 319.55 264.753 319.619 264.974C319.679 265.199 320.736 265.855 321.971 266.422C323.206 266.989 324.357 267.913 324.536 268.477C324.724 269.065 319.587 273.547 312.308 279.124C305.401 284.417 300.047 289.056 300.422 289.424C300.788 289.796 300.85 290.828 300.571 291.717C300.284 292.608 298.503 295.932 296.615 299.102C294.727 302.272 291.79 306.728 290.091 309.013C288.39 311.291 285.274 314.664 283.178 316.516C279.543 319.708 279.464 319.872 281.646 319.925C282.903 319.958 284.94 320.507 286.162 321.142L288.383 322.29C286.379 326.637 284.379 329.383 282.641 331.192C280.903 333.001 277.409 335.87 274.877 337.566C271.567 339.79 268.646 341.05 264.425 342.102L258.568 343.545L255.582 351.49C261.625 352.189 266.455 353.523 270.22 354.903C273.984 356.283 278.413 357.485 280.075 357.584C281.734 357.675 284.91 357.117 287.136 356.337C289.362 355.557 292.358 353.888 293.793 352.64C295.225 351.384 296.651 350.475 296.946 350.617C297.242 350.759 297.037 351.912 296.484 353.188C295.928 354.455 294.251 356.67 292.756 358.111C291.262 359.553 288.951 361.126 287.621 361.611C286.291 362.095 283.373 362.508 281.127 362.532C278.882 362.556 273.786 361.424 269.791 360.007C265.798 358.598 260.64 357.288 258.321 357.101C254.983 356.835 253.239 357.201 249.852 358.869C247.512 360.025 244.061 362.444 242.189 364.236C240.321 366.036 237.91 369.062 236.821 370.961C235.736 372.868 234.487 376.541 234.044 379.141C233.598 381.733 233.525 385.803 233.884 388.177C234.243 390.55 234.776 392.718 235.078 392.984C235.373 393.254 236.617 391.8 237.825 389.749C239.034 387.699 241.277 385.077 242.828 383.925C244.367 382.767 248.352 380.862 251.695 379.69C256.374 378.051 259.443 377.575 265.064 377.641C269.077 377.68 275.911 377.938 280.255 378.197C286.875 378.595 289.128 378.332 294.227 376.572C299.343 374.807 300.945 373.827 304.335 370.404C306.549 368.164 309.044 364.727 309.866 362.767C310.695 360.804 311.759 357.123 312.225 354.588L313.079 349.971C307.082 346.084 303.983 343.389 302.337 341.466C300.034 338.784 298.64 336 296.354 329.476C293.574 321.544 293.435 320.629 294.277 315.771C294.773 312.907 295.996 309.107 296.996 307.32C297.997 305.534 300.053 303.232 301.567 302.21C303.079 301.181 305.773 299.819 307.551 299.186C309.329 298.554 312.201 298.011 313.948 297.99C315.692 297.96 318.78 298.423 320.829 299.005C322.867 299.581 325.549 300.931 326.786 301.997C328.608 303.567 329.203 304.822 329.917 308.625C330.41 311.197 331.613 315.693 332.593 318.594C334.017 322.812 334.932 324.282 337.123 325.867C338.67 326.988 340.571 327.613 341.485 327.292C342.376 326.98 343.513 325.455 344.016 323.906C344.72 321.742 344.576 320.474 343.417 318.436C342.581 316.984 341.242 314.59 340.435 313.119C339.632 311.656 338.856 309.364 338.711 308.043C338.558 306.724 339.071 304.09 339.842 302.193C340.613 300.296 342.743 297.323 344.572 295.592C346.398 293.852 349.856 290.595 352.252 288.356C354.645 286.109 356.96 283.379 357.391 282.274C358.154 280.353 358.116 280.348 356.522 282.024C355.55 283.038 353.291 284.138 351.08 284.65C348.999 285.143 344.383 285.379 340.813 285.176C335.445 284.876 333.175 285.217 327.654 287.152C321.195 289.415 321.027 289.429 322.313 287.469C323.039 286.352 325.191 284.634 327.096 283.639C329.001 282.644 332.093 281.561 333.976 281.228C335.862 280.903 340.541 280.536 344.372 280.42C348.203 280.305 352.16 279.927 353.164 279.575C354.171 279.231 356.176 277.665 357.627 276.102C359.079 274.539 360.965 271.933 361.817 270.317C362.665 268.693 363.522 266.184 363.725 264.741C364.077 262.218 364.005 262.143 362.062 262.824C360.945 263.215 359.609 263.474 359.088 263.412C358.566 263.349 356.029 263.993 353.457 264.849L348.78 266.415C360.463 257.559 366.579 253.098 369.905 250.787C373.233 248.485 375.855 246.32 375.723 245.994C375.599 245.665 374.849 245.601 374.063 245.849C373.281 246.105 371.367 246.194 369.816 246.047C367.24 245.804 367.878 245.472 377.114 242.235C383.503 240.005 389.086 237.521 392.25 235.504C395.785 233.247 397.825 232.377 399.168 232.552C400.215 232.685 401.756 233.581 402.589 234.534C403.426 235.495 404.681 237.909 405.384 239.916C406.088 241.924 413.773 233.939 414.062 234.076C414.779 234.415 451.966 251.965 451.466 249.775C449.088 250.483 415.5 234.752 414.062 234.076C414.636 232.421 419.344 228.764 419.181 226.822C419.018 224.88 416.181 221.114 414.857 219.614C413.681 218.114 410.571 216.254 409.181 215.114C407.681 214.114 405.31 213.795 404.209 213.872C403.109 213.948 400.601 215.245 398.628 216.746C396.654 218.246 393.764 219.932 392.213 220.484C390.597 221.06 387.925 221.114 385.978 220.615C384.11 220.134 381.574 219.069 380.34 218.247C379.11 217.433 376.705 215.004 374.995 212.849C372.647 209.882 371.558 209.11 370.511 209.649C369.749 210.043 365.313 211.752 360.663 213.446C355.316 215.383 350.012 216.742 346.272 217.117C343.016 217.449 340.076 217.825 339.747 217.949C339.415 218.066 338.712 218.703 338.192 219.348ZM253.891 259.607C252.829 262.851 251.595 267.474 251.141 269.887C250.687 272.3 250.371 277.518 250.437 281.494C250.522 286.481 251.161 290.483 252.515 294.398C253.599 297.518 255.771 301.873 257.34 304.068C258.917 306.26 260.643 308.436 261.184 308.892C261.918 309.507 262.555 308.939 263.681 306.654C264.517 304.97 265.575 300.182 266.043 296.019C266.511 291.857 266.686 285.251 266.434 281.341C266.116 276.363 265.185 271.917 263.331 266.523C261.872 262.282 259.987 257.525 259.144 255.949C258.3 254.372 257.198 253.223 256.704 253.396C256.21 253.569 254.946 256.366 253.891 259.607ZM331.207 229.24C329.574 230.285 326.357 233.112 324.055 235.518C321.754 237.924 319.953 240.073 320.038 240.289C320.131 240.501 325.029 239.567 330.929 238.198C337.4 236.694 344.639 234.448 349.172 232.523C353.311 230.773 357.9 228.383 359.374 227.221C360.856 226.057 361.955 224.835 361.831 224.506C361.706 224.177 359.889 223.687 357.797 223.421C355.704 223.154 351.527 223.191 348.51 223.503C345.496 223.823 341.035 224.814 338.605 225.711C336.172 226.6 332.84 228.195 331.207 229.24ZM313.807 250.906C311.266 252.915 307.511 256.775 305.472 259.489L301.764 264.415C308.954 262.913 315.248 261.035 320.375 259.274C326.463 257.196 331.172 255.073 333.921 253.191C336.237 251.607 339.305 249.26 340.731 247.987C342.154 246.707 344.619 244.116 346.209 242.223L349.091 238.777C337.898 241.019 331.005 242.925 326.544 244.461C320.195 246.65 317.433 248.054 313.807 250.906ZM271.355 288.614C270.896 294.8 271.02 296.347 271.9 295.357C272.524 294.648 273.648 293.136 274.39 291.985C275.569 290.163 275.494 289.299 273.845 285.242L271.951 280.589L271.355 288.614ZM295.115 275.37C292.988 277.134 289.514 280.914 287.399 283.773C285.292 286.629 283.655 289.247 283.755 289.585C283.864 289.92 285.773 289.559 287.999 288.779C290.225 287.999 294.681 285.829 297.894 283.948C301.11 282.076 306.912 278.198 310.783 275.342C314.653 272.486 317.735 269.87 317.635 269.532C317.527 269.197 316.256 268.761 314.799 268.572C313.345 268.391 309.193 269.119 305.571 270.197C300.422 271.738 298.144 272.864 295.115 275.37ZM386.105 245.846C380.836 249.355 374.812 253.457 372.714 254.965C369.164 257.518 368.874 258.037 368.472 262.622C368.231 265.333 367.012 270.568 365.759 274.252C364.508 277.944 362.738 282.672 361.829 284.772C360.663 287.462 358.715 289.708 355.176 292.448C352.426 294.584 349.127 297.413 347.837 298.737C346.55 300.07 345.059 302.219 344.512 303.511C343.654 305.575 343.922 307.016 346.631 314.746L349.743 323.626C346.547 329.572 344.887 331.553 343.997 331.865C343.106 332.177 341.095 332.273 339.524 332.07C337.564 331.82 335.488 330.485 332.894 327.804C329.314 324.096 328.997 323.453 326.595 315.016L324.072 306.13C317.062 302.597 314.741 302.12 312.352 302.512C310.458 302.812 307.897 303.673 306.655 304.408C305.415 305.152 303.476 306.904 302.336 308.294C301.199 309.692 299.837 312.523 299.305 314.582C298.751 316.712 298.734 320.862 299.259 324.177C300.062 329.294 300.595 330.634 303.542 334.946C305.382 337.655 308.684 341.242 310.883 342.925C313.07 344.603 316.219 346.353 317.875 346.8C319.534 347.255 322.233 347.381 323.883 347.085C325.838 346.727 327.115 346.997 327.565 347.867C327.948 348.596 328.003 349.922 327.686 350.805C327.368 351.689 326.374 352.637 325.472 352.917C324.568 353.189 322.396 353.113 320.641 352.747L317.452 352.074C315.794 364.979 314.432 371.491 313.352 374.869C312.273 378.246 310.094 382.945 308.508 385.319C306.919 387.684 304.723 390.571 303.625 391.719C302.528 392.867 300.144 394.803 298.315 396.016C295.324 398.01 294.833 398.918 293.282 405.36C292.334 409.291 290.007 416.06 288.107 420.415C286.207 424.771 282.093 432.12 278.964 436.752C275.831 441.377 270.025 448.773 266.057 453.191C262.091 457.616 256.755 463.085 254.188 465.357C251.63 467.626 249.634 469.761 249.742 470.096C249.858 470.428 252.666 471.153 255.981 471.69C259.299 472.236 263.151 473.013 264.546 473.415C266.999 474.137 267.502 475.001 271.23 471.841C273.827 469.631 279.141 474.536 283.219 473.053C288.226 471.234 290.164 470.955 294.477 471.461C297.338 471.794 299.579 465.6 302.366 467.041C305.422 468.605 308.786 471.253 310.828 473.682C312.695 475.899 314.39 478.168 314.594 478.724C314.798 479.279 317.307 480.318 320.177 481.039C323.044 481.752 332.307 483.986 340.755 485.997C349.2 488 361.626 490.779 368.363 492.163C375.09 493.541 386.169 495.384 392.972 496.253C399.775 497.123 409.893 497.985 415.457 498.171C421.018 498.349 428.953 498.249 433.099 497.941C438.572 497.532 442.947 496.58 449.145 494.454C456.476 491.93 458.051 491.105 460.463 488.497C462.005 486.829 463.528 484.46 463.849 483.22C464.169 481.981 464.01 479.792 463.503 478.343C462.987 476.897 461.624 474.721 460.461 473.502C459.305 472.28 454.264 468.839 449.251 465.842C444.25 462.851 432.887 457.008 423.999 452.861C415.111 448.714 403.69 443.719 398.615 441.762C393.54 439.806 389.338 438.424 389.285 438.688C389.235 438.96 388.88 440.721 388.485 442.604C388.102 444.492 387.164 447.884 386.404 450.15C385.2 453.716 384.936 454.027 384.407 452.44C384.064 451.434 383.87 448.029 383.971 444.868C384.064 441.709 384.783 433.386 385.565 426.36C386.349 419.341 387.139 410.884 387.314 407.57C387.499 404.26 387.642 401.038 387.633 400.414C387.625 399.744 384.832 398.933 380.723 398.41C376.931 397.939 371.1 396.756 367.762 395.79C364.428 394.832 358.925 392.616 355.54 390.867C352.147 389.12 347.506 386.303 345.22 384.604C342.935 382.906 339.9 380.289 338.474 378.789C337.057 377.286 335.684 375.522 335.433 374.856C335.176 374.201 337.641 375.582 340.919 377.932C344.188 380.285 349.968 383.604 353.749 385.314C357.534 387.014 363.336 389.125 366.64 389.994C369.944 390.863 376.751 392.213 381.776 392.987C386.801 393.762 394.769 394.351 399.501 394.292C404.977 394.227 409.721 393.628 412.556 392.643C415.052 391.778 417.887 390.166 418.997 388.977C420.089 387.813 421.475 385.728 422.081 384.343C422.686 382.958 423.223 380.68 423.265 379.293C423.314 377.903 422.912 375.59 422.364 374.156C421.824 372.718 420.471 370.438 419.356 369.075C418.057 367.494 417.39 365.928 417.489 364.731C417.573 363.701 418.738 361.657 420.077 360.188C421.633 358.48 422.309 356.934 421.946 355.898C421.58 354.854 420.191 354.132 418.052 353.864C416.225 353.631 413.07 353.392 411.051 353.336C409.032 353.28 407.503 352.989 407.645 352.694C407.789 352.407 411.322 351.387 415.487 350.436C422.297 348.886 423.159 348.52 424.003 346.779C424.521 345.716 424.713 344.213 424.424 343.442C424.136 342.67 423.192 341.456 422.319 340.753C421 339.688 420.818 338.934 421.25 336.356C421.539 334.637 421.669 333.246 421.528 333.259C421.396 333.27 419.681 333.253 417.719 333.231C415.747 333.204 413.752 332.749 413.271 332.209C412.543 331.401 413.205 331.06 417.05 330.257C419.608 329.725 423.85 328.965 426.461 328.586C429.899 328.072 431.625 327.449 432.715 326.331C433.818 325.199 433.971 324.082 433.288 322.158C432.772 320.712 428.631 312.966 424.073 304.939C419.515 296.912 415.277 288.89 414.652 287.109C414.028 285.329 413.605 282.305 413.709 280.397C413.82 278.485 413.706 275.254 413.463 273.212C413.16 270.61 411.578 266.538 408.187 259.61C405.527 254.172 402.552 247.135 401.573 243.979C399.835 238.371 399.749 238.256 397.74 238.851C396.603 239.186 391.37 242.328 386.105 245.846ZM239.907 306.088C239.77 308.135 240.117 311.694 240.687 313.994C241.265 316.291 242.866 320.029 244.24 322.292C245.618 324.563 248.18 327.646 249.936 329.157C253.048 331.838 253.154 331.855 254.312 329.895C254.962 328.795 255.953 325.785 256.515 323.216C257.445 318.945 257.36 318.312 255.545 315.831C254.459 314.339 251.838 311.477 249.732 309.461C247.629 307.453 244.616 305.028 243.039 304.081L240.172 302.359L239.907 306.088ZM279.036 299.509C276.767 300.895 273.616 303.572 272.031 305.454C270.437 307.34 268.075 311.103 266.785 313.827L264.431 318.779C268.543 318.455 271.915 317.573 274.578 316.613C278.096 315.344 280.419 313.857 283.115 311.149C285.145 309.111 288.527 304.472 290.62 300.848C292.713 297.225 294.159 294.037 293.824 293.782C293.489 293.526 290.951 294.143 288.189 295.156C285.416 296.165 281.296 298.127 279.036 299.509ZM260.541 330.839C259.028 335.132 258.75 337.01 259.591 337.361C260.241 337.633 262.713 337.321 265.074 336.667C267.434 336.012 271.522 334.034 274.162 332.282C276.79 330.525 279.654 328.194 280.527 327.106L282.106 325.126C278.117 323.807 274.969 323.565 272.531 323.738C270.092 323.911 266.877 324.229 265.385 324.433C262.892 324.789 262.509 325.278 260.541 330.839ZM246.413 387.958C244.723 389.568 242.885 391.739 242.323 392.781C241.759 393.815 241.036 396.604 240.717 398.961C240.401 401.325 240.345 404.617 240.607 406.27C240.86 407.953 242.479 411.612 244.249 414.537C245.997 417.423 247.591 420.754 247.786 421.931C247.983 423.116 247.592 425.398 246.911 427.009C246.225 428.631 244.266 430.872 242.542 432.021C240.815 433.162 238.406 434.17 237.192 434.26C234.997 434.429 234.992 434.467 236.913 438.156C237.967 440.205 239.853 442.552 241.083 443.366C242.324 444.185 245.041 445.169 247.141 445.56C249.233 445.954 253.023 445.798 255.572 445.214C258.113 444.632 262.144 443.011 264.537 441.618L268.873 439.08C264.223 434.811 262.966 432.625 261.53 428.475C260.18 424.595 259.689 421.613 259.964 419.026C260.19 416.948 261.331 413.512 262.505 411.392C263.669 409.267 266.018 406.244 267.722 404.674C270.062 402.509 273.696 400.636 282.731 396.933C291.597 393.29 295.635 391.221 298.522 388.827C300.646 387.056 303.666 383.717 305.233 381.395C306.793 379.076 308.18 376.318 308.313 375.272C308.545 373.418 308.502 373.424 306.393 375.627C305.199 376.863 302.104 378.82 299.509 379.975C296.915 381.129 292.626 382.323 289.985 382.622C287.334 382.914 280.78 382.885 275.415 382.538C270.044 382.203 263.289 382.171 260.397 382.476C257.504 382.78 253.858 383.476 252.307 384.029C250.745 384.577 248.095 386.351 246.413 387.958ZM277.432 405.152C274.418 406.536 271.065 408.638 269.979 409.818C268.893 410.999 267.385 413.336 266.63 415.018C265.874 416.701 265.229 419.217 265.18 420.607C265.139 421.993 265.678 424.776 266.379 426.776C267.082 428.783 268.646 431.507 269.862 432.826C271.074 434.155 272.517 435.058 273.07 434.846C273.614 434.637 275.274 432.656 276.751 430.439C278.223 428.233 280.737 423.58 282.33 420.113C283.923 416.646 286.13 411.038 287.233 407.652C288.329 404.269 288.972 401.281 288.653 401.02C288.343 400.756 286.914 401.011 285.496 401.581C284.07 402.153 280.444 403.761 277.432 405.152ZM393.138 434.484C393.719 434.717 399.387 436.884 405.73 439.296C412.071 441.7 424.778 447.226 433.975 451.556C443.164 455.888 450.22 458.777 449.649 457.978C449.086 457.175 446.524 453.574 443.963 449.973C441.401 446.372 437.206 441.299 434.648 438.696C432.091 436.093 428.235 432.946 426.081 431.701C423.919 430.459 419.397 429.072 416.021 428.619C410.188 427.846 409.427 427.958 400.977 430.919C395.727 432.768 392.51 434.223 393.138 434.484ZM440.301 437.396C440.755 437.864 443.771 441.206 447.009 444.816C450.241 448.436 455.701 454.293 459.141 457.832C462.591 461.376 467.165 465.817 469.315 467.699C471.468 469.589 473.595 470.989 474.037 470.825C474.56 470.633 473.747 468.155 471.676 463.673C469.936 459.902 466.97 454.498 465.077 451.662C463.191 448.824 460.105 444.997 458.216 443.16C456.335 441.32 452.977 439.18 450.76 438.403C448.542 437.625 445.329 436.807 443.633 436.583C441.929 436.362 440.294 436.263 440.003 436.365C439.711 436.467 439.846 436.929 440.301 437.396Z" fill="#021A22"/>
<path d="M370.828 285.89C371.928 284.387 374.423 281.886 376.38 280.337C378.473 278.685 382.434 276.633 385.998 275.366C389.327 274.181 394.439 272.999 397.348 272.743C400.26 272.495 403.781 272.633 405.184 273.059C406.667 273.503 408.008 274.633 408.405 275.766C408.998 277.458 408.721 277.809 406.21 278.58C404.636 279.068 400.871 279.424 397.857 279.381C394.587 279.336 389.551 280.11 385.351 281.301C380.927 282.551 376.596 284.351 373.664 286.151C371.108 287.728 368.976 288.93 368.92 288.822C368.872 288.712 369.728 287.394 370.828 285.89Z" fill="#F6F7EC"/>
<path d="M307.597 321.673C307.515 319.83 308.245 317.011 309.224 315.423C310.209 313.824 311.798 312.24 312.759 311.894C313.727 311.545 315.322 311.505 316.302 311.788C317.864 312.25 317.666 312.464 314.769 313.48C312.187 314.385 311.245 315.224 310.556 317.228C310.063 318.646 309.802 321.3 309.974 323.112C310.169 325.225 310.977 327.478 312.221 329.369C313.29 330.993 315.815 333.244 317.837 334.371C320.335 335.768 320.897 336.335 319.595 336.146C318.543 335.996 316.277 335.082 314.567 334.118C312.517 332.964 310.824 331.113 309.604 328.695C308.588 326.679 307.688 323.514 307.597 321.673Z" fill="#F6F7EC"/>
<path d="M377.662 296.237C377.492 295.934 378.954 294.53 380.921 293.114C382.888 291.698 387.314 289.52 390.751 288.279C396.656 286.146 397.19 286.113 400.283 287.601C402.087 288.468 403.753 289.721 403.988 290.392C404.365 291.469 404.139 291.548 401.964 291.102C400.62 290.818 399.151 290.724 398.706 290.88C398.261 291.036 398.133 292.617 398.426 294.387C398.719 296.156 399.266 298.727 399.645 300.094C400.024 301.461 400.172 304.063 399.991 305.88C399.799 307.693 399.602 308.48 399.565 307.62C399.519 306.764 398.82 305.055 398.017 303.827C397.212 302.592 396.1 301.754 395.547 301.966C394.992 302.17 393.147 302.144 391.437 301.907C389.727 301.67 386.008 300.42 383.156 299.129C380.312 297.835 377.84 296.539 377.662 296.237Z" fill="#F6F7EC"/>
<path d="M382.591 486.783L446.125 488.902L441.116 494.661L431.93 495.441L391.126 495.638C357.322 491.175 323.026 492.076 289.504 498.306L285.103 499.124L268.014 504.304C260.775 506.498 254.007 510.02 248.055 514.69L224.56 533.124L230.603 507.624L236.69 491.393C239.594 483.647 243.761 475.811 249.742 470.096L284.973 437.702L288.707 449.631L382.591 486.783Z" fill="#021A22"/>
<path d="M382.422 296.36C382.322 296.022 383.192 295.263 384.36 294.681C385.528 294.099 387.835 293.081 389.48 292.432C391.124 291.783 392.538 291.433 392.614 291.652C392.694 291.878 392.662 293.525 392.313 298.573L387.462 297.774C384.791 297.338 382.522 296.697 382.422 296.36Z" fill="#021A22"/>
<path d="M379.181 506.614L415.718 512.679C425.991 514.384 436.539 513.004 446.028 508.713C454.253 504.994 461.383 499.222 466.734 491.952L467.122 491.425C466.181 497.941 464.644 502.919 462.681 510.114L461.181 513.614L456.181 523.114L450.728 531.339C448.764 534.603 444.036 534.617 442.053 531.364C441.193 529.954 439.7 529.05 438.052 528.943L379.181 525.114L361.754 524.336C319.536 522.45 277.651 532.604 240.983 553.614C231.513 558.249 222.875 564.416 215.415 571.866L192 595.253L193.931 590.751C198.243 580.701 203.733 571.199 210.288 562.445C230.091 535.996 258.726 517.528 290.99 510.399L297.12 509.044C322.535 503.278 348.793 502.23 374.586 505.951L379.181 506.614Z" fill="#021A22"/>
<path d="M227.681 708.614C218.848 708.614 212.015 706.031 207.181 700.864C202.181 695.697 199.681 688.697 199.681 679.864C199.681 677.697 199.848 675.614 200.181 673.614C200.348 671.614 200.598 669.781 200.931 668.114C203.931 653.947 211.515 637.697 223.681 619.364C231.681 607.031 240.598 595.864 250.431 585.864C260.431 575.864 270.681 567.864 281.181 561.864C291.848 555.864 302.098 552.864 311.931 552.864C317.598 552.864 321.765 554.447 324.431 557.614C327.098 560.614 328.431 564.697 328.431 569.864C328.431 575.864 326.931 582.781 323.931 590.614C320.765 598.447 316.848 605.864 312.181 612.864C307.681 619.697 303.265 624.697 298.931 627.864C298.265 628.531 297.515 628.864 296.681 628.864C296.015 628.864 295.681 628.447 295.681 627.614C295.681 625.781 296.848 623.947 299.181 622.114C301.348 620.614 303.681 618.031 306.181 614.364C308.848 610.531 311.348 606.281 313.681 601.614C316.181 596.947 318.181 592.281 319.681 587.614C321.348 582.947 322.181 578.947 322.181 575.614C322.181 567.614 318.181 563.614 310.181 563.614C295.015 563.614 280.348 569.447 266.181 581.114C256.681 588.781 248.015 597.781 240.181 608.114C232.515 618.281 225.931 628.697 220.431 639.364C215.098 650.031 211.181 660.114 208.681 669.614C207.681 673.281 207.181 676.947 207.181 680.614C207.181 687.781 209.265 693.447 213.431 697.614C217.431 701.781 222.931 703.531 229.931 702.864C242.765 701.697 256.931 696.614 272.431 687.614C282.598 681.614 292.431 674.864 301.931 667.364C311.431 659.864 320.265 652.031 328.431 643.864C336.598 635.531 343.681 627.531 349.681 619.864L337.681 621.614C334.015 622.114 330.931 622.697 328.431 623.364C326.098 623.864 324.515 624.281 323.681 624.614C323.348 624.781 322.931 624.864 322.431 624.864C321.431 624.864 320.931 624.114 320.931 622.614C320.931 621.114 321.431 619.364 322.431 617.364C323.598 615.364 324.848 614.031 326.181 613.364C330.681 611.031 341.431 609.281 358.431 608.114C365.765 599.781 373.348 591.447 381.181 583.114C389.515 574.114 396.515 566.447 402.181 560.114C407.848 553.781 412.848 547.947 417.181 542.614C421.681 537.114 426.015 531.447 430.181 525.614C431.515 523.781 432.848 522.864 434.181 522.864C435.181 522.864 435.681 523.364 435.681 524.364C435.681 525.364 435.348 526.197 434.681 526.864C429.015 534.864 423.098 542.697 416.931 550.364C410.765 558.031 403.931 566.197 396.431 574.864C389.098 583.364 380.765 593.031 371.431 603.864L368.181 607.614L379.681 607.114L401.681 606.364C401.515 606.697 402.265 605.197 403.931 601.864C405.598 598.364 408.098 593.031 411.431 585.864C416.098 576.197 420.181 567.614 423.681 560.114C427.348 552.447 430.348 545.864 432.681 540.364C437.515 529.531 440.015 522.031 440.181 517.864C440.348 515.697 441.431 514.031 443.431 512.864C445.431 511.697 447.681 511.114 450.181 511.114C452.015 511.114 453.681 511.447 455.181 512.114C456.848 512.614 462.348 500.281 462.681 501.114C463.515 502.614 458.514 518.614 455.181 525.114C453.014 529.614 449.598 535.781 446.431 541.614C443.265 547.447 439.681 553.947 435.681 561.114C430.181 570.947 425.431 579.614 421.431 587.114C417.598 594.614 414.515 600.947 412.181 606.114L431.431 605.114H432.181C433.681 605.114 434.431 605.614 434.431 606.614C434.431 607.281 434.015 607.947 433.181 608.614C432.348 609.281 431.265 609.697 429.931 609.864L409.681 611.364C409.515 611.697 408.598 613.697 406.931 617.364C405.265 621.031 402.848 626.281 399.681 633.114C393.348 647.114 390.181 659.031 390.181 668.864C390.181 675.531 392.681 678.864 397.681 678.864C399.015 678.864 400.765 678.197 402.931 676.864C405.265 675.697 407.431 674.281 409.431 672.614C411.598 670.947 413.181 669.447 414.181 668.114C415.348 666.447 416.515 665.614 417.681 665.614C418.348 665.614 418.681 665.947 418.681 666.614C418.681 667.447 418.015 668.531 416.681 669.864C415.015 671.697 412.848 673.781 410.181 676.114C407.515 678.447 404.848 680.447 402.181 682.114C399.515 683.781 397.265 684.697 395.431 684.864C384.765 685.531 379.431 680.697 379.431 670.364C379.431 664.197 380.931 657.114 383.931 649.114C387.098 641.114 391.015 631.781 395.681 621.114L399.681 612.114C394.015 612.614 386.265 613.864 376.431 615.864C372.931 616.531 369.765 617.114 366.931 617.614C364.265 617.947 362.015 618.281 360.181 618.614C350.348 629.781 339.765 640.697 328.431 651.364C317.098 662.031 305.515 671.697 293.681 680.364C282.015 689.031 270.515 695.864 259.181 700.864C248.015 706.031 237.515 708.614 227.681 708.614Z" fill="#021A22"/>
<path d="M385.65 743.364C383.983 743.364 382.817 743.197 382.15 742.864C381.65 742.364 381.15 741.781 380.65 741.114C380.15 740.447 379.9 739.864 379.9 739.364C380.233 732.197 382.483 724.031 386.65 714.864C390.817 705.697 396.317 696.114 403.15 686.114C409.817 676.114 416.983 666.531 424.65 657.364C431.483 649.031 436.233 642.781 438.9 638.614C441.067 634.947 443.567 629.614 446.4 622.614C449.4 615.447 452.733 606.697 456.4 596.364C456.733 595.364 457.983 594.697 460.15 594.364C462.817 594.364 464.15 596.364 464.15 600.364C464.15 602.531 463.9 604.114 463.4 605.114C463.233 605.947 462.983 606.781 462.65 607.614C462.483 608.281 462.317 608.781 462.15 609.114C461.65 610.114 461.4 610.781 461.4 611.114C461.4 611.114 461.483 611.364 461.65 611.864C461.817 612.364 461.983 613.031 462.15 613.864C467.65 611.197 472.483 609.114 476.65 607.614C480.817 605.947 484.817 605.114 488.65 605.114C493.15 605.114 496.233 606.614 497.9 609.614C498.4 610.614 498.65 611.864 498.65 613.364C498.65 617.031 497.233 621.697 494.4 627.364C491.567 632.864 487.9 638.614 483.4 644.614C479.067 650.447 474.317 655.697 469.15 660.364C467.317 662.031 464.65 663.864 461.15 665.864C457.817 667.864 454.15 669.697 450.15 671.364C446.317 673.197 442.567 674.697 438.9 675.864C435.4 677.031 432.65 677.614 430.65 677.614C428.483 682.114 426.317 686.447 424.15 690.614C421.983 694.947 419.733 699.114 417.4 703.114C406.733 722.114 397.233 735.364 388.9 742.864C388.567 743.197 387.483 743.364 385.65 743.364ZM435.9 666.864C443.733 665.531 452.067 662.114 460.9 656.614C469.733 651.114 477.067 644.531 482.9 636.864C488.733 629.197 491.4 621.531 490.9 613.864C489.9 610.864 487.817 609.364 484.65 609.364C482.483 609.364 479.733 610.114 476.4 611.614C473.233 613.114 469.983 615.031 466.65 617.364C463.317 619.697 460.317 622.031 457.65 624.364C455.15 626.697 453.4 628.697 452.4 630.364C451.567 631.531 450.567 633.614 449.4 636.614C448.733 637.947 448.233 639.114 447.9 640.114C447.567 641.114 447.317 641.781 447.15 642.114C446.317 644.281 445.317 646.697 444.15 649.364C442.983 651.864 441.733 654.531 440.4 657.364L435.9 666.864ZM388.65 728.614C388.65 729.281 388.817 729.614 389.15 729.614C389.983 729.614 391.483 728.364 393.65 725.864C397.15 722.197 399.817 718.864 401.65 715.864C404.983 710.531 408.15 705.197 411.15 699.864C413.983 694.531 416.733 689.197 419.4 683.864C424.9 673.197 427.233 666.697 426.4 664.364C423.9 666.864 420.983 670.447 417.65 675.114C414.15 679.947 410.65 685.281 407.15 691.114C403.483 696.947 400.15 702.697 397.15 708.364C393.983 714.197 391.567 719.364 389.9 723.864C389.067 726.697 388.65 728.281 388.65 728.614Z" fill="#021A22"/>
<path d="M498.521 675.364C492.021 675.364 488.771 672.447 488.771 666.614C488.771 666.281 488.771 665.697 488.771 664.864C488.938 664.031 489.104 663.031 489.271 661.864C490.938 655.031 494.271 648.447 499.271 642.114C504.438 635.614 510.354 629.947 517.021 625.114C519.521 623.114 523.521 622.114 529.021 622.114C532.188 622.114 534.938 622.614 537.271 623.614C539.771 624.447 541.521 625.781 542.521 627.614C543.521 629.281 544.021 631.197 544.021 633.364C544.021 633.697 543.938 634.197 543.771 634.864C543.771 635.531 543.688 636.281 543.521 637.114C543.854 636.947 544.354 636.864 545.021 636.864C545.854 636.864 546.854 636.781 548.021 636.614C549.188 636.447 550.271 636.281 551.271 636.114C552.438 635.947 553.604 635.864 554.771 635.864H555.771C557.604 635.864 557.771 636.614 556.271 638.114C554.938 639.447 553.104 640.281 550.771 640.614L542.271 641.614C540.604 646.281 537.688 650.947 533.521 655.614C529.521 660.281 525.021 664.364 520.021 667.864C515.188 671.197 510.604 673.364 506.271 674.364C503.771 675.031 501.188 675.364 498.521 675.364ZM530.521 638.114C531.521 638.114 532.688 638.114 534.021 638.114C535.521 637.947 537.188 637.781 539.021 637.614C539.188 637.281 539.271 636.531 539.271 635.364C539.271 632.364 538.021 630.281 535.521 629.114C534.188 628.281 532.521 627.864 530.521 627.864C528.021 627.864 525.438 628.697 522.771 630.364C520.271 631.864 517.604 633.864 514.771 636.364C518.271 637.531 523.521 638.114 530.521 638.114ZM506.021 666.614C507.688 666.614 510.021 665.864 513.021 664.364C516.188 662.697 519.438 660.531 522.771 657.864C526.104 655.197 529.104 652.364 531.771 649.364C532.604 648.531 533.438 647.531 534.271 646.364C535.104 645.031 536.021 643.697 537.021 642.364L531.021 643.114C521.688 644.447 513.354 645.197 506.021 645.364C502.354 651.364 500.104 656.364 499.271 660.364C499.104 662.531 499.688 664.114 501.021 665.114C502.354 666.114 504.021 666.614 506.021 666.614Z" fill="#021A22"/>
<path d="M550.103 687.614C548.27 687.614 546.686 687.031 545.353 685.864C544.186 684.697 543.686 683.281 543.853 681.614C544.186 674.781 545.436 668.197 547.603 661.864C549.936 655.531 553.27 647.947 557.603 639.114C558.103 637.947 558.52 636.947 558.853 636.114C559.353 635.114 559.77 634.281 560.103 633.614C563.77 625.781 567.52 618.281 571.353 611.114C575.186 603.947 579.02 596.947 582.853 590.114L586.353 583.864C590.353 576.697 593.853 570.947 596.853 566.614C599.853 562.114 602.853 558.864 605.853 556.864C609.686 554.531 612.02 553.364 612.853 553.364C614.186 553.364 615.52 554.531 616.853 556.864C617.686 558.531 616.02 562.614 611.853 569.114C609.686 572.447 606.936 576.614 603.603 581.614C600.436 586.614 596.603 592.281 592.103 598.614C591.27 599.781 589.853 601.864 587.853 604.864C586.02 607.697 583.52 611.447 580.353 616.114C577.186 620.781 574.436 625.031 572.103 628.864C569.77 632.531 567.853 635.781 566.353 638.614C563.353 644.114 560.52 650.031 557.853 656.364C555.186 662.531 553.853 667.364 553.853 670.864C553.853 674.031 555.103 675.614 557.603 675.614C561.603 675.614 568.02 672.197 576.853 665.364C577.853 665.531 578.353 666.031 578.353 666.864C578.353 667.531 577.52 668.697 575.853 670.364C574.353 671.864 572.436 673.447 570.103 675.114C567.936 676.947 565.353 679.031 562.353 681.364L558.353 684.364C555.686 686.531 552.936 687.614 550.103 687.614Z" fill="#021A22"/>
<path d="M596.177 675.364C589.677 675.364 586.427 672.447 586.427 666.614C586.427 666.281 586.427 665.697 586.427 664.864C586.594 664.031 586.761 663.031 586.927 661.864C588.594 655.031 591.927 648.447 596.927 642.114C602.094 635.614 608.011 629.947 614.677 625.114C617.177 623.114 621.177 622.114 626.677 622.114C629.844 622.114 632.594 622.614 634.927 623.614C637.427 624.447 639.177 625.781 640.177 627.614C641.177 629.281 641.677 631.197 641.677 633.364C641.677 633.697 641.594 634.197 641.427 634.864C641.427 635.531 641.344 636.281 641.177 637.114C641.511 636.947 642.011 636.864 642.677 636.864C643.511 636.864 644.511 636.781 645.677 636.614C646.844 636.447 647.927 636.281 648.927 636.114C650.094 635.947 657.181 632.614 659.681 630.614C663.684 627.412 676.181 621.114 656.681 639.114C656.14 639.614 650.761 640.281 648.427 640.614L639.927 641.614C638.261 646.281 635.344 650.947 631.177 655.614C627.177 660.281 622.677 664.364 617.677 667.864C612.844 671.197 608.261 673.364 603.927 674.364C601.427 675.031 598.844 675.364 596.177 675.364ZM628.177 638.114C629.177 638.114 630.344 638.114 631.677 638.114C633.177 637.947 634.844 637.781 636.677 637.614C636.844 637.281 636.927 636.531 636.927 635.364C636.927 632.364 635.677 630.281 633.177 629.114C631.844 628.281 630.177 627.864 628.177 627.864C625.677 627.864 623.094 628.697 620.427 630.364C617.927 631.864 615.261 633.864 612.427 636.364C615.927 637.531 621.177 638.114 628.177 638.114ZM603.677 666.614C605.344 666.614 607.677 665.864 610.677 664.364C613.844 662.697 617.094 660.531 620.427 657.864C623.761 655.197 626.761 652.364 629.427 649.364C630.261 648.531 631.094 647.531 631.927 646.364C632.761 645.031 633.677 643.697 634.677 642.364L628.677 643.114C619.344 644.447 611.011 645.197 603.677 645.364C600.011 651.364 597.761 656.364 596.927 660.364C596.761 662.531 597.344 664.114 598.677 665.114C600.011 666.114 601.677 666.614 603.677 666.614Z" fill="#021A22"/>
<path d="M646.729 676.799C645.229 680.299 647.982 685.114 653.229 685.114C658.475 685.114 662.729 680.861 662.729 675.614C662.729 670.367 658.475 666.114 653.229 666.114C647.982 666.114 641.229 671.299 646.729 676.799Z" fill="#021A22"/>
<path d="M431.656 736.472L431.8 735.032H431.944C432.568 735.576 433.272 736 434.056 736.304C434.84 736.608 435.616 736.76 436.384 736.76C437.472 736.76 438.352 736.464 439.024 735.872C439.696 735.264 440.032 734.456 440.032 733.448C440.032 732.888 439.904 732.368 439.648 731.888C439.408 731.408 439 730.92 438.424 730.424C437.864 729.928 437.088 729.392 436.096 728.816C435.408 728.416 434.752 728 434.128 727.568C433.504 727.12 432.992 726.608 432.592 726.032C432.192 725.44 431.992 724.736 431.992 723.92C431.992 722.704 432.432 721.728 433.312 720.992C434.192 720.24 435.352 719.864 436.792 719.864C437.432 719.864 438.12 719.936 438.856 720.08C439.592 720.208 440.16 720.376 440.56 720.584L440.44 721.928H440.296C439.384 720.936 438.216 720.44 436.792 720.44C435.768 720.44 434.944 720.704 434.32 721.232C433.696 721.744 433.384 722.44 433.384 723.32C433.384 723.976 433.552 724.544 433.888 725.024C434.24 725.488 434.688 725.912 435.232 726.296C435.776 726.664 436.36 727.024 436.984 727.376C437.704 727.792 438.4 728.232 439.072 728.696C439.76 729.16 440.32 729.72 440.752 730.376C441.2 731.016 441.424 731.824 441.424 732.8C441.424 733.696 441.216 734.488 440.8 735.176C440.384 735.848 439.792 736.376 439.024 736.76C438.272 737.144 437.392 737.336 436.384 737.336C435.744 737.336 434.992 737.256 434.128 737.096C433.264 736.936 432.44 736.728 431.656 736.472ZM446.151 737V720.2H453.471V721.376L449.271 720.824C448.535 720.728 448.039 720.68 447.783 720.68V728C447.991 728 448.487 727.976 449.271 727.928L453.207 727.688V728.792L449.271 728.552C448.487 728.504 447.991 728.48 447.783 728.48V736.52C448.071 736.52 448.575 736.472 449.295 736.376L453.543 735.824V737H446.151ZM458.573 720.2H461.789C463.485 720.2 464.797 720.56 465.725 721.28C466.669 721.984 467.141 722.976 467.141 724.256C467.141 725.248 466.845 726.072 466.253 726.728C465.677 727.384 464.837 727.824 463.733 728.048V728.192C464.789 728.4 465.653 728.896 466.325 729.68C466.997 730.464 467.501 731.432 467.837 732.584C468.141 733.64 468.437 734.464 468.725 735.056C469.029 735.632 469.357 736.048 469.709 736.304C470.077 736.56 470.509 736.744 471.005 736.856V737H470.021C469.317 737 468.733 736.872 468.269 736.616C467.821 736.36 467.437 735.928 467.117 735.32C466.797 734.712 466.493 733.872 466.205 732.8C465.741 731.152 465.125 729.984 464.357 729.296C463.589 728.608 462.653 728.264 461.549 728.264H461.405V727.832H461.549C464.125 727.832 465.413 726.648 465.413 724.28C465.413 721.944 464.205 720.776 461.789 720.776H460.205V737H458.573V720.2ZM470.94 720.2H472.74L479.292 735.128H479.436L484.932 720.2H486.732L479.1 737.336H478.572L470.94 720.2ZM490.472 737V720.2H492.104V737H490.472ZM511.739 734.936L511.595 736.4C511.147 736.592 510.603 736.76 509.963 736.904C509.323 737.048 508.675 737.152 508.019 737.216C507.363 737.296 506.779 737.336 506.267 737.336C504.971 737.336 503.771 737.12 502.667 736.688C501.563 736.24 500.595 735.624 499.763 734.84C498.947 734.056 498.307 733.136 497.843 732.08C497.379 731.008 497.147 729.848 497.147 728.6C497.147 727.352 497.379 726.2 497.843 725.144C498.307 724.072 498.947 723.144 499.763 722.36C500.595 721.576 501.563 720.968 502.667 720.536C503.771 720.088 504.971 719.864 506.267 719.864C506.795 719.864 507.387 719.904 508.043 719.984C508.699 720.064 509.339 720.176 509.963 720.32C510.587 720.448 511.115 720.6 511.547 720.776L511.427 722.12H511.283C510.691 721.576 509.947 721.16 509.051 720.872C508.155 720.584 507.227 720.44 506.267 720.44C504.827 720.44 503.555 720.784 502.451 721.472C501.363 722.144 500.507 723.096 499.883 724.328C499.275 725.544 498.971 726.968 498.971 728.6C498.971 730.248 499.275 731.68 499.883 732.896C500.507 734.112 501.363 735.064 502.451 735.752C503.539 736.424 504.811 736.76 506.267 736.76C507.355 736.76 508.363 736.584 509.291 736.232C510.235 735.88 511.003 735.448 511.595 734.936H511.739ZM505.187 738.824L505.955 736.904H506.483L505.955 738.248C507.459 738.536 508.211 739.208 508.211 740.264C508.211 740.872 508.003 741.36 507.587 741.728C507.171 742.096 506.611 742.28 505.907 742.28C505.667 742.28 505.419 742.248 505.163 742.184C504.923 742.136 504.579 742.04 504.131 741.896L504.251 741.488C504.683 741.632 505.075 741.704 505.427 741.704C505.843 741.704 506.171 741.584 506.411 741.344C506.651 741.12 506.771 740.808 506.771 740.408C506.771 739.544 506.243 739.016 505.187 738.824ZM515.334 728.6C515.334 727.368 515.55 726.224 515.982 725.168C516.43 724.096 517.046 723.168 517.83 722.384C518.63 721.584 519.558 720.968 520.614 720.536C521.686 720.088 522.838 719.864 524.07 719.864C525.302 719.864 526.446 720.088 527.502 720.536C528.574 720.968 529.502 721.584 530.286 722.384C531.086 723.168 531.702 724.096 532.134 725.168C532.582 726.224 532.806 727.368 532.806 728.6C532.806 729.832 532.582 730.984 532.134 732.056C531.702 733.112 531.086 734.04 530.286 734.84C529.502 735.624 528.574 736.24 527.502 736.688C526.446 737.12 525.302 737.336 524.07 737.336C522.838 737.336 521.686 737.12 520.614 736.688C519.558 736.24 518.63 735.624 517.83 734.84C517.046 734.04 516.43 733.112 515.982 732.056C515.55 730.984 515.334 729.832 515.334 728.6ZM517.158 728.6C517.158 730.232 517.446 731.664 518.022 732.896C518.598 734.112 519.406 735.064 520.446 735.752C521.486 736.424 522.694 736.76 524.07 736.76C525.446 736.76 526.654 736.424 527.694 735.752C528.734 735.064 529.542 734.104 530.118 732.872C530.694 731.64 530.982 730.216 530.982 728.6C530.982 726.984 530.694 725.568 530.118 724.352C529.542 723.12 528.734 722.16 527.694 721.472C526.654 720.784 525.446 720.44 524.07 720.44C522.694 720.44 521.486 720.784 520.446 721.472C519.422 722.144 518.614 723.096 518.022 724.328C517.446 725.544 517.158 726.968 517.158 728.6ZM536.375 736.472L536.519 735.032H536.663C537.287 735.576 537.991 736 538.775 736.304C539.559 736.608 540.335 736.76 541.103 736.76C542.191 736.76 543.071 736.464 543.743 735.872C544.415 735.264 544.751 734.456 544.751 733.448C544.751 732.888 544.623 732.368 544.367 731.888C544.127 731.408 543.719 730.92 543.143 730.424C542.583 729.928 541.807 729.392 540.815 728.816C540.127 728.416 539.471 728 538.847 727.568C538.223 727.12 537.711 726.608 537.311 726.032C536.911 725.44 536.711 724.736 536.711 723.92C536.711 722.704 537.151 721.728 538.031 720.992C538.911 720.24 540.071 719.864 541.511 719.864C542.151 719.864 542.839 719.936 543.575 720.08C544.311 720.208 544.879 720.376 545.279 720.584L545.159 721.928H545.015C544.103 720.936 542.935 720.44 541.511 720.44C540.487 720.44 539.663 720.704 539.039 721.232C538.415 721.744 538.103 722.44 538.103 723.32C538.103 723.976 538.271 724.544 538.607 725.024C538.959 725.488 539.407 725.912 539.951 726.296C540.495 726.664 541.079 727.024 541.703 727.376C542.423 727.792 543.119 728.232 543.791 728.696C544.479 729.16 545.039 729.72 545.471 730.376C545.919 731.016 546.143 731.824 546.143 732.8C546.143 733.696 545.935 734.488 545.519 735.176C545.103 735.848 544.511 736.376 543.743 736.76C542.991 737.144 542.111 737.336 541.103 737.336C540.463 737.336 539.711 737.256 538.847 737.096C537.983 736.936 537.159 736.728 536.375 736.472ZM557.339 737V720.2H564.395V721.376L560.411 720.824C559.691 720.728 559.211 720.68 558.971 720.68V728.192C559.227 728.192 559.723 728.168 560.459 728.12L564.131 727.88V728.984L560.459 728.744C559.723 728.696 559.227 728.672 558.971 728.672V737H557.339ZM568.841 720.2H570.473V730.328C570.473 732.264 570.945 733.776 571.889 734.864C572.849 735.936 574.193 736.472 575.921 736.472C577.009 736.472 577.953 736.264 578.753 735.848C579.569 735.416 580.193 734.824 580.625 734.072C581.073 733.32 581.281 732.456 581.249 731.48L580.841 720.2H582.473L582.065 731.48C582.001 733.4 581.425 734.856 580.337 735.848C579.265 736.84 577.729 737.336 575.729 737.336C573.569 737.336 571.881 736.712 570.665 735.464C569.449 734.2 568.841 732.472 568.841 730.28V720.2ZM587.869 737L588.469 719.864H588.757L600.829 734.456H600.973L600.445 720.2H602.077L601.477 737.336H601.189L589.117 722.744H588.973L589.501 737H587.869ZM607.964 737V720.2H615.284V721.376L611.084 720.824C610.348 720.728 609.852 720.68 609.596 720.68V728C609.804 728 610.3 727.976 611.084 727.928L615.02 727.688V728.792L611.084 728.552C610.3 728.504 609.804 728.48 609.596 728.48V736.52C609.884 736.52 610.388 736.472 611.108 736.376L615.356 735.824V737H607.964ZM620.386 720.2H623.602C625.298 720.2 626.61 720.56 627.538 721.28C628.482 721.984 628.954 722.976 628.954 724.256C628.954 725.248 628.658 726.072 628.066 726.728C627.49 727.384 626.65 727.824 625.546 728.048V728.192C626.602 728.4 627.466 728.896 628.138 729.68C628.81 730.464 629.314 731.432 629.65 732.584C629.954 733.64 630.25 734.464 630.538 735.056C630.842 735.632 631.17 736.048 631.522 736.304C631.89 736.56 632.322 736.744 632.818 736.856V737H631.834C631.13 737 630.546 736.872 630.082 736.616C629.634 736.36 629.25 735.928 628.93 735.32C628.61 734.712 628.306 733.872 628.018 732.8C627.554 731.152 626.938 729.984 626.17 729.296C625.402 728.608 624.466 728.264 623.362 728.264H623.218V727.832H623.362C625.938 727.832 627.226 726.648 627.226 724.28C627.226 721.944 626.018 720.776 623.602 720.776H622.018V737H620.386V720.2ZM634.015 737L640.471 720.2H641.959L648.415 737H646.663L643.687 729.128H638.239L635.767 737H634.015ZM640.639 721.448L638.407 728.552H643.471L640.783 721.448H640.639ZM639.823 718.4L642.151 715.472H644.311V715.616L640.135 718.688L639.823 718.4ZM652.308 720.2H655.523C657.22 720.2 658.532 720.56 659.46 721.28C660.404 721.984 660.876 722.976 660.876 724.256C660.876 725.248 660.58 726.072 659.988 726.728C659.412 727.384 658.572 727.824 657.468 728.048V728.192C658.524 728.4 659.388 728.896 660.06 729.68C660.732 730.464 661.236 731.432 661.572 732.584C661.876 733.64 662.172 734.464 662.46 735.056C662.764 735.632 663.092 736.048 663.444 736.304C663.812 736.56 664.244 736.744 664.74 736.856V737H663.756C663.052 737 662.468 736.872 662.004 736.616C661.556 736.36 661.172 735.928 660.852 735.32C660.532 734.712 660.228 733.872 659.94 732.8C659.476 731.152 658.86 729.984 658.092 729.296C657.324 728.608 656.388 728.264 655.284 728.264H655.14V727.832H655.284C657.86 727.832 659.148 726.648 659.148 724.28C659.148 721.944 657.94 720.776 655.523 720.776H653.94V737H652.308V720.2ZM667.706 737V720.2H669.338V737H667.706ZM674.381 728.6C674.381 727.368 674.597 726.224 675.029 725.168C675.477 724.096 676.093 723.168 676.877 722.384C677.677 721.584 678.605 720.968 679.661 720.536C680.733 720.088 681.885 719.864 683.117 719.864C684.349 719.864 685.493 720.088 686.549 720.536C687.621 720.968 688.549 721.584 689.333 722.384C690.133 723.168 690.749 724.096 691.181 725.168C691.629 726.224 691.853 727.368 691.853 728.6C691.853 729.832 691.629 730.984 691.181 732.056C690.749 733.112 690.133 734.04 689.333 734.84C688.549 735.624 687.621 736.24 686.549 736.688C685.493 737.12 684.349 737.336 683.117 737.336C681.885 737.336 680.733 737.12 679.661 736.688C678.605 736.24 677.677 735.624 676.877 734.84C676.093 734.04 675.477 733.112 675.029 732.056C674.597 730.984 674.381 729.832 674.381 728.6ZM676.205 728.6C676.205 730.232 676.493 731.664 677.069 732.896C677.645 734.112 678.453 735.064 679.493 735.752C680.533 736.424 681.741 736.76 683.117 736.76C684.493 736.76 685.701 736.424 686.741 735.752C687.781 735.064 688.589 734.104 689.165 732.872C689.741 731.64 690.029 730.216 690.029 728.6C690.029 726.984 689.741 725.568 689.165 724.352C688.589 723.12 687.781 722.16 686.741 721.472C685.701 720.784 684.493 720.44 683.117 720.44C681.741 720.44 680.533 720.784 679.493 721.472C678.469 722.144 677.661 723.096 677.069 724.328C676.493 725.544 676.205 726.968 676.205 728.6ZM695.422 736.472L695.566 735.032H695.71C696.334 735.576 697.038 736 697.822 736.304C698.606 736.608 699.382 736.76 700.15 736.76C701.238 736.76 702.118 736.464 702.79 735.872C703.462 735.264 703.798 734.456 703.798 733.448C703.798 732.888 703.67 732.368 703.414 731.888C703.174 731.408 702.766 730.92 702.19 730.424C701.63 729.928 700.854 729.392 699.862 728.816C699.174 728.416 698.518 728 697.894 727.568C697.27 727.12 696.758 726.608 696.358 726.032C695.958 725.44 695.758 724.736 695.758 723.92C695.758 722.704 696.198 721.728 697.078 720.992C697.958 720.24 699.118 719.864 700.558 719.864C701.198 719.864 701.886 719.936 702.622 720.08C703.358 720.208 703.926 720.376 704.326 720.584L704.206 721.928H704.062C703.15 720.936 701.982 720.44 700.558 720.44C699.534 720.44 698.71 720.704 698.086 721.232C697.462 721.744 697.15 722.44 697.15 723.32C697.15 723.976 697.318 724.544 697.654 725.024C698.006 725.488 698.454 725.912 698.998 726.296C699.542 726.664 700.126 727.024 700.75 727.376C701.47 727.792 702.166 728.232 702.838 728.696C703.526 729.16 704.086 729.72 704.518 730.376C704.966 731.016 705.19 731.824 705.19 732.8C705.19 733.696 704.982 734.488 704.566 735.176C704.15 735.848 703.558 736.376 702.79 736.76C702.038 737.144 701.158 737.336 700.15 737.336C699.51 737.336 698.758 737.256 697.894 737.096C697.03 736.936 696.206 736.728 695.422 736.472Z" fill="black"/>
</svg>
