<svg width="268" height="82" viewBox="0 0 268 82" fill="none" xmlns="http://www.w3.org/2000/svg">
<path d="M101.728 49.3286C100.416 49.3286 99.2076 49.1126 98.1036 48.6806C96.9996 48.2486 96.0396 47.6486 95.2236 46.8806C94.4076 46.0966 93.7756 45.1846 93.3276 44.1446C92.8796 43.0886 92.6556 41.9366 92.6556 40.6886C92.6556 39.4406 92.8796 38.2966 93.3276 37.2566C93.7756 36.2006 94.4076 35.2886 95.2236 34.5206C96.0396 33.7366 96.9996 33.1286 98.1036 32.6966C99.2076 32.2646 100.408 32.0486 101.704 32.0486C103.016 32.0486 104.216 32.2646 105.304 32.6966C106.408 33.1286 107.368 33.7366 108.184 34.5206C109 35.2886 109.632 36.2006 110.08 37.2566C110.528 38.2966 110.752 39.4406 110.752 40.6886C110.752 41.9366 110.528 43.0886 110.08 44.1446C109.632 45.2006 109 46.1126 108.184 46.8806C107.368 47.6486 106.408 48.2486 105.304 48.6806C104.216 49.1126 103.024 49.3286 101.728 49.3286ZM101.704 46.5926C102.552 46.5926 103.336 46.4486 104.056 46.1606C104.776 45.8726 105.4 45.4646 105.928 44.9366C106.456 44.3926 106.864 43.7686 107.152 43.0646C107.456 42.3446 107.608 41.5526 107.608 40.6886C107.608 39.8246 107.456 39.0406 107.152 38.3366C106.864 37.6166 106.456 36.9926 105.928 36.4646C105.4 35.9206 104.776 35.5046 104.056 35.2166C103.336 34.9286 102.552 34.7846 101.704 34.7846C100.856 34.7846 100.072 34.9286 99.3516 35.2166C98.6476 35.5046 98.0236 35.9206 97.4796 36.4646C96.9516 36.9926 96.5356 37.6166 96.2316 38.3366C95.9436 39.0406 95.7996 39.8246 95.7996 40.6886C95.7996 41.5366 95.9436 42.3206 96.2316 43.0406C96.5356 43.7606 96.9516 44.3926 97.4796 44.9366C98.0076 45.4646 98.6316 45.8726 99.3516 46.1606C100.072 46.4486 100.856 46.5926 101.704 46.5926ZM114.059 49.0886V32.2886H117.179V46.4486H125.963V49.0886H114.059ZM130.796 49.0886V42.4406L131.492 44.3606L124.196 32.2886H127.532L133.388 42.0086H131.516L137.42 32.2886H140.492L133.196 44.3606L133.916 42.4406V49.0886H130.796ZM142.324 49.0886V32.2886H144.892L152.236 44.5526H150.892L158.116 32.2886H160.684L160.708 49.0886H157.756L157.732 36.9206H158.356L152.212 47.1686H150.82L144.58 36.9206H145.3V49.0886H142.324ZM165.246 49.0886V32.2886H172.158C173.646 32.2886 174.918 32.5286 175.974 33.0086C177.046 33.4886 177.87 34.1766 178.446 35.0726C179.022 35.9686 179.31 37.0326 179.31 38.2646C179.31 39.4966 179.022 40.5606 178.446 41.4566C177.87 42.3526 177.046 43.0406 175.974 43.5206C174.918 44.0006 173.646 44.2406 172.158 44.2406H166.974L168.366 42.7766V49.0886H165.246ZM168.366 43.1126L166.974 41.6006H172.014C173.39 41.6006 174.422 41.3126 175.11 40.7366C175.814 40.1446 176.166 39.3206 176.166 38.2646C176.166 37.1926 175.814 36.3686 175.11 35.7926C174.422 35.2166 173.39 34.9286 172.014 34.9286H166.974L168.366 33.3926V43.1126ZM190.532 49.3286C189.22 49.3286 188.012 49.1126 186.908 48.6806C185.804 48.2486 184.844 47.6486 184.028 46.8806C183.212 46.0966 182.58 45.1846 182.132 44.1446C181.684 43.0886 181.46 41.9366 181.46 40.6886C181.46 39.4406 181.684 38.2966 182.132 37.2566C182.58 36.2006 183.212 35.2886 184.028 34.5206C184.844 33.7366 185.804 33.1286 186.908 32.6966C188.012 32.2646 189.212 32.0486 190.508 32.0486C191.82 32.0486 193.02 32.2646 194.108 32.6966C195.212 33.1286 196.172 33.7366 196.988 34.5206C197.804 35.2886 198.436 36.2006 198.884 37.2566C199.332 38.2966 199.556 39.4406 199.556 40.6886C199.556 41.9366 199.332 43.0886 198.884 44.1446C198.436 45.2006 197.804 46.1126 196.988 46.8806C196.172 47.6486 195.212 48.2486 194.108 48.6806C193.02 49.1126 191.828 49.3286 190.532 49.3286ZM190.508 46.5926C191.356 46.5926 192.14 46.4486 192.86 46.1606C193.58 45.8726 194.204 45.4646 194.732 44.9366C195.26 44.3926 195.668 43.7686 195.956 43.0646C196.26 42.3446 196.412 41.5526 196.412 40.6886C196.412 39.8246 196.26 39.0406 195.956 38.3366C195.668 37.6166 195.26 36.9926 194.732 36.4646C194.204 35.9206 193.58 35.5046 192.86 35.2166C192.14 34.9286 191.356 34.7846 190.508 34.7846C189.66 34.7846 188.876 34.9286 188.156 35.2166C187.452 35.5046 186.828 35.9206 186.284 36.4646C185.756 36.9926 185.34 37.6166 185.036 38.3366C184.748 39.0406 184.604 39.8246 184.604 40.6886C184.604 41.5366 184.748 42.3206 185.036 43.0406C185.34 43.7606 185.756 44.3926 186.284 44.9366C186.812 45.4646 187.436 45.8726 188.156 46.1606C188.876 46.4486 189.66 46.5926 190.508 46.5926Z" fill="white"/>
<path d="M206.6 49.0886V33.8246H200.696V32.2886H214.28V33.8246H208.376V49.0886H206.6ZM218.701 39.8006H227.581V41.3126H218.701V39.8006ZM218.893 47.5526H228.997V49.0886H217.117V32.2886H228.637V33.8246H218.893V47.5526ZM240.421 49.2326C239.157 49.2326 237.989 49.0246 236.917 48.6086C235.845 48.1766 234.917 47.5766 234.133 46.8086C233.349 46.0406 232.733 45.1366 232.285 44.0966C231.853 43.0566 231.637 41.9206 231.637 40.6886C231.637 39.4566 231.853 38.3206 232.285 37.2806C232.733 36.2406 233.349 35.3366 234.133 34.5686C234.933 33.8006 235.869 33.2086 236.941 32.7926C238.013 32.3606 239.181 32.1446 240.445 32.1446C241.661 32.1446 242.805 32.3526 243.877 32.7686C244.949 33.1686 245.853 33.7766 246.589 34.5926L245.461 35.7206C244.773 35.0166 244.013 34.5126 243.181 34.2086C242.349 33.8886 241.453 33.7286 240.493 33.7286C239.485 33.7286 238.549 33.9046 237.685 34.2566C236.821 34.5926 236.069 35.0806 235.429 35.7206C234.789 36.3446 234.285 37.0806 233.917 37.9286C233.565 38.7606 233.389 39.6806 233.389 40.6886C233.389 41.6966 233.565 42.6246 233.917 43.4726C234.285 44.3046 234.789 45.0406 235.429 45.6806C236.069 46.3046 236.821 46.7926 237.685 47.1446C238.549 47.4806 239.485 47.6486 240.493 47.6486C241.453 47.6486 242.349 47.4886 243.181 47.1686C244.013 46.8486 244.773 46.3366 245.461 45.6326L246.589 46.7606C245.853 47.5766 244.949 48.1926 243.877 48.6086C242.805 49.0246 241.653 49.2326 240.421 49.2326ZM262.663 32.2886H264.415V49.0886H262.663V32.2886ZM252.151 49.0886H250.375V32.2886H252.151V49.0886ZM262.831 41.3366H251.959V39.7766H262.831V41.3366Z" fill="white"/>
<path d="M7.6534 12.4221L35.1557 12.4221L58.912 12.4221" stroke="white" stroke-width="3.6" stroke-linecap="round"/>
<path d="M51.1648 12.5213L51.4903 15.1251C51.7756 17.4075 53.1871 19.3945 55.2484 20.4153C57.5812 21.5705 60.3671 21.3041 62.4385 19.7276L62.541 19.6496C63.2947 19.0761 63.9252 18.3567 64.3951 17.5344L64.6393 17.107C65.9792 14.7623 65.9322 11.8731 64.5168 9.57308C63.9673 8.68006 63.2339 7.91432 62.3654 7.32681L61.7734 6.92635C60.0029 5.72869 57.9144 5.08862 55.7769 5.08862L33.5996 5.08862" stroke="white" stroke-width="3.6"/>
<path d="M16.2475 12.5213L15.922 15.1251C15.6367 17.4075 14.2251 19.3945 12.1638 20.4153C9.8311 21.5705 7.04522 21.3041 4.97374 19.7276L4.87126 19.6496C4.1176 19.0761 3.48706 18.3567 3.01717 17.5344L2.77296 17.107C1.43308 14.7623 1.48005 11.8731 2.89543 9.57308C3.44498 8.68006 4.1784 7.91432 5.04691 7.32681L5.63889 6.92635C7.40934 5.72869 9.49787 5.08862 11.6354 5.08862L37.6901 5.08862" stroke="white" stroke-width="3.6"/>
<path d="M20.5996 68.5886V19.0886H46.5996V68.5886" stroke="white" stroke-width="4" stroke-linecap="round"/>
<path d="M29.0996 73.5886V27.0886" stroke="white" stroke-width="4" stroke-linecap="round"/>
<path d="M38.0996 73.5886V27.0886" stroke="white" stroke-width="4" stroke-linecap="round"/>
<path d="M15.0996 66.5886L34.0996 76.0886L51.5996 66.5886" stroke="white" stroke-width="4" stroke-linecap="round"/>
<path d="M82.2873 0C82.1873 1.36055 82.0923 2.72111 82.0023 4.08166C81.1923 16.3266 80.7873 28.5716 80.7873 40.8166C80.7873 53.0616 81.1923 65.3066 82.0023 77.5516C82.0923 78.9121 82.1873 80.2727 82.2873 81.6332C82.3873 80.2727 82.4823 78.9121 82.5723 77.5516C83.3823 65.3066 83.7873 53.0616 83.7873 40.8166C83.7873 28.5716 83.3823 16.3266 82.5723 4.08166C82.4823 2.72111 82.3873 1.36055 82.2873 0Z" fill="url(#paint0_linear_44_46)"/>
<defs>
<linearGradient id="paint0_linear_44_46" x1="82.7873" y1="0" x2="82.7065" y2="73.5917" gradientUnits="userSpaceOnUse">
<stop stop-color="white" stop-opacity="0.01"/>
<stop offset="0.423951" stop-color="white"/>
<stop offset="0.726922" stop-color="white"/>
<stop offset="1" stop-color="white" stop-opacity="0.01"/>
</linearGradient>
</defs>
</svg>
