<svg width="138" height="137" viewBox="0 0 138 137" fill="none" xmlns="http://www.w3.org/2000/svg">
<path d="M40.33 92.15C39.51 92.15 38.755 92.015 38.065 91.745C37.375 91.475 36.775 91.1 36.265 90.62C35.755 90.13 35.36 89.56 35.08 88.91C34.8 88.25 34.66 87.53 34.66 86.75C34.66 85.97 34.8 85.255 35.08 84.605C35.36 83.945 35.755 83.375 36.265 82.895C36.775 82.405 37.375 82.025 38.065 81.755C38.755 81.485 39.505 81.35 40.315 81.35C41.135 81.35 41.885 81.485 42.565 81.755C43.255 82.025 43.855 82.405 44.365 82.895C44.875 83.375 45.27 83.945 45.55 84.605C45.83 85.255 45.97 85.97 45.97 86.75C45.97 87.53 45.83 88.25 45.55 88.91C45.27 89.57 44.875 90.14 44.365 90.62C43.855 91.1 43.255 91.475 42.565 91.745C41.885 92.015 41.14 92.15 40.33 92.15ZM40.315 90.44C40.845 90.44 41.335 90.35 41.785 90.17C42.235 89.99 42.625 89.735 42.955 89.405C43.285 89.065 43.54 88.675 43.72 88.235C43.91 87.785 44.005 87.29 44.005 86.75C44.005 86.21 43.91 85.72 43.72 85.28C43.54 84.83 43.285 84.44 42.955 84.11C42.625 83.77 42.235 83.51 41.785 83.33C41.335 83.15 40.845 83.06 40.315 83.06C39.785 83.06 39.295 83.15 38.845 83.33C38.405 83.51 38.015 83.77 37.675 84.11C37.345 84.44 37.085 84.83 36.895 85.28C36.715 85.72 36.625 86.21 36.625 86.75C36.625 87.28 36.715 87.77 36.895 88.22C37.085 88.67 37.345 89.065 37.675 89.405C38.005 89.735 38.395 89.99 38.845 90.17C39.295 90.35 39.785 90.44 40.315 90.44ZM48.037 92V81.5H49.987V90.35H55.477V92H48.037ZM58.4978 92V87.845L58.9328 89.045L54.3728 81.5H56.4578L60.1178 87.575H58.9478L62.6378 81.5H64.5578L59.9978 89.045L60.4478 87.845V92H58.4978ZM65.703 92V81.5H67.308L71.898 89.165H71.058L75.573 81.5H77.178L77.193 92H75.348L75.333 84.395H75.723L71.883 90.8H71.013L67.113 84.395H67.563V92H65.703ZM80.0291 92V81.5H84.3491C85.2791 81.5 86.0741 81.65 86.7341 81.95C87.4041 82.25 87.9191 82.68 88.2791 83.24C88.6391 83.8 88.8191 84.465 88.8191 85.235C88.8191 86.005 88.6391 86.67 88.2791 87.23C87.9191 87.79 87.4041 88.22 86.7341 88.52C86.0741 88.82 85.2791 88.97 84.3491 88.97H81.1091L81.9791 88.055V92H80.0291ZM81.9791 88.265L81.1091 87.32H84.2591C85.1191 87.32 85.7641 87.14 86.1941 86.78C86.6341 86.41 86.8541 85.895 86.8541 85.235C86.8541 84.565 86.6341 84.05 86.1941 83.69C85.7641 83.33 85.1191 83.15 84.2591 83.15H81.1091L81.9791 82.19V88.265ZM95.8329 92.15C95.0129 92.15 94.2579 92.015 93.5679 91.745C92.8779 91.475 92.2779 91.1 91.7679 90.62C91.2579 90.13 90.8629 89.56 90.5829 88.91C90.3029 88.25 90.1629 87.53 90.1629 86.75C90.1629 85.97 90.3029 85.255 90.5829 84.605C90.8629 83.945 91.2579 83.375 91.7679 82.895C92.2779 82.405 92.8779 82.025 93.5679 81.755C94.2579 81.485 95.0079 81.35 95.8179 81.35C96.6379 81.35 97.3879 81.485 98.0679 81.755C98.7579 82.025 99.3579 82.405 99.8679 82.895C100.378 83.375 100.773 83.945 101.053 84.605C101.333 85.255 101.473 85.97 101.473 86.75C101.473 87.53 101.333 88.25 101.053 88.91C100.773 89.57 100.378 90.14 99.8679 90.62C99.3579 91.1 98.7579 91.475 98.0679 91.745C97.3879 92.015 96.6429 92.15 95.8329 92.15ZM95.8179 90.44C96.3479 90.44 96.8379 90.35 97.2879 90.17C97.7379 89.99 98.1279 89.735 98.4579 89.405C98.7879 89.065 99.0429 88.675 99.2229 88.235C99.4129 87.785 99.5079 87.29 99.5079 86.75C99.5079 86.21 99.4129 85.72 99.2229 85.28C99.0429 84.83 98.7879 84.44 98.4579 84.11C98.1279 83.77 97.7379 83.51 97.2879 83.33C96.8379 83.15 96.3479 83.06 95.8179 83.06C95.2879 83.06 94.7979 83.15 94.3479 83.33C93.9079 83.51 93.5179 83.77 93.1779 84.11C92.8479 84.44 92.5879 84.83 92.3979 85.28C92.2179 85.72 92.1279 86.21 92.1279 86.75C92.1279 87.28 92.2179 87.77 92.3979 88.22C92.5879 88.67 92.8479 89.065 93.1779 89.405C93.5079 89.735 93.8979 89.99 94.3479 90.17C94.7979 90.35 95.2879 90.44 95.8179 90.44Z" fill="#A17F55"/>
<path d="M50.75 109V99.46H47.06V98.5H55.55V99.46H51.86V109H50.75ZM58.3133 103.195H63.8633V104.14H58.3133V103.195ZM58.4333 108.04H64.7483V109H57.3233V98.5H64.5233V99.46H58.4333V108.04ZM71.8882 109.09C71.0982 109.09 70.3682 108.96 69.6982 108.7C69.0282 108.43 68.4482 108.055 67.9582 107.575C67.4682 107.095 67.0832 106.53 66.8032 105.88C66.5332 105.23 66.3982 104.52 66.3982 103.75C66.3982 102.98 66.5332 102.27 66.8032 101.62C67.0832 100.97 67.4682 100.405 67.9582 99.925C68.4582 99.445 69.0432 99.075 69.7132 98.815C70.3832 98.545 71.1132 98.41 71.9032 98.41C72.6632 98.41 73.3782 98.54 74.0482 98.8C74.7182 99.05 75.2832 99.43 75.7432 99.94L75.0382 100.645C74.6082 100.205 74.1332 99.89 73.6132 99.7C73.0932 99.5 72.5332 99.4 71.9332 99.4C71.3032 99.4 70.7182 99.51 70.1782 99.73C69.6382 99.94 69.1682 100.245 68.7682 100.645C68.3682 101.035 68.0532 101.495 67.8232 102.025C67.6032 102.545 67.4932 103.12 67.4932 103.75C67.4932 104.38 67.6032 104.96 67.8232 105.49C68.0532 106.01 68.3682 106.47 68.7682 106.87C69.1682 107.26 69.6382 107.565 70.1782 107.785C70.7182 107.995 71.3032 108.1 71.9332 108.1C72.5332 108.1 73.0932 108 73.6132 107.8C74.1332 107.6 74.6082 107.28 75.0382 106.84L75.7432 107.545C75.2832 108.055 74.7182 108.44 74.0482 108.7C73.3782 108.96 72.6582 109.09 71.8882 109.09ZM85.7894 98.5H86.8844V109H85.7894V98.5ZM79.2194 109H78.1094V98.5H79.2194V109ZM85.8944 104.155H79.0994V103.18H85.8944V104.155Z" fill="#A17F55"/>
<path d="M52.272 35.4414L68.9283 35.4414L83.316 35.4414" stroke="#A17F55" stroke-width="2" stroke-linecap="round"/>
<path d="M78.624 35.5015L78.8211 37.0784C78.9939 38.4607 79.8488 39.6641 81.0972 40.2824C82.5099 40.982 84.1972 40.8206 85.4517 39.8659L85.5138 39.8186C85.9702 39.4713 86.3521 39.0356 86.6367 38.5376L86.7846 38.2788C87.5961 36.8587 87.5676 35.1089 86.7104 33.7159C86.3776 33.1751 85.9334 32.7113 85.4074 32.3555L85.0489 32.113C83.9766 31.3876 82.7118 31 81.4172 31L67.9859 31" stroke="#A17F55" stroke-width="2"/>
<path d="M57.4769 35.5015L57.2797 37.0784C57.107 38.4607 56.2521 39.6641 55.0037 40.2824C53.5909 40.982 51.9037 40.8206 50.6491 39.8659L50.587 39.8186C50.1306 39.4713 49.7487 39.0356 49.4641 38.5376L49.3162 38.2788C48.5048 36.8587 48.5332 35.1089 49.3904 33.7159C49.7232 33.1751 50.1674 32.7113 50.6934 32.3555L51.0519 32.113C52.1242 31.3876 53.3891 31 54.6836 31L70.4632 31" stroke="#A17F55" stroke-width="2"/>
<path d="M60.1127 69.4579V39.479H75.8591V69.4579" stroke="#A17F55" stroke-width="2"/>
<path d="M65.2606 72.486V44.324" stroke="#A17F55" stroke-width="2" stroke-linecap="round"/>
<path d="M70.7113 72.486V44.324" stroke="#A17F55" stroke-width="2" stroke-linecap="round"/>
<path d="M56.7817 68.2466L68.2887 74.0001L78.8873 68.2466" stroke="#A17F55" stroke-width="2" stroke-linecap="round"/>
<path d="M49.7512 131.68C50.0871 130.394 50.4251 129.127 50.5037 128.863C50.5802 128.6 50.7078 128.389 50.7843 128.396C50.8608 128.402 51.9747 128.68 53.2608 129.014C55.5864 129.618 55.5991 129.626 55.529 130.226C55.4907 130.558 55.4418 130.855 55.4227 130.889C55.4036 130.921 54.5745 130.749 53.5797 130.507C52.587 130.264 51.6899 130.096 51.5857 130.13C51.4837 130.164 51.2732 130.67 51.1181 131.255C50.9629 131.839 50.8311 132.532 50.8247 132.796C50.8183 133.155 50.9863 133.325 51.5071 133.476C51.8876 133.589 53.6328 133.965 55.3866 134.314C57.1403 134.662 58.9578 134.996 59.4255 135.058C59.8932 135.119 61.7277 135.292 63.5048 135.443C65.2798 135.596 66.7827 135.67 66.8465 135.613C66.9103 135.555 66.9868 134.79 67.0187 133.912C67.0761 132.347 67.0676 132.318 66.5468 132.275C66.2555 132.252 65.2734 132.179 62.7204 131.999V130.723L65.537 130.855C67.0867 130.927 68.3749 131 68.4026 131.015C68.4281 131.029 68.3792 132.358 68.1411 136.89H66.1216C65.012 136.888 63.2901 136.788 62.2953 136.663C61.3025 136.539 60.059 136.393 59.5318 136.34C59.0067 136.286 57.9545 136.144 57.1935 136.023C56.4346 135.902 54.43 135.498 52.7421 135.124C51.0543 134.75 49.5514 134.348 49.4047 134.231C49.1943 134.063 49.2665 133.525 49.7512 131.68Z" fill="#A17F55"/>
<path d="M83.8717 129.006C84.6901 128.789 85.7891 128.474 86.3163 128.306C86.8435 128.138 87.3685 127.99 87.4855 127.975C87.6024 127.96 88.0573 129.172 88.4952 130.664C88.9331 132.158 89.2923 133.476 89.2923 133.593C89.2945 133.71 88.3634 134.065 87.2219 134.384C86.0803 134.703 83.9524 135.198 82.4899 135.487C81.0295 135.774 79.4501 136.067 78.9824 136.136C78.5148 136.206 77.5582 136.357 76.8567 136.471C76.1552 136.586 74.4099 136.75 72.9772 136.837C70.4603 136.988 70.371 136.979 70.3689 136.569C70.3668 136.335 70.2754 134.996 70.1627 133.593C70.05 132.19 69.9799 131.017 70.0054 130.987C70.033 130.955 71.1065 130.849 72.3926 130.751C73.6787 130.651 74.85 130.604 74.9967 130.647C75.1433 130.689 75.2624 130.987 75.2645 131.308C75.2645 131.893 75.2645 131.893 73.2982 132.052C72.2162 132.139 71.3255 132.235 71.3191 132.265C71.3149 132.294 71.3616 133.036 71.5423 135.506L73.1366 135.447C74.0124 135.413 75.5919 135.285 76.6441 135.16C77.6964 135.034 79.9433 134.654 81.6396 134.312C83.336 133.967 85.4171 133.476 86.2674 133.215C87.411 132.866 87.7873 132.66 87.7193 132.424C87.6661 132.248 87.4748 131.555 87.2899 130.883C87.1049 130.211 86.8817 129.663 86.7946 129.665C86.7074 129.667 85.7742 129.901 84.722 130.183C83.6697 130.466 82.745 130.632 82.6685 130.551C82.5898 130.47 82.4942 130.177 82.4559 129.901C82.39 129.442 82.5154 129.363 83.8717 129.006Z" fill="#A17F55"/>
<path d="M69.204 128.579C71.4254 128.57 74.1038 128.438 75.1561 128.287C76.2083 128.136 77.1883 128 77.335 127.988C77.4816 127.973 77.6475 128.27 77.7049 128.651C77.7622 129.031 77.9047 130.084 78.0237 130.989C78.1406 131.895 78.2405 132.9 78.2427 133.221C78.2448 133.755 78.1576 133.821 77.2329 133.967C76.6739 134.057 75.5026 134.188 73.0303 134.392L72.924 133.734C72.8199 133.094 72.8433 133.072 73.7743 132.951C74.3015 132.881 75.2092 132.758 75.7938 132.675C76.8524 132.526 76.8567 132.524 76.7972 131.784C76.7653 131.376 76.693 130.683 76.6377 130.245C76.5591 129.616 76.4592 129.467 76.1658 129.542C75.9617 129.593 74.7416 129.695 73.4555 129.769C72.1694 129.841 70.4475 129.935 69.6291 129.975C68.8107 130.018 66.6106 129.96 64.7399 129.848C62.8692 129.735 61.2898 129.705 61.2324 129.777C61.175 129.852 61.09 130.5 61.0453 131.221C60.9794 132.277 61.0305 132.56 61.3111 132.69C61.5024 132.777 62.5185 132.921 63.5729 133.009C65.4818 133.168 65.4882 133.17 65.486 133.753C65.4839 134.082 65.3457 134.384 65.165 134.444C64.9907 134.503 64.6315 134.507 64.3679 134.454C64.1043 134.401 63.0776 134.301 62.0827 134.231C61.0878 134.163 60.1079 134.061 59.9038 134.008C59.6593 133.946 59.536 133.712 59.5424 133.327C59.5467 133.006 59.6678 131.771 59.8081 130.585C59.9484 129.399 60.1121 128.368 60.1695 128.294C60.2269 128.221 61.377 128.26 62.7204 128.379C64.0639 128.498 66.9826 128.589 69.204 128.579Z" fill="#A17F55"/>
<path d="M39.7665 127.779C39.7687 127.679 40.2937 126.482 40.9336 125.122C41.5755 123.759 42.1474 122.646 42.2069 122.646C42.2643 122.646 42.5768 122.779 42.8978 122.943C43.2188 123.107 44.5835 123.687 45.927 124.231C47.2704 124.778 49.7576 125.634 51.4539 126.138C53.1503 126.642 55.4695 127.235 56.611 127.454C58.5858 127.834 58.6857 127.879 58.6687 128.385C58.6581 128.678 58.4391 129.969 57.71 133.593L56.9724 133.527C56.5685 133.491 55.3759 133.249 54.3237 132.992C52.5189 132.547 52.4148 132.492 52.4722 131.995C52.5062 131.703 52.6018 131.401 52.6847 131.323C52.7676 131.242 53.6009 131.361 54.5363 131.586C55.4716 131.812 56.3325 131.997 56.4494 132.001C56.5664 132.003 56.7811 131.406 56.9256 130.672C57.0702 129.941 57.1892 129.223 57.1913 129.076C57.1935 128.929 56.9788 128.808 56.7152 128.808C56.4516 128.806 54.9465 128.479 53.3671 128.083C51.7877 127.686 49.3494 126.933 47.9464 126.408C46.5434 125.885 44.8683 125.252 44.2264 124.999C43.5844 124.746 42.9785 124.52 42.885 124.497C42.7894 124.472 42.4301 125.05 42.0879 125.781C41.6096 126.797 41.5245 127.152 41.7286 127.29C41.8753 127.39 42.7596 127.781 43.6949 128.162C44.6303 128.542 45.4742 128.916 45.572 128.991C45.6697 129.067 45.6336 129.369 45.4912 129.66C45.3488 129.954 45.2212 130.22 45.2063 130.251C45.1936 130.285 44.322 129.962 43.2698 129.535C42.2175 129.11 40.9973 128.581 40.5594 128.36C40.1215 128.141 39.7644 127.879 39.7665 127.779Z" fill="#A17F55"/>
<path d="M89.7175 124.756C91.1779 124.197 93.091 123.402 93.969 122.988L95.5633 122.237L98.0419 127.428L97.5466 127.788C97.2745 127.985 96.2627 128.487 95.2976 128.904C94.3325 129.32 93.4248 129.663 93.2781 129.667C93.1314 129.669 92.8933 129.431 92.7467 129.135C92.4873 128.608 92.5107 128.583 93.9158 127.934C94.7045 127.569 95.5654 127.186 96.3073 126.897L95.7461 125.675C95.4379 125.003 95.1275 124.376 95.0552 124.28C94.9851 124.187 93.8733 124.533 92.5872 125.052C91.3012 125.57 89.4369 126.291 88.442 126.652C87.4472 127.012 85.2959 127.649 83.6591 128.068C82.0222 128.487 80.6575 128.848 80.6256 128.872C80.5937 128.897 80.6894 129.563 80.8382 130.353C81.0295 131.374 81.2017 131.79 81.427 131.788C81.6013 131.786 82.5579 131.591 83.5528 131.353C84.5476 131.117 85.4787 130.974 85.6254 131.036C85.7721 131.097 85.8911 131.387 85.8911 131.68C85.8911 132.118 85.7487 132.247 85.094 132.411C84.6561 132.522 83.7228 132.751 83.0213 132.921C82.3199 133.091 81.3866 133.289 80.9487 133.359C80.3004 133.463 80.1346 133.417 80.0602 133.115C80.0113 132.911 79.8604 132.169 79.7264 131.467C79.5946 130.766 79.3969 129.856 79.2907 129.448C79.1822 129.04 79.0951 128.489 79.093 128.226C79.0887 127.817 79.2524 127.715 80.2047 127.53C80.8191 127.411 82.6111 126.967 84.1905 126.544C85.7699 126.119 88.255 125.315 89.7175 124.756Z" fill="#A17F55"/>
<path d="M30.9255 123.039C31.6185 121.946 32.3753 120.783 32.6048 120.456C32.9875 119.914 33.0619 119.888 33.47 120.163C33.7145 120.326 34.6817 120.921 35.617 121.483C36.5524 122.046 37.3431 122.511 37.3772 122.522C37.409 122.531 37.3134 122.805 37.1646 123.13C37.0137 123.455 36.7968 123.719 36.6799 123.719C36.563 123.717 35.7616 123.26 33.3361 121.689L32.9875 122.167C32.7962 122.429 32.4008 123.09 32.1095 123.634C31.5994 124.588 31.593 124.635 31.9756 124.858C32.1946 124.986 32.9131 125.432 33.5699 125.849C34.2289 126.268 35.7701 127.139 36.9988 127.788C38.2253 128.434 40.2831 129.42 41.5691 129.979C42.8552 130.538 44.4325 131.172 45.0766 131.391C45.7186 131.61 46.3011 131.716 46.3712 131.627C46.4392 131.54 46.7028 130.87 46.9558 130.139C47.2088 129.407 47.3916 128.772 47.3618 128.727C47.3321 128.683 46.8793 128.498 46.3521 128.319C45.8249 128.143 44.9406 127.796 44.3858 127.552C43.8309 127.309 43.376 127.061 43.376 127.003C43.376 126.944 43.4951 126.655 43.6418 126.357C43.7884 126.059 44.0031 125.862 44.12 125.919C44.237 125.976 45.3381 126.419 46.5647 126.903C47.7912 127.388 48.869 127.824 48.9561 127.873C49.0433 127.922 48.8158 128.748 48.4481 129.714C48.0803 130.679 47.6254 131.888 47.4383 132.403C47.2492 132.919 47.0004 133.376 46.8835 133.421C46.7666 133.468 45.3785 132.987 43.8012 132.358C42.2217 131.727 39.8303 130.672 38.4868 130.015C37.1433 129.359 35.4193 128.472 34.6604 128.045C33.8994 127.618 32.5666 126.827 31.6971 126.285C30.8277 125.745 30.0136 125.241 29.8903 125.164C29.7521 125.079 30.1539 124.257 30.9255 123.039Z" fill="#A17F55"/>
<path d="M100.88 121.902C101.078 121.785 102.109 121.096 103.174 120.373C104.239 119.648 105.174 119.123 105.25 119.204C105.329 119.285 106.075 120.38 106.908 121.636C107.742 122.892 108.42 123.993 108.416 124.08C108.409 124.168 108.052 124.472 107.618 124.756C107.185 125.041 105.586 126.03 104.066 126.952C102.546 127.875 99.868 129.335 98.1143 130.196C96.3605 131.057 94.1837 132.054 93.2782 132.411C92.0048 132.913 91.5882 133.002 91.4415 132.796C91.3352 132.649 90.8102 131.406 90.2724 130.033C89.7324 128.659 89.3498 127.463 89.4199 127.375C89.4922 127.288 89.8515 127.11 90.2171 126.98C90.5848 126.85 91.5924 126.468 92.4534 126.13C94.0073 125.522 94.0243 125.52 94.3177 125.941C94.4813 126.174 94.5898 126.451 94.5579 126.555C94.526 126.657 93.7352 127.071 92.7999 127.473C91.8645 127.875 91.0759 128.245 91.0461 128.294C91.0164 128.345 91.2332 129.055 92.0559 131.361L92.9593 131.01C93.4567 130.819 95.0107 130.16 96.4137 129.548C97.8167 128.934 99.9211 127.881 101.09 127.207C102.259 126.534 104.005 125.471 106.724 123.708L106.369 123.124C106.173 122.803 105.767 122.176 105.465 121.734C105.163 121.289 104.917 120.928 104.917 120.93C104.917 120.932 104.103 121.464 103.11 122.11C102.117 122.754 101.256 123.285 101.197 123.29C101.139 123.292 100.963 123.03 100.805 122.705C100.557 122.186 100.565 122.089 100.88 121.902Z" fill="#A17F55"/>
<path d="M22.8095 116.083C22.8392 115.981 23.715 114.98 24.7588 113.858C25.8004 112.738 26.7102 111.87 26.7782 111.934C26.8463 111.996 27.4755 112.553 28.177 113.171C28.8785 113.79 30.2666 114.946 31.2593 115.741C32.2542 116.538 33.976 117.782 35.0857 118.507C36.1974 119.232 37.9193 120.288 38.912 120.854C39.9069 121.419 40.7678 121.917 40.8252 121.959C40.8847 122.002 40.7529 122.342 40.5361 122.714C40.3193 123.086 39.7071 124.204 39.1777 125.197C38.6484 126.189 38.1808 127.027 38.1383 127.057C38.0957 127.086 37.6557 126.906 37.1583 126.657C36.6609 126.408 35.6086 125.834 34.82 125.381C34.0313 124.929 33.3851 124.512 33.3851 124.453C33.3851 124.395 33.5041 124.104 33.6508 123.808C33.7975 123.513 33.9888 123.275 34.0759 123.277C34.1631 123.281 34.9539 123.715 35.8297 124.24C36.7076 124.767 37.4963 125.156 37.5834 125.109C37.6706 125.06 38.0298 124.48 38.3806 123.817C39.0119 122.624 39.0141 122.607 38.5932 122.301C38.3593 122.129 37.2114 121.402 36.0423 120.686C34.8731 119.969 33.2001 118.853 32.3222 118.205C31.4464 117.557 30.2496 116.645 29.665 116.177C29.0804 115.709 28.1897 114.942 26.7655 113.611L24.6589 115.95L25.4624 116.694C25.9024 117.104 26.6953 117.784 28.177 118.974L27.7518 119.527C27.518 119.833 27.2799 120.086 27.2204 120.093C27.163 120.099 26.1341 119.24 24.9352 118.186C23.7363 117.131 22.7797 116.185 22.8095 116.083Z" fill="#A17F55"/>
<path d="M107.893 113.913C109.062 112.905 110.176 111.887 110.371 111.651C110.713 111.232 110.767 111.268 112.71 113.222C113.8 114.323 114.723 115.337 114.757 115.48C114.791 115.622 114.172 116.311 113.383 117.012C112.593 117.714 111.704 118.5 110.869 119.231L109.912 118.181L110.816 117.357C111.313 116.904 112.006 116.292 112.994 115.46L112.038 114.398C111.513 113.813 110.986 113.326 110.869 113.315C110.752 113.305 110.32 113.607 109.912 113.987C109.504 114.368 108.69 115.071 108.105 115.552C107.521 116.032 106.326 116.961 105.448 117.614C104.572 118.268 103.662 118.957 103.429 119.149C103.195 119.338 102.023 120.061 100.824 120.751C99.6256 121.442 98.6456 122.057 98.6456 122.114C98.6456 122.174 98.956 122.792 99.3365 123.494C99.717 124.193 100.1 124.767 100.187 124.769C100.274 124.769 101.207 124.246 104.173 122.433L104.81 123.708L103.694 124.427C103.08 124.82 101.932 125.49 101.143 125.915C100.355 126.338 99.6766 126.661 99.6383 126.631C99.6001 126.601 99.3726 126.242 99.1345 125.834C98.8943 125.426 98.3841 124.516 98.0015 123.815C97.6167 123.113 97.1746 122.324 97.0173 122.061C96.7452 121.602 96.7919 121.551 98.1673 120.798C98.956 120.369 100.272 119.584 101.09 119.057C101.909 118.53 103.297 117.569 104.173 116.923C105.05 116.275 106.723 114.92 107.893 113.913Z" fill="#A17F55"/>
<path d="M14.9781 109.593C15.4373 109.23 16.4407 108.386 17.2102 107.716C17.9818 107.045 18.7067 106.494 18.8236 106.49C18.9405 106.483 19.27 106.794 19.5528 107.176C19.8376 107.559 20.5561 108.424 22.2248 110.333L21.2385 111.273L19.9248 109.806C18.9469 108.713 18.5303 108.384 18.2922 108.518C18.1179 108.616 17.5652 109.036 17.0678 109.453C16.5682 109.87 16.1622 110.306 16.1664 110.422C16.1686 110.539 16.6575 111.209 17.2506 111.911C17.8458 112.612 19.2552 114.132 20.3839 115.288C21.5127 116.447 23.394 118.224 24.5632 119.24C25.7323 120.254 26.9546 121.27 27.2799 121.493C27.603 121.719 27.8921 121.853 27.9197 121.795C27.9474 121.738 28.3746 121.187 28.8699 120.573C29.3652 119.959 29.7713 119.408 29.7713 119.351C29.7713 119.293 29.0549 118.67 28.1769 117.969C27.3011 117.267 26.5826 116.598 26.5826 116.481C26.5826 116.364 26.7506 116.081 26.9546 115.854C27.3181 115.448 27.3628 115.469 29.0761 116.864C30.0391 117.648 31.0318 118.43 31.2827 118.607C31.7354 118.921 31.7248 118.945 30.2134 120.839C29.3737 121.891 28.5617 122.943 28.4086 123.177C28.1748 123.536 28.0515 123.566 27.6221 123.364C27.3436 123.232 26.302 122.471 25.3072 121.672C24.3123 120.873 21.9634 118.685 20.0842 116.808C18.2072 114.933 16.1027 112.691 14.147 110.252L14.9781 109.593Z" fill="#A17F55"/>
<path d="M115.439 109.679L117.165 107.553C118.115 106.384 118.976 105.427 119.078 105.427C119.18 105.427 120.271 106.241 121.497 107.234C123.472 108.832 123.7 109.083 123.464 109.413C123.317 109.617 123.149 109.834 123.09 109.891C123.032 109.948 122.696 110.38 122.348 110.848C121.997 111.315 121.293 112.176 120.783 112.761C120.273 113.345 118.694 115.008 117.274 116.453C115.856 117.899 113.787 119.88 112.676 120.856C111.564 121.831 110.56 122.635 110.444 122.641C110.327 122.65 109.802 122.157 109.274 121.547C108.747 120.939 107.888 119.927 107.361 119.3C106.413 118.169 106.409 118.156 106.83 117.778C107.064 117.567 107.948 116.808 108.796 116.088C110.293 114.819 110.35 114.791 110.769 115.152C111.007 115.356 111.2 115.62 111.198 115.737C111.198 115.854 110.571 116.477 109.806 117.119C109.041 117.761 108.42 118.383 108.426 118.5C108.433 118.617 108.866 119.215 109.387 119.829C110.229 120.817 110.382 120.915 110.735 120.679C110.954 120.533 111.693 119.935 112.378 119.351C113.062 118.766 114.725 117.189 116.073 115.843C117.42 114.498 119.289 112.453 121.923 109.192L120.966 108.361C120.439 107.904 119.867 107.442 119.691 107.336C119.446 107.187 119.097 107.468 118.203 108.535C117.561 109.302 116.914 110.089 116.77 110.282C116.527 110.605 116.462 110.595 115.439 109.679Z" fill="#A17F55"/>
<path d="M13.5093 97.7785C14.2108 97.3959 14.8676 97.0048 14.9697 96.907C15.0696 96.8092 15.2141 96.7582 15.2885 96.7964C15.3608 96.8326 15.7987 97.5213 16.2558 98.3291C16.7149 99.1348 17.6588 100.655 18.3539 101.707C19.049 102.759 20.25 104.434 21.0238 105.427C21.7976 106.42 23.1687 108.048 25.709 110.848L24.7099 111.764C24.1614 112.268 23.2027 113.177 21.4426 114.887L19.6548 112.973C18.6727 111.921 17.865 110.965 17.8607 110.848C17.8565 110.731 18.0499 110.444 18.7238 109.785L21.5871 112.891L23.9255 110.744L23.3919 110.263C23.0964 109.999 22.227 109.02 21.4575 108.084C20.688 107.149 19.4933 105.618 18.8045 104.683C18.1137 103.748 17.0465 102.194 16.4322 101.229C15.8179 100.264 15.3204 99.4026 15.3247 99.3155C15.3311 99.2283 15.1865 99.037 15.0058 98.8903C14.7358 98.6714 14.4999 98.7266 13.6687 99.1922C13.1139 99.5047 12.5399 99.8405 12.3933 99.9362C12.1913 100.07 12.2636 100.355 12.6994 101.122C13.0119 101.677 13.5539 102.561 14.5339 104.045L14.0216 104.426C13.7389 104.636 13.437 104.804 13.3499 104.798C13.2627 104.794 12.8078 104.169 12.3401 103.408C11.8725 102.647 11.4898 101.977 11.4898 101.92C11.4898 101.862 11.2496 101.454 10.9584 101.016C10.665 100.578 10.4142 100.062 10.3993 99.8682C10.3844 99.6598 10.7543 99.3027 11.3049 98.9923C11.8151 98.7054 12.8078 98.1591 13.5093 97.7785Z" fill="#A17F55"/>
<path d="M120.86 98.0931C121.308 97.2747 121.761 96.4882 121.865 96.3457C122.016 96.1438 122.21 96.1629 122.735 96.4286C123.107 96.6178 124.248 97.2364 125.271 97.804C126.74 98.6203 127.105 98.9158 127.007 99.2091C126.942 99.4132 126.368 100.465 125.732 101.547C125.099 102.629 124.461 103.512 124.314 103.507C124.167 103.503 123.857 103.365 123.623 103.197C123.209 102.902 123.221 102.855 124.204 101.237C124.756 100.327 125.211 99.5089 125.213 99.4217C125.215 99.3345 124.667 98.9732 123.995 98.6203C123.323 98.2674 122.701 97.9804 122.613 97.9826C122.526 97.9847 122.15 98.5374 121.778 99.2091C121.406 99.8809 120.526 101.292 119.822 102.345C119.117 103.397 117.924 105.072 117.167 106.065C116.413 107.057 115.32 108.399 113.69 110.21L114.776 111.22C115.375 111.774 115.937 112.231 116.024 112.236C116.111 112.238 116.71 111.609 117.352 110.835C117.994 110.061 118.64 109.268 118.785 109.075C119.025 108.754 119.095 108.769 119.574 109.253C120.007 109.691 120.054 109.846 119.842 110.129C119.701 110.318 118.866 111.298 117.99 112.308C117.112 113.316 116.3 114.138 116.183 114.134C116.066 114.128 115.635 113.828 115.227 113.467C114.818 113.105 113.879 112.223 111.798 110.21L112.727 109.253C113.237 108.728 114.087 107.772 114.614 107.128C115.141 106.486 116.147 105.193 116.851 104.258C117.554 103.322 118.56 101.888 119.089 101.069C119.616 100.251 120.413 98.9115 120.86 98.0931Z" fill="#A17F55"/>
<path d="M6.91945 90.2341C7.50403 89.9748 8.22041 89.658 8.51376 89.5284C8.80499 89.4008 9.17912 89.3137 9.34281 89.337C9.50436 89.3583 10.0124 90.2851 10.4716 91.3969C10.9286 92.5087 11.3538 93.5609 11.4133 93.7352C11.4792 93.9329 11.3134 94.154 10.9733 94.3198C10.6735 94.4665 10.4036 94.5898 10.3738 94.594C10.344 94.5983 10.0634 94.0477 9.75095 93.3717C9.43847 92.6936 9.12598 91.8773 9.06008 91.5563C8.99418 91.2353 8.81987 90.9718 8.67319 90.9718C8.52652 90.9739 7.83352 91.2077 7.13202 91.4947C6.43053 91.7817 5.82469 92.1388 5.7843 92.2897C5.74391 92.4428 6.06277 93.3802 6.49217 94.373C6.92157 95.3678 7.85265 97.3278 8.56053 98.7307C9.26841 100.134 10.1697 101.783 10.563 102.398C10.9563 103.012 11.2772 103.563 11.2772 103.62C11.2772 103.677 11.5408 104.132 11.8618 104.63C12.1828 105.127 12.5208 105.629 12.6122 105.746C12.7057 105.863 12.8971 106.126 13.0374 106.332C13.2776 106.681 13.3817 106.651 14.4659 105.933C15.11 105.506 15.7179 105.097 15.8178 105.027C15.9178 104.955 15.5096 104.13 14.9123 103.195C14.3128 102.259 13.8239 101.375 13.826 101.229C13.826 101.082 14.0832 100.844 14.3957 100.697C14.7528 100.531 14.9867 100.51 15.0271 100.644C15.0611 100.761 15.7137 101.79 16.479 102.929C17.2421 104.069 17.8671 105.051 17.8671 105.108C17.8671 105.165 16.7914 105.929 15.4756 106.8C14.1598 107.674 13.0119 108.39 12.9247 108.394C12.8375 108.399 12.1594 107.47 11.4175 106.33C10.6757 105.191 9.6808 103.588 9.20676 102.77C8.73272 101.951 7.73574 100.038 6.99172 98.5182C6.24984 96.9983 5.41229 95.2275 5.13169 94.5855C4.85322 93.9436 4.4472 92.9615 4.23037 92.4066C4.01355 91.8518 3.90938 91.3608 3.99654 91.3183C4.0837 91.2757 4.53861 91.1206 5.00627 90.9739C5.47394 90.8251 6.33487 90.4935 6.91945 90.2341Z" fill="#A17F55"/>
<path d="M126.334 93.3208C125.991 93.1337 126.036 92.9127 126.897 90.5573C127.409 89.1479 127.936 87.9958 128.066 87.9937C128.194 87.9915 129.448 88.4167 130.851 88.9354C132.254 89.4541 133.432 89.9557 133.468 90.0535C133.502 90.1492 133.083 91.3757 132.532 92.7787C131.984 94.1817 130.885 96.6689 130.09 98.3057C129.297 99.9425 128.245 101.998 127.751 102.876C127.258 103.752 126.463 105.072 125.983 105.805C125.505 106.541 125.039 107.138 124.952 107.134C124.865 107.13 124.433 106.889 123.995 106.598C123.557 106.309 123.079 105.973 122.932 105.854C122.786 105.737 122.618 105.64 122.56 105.64C122.503 105.64 121.927 105.304 121.285 104.896C120.643 104.487 120.118 104.032 120.122 103.886C120.126 103.739 120.675 102.736 121.344 101.656C122.014 100.574 122.656 99.6874 122.773 99.6853C122.89 99.6832 123.177 99.815 123.411 99.9808C123.825 100.274 123.81 100.321 122.82 101.951C122.006 103.286 121.857 103.669 122.076 103.867C122.225 104.003 122.85 104.411 123.464 104.77C124.314 105.272 124.625 105.363 124.769 105.161C124.873 105.015 125.53 103.939 126.229 102.77C126.931 101.601 127.981 99.6874 128.566 98.5183C129.15 97.3491 129.873 95.8186 130.171 95.1171C130.47 94.4156 130.959 93.1954 131.261 92.4067C131.561 91.6181 131.81 90.8996 131.814 90.8124C131.818 90.7253 131.172 90.4021 130.379 90.0939C129.586 89.7878 128.88 89.5965 128.81 89.6688C128.74 89.7432 128.357 90.6402 127.96 91.6648C127.562 92.6894 127.118 93.5249 126.971 93.5249C126.825 93.5227 126.538 93.4313 126.334 93.3208Z" fill="#A17F55"/>
<path d="M3.53947 80.1304C3.60111 80.073 4.67462 79.82 5.92244 79.5692C7.17238 79.3183 8.40957 79.1036 8.67316 79.0909C8.93675 79.0781 9.18972 79.1865 9.23648 79.3332C9.28538 79.4799 9.67864 81.0827 10.1165 82.8938C10.5523 84.705 11.2219 87.0497 11.6046 88.1019C11.9851 89.1542 12.7929 91.163 13.3966 92.566C14.0003 93.969 14.5402 95.2126 14.5955 95.3295C14.6529 95.4464 13.5454 96.0926 12.1381 96.7644C10.7288 97.4361 9.52984 97.9867 9.47032 97.9867C9.4108 97.9867 8.94313 97.1024 8.42657 96.0204C7.91214 94.9384 7.42534 93.8138 7.34669 93.5226C7.22552 93.0762 7.2978 92.9529 8.40744 92.5001L9.13232 94.1263C9.53196 95.0213 9.93373 95.8503 10.0294 95.9672C10.1378 96.1033 10.631 95.9885 11.4048 95.6484C12.068 95.355 12.6441 95.0446 12.6866 94.9575C12.7312 94.8703 12.3443 93.7224 11.8278 92.4066C11.3133 91.0907 10.5119 88.8672 10.0464 87.4642C9.58298 86.0612 8.98777 84.0056 8.72418 82.8938C8.46058 81.7821 8.18636 80.8 8.11409 80.7086C8.04181 80.6172 7.33606 80.666 6.54528 80.8148C5.7545 80.9637 5.10827 81.1826 5.11252 81.2995C5.11465 81.4164 5.34636 82.4198 5.62908 83.5316C5.90968 84.6433 6.101 85.6233 6.05211 85.7105C6.00322 85.7976 5.67585 85.8699 5.3251 85.8699C4.8383 85.8699 4.66187 85.7572 4.57684 85.3916C4.51519 85.128 4.23246 83.8611 3.94761 82.575C3.66276 81.2889 3.47995 80.1878 3.53947 80.1304Z" fill="#A17F55"/>
<path d="M127.479 80.4492C127.526 80.0985 127.664 79.4501 127.79 79.0058C128.009 78.2257 128.038 78.2065 128.795 78.3277C129.225 78.3957 129.958 78.5382 130.426 78.6466C130.893 78.7529 131.827 78.9399 132.498 79.0611C133.678 79.2715 133.716 79.3013 133.614 79.8646C133.555 80.1856 133.355 81.1677 133.17 82.0435C132.983 82.9215 132.745 83.8525 132.639 84.1161C132.483 84.5009 132.33 84.571 131.861 84.4711C131.54 84.4031 131.261 84.3308 131.244 84.3117C131.227 84.2926 131.391 83.4635 131.61 82.4687C131.831 81.4759 132.011 80.5895 132.016 80.5024C132.018 80.4152 131.661 80.2558 131.223 80.1474C130.785 80.0411 130.115 79.8965 129.735 79.8285C129.276 79.7477 129.016 79.7952 128.957 79.9709C128.91 80.1176 128.617 81.3378 128.306 82.6812C127.998 84.0268 127.42 86.1313 127.024 87.3579C126.631 88.5845 125.917 90.5465 125.441 91.7157C124.967 92.8849 124.573 93.9371 124.571 94.054C124.567 94.1709 125.118 94.5281 125.794 94.8448C126.472 95.1637 127.097 95.4273 127.184 95.4294C127.271 95.4336 127.624 94.7428 127.966 93.8946C128.308 93.0464 128.691 92.0898 128.816 91.7688C129.031 91.2161 129.078 91.1991 129.684 91.45C130.035 91.5967 130.321 91.788 130.321 91.8751C130.319 91.9623 129.837 93.1591 129.246 94.5323C128.655 95.9056 128.104 97.0939 128.024 97.1704C127.941 97.2469 126.776 96.792 125.43 96.1606C124.085 95.5272 122.922 94.9383 122.841 94.8512C122.762 94.764 122.862 94.358 123.06 93.9477C123.26 93.5396 123.874 92.0558 124.423 90.6528C124.973 89.2498 125.658 87.3366 125.945 86.4013C126.232 85.466 126.676 83.8887 126.931 82.8938C127.186 81.9011 127.435 80.8 127.479 80.4492Z" fill="#A17F55"/>
<path d="M2.34906 70.2138C3.4587 70.1458 4.39191 70.0714 4.41742 70.0501C4.44505 70.0289 4.8043 69.9927 5.21457 69.9694C5.66311 69.9438 5.9926 70.0331 6.03724 70.1926C6.07763 70.3392 6.1414 71.0811 6.17754 71.84C6.2158 72.601 6.25407 73.6512 6.26469 74.1783C6.2817 75.103 6.26044 75.1349 5.64398 75.1349C5.08915 75.1349 4.99987 75.052 4.95311 74.4972C4.92335 74.1465 4.85107 73.2621 4.68739 71.2023L3.19086 71.3383C2.37032 71.4127 1.66032 71.485 1.6178 71.4978C1.57528 71.5105 1.51364 71.7125 1.47963 71.9463C1.44774 72.1801 1.49025 73.2324 1.57954 74.2846C1.66669 75.3369 1.87714 77.1055 2.0472 78.2173C2.21726 79.329 2.5425 81.1444 2.76996 82.2562C2.99954 83.368 3.40556 85.0409 3.67553 85.9763C4.09005 87.4154 4.23035 87.6684 4.58535 87.6195C4.81706 87.5876 5.50793 87.4197 6.12227 87.2475C6.73661 87.0732 7.24041 86.8606 7.24254 86.7734C7.24254 86.6863 7.02784 85.7339 6.76425 84.6583C6.49853 83.5848 6.32847 82.6601 6.38799 82.6069C6.44751 82.5538 6.72386 82.4773 7.00658 82.4369C7.44236 82.3731 7.55503 82.49 7.7761 83.2128C7.9164 83.6805 8.26078 84.8517 8.53925 85.8147C8.81772 86.7777 8.99841 87.6131 8.93889 87.6726C8.87937 87.7321 8.1141 87.9766 7.23829 88.2168C6.36035 88.457 5.54832 88.6802 5.4314 88.7142C5.31448 88.7461 4.7873 88.8907 4.26224 89.0331C3.73718 89.1755 3.23975 89.2159 3.1611 89.1224C3.08032 89.0288 2.72744 87.8044 2.37244 86.4014C2.01957 84.9984 1.5349 82.845 1.29681 81.6185C1.06085 80.3919 0.724984 78.381 0.552798 77.1544C0.382738 75.9278 0.165911 73.8935 0.072378 72.635C-0.0381611 71.1406 -0.0211551 70.3477 0.117019 70.3435C0.233935 70.3392 1.23729 70.2818 2.34906 70.2138Z" fill="#A17F55"/>
<path d="M130.798 72.2141C130.887 71.1321 130.963 69.8822 130.968 69.4379L130.978 68.6301L133.572 68.6663C134.998 68.6854 136.391 68.7619 136.665 68.8363C137.16 68.9681 137.164 68.9958 137.022 70.9897C136.943 72.1015 136.739 74.3016 136.567 75.8789C136.397 77.4584 136.027 79.9455 135.746 81.4059C135.464 82.8684 135.039 84.8773 134.8 85.87C134.56 86.8648 134.314 87.7258 134.252 87.7832C134.188 87.8406 132.883 87.5557 131.35 87.1454C129.818 86.7373 128.529 86.3291 128.485 86.242C128.442 86.1548 128.678 85.0537 129.01 83.7974C129.552 81.7418 129.665 81.5058 130.126 81.4484C130.409 81.4123 130.706 81.4612 130.791 81.5547C130.874 81.6482 130.755 82.49 130.528 83.4254C130.298 84.3607 130.111 85.245 130.109 85.3917C130.107 85.5511 130.721 85.7828 131.648 85.9741C132.496 86.1485 133.215 86.2675 133.244 86.2399C133.274 86.2122 133.529 85.2323 133.81 84.0631C134.093 82.8939 134.477 81.1721 134.669 80.2367C134.86 79.3014 135.155 76.9588 135.323 75.0286C135.493 73.1006 135.632 71.1619 135.634 69.9268L134.199 69.8652C133.41 69.8312 132.668 69.8333 132.551 69.8673C132.434 69.9013 132.311 70.6708 132.279 71.5764C132.245 72.482 132.173 73.4365 132.12 73.7C132.041 74.0763 131.873 74.1783 130.638 74.1805L130.798 72.2141Z" fill="#A17F55"/>
<path d="M2.62538 63.2859C2.71679 62.087 2.86134 60.735 2.94212 60.2843L3.09305 59.4617L4.26221 59.5935C4.90419 59.6657 6.00533 59.7784 6.70683 59.8422C7.40833 59.906 8.19698 59.9995 8.46057 60.0526C8.83258 60.127 8.91336 60.2546 8.8262 60.6266C8.76455 60.8902 8.62638 62.0126 8.51797 63.1243C8.40955 64.2361 8.35641 67.1059 8.40105 69.5016C8.44569 71.8973 8.58599 74.6736 8.71354 75.6663C8.84108 76.6611 8.91973 77.4966 8.88785 77.5263C8.85809 77.5561 8.5456 77.6262 8.19485 77.6794C7.8441 77.7325 6.81524 77.8771 5.90967 77.9982C5.0041 78.1173 4.02413 78.2172 3.73077 78.2172C3.40341 78.2172 3.16107 78.0748 3.10155 77.8452C3.04841 77.6411 2.95275 76.946 2.88898 76.304C2.82308 75.662 2.71254 74.6565 2.64239 74.072C2.52122 73.0622 2.54248 73.0006 3.06966 72.8497C3.37365 72.7625 3.72014 72.7391 3.83706 72.7965C3.95398 72.8539 4.10916 73.7871 4.3111 76.8354L5.75449 76.7292C6.5474 76.6718 7.2574 76.574 7.3318 76.5166C7.4062 76.4592 7.36794 75.358 7.24464 74.072C7.12347 72.7859 7.03207 70.0118 7.0427 67.9073C7.05332 65.8028 7.13623 63.507 7.22764 62.8055C7.32117 62.104 7.33605 61.4599 7.26377 61.3727C7.1915 61.2856 6.51126 61.1516 4.3685 60.9412L4.21119 61.766C4.12404 62.2209 4.05176 63.0223 4.04964 63.5495C4.04539 64.0767 3.99649 64.7208 3.94122 64.9844C3.85832 65.3606 3.69038 65.4627 2.45532 65.4648L2.62538 63.2859Z" fill="#A17F55"/>
<path d="M128.045 59.3597C128.068 59.3342 129.186 59.179 130.532 59.0132C131.877 58.8474 133.191 58.7007 133.455 58.6858C133.812 58.6667 133.937 58.7815 133.95 59.1386C133.959 59.4022 134.001 59.8082 134.044 60.0421C134.086 60.2759 134.186 61.2325 134.407 63.8684L133.799 64.0321C133.463 64.1235 133.161 64.1724 133.127 64.1384C133.093 64.1065 132.972 63.2201 132.855 62.1678C132.738 61.1156 132.592 60.2058 132.532 60.1484C132.471 60.0888 131.78 60.1377 130.997 60.2547C130.215 60.3716 129.577 60.5629 129.577 60.6798C129.58 60.7967 129.711 62.661 129.871 64.825C130.117 68.1582 130.117 69.2657 129.869 72.093C129.707 73.9254 129.656 75.5048 129.756 75.6005C129.856 75.694 130.526 75.8449 131.244 75.93C132.205 76.0469 132.59 76.0192 132.696 75.8237C132.777 75.6791 132.896 74.6269 133.083 71.4149L133.755 71.468C134.243 71.5063 134.441 71.6359 134.484 71.9463C134.513 72.1801 134.448 73.328 134.337 74.4972C134.224 75.6664 134.093 76.8143 134.042 77.0481C133.95 77.4626 133.888 77.4669 131.338 77.199C129.901 77.0502 128.606 76.8823 128.459 76.827C128.266 76.7569 128.225 76.3402 128.315 75.2944C128.381 74.5057 128.51 72.8072 128.604 71.5211C128.695 70.2351 128.689 67.6289 128.589 65.7285C128.489 63.828 128.315 61.6279 128.204 60.8392C128.094 60.0506 128.024 59.3831 128.045 59.3597Z" fill="#A17F55"/>
<path d="M1.74961 53.0271C2.10461 51.3903 2.48087 49.8363 2.58078 49.5728C2.68281 49.3092 2.86988 49.0945 2.99742 49.0945C3.12284 49.0945 4.39404 49.4154 5.8183 49.8066C7.8824 50.3742 8.42022 50.6016 8.47549 50.9226C8.51163 51.1458 8.33306 52.045 8.07797 52.9208C7.82501 53.7988 7.54654 54.7553 7.46363 55.0466C7.3786 55.3399 7.24468 55.5546 7.16815 55.5249C7.0895 55.4951 6.83441 55.4717 6.60057 55.4717C6.30084 55.4717 6.17755 55.3314 6.17968 54.9934C6.1818 54.7298 6.37312 53.8221 6.60483 52.974C6.92794 51.7942 6.96408 51.4137 6.76001 51.3499C6.61333 51.3052 6.11165 51.1628 5.64399 51.0353C5.17632 50.9077 4.53009 50.8014 4.2091 50.7993C3.88811 50.7972 3.62452 50.844 3.62452 50.9014C3.62452 50.9587 3.48422 51.5582 3.31204 52.2299C3.14198 52.9017 2.94641 53.786 2.88051 54.1963C2.81461 54.6065 2.67006 55.2273 2.56165 55.578C2.45323 55.9288 2.17476 57.7463 1.94518 59.6169C1.71347 61.4876 1.49664 63.8663 1.45838 64.9037C1.42012 66.0367 1.47751 66.8147 1.60506 66.853C1.72197 66.887 2.46386 66.9699 4.6874 67.1634L4.68952 66.0473C4.68952 65.433 4.7618 64.4275 4.84895 63.8132C4.99563 62.7716 5.04665 62.695 6.17542 62.6993V68.2262L5.48455 68.2624C5.10404 68.2836 4.55347 68.2943 4.26225 68.2879C3.96889 68.2836 2.89326 68.2666 0.0107422 68.2262V66.4725C0.0128679 65.5074 0.112778 63.8578 0.233946 62.8056C0.355114 61.7533 0.599576 59.7912 0.778139 58.4478C0.954576 57.1043 1.39248 54.6639 1.74961 53.0271Z" fill="#A17F55"/>
<path d="M129.399 48.8202C130.198 48.6119 131.425 48.259 132.126 48.0358C132.828 47.8126 133.497 47.6553 133.614 47.6872C133.731 47.7191 134.048 48.5035 134.316 49.4303C134.586 50.355 135.092 52.4531 135.44 54.09C135.789 55.7268 136.254 58.5498 136.476 60.3609C136.697 62.1721 136.933 64.3021 137.001 65.0907C137.09 66.1558 137.054 66.532 136.856 66.549C136.709 66.5618 136.254 66.6 135.846 66.6319C135.438 66.6659 134.169 66.751 130.957 66.9508L130.83 64.9845C130.762 63.9025 130.736 62.7312 130.776 62.3825C130.827 61.9425 130.983 61.7257 131.276 61.6789C131.51 61.6407 131.767 61.6874 131.848 61.7831C131.926 61.8766 132.058 62.7673 132.137 63.7622C132.216 64.757 132.292 65.5946 132.309 65.6243C132.326 65.6562 133.089 65.6094 135.676 65.3565L135.544 63.7622C135.472 62.8863 135.37 61.8809 135.317 61.5301C135.266 61.1794 135.175 60.4141 135.113 59.8295C135.051 59.2449 134.864 58.0014 134.698 57.066C134.533 56.1307 134.19 54.4577 133.937 53.346C133.684 52.2342 133.34 50.8716 133.174 50.3168C132.987 49.696 132.747 49.307 132.551 49.307C132.375 49.307 131.682 49.4622 131.01 49.6514C130.339 49.8406 129.76 50.0085 129.726 50.0234C129.694 50.0383 129.913 51.0076 130.217 52.1768C130.519 53.346 130.738 54.3259 130.702 54.3536C130.668 54.3812 130.358 54.4301 130.013 54.4599C129.393 54.5151 129.388 54.5066 128.795 52.2831C128.468 51.0565 128.143 49.8597 128.075 49.6259C127.964 49.2518 128.123 49.154 129.399 48.8202Z" fill="#A17F55"/>
<path d="M7.22135 43.6739C7.44456 43.0893 7.9186 41.9648 8.27573 41.1761C8.63285 40.3875 9.02399 39.7412 9.14516 39.7412C9.26633 39.7412 10.4631 40.2663 11.8087 40.9104C13.301 41.6247 14.2215 42.1837 14.1726 42.3453C14.1279 42.492 13.5412 43.9502 12.8716 45.5871C12.1999 47.2239 11.2837 49.8067 10.8351 51.3266C10.3887 52.8465 9.80202 55.1487 9.04525 58.7986L6.49435 58.3033C5.09135 58.0333 3.77551 57.7634 3.57144 57.7039C3.22069 57.6039 3.22281 57.4934 3.63308 55.7375C3.87329 54.715 4.16027 53.5182 4.27081 53.0803C4.45787 52.3491 4.52377 52.2938 5.05946 52.4192C5.38045 52.4936 5.67168 52.5659 5.70569 52.5787C5.7397 52.5914 5.57389 53.4864 5.33368 54.5684C4.99782 56.0904 4.95955 56.5581 5.16575 56.6346C5.31243 56.6899 5.863 56.8323 6.38806 56.9492C6.91312 57.0661 7.51258 57.1639 7.71665 57.1682C7.9845 57.1703 8.12267 56.9513 8.2077 56.3753C8.2736 55.9374 8.56483 54.6215 8.85606 53.4523C9.14728 52.2832 9.75525 50.2255 10.2059 48.882C10.6566 47.5385 11.3772 45.6253 11.8045 44.6305C12.2339 43.6356 12.506 42.7577 12.4082 42.6748C12.3125 42.594 11.6833 42.2836 9.78926 41.4418L9.39812 42.239C9.18555 42.6769 8.78591 43.6101 8.51381 44.3116C8.23959 45.0131 8.01001 45.6126 7.99938 45.6466C7.99088 45.6785 7.71665 45.5828 7.39141 45.434C7.06617 45.2831 6.80471 45.0663 6.80683 44.9493C6.81108 44.8324 6.99602 44.2585 7.22135 43.6739Z" fill="#A17F55"/>
<path d="M122.454 41.3526C122.512 41.3015 123.659 40.7276 125.005 40.0771C126.349 39.4266 127.522 38.8931 127.609 38.8931C127.696 38.8909 128.236 39.9666 128.806 41.2824C129.578 43.0638 129.782 43.7355 129.603 43.9162C129.471 44.0501 129.172 44.216 128.938 44.2861C128.574 44.3924 128.428 44.2011 127.93 42.9809C127.609 42.1922 127.212 41.3568 127.046 41.123C126.748 40.7021 126.729 40.7063 125.445 41.3356C124.731 41.6863 124.148 42.0456 124.15 42.1327C124.153 42.2199 124.474 42.9851 124.863 43.8333C125.252 44.6815 126.013 46.6648 126.55 48.2443C127.09 49.8237 127.828 52.2619 128.189 53.6649C128.551 55.0679 128.865 56.2477 128.891 56.286C128.916 56.3242 129.584 56.252 130.373 56.1265C131.512 55.9437 131.807 55.8204 131.805 55.525C131.803 55.3209 131.603 54.292 131.361 53.2398C131 51.6731 130.972 51.299 131.204 51.1714C131.361 51.0843 131.657 51.012 131.861 51.012C132.099 51.0099 132.307 51.2586 132.439 51.6986C132.551 52.0791 132.838 53.2738 133.077 54.3558C133.315 55.4378 133.51 56.4412 133.512 56.5878C133.512 56.7515 132.917 56.962 131.971 57.1342C131.121 57.2893 130.139 57.4955 129.788 57.5933C129.437 57.6911 128.84 57.8271 127.769 58.0227L127.435 56.3753C127.25 55.4697 126.81 53.6267 126.457 52.2832C126.104 50.9397 125.483 48.9776 125.079 47.9254C124.676 46.8731 123.895 44.9834 123.345 43.727C122.796 42.4707 122.395 41.4015 122.454 41.3526Z" fill="#A17F55"/>
<path d="M9.8445 33.0452C10.665 31.6422 11.4792 30.3263 11.6556 30.1223C11.8342 29.9182 12.0106 29.7502 12.0532 29.7502C12.0935 29.7502 12.5825 30.0606 13.1373 30.439C13.6921 30.8174 14.4808 31.3212 14.891 31.5593C15.2992 31.7952 15.9454 32.1779 16.3238 32.4096C16.7043 32.6434 17.0147 32.9049 17.0147 32.992C17.0168 33.0792 16.4854 33.989 15.837 35.0115C15.1886 36.034 14.5424 36.9863 14.4021 37.1266C14.2044 37.3264 14.0365 37.303 13.1479 36.6589L14.1279 35.0646C14.6657 34.1867 15.1057 33.398 15.1057 33.3109C15.1036 33.2237 14.5063 32.7773 12.4464 31.4934L11.8618 32.3224C11.5409 32.7773 10.7118 34.1803 10.0209 35.4366C9.33007 36.693 8.3586 38.5827 7.86118 39.635C7.36588 40.6872 6.87695 41.7395 6.77917 41.9733C6.67926 42.2072 6.27324 43.2105 5.87572 44.2054C5.31665 45.5977 5.20824 46.076 5.39743 46.2886C5.53348 46.4395 6.12231 46.718 6.70689 46.9051C7.29147 47.09 7.86543 47.2813 7.98234 47.3281C8.09926 47.377 8.51803 46.5735 8.91342 45.5446C9.30669 44.5157 9.68932 43.5953 9.76372 43.4975C9.836 43.3997 10.1336 43.4358 10.427 43.5783C10.7182 43.7207 10.9839 43.8482 11.0137 43.8631C11.0456 43.8759 10.6438 44.9876 10.123 46.3311C9.60217 47.6746 9.0516 48.8076 8.89854 48.848C8.74549 48.8863 7.90157 48.6609 7.02576 48.3442C6.14782 48.0275 4.97228 47.5662 4.41108 47.3153C3.66707 46.9858 3.42686 46.7754 3.52677 46.5437C3.60117 46.3694 3.93279 45.5084 4.26228 44.6305C4.59177 43.7547 5.19123 42.2709 5.59512 41.3356C5.99902 40.4003 6.78342 38.7252 7.34037 37.6155C7.89731 36.5059 9.02396 34.4482 9.8445 33.0452Z" fill="#A17F55"/>
<path d="M119.265 31.8758C119.265 31.7589 120.341 30.9511 121.657 30.0817C122.973 29.2122 124.072 28.4959 124.101 28.4874C124.131 28.481 124.561 29.0719 125.058 29.8032C125.556 30.5345 126.076 31.3231 126.217 31.5569C126.359 31.7908 127.095 33.0343 127.853 34.3204C128.612 35.6065 129.765 37.7833 130.413 39.1565C131.063 40.5297 131.929 42.4918 132.335 43.5143C132.743 44.5368 133.053 45.3871 133.025 45.3998C133 45.4147 132.69 45.572 132.339 45.7506C131.988 45.927 130.84 46.4202 129.788 46.8432C128.736 47.2641 127.756 47.6106 127.609 47.6085C127.462 47.6064 127.284 47.4384 127.211 47.2344C127.139 47.0303 126.842 46.2395 126.548 45.4806C126.257 44.7217 125.885 43.8353 125.723 43.5143C125.456 42.9829 125.468 42.9106 125.855 42.7171C126.089 42.6002 126.399 42.5024 126.546 42.5003C126.693 42.4982 127.137 43.289 127.532 44.2541C127.93 45.2213 128.264 46.0376 128.276 46.0673C128.289 46.0992 128.969 45.8292 129.788 45.4679C130.606 45.1065 131.299 44.794 131.329 44.7727C131.359 44.7536 131.231 44.354 131.046 43.8863C130.861 43.4186 130.551 42.6534 130.355 42.1857C130.16 41.718 129.563 40.4277 129.025 39.3159C128.489 38.2063 127.59 36.4844 127.027 35.4896C126.465 34.4947 125.517 32.9408 124.92 32.0331C124.325 31.1275 123.74 30.3857 123.623 30.3857C123.506 30.3857 122.883 30.7364 122.241 31.1616C121.599 31.5888 121.049 31.9715 121.019 32.014C120.989 32.0544 121.517 32.9153 122.188 33.9272C123.372 35.7064 123.398 35.7723 122.985 36.055C122.752 36.2166 122.465 36.3484 122.348 36.3505C122.231 36.3526 121.489 35.3939 120.7 34.2205C119.912 33.0492 119.265 31.9927 119.265 31.8758Z" fill="#A17F55"/>
<path d="M18.103 25.6347C18.7173 24.9162 19.557 23.9702 19.9694 23.5323C20.3797 23.0944 20.7687 22.7394 20.8325 22.7437C20.8962 22.7479 21.332 23.0987 21.7997 23.5217C22.2673 23.9469 23.2239 24.812 25.2009 26.5956L24.5355 27.2694C24.1699 27.6393 23.0709 28.9509 22.0909 30.1817C21.1131 31.4125 20.0948 32.705 19.8291 33.0515C19.5634 33.398 18.7258 34.616 17.9691 35.7554C17.2123 36.8948 16.2578 38.4976 15.8476 39.3161C15.4394 40.1345 15.0568 40.8041 14.9973 40.8041C14.9399 40.8041 14.1491 40.4066 13.2435 39.9219C12.338 39.4372 11.2389 38.8399 10.801 38.5933C10.3631 38.3488 10.0017 38.0512 9.9975 37.9343C9.99325 37.8174 10.4226 36.9331 10.952 35.968C11.4813 35.0029 12.034 34.0229 12.1806 33.7891C12.3273 33.5531 12.5186 33.3618 12.6058 33.3639C12.693 33.3639 13.0054 33.5085 13.8281 34.0017L12.7631 35.7554C12.1764 36.7205 11.7704 37.5644 11.8597 37.6346C11.9489 37.7026 12.5718 38.0619 14.4658 39.1035L14.7847 38.572C14.9611 38.2808 15.1036 37.9938 15.1036 37.9343C15.1036 37.8748 15.6201 36.9905 16.2493 35.968C16.8807 34.9455 18.2582 32.9601 19.3125 31.5571C20.3669 30.1541 21.6636 28.5279 22.1972 27.9433C22.7308 27.3587 23.175 26.8336 23.1835 26.7741C23.1899 26.7146 22.701 26.1895 20.994 24.5421L20.4392 25.1841C20.1352 25.5391 19.4401 26.3511 17.9032 28.1559L17.4525 27.7307C17.2059 27.4969 16.9976 27.2227 16.9933 27.1227C16.987 27.0207 17.4865 26.3511 18.103 25.6347Z" fill="#A17F55"/>
<path d="M111.294 26.0981L113.415 24.0977C114.58 22.9966 115.609 22.0974 115.698 22.0974C115.788 22.0974 116.63 22.9817 119.276 26.0301L118.241 27.0929L116.893 25.6474C116.151 24.8545 115.433 24.2083 115.297 24.2125C115.159 24.2189 114.633 24.6483 113.207 26.113L114.115 27.1333C114.614 27.6966 115.915 29.3037 117.008 30.7067C118.098 32.1097 119.382 33.8805 119.861 34.6394C120.339 35.3982 121.021 36.5228 121.378 37.1371C121.736 37.7515 122.125 38.2531 122.242 38.2531C122.358 38.2531 122.981 37.9428 123.625 37.5623C124.272 37.1818 124.797 36.8246 124.795 36.7651C124.792 36.7056 124.312 35.8468 123.723 34.8519C123.136 33.8571 122.658 32.9728 122.662 32.8856C122.665 32.7985 122.907 32.6071 123.2 32.4605C123.666 32.2287 123.77 32.2479 124.036 32.6199C124.204 32.8537 124.873 33.9294 125.524 35.0114C126.174 36.0934 126.706 37.0733 126.706 37.1903C126.706 37.3072 126.059 37.7515 125.271 38.1787C124.482 38.606 123.358 39.2352 122.773 39.5775C121.942 40.0643 121.674 40.1387 121.544 39.9176C121.453 39.7624 120.979 38.9653 120.494 38.1468C120.01 37.3284 119.174 35.9892 118.641 35.1708C118.107 34.3524 117.382 33.3129 117.031 32.8601C116.683 32.4073 115.735 31.2126 114.927 30.2029C114.119 29.1932 112.971 27.8582 111.294 26.0981Z" fill="#A17F55"/>
<path d="M20.3117 19.8589C21.9485 18.2115 24.0041 16.2728 24.8821 15.5522C25.7579 14.8294 26.5487 14.2363 26.6358 14.2363C26.723 14.2342 27.484 15.0696 28.3258 16.0921C29.1655 17.1146 30.0264 18.1435 30.2347 18.3773C30.6046 18.7939 30.5727 18.8365 28.6872 20.3968C27.6264 21.2747 26.6953 22.0187 26.6188 22.0527C26.5402 22.0846 26.2851 21.9103 25.6261 21.2109L26.4764 20.4286C26.944 19.9992 27.6604 19.3934 28.8147 18.5261L27.7518 17.3251C27.1672 16.6661 26.5699 16.1304 26.4232 16.1368C26.2766 16.141 25.5113 16.7426 24.7226 17.4739C23.934 18.203 22.3928 19.6613 21.298 20.7156C20.2033 21.7679 18.3624 23.7533 17.206 25.1266C16.0496 26.4998 15.1397 27.6966 15.1844 27.7838C15.229 27.8709 15.8115 28.3747 16.4768 28.8998C17.2442 29.5056 17.7417 29.7713 17.8309 29.6225C17.9096 29.4929 18.4984 28.7488 19.1425 27.9687C19.7866 27.1885 20.4074 26.5487 20.5243 26.5487C20.6412 26.5487 20.9048 26.7421 21.1089 26.9802C21.4702 27.399 21.4468 27.4521 20.3648 28.7425C19.7505 29.4759 18.9618 30.4388 17.9734 31.6973L16.1665 30.2432C15.1738 29.444 14.1194 28.6256 13.8282 28.4236C13.3669 28.109 13.3286 27.9963 13.5391 27.5754C13.673 27.3097 14.5807 26.1384 15.5585 24.9714C16.5364 23.8065 18.6749 21.5043 20.3117 19.8589Z" fill="#A17F55"/>
<path d="M106.222 16.7832C106.747 16.1391 107.557 15.1123 108.02 14.498C108.481 13.8836 108.979 13.3798 109.121 13.3777C109.264 13.3735 110.337 14.16 111.506 15.1229C112.676 16.0859 114.818 18.0246 116.266 19.4318C117.716 20.8391 119.756 22.9946 120.8 24.2233C121.844 25.452 122.667 26.568 122.628 26.704C122.592 26.8401 121.555 27.7712 120.328 28.7745C119.1 29.7758 118.086 30.5729 118.071 30.5453C118.058 30.5176 117.316 29.6099 114.801 26.5616L115.28 26.1322C115.543 25.8963 115.805 25.7113 115.864 25.7198C115.922 25.7305 116.521 26.4022 118.415 28.6874L119.676 27.6776C120.369 27.1228 120.947 26.6211 120.958 26.5616C120.97 26.5021 120.371 25.739 119.627 24.861C118.885 23.9831 117.469 22.444 116.485 21.4364C115.501 20.4309 113.69 18.7495 112.463 17.6994C111.236 16.6514 109.991 15.631 109.7 15.4333C109.168 15.0762 109.166 15.0783 107.149 17.6335L110.55 20.3969L110.178 20.939C109.974 21.2366 109.755 21.4534 109.691 21.4173C109.627 21.3833 108.605 20.5883 105.265 17.9523L106.222 16.7832Z" fill="#A17F55"/>
<path d="M35.936 10.9606C36.1103 10.8798 36.4865 10.68 36.7714 10.5142C37.0541 10.3484 37.3411 10.2676 37.4091 10.3335C37.475 10.3994 38.1319 11.5197 38.8695 12.8207C40.1173 15.0272 40.1811 15.2079 39.8261 15.463C39.6156 15.6139 38.2466 16.4748 36.7863 17.3783C35.3237 18.2817 33.3638 19.6018 32.4285 20.3139C31.4931 21.0261 29.9158 22.3058 28.921 23.1603C27.9261 24.0127 26.91 24.9608 26.2043 25.8175L24.4271 23.9341C23.4493 22.8988 22.531 21.87 22.3843 21.6489C22.1462 21.2897 22.2844 21.0962 23.6597 19.8378C24.5079 19.0619 25.422 18.2732 25.692 18.084C26.1554 17.7588 26.2085 17.7673 27.1141 18.7154L24.036 21.566L26.1575 23.798L28.3364 21.9189C29.5353 20.8836 31.3273 19.4381 32.3222 18.7047C33.317 17.9735 35.0623 16.8107 36.2017 16.1219C37.3411 15.4332 38.2722 14.7976 38.27 14.7104C38.2679 14.6233 37.9682 14.026 37.6068 13.3819C37.2433 12.7377 36.9138 12.1659 36.8734 12.1064C36.833 12.0469 35.9126 12.5549 34.8263 13.2309C33.3574 14.1471 32.8111 14.3916 32.6878 14.1875C32.5964 14.0366 32.4285 13.7454 32.3158 13.5413C32.1415 13.2245 32.3732 13.0141 33.8633 12.1383C34.8284 11.5686 35.7616 11.0393 35.936 10.9606Z" fill="#A17F55"/>
<path d="M96.573 14.0706C96.8366 13.6306 97.4318 12.5316 97.8953 11.626C98.3884 10.6651 98.8752 9.98065 99.0644 9.97852C99.243 9.9764 100.251 10.4653 101.303 11.0627C102.355 11.66 103.312 12.2339 103.429 12.3381C103.569 12.4642 103.551 12.7052 103.375 13.0609C103.229 13.3542 103.014 13.5944 102.897 13.5944C102.78 13.5944 101.943 13.1586 101.037 12.6293C100.132 12.0979 99.3854 11.6898 99.3812 11.7259C99.3769 11.7599 99.0623 12.3126 98.6797 12.9567C98.297 13.5987 98.0377 14.2449 98.1015 14.3916C98.1674 14.5383 98.7711 14.9592 99.4428 15.3269C100.115 15.6968 101.526 16.5747 102.578 17.2784C103.631 17.982 105.208 19.1001 106.086 19.7634C106.962 20.4287 108.231 21.464 108.902 22.0656C109.574 22.6671 110.171 23.1603 110.231 23.1603C110.288 23.1603 110.743 22.7203 111.241 22.1803C111.738 21.6425 112.168 21.1153 112.197 21.0112C112.227 20.907 111.485 20.1524 110.55 19.334C108.945 17.931 108.866 17.8225 109.168 17.4208C109.345 17.1869 109.606 16.9999 109.753 17.002C109.899 17.0063 110.639 17.5249 111.4 18.1563C112.161 18.7855 113.118 19.6379 114.27 20.7965L113.66 21.5001C113.322 21.887 112.438 22.85 110.337 25.0735L108.158 23.2007C106.959 22.1697 104.974 20.6073 103.747 19.7272C102.519 18.8493 100.51 17.5292 99.2834 16.7937C98.0547 16.0603 96.8366 15.3269 96.0947 14.8699L96.573 14.0706Z" fill="#A17F55"/>
<path d="M38.912 6.71337C40.7253 5.83756 42.9212 4.83421 43.7949 4.48771C44.6664 4.14121 45.4466 3.91801 45.5273 3.99454C45.606 4.07106 46.1162 5.28274 46.6582 6.68574C47.2003 8.08874 47.5915 9.35568 47.5298 9.50236C47.466 9.64904 47.3194 9.76808 47.2024 9.76808C47.0855 9.76808 46.1056 10.1507 45.0235 10.6184C43.189 11.4134 43.0402 11.4453 42.7873 11.0967C42.6406 10.8926 42.5215 10.5822 42.5258 10.4058C42.5279 10.206 43.1423 9.85736 44.1754 9.46835C45.0809 9.12823 45.8909 8.79236 45.9759 8.72434C46.0609 8.65631 45.8696 7.95481 45.5507 7.16828C45.2319 6.37963 44.8514 5.7334 44.7047 5.7334C44.558 5.73128 43.6971 6.02463 42.7915 6.38388C41.8859 6.74526 39.9961 7.62107 38.5931 8.3332C37.1901 9.04532 35.8042 9.75958 35.5108 9.92113C35.2196 10.0848 34.7221 10.3782 34.4075 10.578C34.0929 10.7757 33.0662 11.4155 32.1224 12.0001C31.1806 12.5847 30.4111 13.1587 30.4132 13.2756C30.4154 13.3925 30.7746 14.0366 31.2104 14.7083C31.6462 15.3801 32.0501 15.9306 32.1096 15.9306C32.1691 15.9306 32.8855 15.4927 33.7039 14.9549C34.5223 14.4171 35.3599 13.8899 35.5639 13.7858C35.8552 13.6369 36.0019 13.722 36.2442 14.179C36.546 14.7551 36.5354 14.7721 35.5554 15.4013C35.007 15.7521 33.9611 16.4451 33.2277 16.9425C31.9778 17.7907 31.8779 17.8226 31.5782 17.4739C31.4017 17.2699 30.815 16.3855 30.2751 15.5076C29.7351 14.6318 29.108 13.6752 28.8827 13.3819C28.4746 12.8525 28.4746 12.8483 28.9635 12.4763C29.2313 12.2701 30.8405 11.2476 32.5348 10.2039C34.229 9.16011 37.0987 7.58918 38.912 6.71337Z" fill="#A17F55"/>
<path d="M88.8735 6.36677C89.3603 5.02117 89.7897 3.80524 89.828 3.66281C89.8833 3.46299 90.1065 3.4715 90.8186 3.69257C91.3224 3.85201 92.3598 4.22189 93.1187 4.51949C93.8797 4.81497 95.0744 5.3124 95.7759 5.62276C96.4774 5.93312 98.2949 6.81743 99.8148 7.58695C101.335 8.35648 103.392 9.47887 104.385 10.0805C105.378 10.6799 106.407 11.3113 106.67 11.4792C106.934 11.6493 107.151 11.8597 107.149 11.9469C107.149 12.034 106.83 12.608 106.441 13.2223C106.05 13.8367 105.406 14.857 105.006 15.4884C104.606 16.1218 104.217 16.7447 104.143 16.8701C104.058 17.0147 103.193 16.5789 101.851 15.7201C100.665 14.9591 99.6957 14.2427 99.6979 14.1258C99.7 14.0089 99.8339 13.7219 99.9976 13.488C100.285 13.0735 100.333 13.0884 101.86 14.0641C102.723 14.6168 103.524 15.0696 103.641 15.0696C103.758 15.0717 104.207 14.4765 104.638 13.7495C105.07 13.0204 105.395 12.3784 105.357 12.3189C105.32 12.2594 104.585 11.7832 103.722 11.2603C102.859 10.7373 101.675 10.0379 101.09 9.70845C100.506 9.37896 99.0708 8.64983 97.9016 8.0865C96.7324 7.52318 94.6513 6.61974 93.2781 6.07767C91.9049 5.5356 90.7463 5.1147 90.7059 5.14446C90.6655 5.17422 90.3807 5.86722 90.0746 6.68563C89.7664 7.50405 89.5368 8.17791 89.5623 8.18429C89.5899 8.19067 90.4721 8.52866 91.5244 8.93681C92.5766 9.34708 93.4652 9.81899 93.4971 9.98905C93.5311 10.1591 93.4354 10.4695 93.2845 10.6778C93.0294 11.0328 92.8848 11.0052 90.8866 10.1953C89.7175 9.72333 88.6418 9.33857 88.4952 9.33857C88.3485 9.3407 88.1763 9.22378 88.1104 9.07711C88.0445 8.93043 88.3889 7.71237 88.8735 6.36677Z" fill="#A17F55"/>
<path d="M78.7911 5.9417C78.9633 5.06589 79.1504 4.13269 79.2077 3.86909C79.2758 3.54598 79.4628 3.3908 79.7838 3.38867C80.0432 3.38867 81.2145 3.597 82.3836 3.85209C83.5528 4.10718 84.5391 4.32188 84.5753 4.33038C84.6114 4.34101 84.588 4.65775 84.5221 5.03826C84.4137 5.66323 84.3478 5.71637 83.8185 5.60371C83.4975 5.53356 82.6111 5.34649 81.8522 5.18918C81.0933 5.02975 80.4471 4.91921 80.4173 4.9426C80.3875 4.96598 80.2302 5.60583 80.0666 6.36685C79.9007 7.12787 79.8285 7.81024 79.905 7.88464C79.9837 7.95904 80.953 8.22263 82.0648 8.47135C83.1765 8.72006 84.6114 9.07506 85.2534 9.25787C85.8954 9.44282 86.9965 9.78081 87.698 10.0125C88.3995 10.2421 89.1648 10.5163 89.3986 10.6184C89.6324 10.7225 90.8292 11.1966 92.0558 11.6749C93.2824 12.1531 94.2985 12.5167 94.3112 12.4848C94.323 12.4594 94.5066 12.0598 94.75 11.5299L94.9489 11.0967C95.2869 10.3654 95.5144 9.73404 95.457 9.69365C95.3996 9.65539 94.5854 9.30889 93.6501 8.92626C92.7148 8.54362 91.7816 8.14611 91.5775 8.04194C91.2565 7.88039 91.2416 7.78048 91.4712 7.31706C91.6179 7.02158 91.8815 6.77925 92.0558 6.78137C92.2301 6.78137 92.9486 7.03221 93.6501 7.33832C94.3516 7.64443 95.355 8.08871 95.8822 8.32467C96.4093 8.56063 96.9578 8.8391 97.1045 8.94326C97.3085 9.08569 97.2299 9.41518 96.7643 10.3526C96.4306 11.0244 95.88 12.1765 95.542 12.912C95.2019 13.6454 94.8767 14.2449 94.8193 14.2406C94.7619 14.2385 93.7564 13.8155 92.5872 13.3011C91.4181 12.7887 89.3136 11.9831 87.9106 11.5112C86.5076 11.0393 84.1629 10.3633 82.7025 10.0083C81.24 9.65539 79.6371 9.28764 79.1376 9.1941C78.2427 9.02617 78.232 9.01554 78.3532 8.28003C78.4212 7.87188 78.6168 6.81964 78.7911 5.9417Z" fill="#A17F55"/>
<path d="M51.0288 4.66625L53.6328 4.04553C55.0656 3.70328 56.375 3.43969 56.5451 3.46095C56.7364 3.4822 56.9532 3.94137 57.1127 4.66625C57.2551 5.31035 57.5166 6.55179 57.693 7.42973C57.9375 8.63928 57.9545 9.06018 57.7632 9.17284C57.625 9.25575 56.8895 9.42794 56.1306 9.55761C55.3717 9.68728 53.7923 10.0699 52.6231 10.4079C51.4539 10.7459 49.5407 11.356 48.3716 11.7641C47.2024 12.1723 45.2404 12.9482 44.0138 13.4881C42.7851 14.0302 41.6627 14.5149 41.516 14.5659C41.3694 14.6169 41.1929 14.4426 41.1206 14.179C41.0505 13.9154 40.6806 13.08 40.298 12.319C39.9153 11.5579 39.4477 10.578 38.912 9.34291L40.2406 8.72644C40.9718 8.38844 42.0475 7.90802 42.6321 7.65931C43.2166 7.4106 43.7417 7.20652 43.8012 7.20652C43.8607 7.2044 44.0287 7.47012 44.1796 7.79536C44.3284 8.1206 44.4241 8.39907 44.3922 8.41608C44.3582 8.43096 43.5398 8.81359 42.5704 9.26638C41.6032 9.71704 40.8124 10.1592 40.8167 10.2463C40.8209 10.3335 41.1121 10.9797 42.1006 12.9567L42.6852 12.6527C43.0062 12.4869 44.1307 11.9937 45.183 11.5579C46.2352 11.12 47.9082 10.4887 48.903 10.1528C49.8979 9.81695 51.6665 9.30039 52.8357 9.00491C54.0048 8.70943 55.2952 8.37994 56.4494 8.0717L56.1306 6.5773C55.9053 5.52293 55.7182 5.08715 55.4929 5.09353C55.3185 5.0999 54.3131 5.33586 53.2608 5.61859C52.2086 5.90131 51.3349 6.11389 51.32 6.0905C51.303 6.06712 51.2328 5.73763 51.0288 4.66625Z" fill="#A17F55"/>
<path d="M58.6815 3.09755C58.7388 3.04228 59.7443 2.90411 60.9135 2.79357C62.0827 2.6809 63.2773 2.60225 63.5707 2.61926C63.998 2.64051 64.1149 2.77231 64.2297 3.92234L62.3462 4.0924C61.3089 4.18594 60.4182 4.30285 60.365 4.34962C60.3119 4.39639 60.3183 5.08513 60.4883 7.32355L62.0827 7.21726C62.9585 7.15774 66.3788 7.11097 75.6875 7.11097L75.8044 6.36696C75.8682 5.95881 75.9638 5.31258 76.017 4.93207C76.0977 4.34962 76.0382 4.2242 75.6343 4.13704C75.3707 4.08177 74.6777 4.03288 74.0932 4.02863C73.5086 4.0265 72.6668 3.95423 72.2204 3.86707C71.5146 3.7289 71.419 3.64174 71.5423 2.64689L73.7743 2.68515C75.0009 2.70641 76.3401 2.78506 77.4944 3.00189L77.3286 4.73651C77.2371 5.69097 77.0926 6.98343 76.8566 8.74355L75.5812 8.60112C74.8797 8.52247 72.248 8.40981 69.7354 8.34816C66.2406 8.26526 64.489 8.32052 62.2952 8.58837C60.7158 8.77969 59.4063 8.90936 59.3851 8.87535C59.3638 8.83921 59.1725 7.54888 58.9599 6.00558C58.7474 4.46228 58.6241 3.15495 58.6815 3.09755Z" fill="#A17F55"/>
<path d="M68.7044 3.20372C68.7809 1.72845 68.8681 0.3871 68.8979 0.223417C68.9446 -0.0231702 69.4208 -0.050805 71.6295 0.0682372C73.1005 0.14689 75.1667 0.310573 76.219 0.431741C77.2712 0.552909 79.2333 0.839885 80.5767 1.06734C81.9202 1.2948 84.0268 1.71995 85.2534 2.00905C86.48 2.30028 87.5577 2.61064 87.647 2.69779C87.7363 2.78707 87.5237 4.05402 87.1751 5.51654C86.8286 6.97693 86.4459 8.26939 86.3248 8.38631C86.1802 8.52802 85.8061 8.50535 85.2024 8.31828C84.705 8.16523 83.6485 7.87825 82.8577 7.68056C81.5142 7.34681 81.4185 7.28517 81.4228 6.73885C81.427 6.27543 81.5248 6.15427 81.9053 6.15852C82.1689 6.15852 82.9576 6.29882 83.6591 6.46888C84.3606 6.63894 85.1025 6.77924 85.3065 6.78349C85.5871 6.78987 85.7338 6.51777 85.8996 5.67597C86.0229 5.06163 86.1653 4.34525 86.2185 4.08166C86.3078 3.64375 86.1887 3.57573 84.7751 3.26749C83.9269 3.08255 82.373 2.74669 81.3208 2.52348C80.2685 2.29815 78.1172 1.97079 76.5378 1.79435C74.9584 1.62004 72.856 1.4521 70.0543 1.37132L69.948 4.66624L71.2766 4.67899C72.0078 4.68537 72.9878 4.75977 73.4555 4.8448C74.2059 4.97873 74.2973 5.05738 74.2314 5.52292C74.191 5.81202 74.1442 6.07349 74.1251 6.10537C74.1081 6.13939 72.8496 6.10325 68.5662 5.88855L68.7044 3.20372Z" fill="#A17F55"/>
<path d="M60.5947 0.427489C61.5895 0.30207 62.6396 0.16177 62.933 0.119255C63.2242 0.0746144 64.1808 0.0512312 65.0588 0.0682372C66.4936 0.0937462 66.6552 0.138387 66.6764 0.521022C66.6892 0.754855 66.7615 2.11746 66.9719 6.15427L65.7496 6.14151C65.0779 6.13301 63.93 6.1819 63.1987 6.2478C61.953 6.35834 61.8616 6.33708 61.7383 5.88855C61.666 5.62495 61.6554 5.31459 61.7171 5.19768C61.7766 5.08076 62.6737 4.91283 63.7089 4.82354C64.7441 4.73639 65.62 4.64073 65.654 4.61097C65.6901 4.58334 65.6433 3.8457 65.3776 1.38408L64.3147 1.43935C63.7302 1.46698 62.2953 1.58815 61.1261 1.70507C59.9569 1.82411 57.9481 2.10896 56.662 2.34067C55.3759 2.57025 53.2226 3.04854 51.8791 3.40142C50.5356 3.75429 49.3856 4.09229 49.3282 4.15393C49.2708 4.21558 49.3983 4.90432 49.613 5.68873C49.8277 6.471 50.0446 7.15762 50.0956 7.21714C50.1487 7.27666 51.1202 7.06409 52.2575 6.74735C53.3926 6.43061 54.3428 6.1904 54.3683 6.21591C54.3917 6.2393 54.4725 6.54753 54.549 6.89828C54.683 7.52113 54.6617 7.54238 53.5478 7.81873C52.9228 7.97604 51.7877 8.2949 51.0288 8.52873C50.2699 8.76469 49.5514 8.91349 49.4345 8.86035C49.3176 8.80933 49.0412 8.1546 48.8201 7.40633C48.599 6.6602 48.2504 5.47403 48.0421 4.77253C47.7551 3.80318 47.7254 3.43755 47.9124 3.24411C48.0485 3.10594 49.2602 2.70417 50.6036 2.3513C51.9471 1.99842 54.3386 1.47336 55.918 1.18426C57.4974 0.895155 59.5998 0.555034 60.5947 0.427489Z" fill="#A17F55"/>
</svg>
