<svg width="204" height="116" viewBox="0 0 204 116" fill="none" xmlns="http://www.w3.org/2000/svg">
<path d="M76.0537 9.13354L103.556 9.13355L127.312 9.13354" stroke="#1C293A" stroke-width="3.6" stroke-linecap="round"/>
<path d="M119.565 9.23277L119.891 11.8365C120.176 14.1189 121.587 16.1059 123.649 17.1267C125.982 18.2819 128.767 18.0155 130.839 16.439L130.941 16.361C131.695 15.7875 132.326 15.0681 132.795 14.2458L133.04 13.8185C134.38 11.4737 134.333 8.5845 132.917 6.2845C132.368 5.39149 131.634 4.62575 130.766 4.03823L130.174 3.63777C128.403 2.44011 126.315 1.80005 124.177 1.80005L102 1.80004" stroke="#1C293A" stroke-width="3.6"/>
<path d="M84.6478 9.23277L84.3224 11.8365C84.037 14.1189 82.6255 16.1059 80.5642 17.1267C78.2314 18.2819 75.4456 18.0155 73.3741 16.439L73.2716 16.361C72.5179 15.7875 71.8874 15.0681 71.4175 14.2458L71.1733 13.8185C69.8334 11.4737 69.8804 8.5845 71.2958 6.2845C71.8453 5.39149 72.5787 4.62575 73.4473 4.03823L74.0392 3.63777C75.8097 2.44011 77.8982 1.80005 80.0357 1.80005L106.09 1.80004" stroke="#1C293A" stroke-width="3.6"/>
<path d="M89 65.3V15.8H115V65.3" stroke="url(#paint0_linear_44_77)" stroke-width="4" stroke-linecap="round"/>
<path d="M97.5 70.3V23.8" stroke="url(#paint1_linear_44_77)" stroke-width="4" stroke-linecap="round"/>
<path d="M106.5 70.3V23.8" stroke="url(#paint2_linear_44_77)" stroke-width="4" stroke-linecap="round"/>
<path d="M83.5 63.3L102.5 72.8L120 63.3" stroke="#A17F55" stroke-width="4" stroke-linecap="round"/>
<path d="M203.017 82.8C199.633 82.7334 196.25 82.67 192.866 82.61C162.414 82.07 131.961 81.8 101.508 81.8C71.0559 81.8 40.6034 82.07 10.1508 82.61C6.76721 82.67 3.38362 82.7334 4.76837e-07 82.8C3.38362 82.8667 6.76721 82.93 10.1508 82.99C40.6034 83.53 71.0559 83.8 101.508 83.8C131.961 83.8 162.414 83.53 192.866 82.99C196.25 82.93 199.633 82.8667 203.017 82.8Z" fill="url(#paint3_linear_44_77)"/>
<path d="M28.128 110.04C26.816 110.04 25.608 109.824 24.504 109.392C23.4 108.96 22.44 108.36 21.624 107.592C20.808 106.808 20.176 105.896 19.728 104.856C19.28 103.8 19.056 102.648 19.056 101.4C19.056 100.152 19.28 99.008 19.728 97.968C20.176 96.912 20.808 96 21.624 95.232C22.44 94.448 23.4 93.84 24.504 93.408C25.608 92.976 26.808 92.76 28.104 92.76C29.416 92.76 30.616 92.976 31.704 93.408C32.808 93.84 33.768 94.448 34.584 95.232C35.4 96 36.032 96.912 36.48 97.968C36.928 99.008 37.152 100.152 37.152 101.4C37.152 102.648 36.928 103.8 36.48 104.856C36.032 105.912 35.4 106.824 34.584 107.592C33.768 108.36 32.808 108.96 31.704 109.392C30.616 109.824 29.424 110.04 28.128 110.04ZM28.104 107.304C28.952 107.304 29.736 107.16 30.456 106.872C31.176 106.584 31.8 106.176 32.328 105.648C32.856 105.104 33.264 104.48 33.552 103.776C33.856 103.056 34.008 102.264 34.008 101.4C34.008 100.536 33.856 99.752 33.552 99.048C33.264 98.328 32.856 97.704 32.328 97.176C31.8 96.632 31.176 96.216 30.456 95.928C29.736 95.64 28.952 95.496 28.104 95.496C27.256 95.496 26.472 95.64 25.752 95.928C25.048 96.216 24.424 96.632 23.88 97.176C23.352 97.704 22.936 98.328 22.632 99.048C22.344 99.752 22.2 100.536 22.2 101.4C22.2 102.248 22.344 103.032 22.632 103.752C22.936 104.472 23.352 105.104 23.88 105.648C24.408 106.176 25.032 106.584 25.752 106.872C26.472 107.16 27.256 107.304 28.104 107.304ZM40.4591 109.8V93H43.5791V107.16H52.3631V109.8H40.4591ZM57.1965 109.8V103.152L57.8925 105.072L50.5965 93H53.9325L59.7885 102.72H57.9165L63.8205 93H66.8925L59.5965 105.072L60.3165 103.152V109.8H57.1965ZM68.7247 109.8V93H71.2927L78.6367 105.264H77.2927L84.5167 93H87.0847L87.1087 109.8H84.1567L84.1327 97.632H84.7567L78.6127 107.88H77.2207L70.9807 97.632H71.7007V109.8H68.7247ZM91.6466 109.8V93H98.5586C100.047 93 101.319 93.24 102.375 93.72C103.447 94.2 104.271 94.888 104.847 95.784C105.423 96.68 105.711 97.744 105.711 98.976C105.711 100.208 105.423 101.272 104.847 102.168C104.271 103.064 103.447 103.752 102.375 104.232C101.319 104.712 100.047 104.952 98.5586 104.952H93.3746L94.7666 103.488V109.8H91.6466ZM94.7666 103.824L93.3746 102.312H98.4146C99.7906 102.312 100.823 102.024 101.511 101.448C102.215 100.856 102.567 100.032 102.567 98.976C102.567 97.904 102.215 97.08 101.511 96.504C100.823 95.928 99.7906 95.64 98.4146 95.64H93.3746L94.7666 94.104V103.824ZM116.933 110.04C115.621 110.04 114.413 109.824 113.309 109.392C112.205 108.96 111.245 108.36 110.429 107.592C109.613 106.808 108.981 105.896 108.533 104.856C108.085 103.8 107.861 102.648 107.861 101.4C107.861 100.152 108.085 99.008 108.533 97.968C108.981 96.912 109.613 96 110.429 95.232C111.245 94.448 112.205 93.84 113.309 93.408C114.413 92.976 115.613 92.76 116.909 92.76C118.221 92.76 119.421 92.976 120.509 93.408C121.613 93.84 122.573 94.448 123.389 95.232C124.205 96 124.837 96.912 125.285 97.968C125.733 99.008 125.957 100.152 125.957 101.4C125.957 102.648 125.733 103.8 125.285 104.856C124.837 105.912 124.205 106.824 123.389 107.592C122.573 108.36 121.613 108.96 120.509 109.392C119.421 109.824 118.229 110.04 116.933 110.04ZM116.909 107.304C117.757 107.304 118.541 107.16 119.261 106.872C119.981 106.584 120.605 106.176 121.133 105.648C121.661 105.104 122.069 104.48 122.357 103.776C122.661 103.056 122.813 102.264 122.813 101.4C122.813 100.536 122.661 99.752 122.357 99.048C122.069 98.328 121.661 97.704 121.133 97.176C120.605 96.632 119.981 96.216 119.261 95.928C118.541 95.64 117.757 95.496 116.909 95.496C116.061 95.496 115.277 95.64 114.557 95.928C113.853 96.216 113.229 96.632 112.685 97.176C112.157 97.704 111.741 98.328 111.437 99.048C111.149 99.752 111.005 100.536 111.005 101.4C111.005 102.248 111.149 103.032 111.437 103.752C111.741 104.472 112.157 105.104 112.685 105.648C113.213 106.176 113.837 106.584 114.557 106.872C115.277 107.16 116.061 107.304 116.909 107.304Z" fill="#1C293A"/>
<path d="M133 109.8V94.536H127.096V93H140.68V94.536H134.776V109.8H133ZM145.101 100.512H153.981V102.024H145.101V100.512ZM145.293 108.264H155.397V109.8H143.517V93H155.037V94.536H145.293V108.264ZM166.821 109.944C165.557 109.944 164.389 109.736 163.317 109.32C162.245 108.888 161.317 108.288 160.533 107.52C159.749 106.752 159.133 105.848 158.685 104.808C158.253 103.768 158.037 102.632 158.037 101.4C158.037 100.168 158.253 99.032 158.685 97.992C159.133 96.952 159.749 96.048 160.533 95.28C161.333 94.512 162.269 93.92 163.341 93.504C164.413 93.072 165.581 92.856 166.845 92.856C168.061 92.856 169.205 93.064 170.277 93.48C171.349 93.88 172.253 94.488 172.989 95.304L171.861 96.432C171.173 95.728 170.413 95.224 169.581 94.92C168.749 94.6 167.853 94.44 166.893 94.44C165.885 94.44 164.949 94.616 164.085 94.968C163.221 95.304 162.469 95.792 161.829 96.432C161.189 97.056 160.685 97.792 160.317 98.64C159.965 99.472 159.789 100.392 159.789 101.4C159.789 102.408 159.965 103.336 160.317 104.184C160.685 105.016 161.189 105.752 161.829 106.392C162.469 107.016 163.221 107.504 164.085 107.856C164.949 108.192 165.885 108.36 166.893 108.36C167.853 108.36 168.749 108.2 169.581 107.88C170.413 107.56 171.173 107.048 171.861 106.344L172.989 107.472C172.253 108.288 171.349 108.904 170.277 109.32C169.205 109.736 168.053 109.944 166.821 109.944ZM189.063 93H190.815V109.8H189.063V93ZM178.551 109.8H176.775V93H178.551V109.8ZM189.231 102.048H178.359V100.488H189.231V102.048Z" fill="#1C293A"/>
<defs>
<linearGradient id="paint0_linear_44_77" x1="102" y1="15.8" x2="102" y2="65.3" gradientUnits="userSpaceOnUse">
<stop stop-color="#1C293A"/>
<stop offset="1" stop-color="#A17F55"/>
</linearGradient>
<linearGradient id="paint1_linear_44_77" x1="98" y1="23.8" x2="98" y2="70.3" gradientUnits="userSpaceOnUse">
<stop stop-color="#1C293A"/>
<stop offset="1" stop-color="#A17F55"/>
</linearGradient>
<linearGradient id="paint2_linear_44_77" x1="107" y1="23.8" x2="107" y2="70.3" gradientUnits="userSpaceOnUse">
<stop stop-color="#1C293A"/>
<stop offset="1" stop-color="#A17F55"/>
</linearGradient>
<linearGradient id="paint3_linear_44_77" x1="203.017" y1="83.3" x2="20" y2="82.8" gradientUnits="userSpaceOnUse">
<stop stop-color="white"/>
<stop offset="0.519786" stop-color="#1C293A"/>
<stop offset="1" stop-color="white"/>
</linearGradient>
</defs>
</svg>
