<svg width="68" height="76" viewBox="0 0 68 76" fill="none" xmlns="http://www.w3.org/2000/svg">
<path d="M7.6534 9.13354L35.1557 9.13355L58.912 9.13354" stroke="#1C293A" stroke-width="3.6" stroke-linecap="round"/>
<path d="M51.1648 9.23277L51.4903 11.8365C51.7756 14.1189 53.1871 16.1059 55.2484 17.1267C57.5812 18.2819 60.3671 18.0155 62.4385 16.439L62.541 16.361C63.2947 15.7875 63.9252 15.0681 64.3951 14.2458L64.6393 13.8185C65.9792 11.4737 65.9322 8.5845 64.5168 6.2845C63.9673 5.39149 63.2339 4.62575 62.3654 4.03823L61.7734 3.63777C60.0029 2.44011 57.9144 1.80005 55.7769 1.80005L33.5996 1.80004" stroke="#1C293A" stroke-width="3.6"/>
<path d="M16.2475 9.23277L15.922 11.8365C15.6367 14.1189 14.2251 16.1059 12.1638 17.1267C9.8311 18.2819 7.04522 18.0155 4.97374 16.439L4.87126 16.361C4.1176 15.7875 3.48706 15.0681 3.01717 14.2458L2.77296 13.8185C1.43308 11.4737 1.48005 8.5845 2.89543 6.2845C3.44498 5.39149 4.1784 4.62575 5.04691 4.03823L5.63889 3.63777C7.40934 2.44011 9.49787 1.80005 11.6354 1.80005L37.6901 1.80004" stroke="#1C293A" stroke-width="3.6"/>
<path d="M20.5996 65.3V15.8H46.5996V65.3" stroke="url(#paint0_linear_44_6)" stroke-width="4"/>
<path d="M29.0996 70.3V23.8" stroke="url(#paint1_linear_44_6)" stroke-width="4" stroke-linecap="round"/>
<path d="M38.0996 70.3V23.8" stroke="url(#paint2_linear_44_6)" stroke-width="4" stroke-linecap="round"/>
<path d="M15.0996 63.3L34.0996 72.8L51.5996 63.3" stroke="#A17F55" stroke-width="4" stroke-linecap="round"/>
<defs>
<linearGradient id="paint0_linear_44_6" x1="33.5996" y1="15.8" x2="33.5996" y2="65.3" gradientUnits="userSpaceOnUse">
<stop stop-color="#1C293A"/>
<stop offset="1" stop-color="#A17F55"/>
</linearGradient>
<linearGradient id="paint1_linear_44_6" x1="29.5996" y1="23.8" x2="29.5996" y2="70.3" gradientUnits="userSpaceOnUse">
<stop stop-color="#1C293A"/>
<stop offset="1" stop-color="#A17F55"/>
</linearGradient>
<linearGradient id="paint2_linear_44_6" x1="38.5996" y1="23.8" x2="38.5996" y2="70.3" gradientUnits="userSpaceOnUse">
<stop stop-color="#1C293A"/>
<stop offset="1" stop-color="#A17F55"/>
</linearGradient>
</defs>
</svg>
