<svg width="900" height="900" viewBox="0 0 900 900" fill="none" xmlns="http://www.w3.org/2000/svg">
<rect width="900" height="900" fill="#021A22"/>
<path d="M432.797 226.822C433.761 225.362 435.611 223.23 436.904 222.093C438.278 220.881 441.302 219.291 444.204 218.251C447.476 217.081 450.532 216.502 453.212 216.539C455.646 216.578 459.372 217.493 462.543 218.842C465.794 220.223 469.021 222.282 470.957 224.209C473.711 226.956 474.39 228.171 476.496 234.181C477.816 237.946 479.068 242.265 479.668 246.521L483.912 246.57C486.243 246.599 488.465 246.512 488.842 246.38C489.218 246.248 489.458 244.519 489.379 242.541C489.294 240.564 489.502 238.439 489.837 237.815C490.164 237.193 490.933 236.754 491.538 236.834C492.434 236.958 492.645 237.845 492.744 246.55L494.881 246.615C496.054 246.65 497.689 246.623 498.509 246.551C499.765 246.449 500.014 245.693 500.087 241.732C500.134 238.841 500.559 236.893 501.195 236.67C501.757 236.474 502.514 236.639 502.878 237.041C503.242 237.444 503.532 239.764 503.527 246.614L510.687 246.21L510.597 242.115C510.547 239.865 510.898 237.62 511.374 237.138C511.869 236.642 512.741 236.498 513.372 236.807C514.262 237.241 514.464 238.323 514.339 241.848C514.253 244.323 514.263 246.325 514.366 246.312C514.467 246.292 515.528 246.359 516.727 246.446C517.919 246.535 519.513 246.392 520.266 246.128C521.313 245.761 521.594 244.763 521.462 241.865C521.364 239.786 521.681 237.685 522.157 237.202C522.641 236.718 523.434 236.524 523.935 236.771C524.516 237.068 524.833 238.786 524.853 246.057L526.99 246.123C528.163 246.158 529.795 246.124 530.616 246.052C531.866 245.936 532.083 245.261 531.969 241.688C531.892 239.363 532.151 237.143 532.545 236.752C532.928 236.356 533.684 236.276 534.21 236.568C534.85 236.928 535.229 238.271 535.369 240.666C535.479 242.626 535.68 244.669 535.808 245.208C535.955 245.825 537.768 246.151 540.618 246.082C543.134 246.023 545.168 245.863 545.139 245.735C545.116 245.605 545.394 242.802 545.759 239.5C546.233 235.26 547.213 231.98 549.107 228.304C550.895 224.833 552.962 222.11 555.338 220.094C558.315 217.56 559.838 216.795 564.81 215.322C569.434 213.955 571.61 213.692 574.773 214.144C576.996 214.456 580.366 215.496 582.262 216.454C584.158 217.411 586.826 219.366 588.185 220.788C589.703 222.378 591.163 224.833 591.98 227.144C592.707 229.218 593.362 232.271 593.431 233.938C593.496 235.636 592.683 238.842 591.575 241.229C589.98 244.662 588.926 245.908 586.128 247.642C583.399 249.328 581.927 249.844 579.28 250.034C577.234 250.182 574.579 249.645 572.538 248.669C570.295 247.59 568.689 246.195 567.721 244.485C566.926 243.073 566.117 240.766 565.921 239.351C565.71 237.804 566.282 235.313 567.353 233.085C569.076 229.514 569.267 229.355 572.88 228.458C575.561 227.795 577.325 227.83 581.551 229.646L580.465 228.105C579.877 227.259 577.982 225.932 576.266 225.158C574.385 224.31 572.067 223.946 570.429 224.228C568.933 224.499 566.548 225.327 565.122 226.081C563.695 226.834 561.513 228.767 560.269 230.372C559.032 231.973 557.564 235.001 557.013 237.093C556.465 239.191 556.087 242.782 556.175 245.073C556.289 248.03 557.154 251.531 559.151 257.096C560.699 261.426 563.461 267.53 565.294 270.7C567.125 273.863 572.391 282.309 576.997 289.464C581.596 296.622 587.656 306.435 590.469 311.26C594.679 318.516 596.313 322.125 599.848 331.992C603.048 340.947 604.309 345.424 604.863 349.834C605.268 353.074 605.647 358.475 605.703 361.837C605.759 365.199 605.491 370.312 605.116 373.188C604.742 376.07 603.625 381.304 602.642 384.815C601.661 388.333 599.219 394.546 597.222 398.628C595.231 402.708 591.464 408.847 588.86 412.273C586.256 415.699 582.063 420.489 579.533 422.92C577.006 425.359 572.749 429.003 570.075 431.023C567.401 433.044 563.642 435.653 561.726 436.808C559.806 437.973 558.095 438.773 557.932 438.592C557.759 438.406 557.756 437.17 557.928 435.841C558.094 434.515 557.837 432.268 557.357 430.854C556.65 428.772 556.839 427.491 558.341 424.167C559.371 421.908 560.426 418.426 560.687 416.428C561.024 413.881 560.809 412.127 559.972 410.53C559.313 409.285 558.461 407.708 558.086 407.032C557.541 406.07 558.468 404.57 562.325 400.136C565.039 397.025 568.431 392.885 569.862 390.938C571.294 388.992 573.569 385.266 574.929 382.653C576.281 380.042 578.06 375.599 578.87 372.778C579.68 369.958 580.623 365.477 580.954 362.825C581.285 360.172 581.547 355.415 581.528 352.247C581.512 349.086 580.883 343.081 580.126 338.903C579.059 333.006 577.735 328.681 574.19 319.463C571.591 312.726 566.897 302.273 563.311 295.221C559.839 288.406 555.237 278.782 553.071 273.83C550.527 267.996 548.529 262.34 547.399 257.756C546.057 252.323 545.418 250.633 544.64 250.475C544.076 250.358 541.91 250.318 539.817 250.375C537.726 250.439 536.001 250.605 535.989 250.748C535.968 250.886 536.345 276.986 536.811 308.735C537.28 340.492 537.41 410.732 537.387 413.846C537.36 417.367 536.893 420.068 536.145 421.006C535.484 421.837 534.76 422.491 534.534 422.462C534.302 422.436 533.89 351.633 533.316 316.109C532.744 280.593 532.028 251.267 531.732 250.948C531.436 250.629 529.934 250.379 528.4 250.387C526.858 250.397 525.553 250.685 525.487 251.023C525.421 251.362 525.759 282.287 526.228 319.746C526.697 357.205 524.97 415.332 524.365 417.329C524.338 417.976 523.675 419.154 522.889 419.96C522.103 420.766 521.375 421.19 521.263 420.914C521.158 420.636 523.306 360.776 522.792 322.487C522.272 284.201 521.693 252.414 521.501 251.844C521.318 251.278 520.021 250.779 518.625 250.746C517.237 250.709 515.706 250.815 515.238 250.972C514.711 251.156 514.59 262.982 514.918 281.244C515.216 297.734 515.711 330.157 516.027 353.297C516.335 376.439 514.9 416.519 514.919 417.888C514.941 419.487 514.375 420.853 513.321 421.73C512.413 422.471 511.577 423.025 511.454 422.961C511.329 422.889 511.802 407.983 511.71 397.654C511.62 387.332 512.253 339.962 511.829 309.036C511.408 278.116 510.903 252.353 510.711 251.782C510.495 251.166 509.072 250.812 507.139 250.889C505.2 250.97 503.872 251.327 503.804 251.789C503.737 252.212 504.181 287.52 504.786 330.258C505.807 402.587 504.72 421.617 503.289 422.118C502.443 422.423 501.624 422.279 501.465 421.804C501.307 421.33 501.75 372.389 501.157 329.685C500.574 286.986 499.865 251.779 499.582 251.455C499.306 251.129 497.825 250.872 496.29 250.879C493.584 250.898 493.493 250.968 493.406 253.043C493.35 254.223 493.625 282.75 494.015 316.432C494.405 350.114 493.771 398.007 493.885 406.206C494.002 414.413 493.971 421.387 493.825 421.715C493.676 422.036 492.76 422.273 491.8 422.232C490.239 422.165 490.054 421.922 490.144 420.007C490.2 418.827 490.146 405.273 490.024 389.881C489.906 374.497 490.56 326.774 490.191 300.478C489.825 274.189 489.424 252.363 489.299 251.984C489.174 251.605 487.053 251.234 484.581 251.155C482.109 251.076 479.855 251.09 479.572 251.181C479.282 251.275 478.555 254.028 477.945 257.308C477.341 260.587 475.992 265.817 474.959 268.923C473.922 272.038 470.746 280.345 467.906 287.397C465.064 294.442 461.175 304.137 459.269 308.94C457.356 313.745 454.73 321.299 453.433 325.734C452.141 330.161 450.595 337.244 449.999 341.465C449.406 345.692 449.014 351.879 449.132 355.219C449.243 358.562 449.813 363.896 450.397 367.074C451.027 370.519 452.443 375.149 453.903 378.527C455.252 381.651 457.853 386.443 459.696 389.179C461.532 391.917 464.563 395.697 469.833 400.998L466.531 406.137C464.713 408.957 461.606 414.281 456.017 424.671L453.501 422.67C452.124 421.57 449.347 419.084 447.338 417.144C445.328 415.205 441.89 411.052 439.69 407.911C436.535 403.406 434.884 400.141 431.857 392.402C429.424 386.183 427.673 380.617 427.065 377.172C426.542 374.188 426.016 369.53 425.897 366.821C425.787 364.115 426.177 357.576 426.778 352.293C427.378 347.01 428.862 339.488 430.073 335.574C431.29 331.658 433.659 325.124 435.328 321.05C437.005 316.973 443.154 304.672 448.994 293.702C454.841 282.729 461.029 270.623 462.75 266.784C464.464 262.947 466.393 257.637 467.031 254.984C467.669 252.332 468.297 248.223 468.426 245.849C468.557 243.351 468.156 240.102 467.467 238.114C466.7 235.924 465.339 233.795 463.679 232.194C462.251 230.819 459.5 229.108 457.557 228.39C455.615 227.672 452.673 227.173 451.021 227.284C449.366 227.387 446.99 228.02 445.75 228.693C444.503 229.368 443.2 230.585 442.855 231.398C442.268 232.749 442.438 232.751 444.804 231.476C446.731 230.439 448.118 230.207 450.252 230.574C451.823 230.845 454.019 231.913 455.117 232.942C456.218 233.978 457.494 235.906 457.947 237.223C458.403 238.547 458.511 241.068 458.185 242.835C457.859 244.602 457.027 246.9 456.341 247.947C455.648 248.997 453.605 250.558 451.794 251.423C449.599 252.47 447.403 252.965 445.206 252.91C443.356 252.874 440.528 252.02 438.764 250.979C437.028 249.95 450.181 250.114 447.181 251.614C436.657 254.75 427.068 243.807 426.459 242.114C425.73 240.079 430.054 236.76 430.445 233.864C430.771 231.459 431.828 228.291 432.797 226.822Z" fill="url(#paint0_linear_13_260)"/>
<path d="M483.437 439.039L475.961 435.851C466.427 431.785 456.464 426.256 449.181 418.881L467.816 400.253C468.37 400.164 468.936 400.3 469.393 400.626C479.945 408.155 491.56 413.479 504.376 415.551L507.42 416.044C516.286 417.477 525.346 417.168 534.094 415.134C547.016 412.129 558.8 405.467 568.036 395.943L589.06 374.267L579.293 418.087L571.681 428.614C564.877 436.263 556.105 439.966 546.335 443.024L541.587 444.128C533.771 445.946 525.754 446.755 517.732 446.536C505.931 446.213 494.297 443.67 483.437 439.039Z" fill="url(#paint1_linear_13_260)"/>
<path fill-rule="evenodd" clip-rule="evenodd" d="M371.361 166.156C369.569 167.474 366.646 170.207 364.857 172.234C363.068 174.261 360.133 178.724 358.339 182.162C356.541 185.591 354.651 190.961 354.138 194.086C353.627 197.218 353.605 202.706 354.086 206.282C354.57 209.866 355.176 212.817 355.451 212.848C355.717 212.882 357.436 211.07 359.279 208.834C361.119 206.59 364.101 202.545 365.898 199.843C367.693 197.133 370.28 192.246 371.635 188.981C372.99 185.716 374.584 180.695 375.169 177.827C375.765 174.964 376.325 170.442 376.42 167.782C376.552 164.346 376.313 163.066 375.606 163.359C375.059 163.587 373.155 164.845 371.361 166.156ZM391.434 165.083C389.092 166.958 385.645 170.556 383.782 173.072C381.919 175.588 379.078 181.356 377.473 185.88L374.559 194.109C385.439 191.65 388.1 190.581 391.428 188.406C393.866 186.806 398.141 183.236 400.911 180.457C403.69 177.674 407.344 172.931 409.031 169.913C410.716 166.887 412.371 162.844 412.699 160.93C413.025 159.007 412.885 157.257 412.387 157.031C411.893 156.813 407.936 157.764 403.588 159.152C397.236 161.178 394.853 162.34 391.434 165.083ZM328.038 195.544C326.192 196.708 321.247 200.104 317.048 203.085C310.173 207.948 307.75 209.152 293.033 214.954C281.304 219.583 275.54 222.248 272.7 224.361C270.522 225.979 267.238 228.875 265.407 230.78C263.578 232.693 260.742 236.868 259.114 240.056C257.487 243.244 255.764 248.183 255.306 251.024C254.839 253.869 254.509 260.265 254.572 265.242C254.642 270.215 254.357 276.041 253.945 278.185C253.533 280.329 251.521 284.779 249.485 288.073C247.447 291.359 245.158 295.434 244.397 297.127C243.642 298.81 242.87 302.079 242.691 304.396C242.512 306.712 242.752 310.509 243.233 312.84C243.816 315.698 245.136 318.635 247.28 321.873C249.032 324.513 251.943 327.737 253.754 329.039C255.567 330.348 259.374 332.213 262.215 333.189C265.06 334.174 267.336 334.549 267.279 334.023C267.225 333.506 266.242 332.178 265.11 331.075C263.978 329.972 261.753 326.762 260.175 323.943C257.757 319.638 257.133 317.648 256.238 311.463C255.649 307.425 255.434 302.22 255.756 299.899C256.079 297.577 256.754 295.405 257.258 295.055C257.763 294.706 260.748 296.223 263.888 298.412L269.605 302.407C268.254 297.464 267.354 293.444 266.739 290.288C266.124 287.132 265.704 281.344 265.815 277.433C265.934 273.52 266.926 266.938 268.037 262.795C269.143 258.663 271.139 252.946 272.479 250.105C274.418 245.99 275.185 245.067 276.254 245.601C276.992 245.969 279.362 248.92 281.516 252.163C283.671 255.407 285.82 259.153 286.296 260.486C286.764 261.821 287.696 263.34 288.358 263.853C289.392 264.654 289.497 264.59 289.08 263.373C288.816 262.593 289.085 258.2 289.679 253.62C290.495 247.363 291.623 243.632 294.205 238.628C296.101 234.964 298.703 230.899 299.993 229.602C301.818 227.754 302.62 227.372 303.615 227.878C304.321 228.231 306.189 230.32 307.75 232.518C309.322 234.721 310.892 237.334 311.235 238.34C311.579 239.347 312.141 240.068 312.473 239.952C312.802 239.827 313.53 236.409 314.087 232.342C314.794 227.15 316.274 222.478 319.044 216.663C322.111 210.245 324.279 207.095 328.7 202.619C331.841 199.446 335.314 196.52 336.42 196.123L338.436 195.39C341.02 205.617 341.711 211.791 341.716 216.525C341.712 221.025 341.383 226.257 340.972 228.146L340.225 231.589C344.157 226.757 346.718 223.561 348.45 221.372C351.465 217.553 351.549 217.223 350.416 213.367C349.761 211.161 349.187 207.318 349.135 204.836C349.092 202.352 349.362 197.859 349.736 194.856L350.42 189.39C347.085 188.923 342.804 189.832 338.75 191.099C334.697 192.374 329.881 194.371 328.038 195.544ZM330.52 206.516C328.782 208.688 326.225 212.338 324.836 214.624C323.455 216.908 321.379 221.771 320.222 225.421C319.068 229.079 317.949 234.988 317.738 238.561C317.519 242.137 317.72 247.664 318.176 250.858C318.637 254.041 319.352 256.754 319.771 256.888C320.188 257.015 322.511 254.592 324.924 251.493C327.337 248.393 330.366 243.914 331.659 241.535C332.951 239.155 334.733 234.332 335.623 230.83C336.511 227.319 337.234 221.395 337.236 217.641C337.233 213.897 336.713 208.862 336.08 206.458C335.454 204.051 334.658 202.194 334.313 202.324C333.96 202.457 332.258 204.344 330.52 206.516ZM376.322 199.762C373.861 201.297 369.971 204.487 367.674 206.855C365.378 209.223 363.817 211.461 364.191 211.829C364.566 212.198 367.66 211.977 371.066 211.347C374.471 210.717 380.474 208.886 384.409 207.28C389.502 205.213 392.771 203.313 395.729 200.704C398.014 198.695 399.731 196.693 399.55 196.257C399.362 195.823 397.318 195.23 395.008 194.94C392.698 194.65 388.553 194.985 385.802 195.694C382.949 196.422 378.874 198.177 376.322 199.762ZM299.977 237.36C298.78 238.952 297.115 242.498 296.273 245.256C295.42 248.009 294.501 251.975 294.227 254.071C293.953 256.167 293.86 260.907 294.025 264.594C294.217 269.007 295.082 273.575 296.559 277.947C297.793 281.595 299.176 284.791 299.631 285.05C300.082 285.301 302.601 282.555 305.214 278.94C307.825 275.317 310.649 271.055 311.485 269.472C312.317 267.88 313.056 264.722 313.113 262.448C313.196 259.338 312.352 255.817 309.683 248.2C307.734 242.639 305.51 237.175 304.75 236.069C303.99 234.963 303.088 234.152 302.756 234.268C302.421 234.377 301.173 235.768 299.977 237.36ZM400.241 202.222C398.523 203.906 396.924 205.566 396.693 205.892C396.456 206.23 397.456 208.124 398.908 210.115C400.601 212.43 402.812 214.227 405.05 215.115C408.164 216.35 408.91 216.298 411.993 214.672C413.896 213.669 417.376 211.931 419.727 210.807C423.794 208.873 424.214 208.853 428.036 210.449C431.41 211.857 432.506 212.909 434.857 216.947C437.646 221.741 437.649 221.749 437.914 219.057C438.062 217.56 437.811 214.64 437.351 212.547C436.869 210.344 435.59 207.548 434.3 205.891C433.077 204.32 430.895 202.322 429.439 201.46C427.818 200.492 425.006 199.987 422.127 200.151C419.553 200.299 415.353 201.152 412.798 202.057C408.171 203.687 408.133 203.683 406.344 201.147C405.355 199.749 404.278 198.726 403.958 198.875C403.637 199.023 401.965 200.527 400.241 202.222ZM358.192 219.348C357.673 219.994 357.477 220.599 357.755 220.692C358.033 220.786 361.242 220.297 364.875 219.615C368.505 218.925 373.857 218.43 376.761 218.521C379.662 218.604 383.338 219.161 384.918 219.753C386.653 220.399 388.074 221.627 388.503 222.85C388.894 223.967 388.689 225.429 388.053 226.106C387.418 226.783 384.159 229.153 380.81 231.371C375.794 234.692 374.381 236.133 372.765 239.535C371.687 241.803 368.407 246.161 365.481 249.222C362.552 252.275 357.642 256.368 354.577 258.305C351.503 260.246 346.858 262.446 344.249 263.197C341.64 263.948 339.55 264.753 339.619 264.974C339.679 265.199 340.736 265.855 341.971 266.422C343.206 266.989 344.357 267.913 344.536 268.477C344.724 269.065 339.587 273.547 332.308 279.124C325.401 284.417 320.047 289.056 320.422 289.424C320.788 289.796 320.85 290.828 320.571 291.717C320.284 292.608 318.503 295.932 316.615 299.102C314.727 302.272 311.79 306.728 310.091 309.013C308.39 311.291 305.274 314.664 303.178 316.516C299.543 319.708 299.464 319.872 301.646 319.925C302.903 319.958 304.94 320.507 306.162 321.142L308.383 322.29C306.379 326.637 304.379 329.383 302.641 331.192C300.903 333.001 297.409 335.87 294.877 337.566C291.567 339.79 288.646 341.05 284.425 342.102L278.568 343.545L275.582 351.49C281.625 352.189 286.455 353.523 290.22 354.903C293.984 356.283 298.413 357.485 300.075 357.584C301.734 357.675 304.91 357.117 307.136 356.337C309.362 355.557 312.358 353.888 313.793 352.64C315.225 351.384 316.651 350.475 316.946 350.617C317.242 350.759 317.037 351.912 316.484 353.188C315.928 354.455 314.251 356.67 312.756 358.111C311.262 359.553 308.951 361.126 307.621 361.611C306.291 362.095 303.373 362.508 301.127 362.532C298.882 362.556 293.786 361.424 289.791 360.007C285.798 358.598 280.64 357.288 278.321 357.101C274.983 356.835 273.239 357.201 269.852 358.869C267.512 360.025 264.061 362.444 262.189 364.236C260.321 366.036 257.91 369.062 256.821 370.961C255.736 372.868 254.487 376.541 254.044 379.141C253.598 381.733 253.525 385.803 253.884 388.177C254.243 390.55 254.776 392.718 255.078 392.984C255.373 393.254 256.617 391.8 257.825 389.749C259.034 387.699 261.277 385.077 262.828 383.925C264.367 382.767 268.352 380.862 271.695 379.69C276.374 378.051 279.443 377.575 285.064 377.641C289.077 377.68 295.911 377.938 300.255 378.197C306.875 378.595 309.128 378.332 314.227 376.572C319.343 374.807 320.945 373.827 324.335 370.404C326.549 368.164 329.044 364.727 329.866 362.767C330.695 360.804 331.759 357.123 332.225 354.588L333.079 349.971C327.082 346.084 323.983 343.389 322.337 341.466C320.034 338.784 318.64 336 316.354 329.476C313.574 321.544 313.435 320.629 314.277 315.771C314.773 312.907 315.996 309.107 316.996 307.32C317.997 305.534 320.053 303.232 321.567 302.21C323.079 301.181 325.773 299.818 327.551 299.186C329.329 298.554 332.201 298.011 333.948 297.99C335.692 297.96 338.78 298.423 340.829 299.005C342.867 299.581 345.549 300.931 346.786 301.997C348.608 303.567 349.203 304.822 349.917 308.625C350.41 311.197 351.613 315.693 352.593 318.594C354.017 322.812 354.932 324.282 357.123 325.867C358.67 326.988 360.571 327.613 361.485 327.292C362.376 326.98 363.513 325.455 364.016 323.906C364.72 321.742 364.576 320.474 363.417 318.436C362.581 316.984 361.242 314.59 360.435 313.119C359.632 311.656 358.856 309.364 358.711 308.043C358.558 306.724 359.071 304.09 359.842 302.193C360.613 300.296 362.743 297.323 364.572 295.592C366.398 293.852 369.856 290.595 372.252 288.356C374.645 286.109 376.96 283.379 377.391 282.274C378.154 280.353 378.116 280.348 376.522 282.024C375.55 283.038 373.291 284.138 371.08 284.65C368.999 285.143 364.383 285.379 360.813 285.176C355.445 284.876 353.175 285.217 347.654 287.152C341.195 289.415 341.027 289.429 342.313 287.469C343.039 286.352 345.191 284.634 347.096 283.639C349.001 282.644 352.093 281.561 353.976 281.228C355.862 280.903 360.541 280.536 364.372 280.42C368.203 280.305 372.16 279.927 373.164 279.575C374.171 279.231 376.176 277.665 377.627 276.102C379.079 274.539 380.965 271.933 381.817 270.317C382.665 268.693 383.522 266.184 383.725 264.741C384.077 262.218 384.005 262.143 382.062 262.824C380.945 263.215 379.609 263.474 379.088 263.412C378.566 263.349 376.029 263.993 373.457 264.849L368.78 266.415C380.463 257.559 386.579 253.098 389.905 250.787C393.233 248.485 395.855 246.32 395.723 245.994C395.599 245.665 394.849 245.601 394.063 245.849C393.281 246.105 391.367 246.194 389.816 246.047C387.24 245.804 387.878 245.472 397.114 242.235C403.503 240.005 409.086 237.521 412.25 235.504C415.785 233.247 417.825 232.377 419.168 232.552C420.215 232.685 421.756 233.581 422.589 234.534C423.426 235.495 424.681 237.909 425.384 239.916C426.088 241.924 427.181 243.138 427.47 243.275C428.187 243.614 447.681 253.805 447.181 251.614C449.181 249.614 433.499 235.737 434.062 234.076C434.636 232.421 439.344 228.764 439.181 226.822C439.018 224.88 436.181 221.114 434.857 219.614C433.681 218.114 430.571 216.254 429.181 215.114C427.681 214.114 425.31 213.795 424.209 213.872C423.109 213.948 420.601 215.245 418.628 216.746C416.654 218.246 413.764 219.932 412.213 220.484C410.597 221.06 407.925 221.114 405.978 220.615C404.11 220.134 401.574 219.069 400.34 218.247C399.11 217.433 396.705 215.004 394.995 212.849C392.647 209.882 391.558 209.11 390.511 209.649C389.749 210.043 385.313 211.752 380.663 213.446C375.316 215.383 370.012 216.742 366.272 217.117C363.016 217.449 360.076 217.825 359.747 217.949C359.415 218.066 358.712 218.703 358.192 219.348ZM273.891 259.607C272.829 262.851 271.595 267.474 271.141 269.887C270.687 272.3 270.371 277.518 270.437 281.494C270.522 286.481 271.161 290.483 272.515 294.398C273.599 297.518 275.771 301.873 277.34 304.068C278.917 306.26 280.643 308.436 281.184 308.892C281.918 309.507 282.555 308.939 283.681 306.654C284.517 304.97 285.575 300.182 286.043 296.019C286.511 291.857 286.686 285.251 286.434 281.341C286.116 276.363 285.185 271.917 283.331 266.523C281.872 262.282 279.987 257.525 279.144 255.949C278.3 254.372 277.198 253.223 276.704 253.396C276.21 253.569 274.946 256.366 273.891 259.607ZM351.207 229.24C349.574 230.285 346.357 233.112 344.055 235.518C341.754 237.924 339.953 240.073 340.038 240.289C340.131 240.501 345.029 239.567 350.929 238.198C357.4 236.694 364.639 234.448 369.172 232.523C373.311 230.773 377.9 228.383 379.374 227.221C380.856 226.057 381.955 224.835 381.831 224.506C381.706 224.177 379.889 223.687 377.797 223.421C375.704 223.154 371.527 223.191 368.51 223.503C365.496 223.824 361.035 224.814 358.605 225.711C356.172 226.6 352.84 228.195 351.207 229.24ZM333.807 250.906C331.266 252.915 327.511 256.775 325.472 259.489L321.764 264.415C328.954 262.913 335.248 261.035 340.375 259.274C346.463 257.196 351.172 255.073 353.921 253.191C356.237 251.607 359.305 249.26 360.731 247.987C362.154 246.707 364.619 244.116 366.209 242.223L369.091 238.777C357.898 241.019 351.005 242.925 346.544 244.461C340.195 246.65 337.433 248.054 333.807 250.906ZM291.355 288.614C290.896 294.8 291.02 296.347 291.9 295.357C292.524 294.648 293.648 293.136 294.39 291.985C295.569 290.163 295.494 289.299 293.845 285.242L291.951 280.589L291.355 288.614ZM315.115 275.37C312.988 277.134 309.514 280.914 307.399 283.773C305.292 286.629 303.655 289.247 303.755 289.585C303.864 289.92 305.773 289.559 307.999 288.779C310.225 287.999 314.681 285.829 317.894 283.948C321.11 282.076 326.912 278.198 330.783 275.342C334.653 272.486 337.735 269.87 337.635 269.532C337.527 269.197 336.256 268.761 334.799 268.572C333.345 268.391 329.193 269.119 325.571 270.197C320.422 271.738 318.144 272.864 315.115 275.37ZM406.105 245.846C400.836 249.355 394.812 253.457 392.714 254.965C389.164 257.518 388.874 258.037 388.472 262.622C388.231 265.333 387.012 270.568 385.759 274.252C384.508 277.944 382.738 282.672 381.829 284.772C380.663 287.462 378.715 289.708 375.176 292.448C372.426 294.584 369.127 297.413 367.837 298.737C366.55 300.07 365.059 302.219 364.512 303.511C363.654 305.575 363.922 307.016 366.631 314.746L369.743 323.626C366.547 329.572 364.887 331.553 363.997 331.865C363.106 332.177 361.095 332.273 359.524 332.07C357.564 331.82 355.488 330.485 352.894 327.804C349.314 324.096 348.997 323.453 346.595 315.016L344.072 306.13C337.062 302.597 334.741 302.12 332.352 302.512C330.458 302.812 327.897 303.673 326.655 304.408C325.415 305.152 323.476 306.904 322.336 308.294C321.199 309.692 319.837 312.523 319.305 314.582C318.751 316.712 318.734 320.862 319.259 324.177C320.062 329.294 320.595 330.634 323.542 334.946C325.382 337.655 328.684 341.242 330.883 342.925C333.07 344.603 336.219 346.353 337.875 346.8C339.534 347.255 342.233 347.381 343.883 347.085C345.838 346.727 347.115 346.997 347.565 347.867C347.948 348.596 348.003 349.922 347.686 350.805C347.368 351.689 346.374 352.637 345.472 352.917C344.568 353.189 342.396 353.113 340.641 352.747L337.452 352.074C335.794 364.979 334.432 371.491 333.352 374.869C332.273 378.246 330.093 382.945 328.508 385.319C326.919 387.684 324.723 390.571 323.625 391.719C322.528 392.867 320.144 394.803 318.315 396.016C315.324 398.01 314.833 398.918 313.282 405.36C312.334 409.291 310.007 416.06 308.107 420.415C306.207 424.771 302.093 432.12 298.964 436.752C295.831 441.377 290.025 448.773 286.057 453.191C282.091 457.616 276.755 463.085 274.188 465.357C271.63 467.626 269.634 469.761 269.742 470.096C269.858 470.428 272.666 471.153 275.981 471.69C279.299 472.236 283.151 473.013 284.546 473.415C286.999 474.137 287.502 475.001 291.23 471.841C293.827 469.631 299.141 474.536 303.219 473.053C308.226 471.234 310.164 470.955 314.477 471.461C317.338 471.794 319.579 465.6 322.366 467.041C325.422 468.605 328.786 471.253 330.828 473.682C332.695 475.899 334.39 478.168 334.594 478.724C334.798 479.279 337.307 480.318 340.177 481.039C343.044 481.752 352.307 483.986 360.755 485.997C369.2 488 381.626 490.779 388.363 492.163C395.09 493.541 406.169 495.384 412.972 496.253C419.775 497.123 429.893 497.985 435.457 498.171C441.018 498.349 448.953 498.249 453.099 497.941C458.572 497.532 462.947 496.58 469.145 494.454C476.476 491.93 478.051 491.105 480.463 488.497C482.005 486.829 483.528 484.46 483.849 483.22C484.169 481.981 484.01 479.792 483.503 478.343C482.987 476.897 481.624 474.721 480.461 473.502C479.305 472.28 474.264 468.839 469.251 465.842C464.25 462.851 452.887 457.008 443.999 452.861C435.111 448.714 423.69 443.719 418.615 441.762C413.54 439.806 409.338 438.424 409.285 438.688C409.235 438.96 408.88 440.721 408.485 442.604C408.102 444.492 407.164 447.884 406.404 450.15C405.2 453.716 404.936 454.027 404.407 452.44C404.064 451.434 403.87 448.029 403.971 444.868C404.064 441.709 404.783 433.386 405.565 426.36C406.349 419.341 407.139 410.884 407.314 407.57C407.499 404.26 407.642 401.038 407.633 400.414C407.625 399.744 404.832 398.933 400.723 398.41C396.931 397.939 391.1 396.756 387.762 395.79C384.428 394.832 378.925 392.616 375.54 390.867C372.147 389.12 367.506 386.303 365.22 384.604C362.935 382.906 359.9 380.289 358.474 378.789C357.057 377.286 355.684 375.522 355.433 374.856C355.176 374.201 357.641 375.582 360.919 377.932C364.188 380.285 369.968 383.604 373.749 385.314C377.534 387.014 383.336 389.125 386.64 389.994C389.944 390.863 396.751 392.213 401.776 392.987C406.801 393.762 414.769 394.351 419.501 394.292C424.977 394.227 429.721 393.628 432.556 392.643C435.052 391.778 437.887 390.166 438.997 388.977C440.089 387.813 441.475 385.728 442.081 384.343C442.686 382.958 443.223 380.68 443.265 379.293C443.314 377.903 442.912 375.59 442.364 374.156C441.824 372.718 440.471 370.438 439.356 369.075C438.057 367.494 437.39 365.928 437.489 364.731C437.573 363.701 438.738 361.657 440.077 360.188C441.633 358.48 442.309 356.934 441.946 355.898C441.58 354.854 440.191 354.132 438.052 353.864C436.225 353.631 433.07 353.392 431.051 353.336C429.032 353.28 427.503 352.989 427.645 352.694C427.789 352.407 431.322 351.387 435.487 350.436C442.297 348.886 443.159 348.52 444.003 346.779C444.521 345.716 444.713 344.213 444.424 343.442C444.136 342.67 443.192 341.456 442.319 340.753C441 339.688 440.818 338.934 441.25 336.356C441.539 334.637 441.669 333.246 441.528 333.259C441.396 333.27 439.681 333.253 437.719 333.231C435.747 333.204 433.752 332.749 433.271 332.209C432.543 331.401 433.205 331.06 437.05 330.257C439.608 329.725 443.85 328.965 446.461 328.586C449.899 328.072 451.625 327.449 452.715 326.331C453.818 325.199 453.971 324.082 453.288 322.158C452.772 320.712 448.631 312.966 444.073 304.939C439.515 296.912 435.277 288.89 434.652 287.109C434.028 285.329 433.605 282.305 433.709 280.397C433.82 278.485 433.706 275.254 433.463 273.212C433.16 270.61 431.578 266.538 428.187 259.61C425.527 254.172 422.552 247.135 421.573 243.979C419.835 238.371 419.749 238.256 417.74 238.851C416.603 239.186 411.37 242.328 406.105 245.846ZM259.907 306.088C259.77 308.135 260.117 311.694 260.687 313.994C261.265 316.291 262.866 320.029 264.24 322.292C265.618 324.563 268.18 327.646 269.936 329.157C273.048 331.838 273.154 331.855 274.312 329.895C274.962 328.795 275.953 325.785 276.515 323.216C277.445 318.945 277.36 318.312 275.545 315.831C274.459 314.339 271.838 311.477 269.732 309.461C267.629 307.453 264.616 305.028 263.039 304.081L260.172 302.359L259.907 306.088ZM299.036 299.509C296.767 300.895 293.616 303.572 292.031 305.454C290.437 307.34 288.075 311.103 286.785 313.827L284.431 318.779C288.543 318.455 291.915 317.573 294.578 316.613C298.096 315.344 300.419 313.857 303.115 311.149C305.145 309.111 308.527 304.472 310.62 300.848C312.713 297.225 314.159 294.037 313.824 293.782C313.489 293.526 310.951 294.143 308.189 295.156C305.416 296.165 301.296 298.127 299.036 299.509ZM280.541 330.839C279.028 335.132 278.75 337.01 279.591 337.361C280.241 337.633 282.713 337.321 285.074 336.667C287.434 336.012 291.522 334.034 294.162 332.282C296.79 330.525 299.654 328.194 300.527 327.106L302.106 325.126C298.117 323.807 294.969 323.565 292.531 323.738C290.092 323.911 286.877 324.229 285.385 324.433C282.892 324.789 282.509 325.278 280.541 330.839ZM266.413 387.958C264.723 389.568 262.885 391.739 262.323 392.781C261.759 393.815 261.036 396.604 260.717 398.961C260.401 401.325 260.345 404.617 260.607 406.27C260.86 407.953 262.479 411.612 264.249 414.537C265.997 417.423 267.591 420.754 267.786 421.931C267.983 423.116 267.592 425.398 266.911 427.009C266.225 428.631 264.266 430.872 262.542 432.021C260.815 433.162 258.406 434.17 257.192 434.26C254.997 434.429 254.992 434.467 256.913 438.156C257.967 440.205 259.853 442.552 261.083 443.366C262.324 444.185 265.041 445.169 267.141 445.56C269.233 445.954 273.023 445.798 275.572 445.214C278.113 444.632 282.144 443.01 284.537 441.618L288.873 439.08C284.223 434.811 282.966 432.625 281.53 428.475C280.18 424.595 279.689 421.613 279.964 419.026C280.19 416.948 281.331 413.512 282.505 411.392C283.669 409.267 286.018 406.244 287.722 404.674C290.062 402.509 293.696 400.636 302.731 396.933C311.597 393.29 315.635 391.221 318.522 388.827C320.646 387.056 323.666 383.717 325.233 381.395C326.793 379.076 328.18 376.318 328.313 375.272C328.545 373.418 328.502 373.424 326.393 375.627C325.199 376.863 322.104 378.82 319.509 379.975C316.915 381.129 312.626 382.323 309.985 382.622C307.334 382.914 300.78 382.885 295.415 382.538C290.044 382.203 283.289 382.171 280.397 382.476C277.504 382.78 273.858 383.476 272.307 384.029C270.745 384.577 268.095 386.351 266.413 387.958ZM297.432 405.152C294.418 406.536 291.065 408.638 289.979 409.818C288.893 410.999 287.385 413.336 286.63 415.018C285.874 416.701 285.229 419.217 285.18 420.607C285.139 421.993 285.678 424.776 286.379 426.776C287.082 428.783 288.646 431.507 289.862 432.826C291.074 434.155 292.517 435.058 293.07 434.846C293.614 434.637 295.274 432.656 296.751 430.439C298.223 428.233 300.737 423.58 302.33 420.113C303.923 416.646 306.13 411.038 307.233 407.652C308.329 404.269 308.972 401.281 308.653 401.02C308.343 400.756 306.914 401.011 305.496 401.581C304.07 402.153 300.444 403.761 297.432 405.152ZM413.138 434.484C413.719 434.717 419.387 436.884 425.73 439.296C432.071 441.7 444.778 447.226 453.975 451.556C463.164 455.888 470.22 458.777 469.649 457.978C469.086 457.175 466.524 453.574 463.963 449.973C461.401 446.372 457.206 441.299 454.648 438.696C452.091 436.093 448.235 432.946 446.081 431.701C443.919 430.459 439.397 429.072 436.021 428.619C430.188 427.846 429.428 427.958 420.977 430.919C415.727 432.768 412.51 434.223 413.138 434.484ZM460.301 437.396C460.755 437.864 463.771 441.206 467.009 444.816C470.241 448.436 475.701 454.293 479.141 457.832C482.591 461.376 487.165 465.817 489.315 467.699C491.468 469.589 493.595 470.989 494.037 470.825C494.56 470.633 493.747 468.155 491.676 463.673C489.936 459.902 486.97 454.498 485.077 451.662C483.191 448.824 480.105 444.997 478.216 443.16C476.335 441.32 472.977 439.18 470.76 438.403C468.542 437.625 465.329 436.807 463.633 436.583C461.929 436.362 460.294 436.263 460.003 436.365C459.711 436.467 459.846 436.929 460.301 437.396Z" fill="url(#paint2_linear_13_260)"/>
<path d="M390.828 285.89C391.928 284.387 394.423 281.886 396.38 280.337C398.473 278.685 402.434 276.633 405.998 275.366C409.327 274.181 414.439 272.999 417.348 272.743C420.26 272.495 423.781 272.633 425.184 273.059C426.667 273.503 428.008 274.633 428.405 275.766C428.998 277.458 428.721 277.809 426.21 278.58C424.636 279.068 420.871 279.424 417.857 279.381C414.587 279.336 409.551 280.11 405.351 281.301C400.927 282.551 396.596 284.351 393.664 286.151C391.108 287.728 388.976 288.93 388.92 288.822C388.872 288.712 389.728 287.394 390.828 285.89Z" fill="#021A22"/>
<path d="M327.597 321.673C327.515 319.83 328.245 317.011 329.224 315.423C330.209 313.824 331.798 312.24 332.759 311.894C333.727 311.545 335.322 311.505 336.302 311.788C337.864 312.25 337.666 312.464 334.769 313.48C332.187 314.385 331.245 315.224 330.556 317.228C330.063 318.646 329.802 321.3 329.974 323.112C330.169 325.225 330.977 327.478 332.221 329.369C333.29 330.993 335.815 333.244 337.837 334.371C340.335 335.768 340.897 336.335 339.595 336.146C338.543 335.996 336.277 335.082 334.567 334.118C332.517 332.964 330.824 331.113 329.604 328.695C328.588 326.679 327.688 323.514 327.597 321.673Z" fill="#021A22"/>
<path d="M397.662 296.237C397.492 295.934 398.954 294.53 400.921 293.114C402.888 291.698 407.314 289.52 410.751 288.279C416.656 286.146 417.19 286.113 420.283 287.601C422.087 288.468 423.753 289.721 423.988 290.392C424.365 291.469 424.139 291.548 421.964 291.102C420.62 290.818 419.151 290.724 418.706 290.88C418.261 291.036 418.133 292.617 418.426 294.387C418.719 296.156 419.266 298.727 419.645 300.094C420.024 301.461 420.172 304.063 419.991 305.88C419.799 307.693 419.602 308.48 419.565 307.62C419.519 306.764 418.82 305.055 418.017 303.827C417.212 302.592 416.1 301.754 415.547 301.966C414.992 302.17 413.147 302.144 411.437 301.907C409.727 301.67 406.008 300.42 403.156 299.129C400.312 297.835 397.84 296.539 397.662 296.237Z" fill="#021A22"/>
<path d="M372.896 437.808C370.277 432.437 368.076 426.546 366.433 420.533C365.073 415.511 364.193 411.73 364.486 412.127C364.78 412.524 368.418 419.429 372.564 427.473C376.718 435.515 382.601 445.922 385.643 450.609C388.693 455.293 392.899 461.172 394.999 463.69C397.099 466.207 400.844 470.203 403.316 472.59C405.789 474.977 410.038 478.596 412.763 480.64C417.686 484.34 417.689 484.348 414.237 482.85C412.32 482.022 407.251 478.682 402.961 475.441C398.669 472.192 393.051 467.208 390.465 464.37C387.886 461.52 383.773 456.218 381.325 452.577C378.869 448.939 375.075 442.289 372.896 437.808Z" fill="#021A22"/>
<path d="M294.401 486.338C294.913 484.478 296.602 481.75 298.166 480.275C299.727 478.792 302.182 477.159 303.628 476.643C305.074 476.127 307.819 475.792 309.73 475.904C311.639 476.008 314.344 476.596 315.732 477.209C317.108 477.817 319.109 479.143 320.169 480.144C321.22 481.148 322.681 483.708 323.413 485.823C324.307 488.427 324.485 491.01 323.942 493.817C323.364 496.81 322.242 498.821 319.909 501.057C317.326 503.516 315.816 504.318 312.436 505.02C309.935 505.534 306.833 505.448 304.862 504.803C303.027 504.21 300.369 502.797 298.947 501.668C296.909 500.056 296.051 498.566 294.922 494.672C293.903 491.166 293.752 488.738 294.401 486.338Z" fill="#021A22"/>
<path d="M402.591 486.783L466.125 488.902L461.116 494.661L451.93 495.441L411.126 495.638C377.322 491.175 343.026 492.076 309.504 498.306L305.103 499.124L288.014 504.304C280.775 506.498 274.007 510.02 268.055 514.69L244.56 533.124L250.603 507.624L256.69 491.393C259.594 483.647 263.761 475.811 269.742 470.096L304.973 437.702L308.707 449.631L402.591 486.783Z" fill="url(#paint3_linear_13_260)"/>
<path d="M402.422 296.36C402.322 296.022 403.192 295.263 404.36 294.681C405.528 294.099 407.835 293.081 409.48 292.432C411.124 291.783 412.538 291.433 412.614 291.652C412.694 291.878 412.662 293.525 412.313 298.573L407.462 297.774C404.791 297.338 402.522 296.697 402.422 296.36Z" fill="url(#paint4_linear_13_260)"/>
<path d="M399.181 506.614L435.718 512.679C445.991 514.384 456.539 513.004 466.028 508.713C474.253 504.994 481.383 499.222 486.734 491.952L487.122 491.425C486.181 497.941 484.644 502.919 482.681 510.114L481.181 513.614L476.181 523.114L470.728 531.339C468.764 534.603 464.036 534.617 462.053 531.364C461.193 529.954 459.7 529.05 458.052 528.943L399.181 525.114L381.754 524.336C339.536 522.45 297.651 532.604 260.983 553.614C251.513 558.249 242.875 564.416 235.415 571.866L212 595.253L213.931 590.751C218.243 580.701 223.733 571.199 230.288 562.445C250.091 535.996 278.726 517.528 310.99 510.399L317.12 509.044C342.535 503.278 368.793 502.23 394.586 505.951L399.181 506.614Z" fill="url(#paint5_linear_13_260)"/>
<path d="M247.681 708.614C238.848 708.614 232.015 706.031 227.181 700.864C222.181 695.697 219.681 688.697 219.681 679.864C219.681 677.697 219.848 675.614 220.181 673.614C220.348 671.614 220.598 669.781 220.931 668.114C223.931 653.947 231.515 637.697 243.681 619.364C251.681 607.031 260.598 595.864 270.431 585.864C280.431 575.864 290.681 567.864 301.181 561.864C311.848 555.864 322.098 552.864 331.931 552.864C337.598 552.864 341.765 554.447 344.431 557.614C347.098 560.614 348.431 564.697 348.431 569.864C348.431 575.864 346.931 582.781 343.931 590.614C340.765 598.447 336.848 605.864 332.181 612.864C327.681 619.697 323.265 624.697 318.931 627.864C318.265 628.531 317.515 628.864 316.681 628.864C316.015 628.864 315.681 628.447 315.681 627.614C315.681 625.781 316.848 623.947 319.181 622.114C321.348 620.614 323.681 618.031 326.181 614.364C328.848 610.531 331.348 606.281 333.681 601.614C336.181 596.947 338.181 592.281 339.681 587.614C341.348 582.947 342.181 578.947 342.181 575.614C342.181 567.614 338.181 563.614 330.181 563.614C315.015 563.614 300.348 569.447 286.181 581.114C276.681 588.781 268.015 597.781 260.181 608.114C252.515 618.281 245.931 628.697 240.431 639.364C235.098 650.031 231.181 660.114 228.681 669.614C227.681 673.281 227.181 676.947 227.181 680.614C227.181 687.781 229.265 693.447 233.431 697.614C237.431 701.781 242.931 703.531 249.931 702.864C262.765 701.697 276.931 696.614 292.431 687.614C302.598 681.614 312.431 674.864 321.931 667.364C331.431 659.864 340.265 652.031 348.431 643.864C356.598 635.531 363.681 627.531 369.681 619.864L357.681 621.614C354.015 622.114 350.931 622.697 348.431 623.364C346.098 623.864 344.515 624.281 343.681 624.614C343.348 624.781 342.931 624.864 342.431 624.864C341.431 624.864 340.931 624.114 340.931 622.614C340.931 621.114 341.431 619.364 342.431 617.364C343.598 615.364 344.848 614.031 346.181 613.364C350.681 611.031 361.431 609.281 378.431 608.114C385.765 599.781 393.348 591.447 401.181 583.114C409.515 574.114 416.515 566.447 422.181 560.114C427.848 553.781 432.848 547.947 437.181 542.614C441.681 537.114 446.015 531.447 450.181 525.614C451.515 523.781 452.848 522.864 454.181 522.864C455.181 522.864 455.681 523.364 455.681 524.364C455.681 525.364 455.348 526.197 454.681 526.864C449.015 534.864 443.098 542.697 436.931 550.364C430.765 558.031 423.931 566.197 416.431 574.864C409.098 583.364 400.765 593.031 391.431 603.864L388.181 607.614L399.681 607.114L421.681 606.364C421.515 606.697 422.265 605.197 423.931 601.864C425.598 598.364 428.098 593.031 431.431 585.864C436.098 576.197 440.181 567.614 443.681 560.114C447.348 552.447 450.348 545.864 452.681 540.364C457.515 529.531 460.015 522.031 460.181 517.864C460.348 515.697 461.431 514.031 463.431 512.864C465.431 511.697 467.681 511.114 470.181 511.114C472.015 511.114 473.681 511.447 475.181 512.114C476.848 512.614 482.348 500.281 482.681 501.114C483.515 502.614 478.514 518.614 475.181 525.114C473.014 529.614 469.598 535.781 466.431 541.614C463.265 547.447 459.681 553.947 455.681 561.114C450.181 570.947 445.431 579.614 441.431 587.114C437.598 594.614 434.515 600.947 432.181 606.114L451.431 605.114H452.181C453.681 605.114 454.431 605.614 454.431 606.614C454.431 607.281 454.015 607.947 453.181 608.614C452.348 609.281 451.265 609.697 449.931 609.864L429.681 611.364C429.515 611.697 428.598 613.697 426.931 617.364C425.265 621.031 422.848 626.281 419.681 633.114C413.348 647.114 410.181 659.031 410.181 668.864C410.181 675.531 412.681 678.864 417.681 678.864C419.015 678.864 420.765 678.197 422.931 676.864C425.265 675.697 427.431 674.281 429.431 672.614C431.598 670.947 433.181 669.447 434.181 668.114C435.348 666.447 436.515 665.614 437.681 665.614C438.348 665.614 438.681 665.947 438.681 666.614C438.681 667.447 438.015 668.531 436.681 669.864C435.015 671.697 432.848 673.781 430.181 676.114C427.515 678.447 424.848 680.447 422.181 682.114C419.515 683.781 417.265 684.697 415.431 684.864C404.765 685.531 399.431 680.697 399.431 670.364C399.431 664.197 400.931 657.114 403.931 649.114C407.098 641.114 411.015 631.781 415.681 621.114L419.681 612.114C414.015 612.614 406.265 613.864 396.431 615.864C392.931 616.531 389.765 617.114 386.931 617.614C384.265 617.947 382.015 618.281 380.181 618.614C370.348 629.781 359.765 640.697 348.431 651.364C337.098 662.031 325.515 671.697 313.681 680.364C302.015 689.031 290.515 695.864 279.181 700.864C268.015 706.031 257.515 708.614 247.681 708.614Z" fill="url(#paint6_linear_13_260)"/>
<path d="M405.65 743.364C403.983 743.364 402.817 743.197 402.15 742.864C401.65 742.364 401.15 741.781 400.65 741.114C400.15 740.447 399.9 739.864 399.9 739.364C400.233 732.197 402.483 724.031 406.65 714.864C410.817 705.697 416.317 696.114 423.15 686.114C429.817 676.114 436.983 666.531 444.65 657.364C451.483 649.031 456.233 642.781 458.9 638.614C461.067 634.947 463.567 629.614 466.4 622.614C469.4 615.447 472.733 606.697 476.4 596.364C476.733 595.364 477.983 594.697 480.15 594.364C482.817 594.364 484.15 596.364 484.15 600.364C484.15 602.531 483.9 604.114 483.4 605.114C483.233 605.947 482.983 606.781 482.65 607.614C482.483 608.281 482.317 608.781 482.15 609.114C481.65 610.114 481.4 610.781 481.4 611.114C481.4 611.114 481.483 611.364 481.65 611.864C481.817 612.364 481.983 613.031 482.15 613.864C487.65 611.197 492.483 609.114 496.65 607.614C500.817 605.947 504.817 605.114 508.65 605.114C513.15 605.114 516.233 606.614 517.9 609.614C518.4 610.614 518.65 611.864 518.65 613.364C518.65 617.031 517.233 621.697 514.4 627.364C511.567 632.864 507.9 638.614 503.4 644.614C499.067 650.447 494.317 655.697 489.15 660.364C487.317 662.031 484.65 663.864 481.15 665.864C477.817 667.864 474.15 669.697 470.15 671.364C466.317 673.197 462.567 674.697 458.9 675.864C455.4 677.031 452.65 677.614 450.65 677.614C448.483 682.114 446.317 686.447 444.15 690.614C441.983 694.947 439.733 699.114 437.4 703.114C426.733 722.114 417.233 735.364 408.9 742.864C408.567 743.197 407.483 743.364 405.65 743.364ZM455.9 666.864C463.733 665.531 472.067 662.114 480.9 656.614C489.733 651.114 497.067 644.531 502.9 636.864C508.733 629.197 511.4 621.531 510.9 613.864C509.9 610.864 507.817 609.364 504.65 609.364C502.483 609.364 499.733 610.114 496.4 611.614C493.233 613.114 489.983 615.031 486.65 617.364C483.317 619.697 480.317 622.031 477.65 624.364C475.15 626.697 473.4 628.697 472.4 630.364C471.567 631.531 470.567 633.614 469.4 636.614C468.733 637.947 468.233 639.114 467.9 640.114C467.567 641.114 467.317 641.781 467.15 642.114C466.317 644.281 465.317 646.697 464.15 649.364C462.983 651.864 461.733 654.531 460.4 657.364L455.9 666.864ZM408.65 728.614C408.65 729.281 408.817 729.614 409.15 729.614C409.983 729.614 411.483 728.364 413.65 725.864C417.15 722.197 419.817 718.864 421.65 715.864C424.983 710.531 428.15 705.197 431.15 699.864C433.983 694.531 436.733 689.197 439.4 683.864C444.9 673.197 447.233 666.697 446.4 664.364C443.9 666.864 440.983 670.447 437.65 675.114C434.15 679.947 430.65 685.281 427.15 691.114C423.483 696.947 420.15 702.697 417.15 708.364C413.983 714.197 411.567 719.364 409.9 723.864C409.067 726.697 408.65 728.281 408.65 728.614Z" fill="url(#paint7_linear_13_260)"/>
<path d="M518.521 675.364C512.021 675.364 508.771 672.447 508.771 666.614C508.771 666.281 508.771 665.697 508.771 664.864C508.938 664.031 509.104 663.031 509.271 661.864C510.938 655.031 514.271 648.447 519.271 642.114C524.438 635.614 530.354 629.947 537.021 625.114C539.521 623.114 543.521 622.114 549.021 622.114C552.188 622.114 554.938 622.614 557.271 623.614C559.771 624.447 561.521 625.781 562.521 627.614C563.521 629.281 564.021 631.197 564.021 633.364C564.021 633.697 563.938 634.197 563.771 634.864C563.771 635.531 563.688 636.281 563.521 637.114C563.854 636.947 564.354 636.864 565.021 636.864C565.854 636.864 566.854 636.781 568.021 636.614C569.188 636.447 570.271 636.281 571.271 636.114C572.438 635.947 573.604 635.864 574.771 635.864H575.771C577.604 635.864 577.771 636.614 576.271 638.114C574.938 639.447 573.104 640.281 570.771 640.614L562.271 641.614C560.604 646.281 557.688 650.947 553.521 655.614C549.521 660.281 545.021 664.364 540.021 667.864C535.188 671.197 530.604 673.364 526.271 674.364C523.771 675.031 521.188 675.364 518.521 675.364ZM550.521 638.114C551.521 638.114 552.688 638.114 554.021 638.114C555.521 637.947 557.188 637.781 559.021 637.614C559.188 637.281 559.271 636.531 559.271 635.364C559.271 632.364 558.021 630.281 555.521 629.114C554.188 628.281 552.521 627.864 550.521 627.864C548.021 627.864 545.438 628.697 542.771 630.364C540.271 631.864 537.604 633.864 534.771 636.364C538.271 637.531 543.521 638.114 550.521 638.114ZM526.021 666.614C527.688 666.614 530.021 665.864 533.021 664.364C536.188 662.697 539.438 660.531 542.771 657.864C546.104 655.197 549.104 652.364 551.771 649.364C552.604 648.531 553.438 647.531 554.271 646.364C555.104 645.031 556.021 643.697 557.021 642.364L551.021 643.114C541.688 644.447 533.354 645.197 526.021 645.364C522.354 651.364 520.104 656.364 519.271 660.364C519.104 662.531 519.688 664.114 521.021 665.114C522.354 666.114 524.021 666.614 526.021 666.614Z" fill="url(#paint8_linear_13_260)"/>
<path d="M570.103 687.614C568.27 687.614 566.686 687.031 565.353 685.864C564.186 684.697 563.686 683.281 563.853 681.614C564.186 674.781 565.436 668.197 567.603 661.864C569.936 655.531 573.27 647.947 577.603 639.114C578.103 637.947 578.52 636.947 578.853 636.114C579.353 635.114 579.77 634.281 580.103 633.614C583.77 625.781 587.52 618.281 591.353 611.114C595.186 603.947 599.02 596.947 602.853 590.114L606.353 583.864C610.353 576.697 613.853 570.947 616.853 566.614C619.853 562.114 622.853 558.864 625.853 556.864C629.686 554.531 632.02 553.364 632.853 553.364C634.186 553.364 635.52 554.531 636.853 556.864C637.686 558.531 636.02 562.614 631.853 569.114C629.686 572.447 626.936 576.614 623.603 581.614C620.436 586.614 616.603 592.281 612.103 598.614C611.27 599.781 609.853 601.864 607.853 604.864C606.02 607.697 603.52 611.447 600.353 616.114C597.186 620.781 594.436 625.031 592.103 628.864C589.77 632.531 587.853 635.781 586.353 638.614C583.353 644.114 580.52 650.031 577.853 656.364C575.186 662.531 573.853 667.364 573.853 670.864C573.853 674.031 575.103 675.614 577.603 675.614C581.603 675.614 588.02 672.197 596.853 665.364C597.853 665.531 598.353 666.031 598.353 666.864C598.353 667.531 597.52 668.697 595.853 670.364C594.353 671.864 592.436 673.447 590.103 675.114C587.936 676.947 585.353 679.031 582.353 681.364L578.353 684.364C575.686 686.531 572.936 687.614 570.103 687.614Z" fill="url(#paint9_linear_13_260)"/>
<path d="M616.177 675.364C609.677 675.364 606.427 672.447 606.427 666.614C606.427 666.281 606.427 665.697 606.427 664.864C606.594 664.031 606.761 663.031 606.927 661.864C608.594 655.031 611.927 648.447 616.927 642.114C622.094 635.614 628.011 629.947 634.677 625.114C637.177 623.114 641.177 622.114 646.677 622.114C649.844 622.114 652.594 622.614 654.927 623.614C657.427 624.447 659.177 625.781 660.177 627.614C661.177 629.281 661.677 631.197 661.677 633.364C661.677 633.697 661.594 634.197 661.427 634.864C661.427 635.531 661.344 636.281 661.177 637.114C661.511 636.947 662.011 636.864 662.677 636.864C663.511 636.864 664.511 636.781 665.677 636.614C666.844 636.447 667.927 636.281 668.927 636.114C670.094 635.947 677.181 632.614 679.681 630.614C683.684 627.412 696.181 621.114 676.681 639.114C676.14 639.614 670.761 640.281 668.427 640.614L659.927 641.614C658.261 646.281 655.344 650.947 651.177 655.614C647.177 660.281 642.677 664.364 637.677 667.864C632.844 671.197 628.261 673.364 623.927 674.364C621.427 675.031 618.844 675.364 616.177 675.364ZM648.177 638.114C649.177 638.114 650.344 638.114 651.677 638.114C653.177 637.947 654.844 637.781 656.677 637.614C656.844 637.281 656.927 636.531 656.927 635.364C656.927 632.364 655.677 630.281 653.177 629.114C651.844 628.281 650.177 627.864 648.177 627.864C645.677 627.864 643.094 628.697 640.427 630.364C637.927 631.864 635.261 633.864 632.427 636.364C635.927 637.531 641.177 638.114 648.177 638.114ZM623.677 666.614C625.344 666.614 627.677 665.864 630.677 664.364C633.844 662.697 637.094 660.531 640.427 657.864C643.761 655.197 646.761 652.364 649.427 649.364C650.261 648.531 651.094 647.531 651.927 646.364C652.761 645.031 653.677 643.697 654.677 642.364L648.677 643.114C639.344 644.447 631.011 645.197 623.677 645.364C620.011 651.364 617.761 656.364 616.927 660.364C616.761 662.531 617.344 664.114 618.677 665.114C620.011 666.114 621.677 666.614 623.677 666.614Z" fill="url(#paint10_linear_13_260)"/>
<path d="M666.729 676.799C665.229 680.299 667.982 685.114 673.229 685.114C678.475 685.114 682.729 680.861 682.729 675.614C682.729 670.367 678.475 666.114 673.229 666.114C667.982 666.114 661.229 671.299 666.729 676.799Z" fill="url(#paint11_linear_13_260)"/>
<path d="M457.181 502.114C467.181 503.614 489.769 485.723 492.181 483.114C493.723 481.447 487.861 480.853 488.181 479.614C488.501 478.375 485.689 476.563 485.181 475.114C484.665 473.668 483.345 470.333 482.181 469.114C481.026 467.892 476.194 466.811 471.181 463.815C466.179 460.824 452.887 457.15 443.999 453.003C435.111 448.856 423.691 443.861 418.615 441.905C413.54 439.948 409.338 438.566 409.285 438.83C409.235 439.102 408.88 440.863 408.486 442.746C408.102 444.635 407.164 448.026 406.404 450.292C405.2 453.858 404.936 454.169 404.407 452.582C404.064 451.576 403.87 448.172 403.971 445.01C404.064 441.851 404.783 433.528 405.565 426.502C406.35 419.483 407.14 411.026 407.314 407.712C407.499 404.402 407.642 401.18 407.633 400.556C407.625 399.886 404.832 399.075 400.723 398.552C396.932 398.081 391.1 396.898 387.763 395.932C384.428 394.974 378.925 392.758 375.54 391.009C372.147 389.262 367.506 386.445 365.22 384.746C362.935 383.048 359.9 380.431 358.474 378.931C357.057 377.428 355.685 375.664 355.433 374.998C355.176 374.343 357.641 375.724 360.919 378.074C364.188 380.427 369.968 383.746 373.749 385.456C377.534 387.156 383.337 389.267 386.64 390.136C389.944 391.005 396.752 392.355 401.776 393.13C406.801 393.904 414.769 394.493 419.502 394.434C424.977 394.369 429.721 393.77 432.557 392.785C435.052 391.92 437.887 390.308 438.997 389.119C440.089 387.955 441.475 385.87 442.081 384.485C442.686 383.101 443.224 380.822 443.265 379.435C443.314 378.045 442.912 375.732 442.364 374.298C441.824 372.86 440.471 370.581 439.357 369.217C438.057 367.636 437.391 366.071 437.489 364.873C437.573 363.843 438.738 361.799 440.078 360.33C441.633 358.622 442.309 357.076 441.946 356.04C441.58 354.996 440.191 354.274 438.052 354.006C436.226 353.773 433.07 353.534 431.051 353.478C429.032 353.422 427.503 353.131 427.645 352.836C427.79 352.549 431.322 351.529 435.488 350.578C442.297 349.028 443.159 348.662 444.003 346.921C444.521 345.858 444.713 344.355 444.424 343.584C444.136 342.812 443.192 341.598 442.319 340.895C441 339.83 440.818 339.076 441.25 336.498C441.539 334.779 441.669 333.389 441.528 333.402C441.396 333.412 439.681 333.395 437.719 333.373C435.747 333.346 433.752 332.891 433.271 332.351C432.543 331.543 433.205 331.202 437.05 330.4C439.608 329.867 443.85 329.107 446.462 328.728C449.899 328.214 451.625 327.591 452.715 326.473C453.818 325.341 453.972 324.224 453.288 322.3C452.772 320.854 448.631 313.108 444.073 305.081C439.515 297.054 435.277 289.032 434.653 287.251C434.029 285.471 433.605 282.447 433.709 280.539C433.821 278.627 433.706 275.396 433.463 273.354C433.16 270.752 432.072 260.542 428.681 253.614M491.874 480.096C491.874 480.096 490.475 478.541 490.14 478.649M413.138 434.626C413.719 434.859 419.387 437.026 425.731 439.438C432.071 441.842 444.778 447.368 453.975 451.698C463.164 456.03 470.22 458.919 469.649 458.12C469.086 457.317 466.525 453.716 463.963 450.115C461.401 446.514 457.206 441.441 454.649 438.838C452.091 436.235 448.235 433.088 446.081 431.843C443.919 430.601 439.397 429.214 436.021 428.761C430.188 427.988 429.428 428.1 420.977 431.061C415.727 432.91 412.51 434.365 413.138 434.626ZM460.301 437.539C460.755 438.006 463.772 441.348 467.009 444.958C470.241 448.578 475.701 454.435 479.141 457.974C482.592 461.518 487.165 465.959 489.315 467.841C491.468 469.732 493.595 471.131 494.037 470.967C494.56 470.775 493.747 468.297 491.676 463.815C489.936 460.044 486.97 454.64 485.077 451.804C483.191 448.966 480.105 445.14 478.216 443.302C476.335 441.462 472.977 439.322 470.76 438.545C468.542 437.768 465.329 436.949 463.633 436.725C461.929 436.505 460.294 436.405 460.003 436.507C459.711 436.609 459.846 437.071 460.301 437.539Z" stroke="#021A22" stroke-width="5"/>
<path d="M451.656 736.472L451.8 735.032H451.944C452.568 735.576 453.272 736 454.056 736.304C454.84 736.608 455.616 736.76 456.384 736.76C457.472 736.76 458.352 736.464 459.024 735.872C459.696 735.264 460.032 734.456 460.032 733.448C460.032 732.888 459.904 732.368 459.648 731.888C459.408 731.408 459 730.92 458.424 730.424C457.864 729.928 457.088 729.392 456.096 728.816C455.408 728.416 454.752 728 454.128 727.568C453.504 727.12 452.992 726.608 452.592 726.032C452.192 725.44 451.992 724.736 451.992 723.92C451.992 722.704 452.432 721.728 453.312 720.992C454.192 720.24 455.352 719.864 456.792 719.864C457.432 719.864 458.12 719.936 458.856 720.08C459.592 720.208 460.16 720.376 460.56 720.584L460.44 721.928H460.296C459.384 720.936 458.216 720.44 456.792 720.44C455.768 720.44 454.944 720.704 454.32 721.232C453.696 721.744 453.384 722.44 453.384 723.32C453.384 723.976 453.552 724.544 453.888 725.024C454.24 725.488 454.688 725.912 455.232 726.296C455.776 726.664 456.36 727.024 456.984 727.376C457.704 727.792 458.4 728.232 459.072 728.696C459.76 729.16 460.32 729.72 460.752 730.376C461.2 731.016 461.424 731.824 461.424 732.8C461.424 733.696 461.216 734.488 460.8 735.176C460.384 735.848 459.792 736.376 459.024 736.76C458.272 737.144 457.392 737.336 456.384 737.336C455.744 737.336 454.992 737.256 454.128 737.096C453.264 736.936 452.44 736.728 451.656 736.472ZM466.151 737V720.2H473.471V721.376L469.271 720.824C468.535 720.728 468.039 720.68 467.783 720.68V728C467.991 728 468.487 727.976 469.271 727.928L473.207 727.688V728.792L469.271 728.552C468.487 728.504 467.991 728.48 467.783 728.48V736.52C468.071 736.52 468.575 736.472 469.295 736.376L473.543 735.824V737H466.151ZM478.573 720.2H481.789C483.485 720.2 484.797 720.56 485.725 721.28C486.669 721.984 487.141 722.976 487.141 724.256C487.141 725.248 486.845 726.072 486.253 726.728C485.677 727.384 484.837 727.824 483.733 728.048V728.192C484.789 728.4 485.653 728.896 486.325 729.68C486.997 730.464 487.501 731.432 487.837 732.584C488.141 733.64 488.437 734.464 488.725 735.056C489.029 735.632 489.357 736.048 489.709 736.304C490.077 736.56 490.509 736.744 491.005 736.856V737H490.021C489.317 737 488.733 736.872 488.269 736.616C487.821 736.36 487.437 735.928 487.117 735.32C486.797 734.712 486.493 733.872 486.205 732.8C485.741 731.152 485.125 729.984 484.357 729.296C483.589 728.608 482.653 728.264 481.549 728.264H481.405V727.832H481.549C484.125 727.832 485.413 726.648 485.413 724.28C485.413 721.944 484.205 720.776 481.789 720.776H480.205V737H478.573V720.2ZM490.94 720.2H492.74L499.292 735.128H499.436L504.932 720.2H506.732L499.1 737.336H498.572L490.94 720.2ZM510.472 737V720.2H512.104V737H510.472ZM531.739 734.936L531.595 736.4C531.147 736.592 530.603 736.76 529.963 736.904C529.323 737.048 528.675 737.152 528.019 737.216C527.363 737.296 526.779 737.336 526.267 737.336C524.971 737.336 523.771 737.12 522.667 736.688C521.563 736.24 520.595 735.624 519.763 734.84C518.947 734.056 518.307 733.136 517.843 732.08C517.379 731.008 517.147 729.848 517.147 728.6C517.147 727.352 517.379 726.2 517.843 725.144C518.307 724.072 518.947 723.144 519.763 722.36C520.595 721.576 521.563 720.968 522.667 720.536C523.771 720.088 524.971 719.864 526.267 719.864C526.795 719.864 527.387 719.904 528.043 719.984C528.699 720.064 529.339 720.176 529.963 720.32C530.587 720.448 531.115 720.6 531.547 720.776L531.427 722.12H531.283C530.691 721.576 529.947 721.16 529.051 720.872C528.155 720.584 527.227 720.44 526.267 720.44C524.827 720.44 523.555 720.784 522.451 721.472C521.363 722.144 520.507 723.096 519.883 724.328C519.275 725.544 518.971 726.968 518.971 728.6C518.971 730.248 519.275 731.68 519.883 732.896C520.507 734.112 521.363 735.064 522.451 735.752C523.539 736.424 524.811 736.76 526.267 736.76C527.355 736.76 528.363 736.584 529.291 736.232C530.235 735.88 531.003 735.448 531.595 734.936H531.739ZM525.187 738.824L525.955 736.904H526.483L525.955 738.248C527.459 738.536 528.211 739.208 528.211 740.264C528.211 740.872 528.003 741.36 527.587 741.728C527.171 742.096 526.611 742.28 525.907 742.28C525.667 742.28 525.419 742.248 525.163 742.184C524.923 742.136 524.579 742.04 524.131 741.896L524.251 741.488C524.683 741.632 525.075 741.704 525.427 741.704C525.843 741.704 526.171 741.584 526.411 741.344C526.651 741.12 526.771 740.808 526.771 740.408C526.771 739.544 526.243 739.016 525.187 738.824ZM535.334 728.6C535.334 727.368 535.55 726.224 535.982 725.168C536.43 724.096 537.046 723.168 537.83 722.384C538.63 721.584 539.558 720.968 540.614 720.536C541.686 720.088 542.838 719.864 544.07 719.864C545.302 719.864 546.446 720.088 547.502 720.536C548.574 720.968 549.502 721.584 550.286 722.384C551.086 723.168 551.702 724.096 552.134 725.168C552.582 726.224 552.806 727.368 552.806 728.6C552.806 729.832 552.582 730.984 552.134 732.056C551.702 733.112 551.086 734.04 550.286 734.84C549.502 735.624 548.574 736.24 547.502 736.688C546.446 737.12 545.302 737.336 544.07 737.336C542.838 737.336 541.686 737.12 540.614 736.688C539.558 736.24 538.63 735.624 537.83 734.84C537.046 734.04 536.43 733.112 535.982 732.056C535.55 730.984 535.334 729.832 535.334 728.6ZM537.158 728.6C537.158 730.232 537.446 731.664 538.022 732.896C538.598 734.112 539.406 735.064 540.446 735.752C541.486 736.424 542.694 736.76 544.07 736.76C545.446 736.76 546.654 736.424 547.694 735.752C548.734 735.064 549.542 734.104 550.118 732.872C550.694 731.64 550.982 730.216 550.982 728.6C550.982 726.984 550.694 725.568 550.118 724.352C549.542 723.12 548.734 722.16 547.694 721.472C546.654 720.784 545.446 720.44 544.07 720.44C542.694 720.44 541.486 720.784 540.446 721.472C539.422 722.144 538.614 723.096 538.022 724.328C537.446 725.544 537.158 726.968 537.158 728.6ZM556.375 736.472L556.519 735.032H556.663C557.287 735.576 557.991 736 558.775 736.304C559.559 736.608 560.335 736.76 561.103 736.76C562.191 736.76 563.071 736.464 563.743 735.872C564.415 735.264 564.751 734.456 564.751 733.448C564.751 732.888 564.623 732.368 564.367 731.888C564.127 731.408 563.719 730.92 563.143 730.424C562.583 729.928 561.807 729.392 560.815 728.816C560.127 728.416 559.471 728 558.847 727.568C558.223 727.12 557.711 726.608 557.311 726.032C556.911 725.44 556.711 724.736 556.711 723.92C556.711 722.704 557.151 721.728 558.031 720.992C558.911 720.24 560.071 719.864 561.511 719.864C562.151 719.864 562.839 719.936 563.575 720.08C564.311 720.208 564.879 720.376 565.279 720.584L565.159 721.928H565.015C564.103 720.936 562.935 720.44 561.511 720.44C560.487 720.44 559.663 720.704 559.039 721.232C558.415 721.744 558.103 722.44 558.103 723.32C558.103 723.976 558.271 724.544 558.607 725.024C558.959 725.488 559.407 725.912 559.951 726.296C560.495 726.664 561.079 727.024 561.703 727.376C562.423 727.792 563.119 728.232 563.791 728.696C564.479 729.16 565.039 729.72 565.471 730.376C565.919 731.016 566.143 731.824 566.143 732.8C566.143 733.696 565.935 734.488 565.519 735.176C565.103 735.848 564.511 736.376 563.743 736.76C562.991 737.144 562.111 737.336 561.103 737.336C560.463 737.336 559.711 737.256 558.847 737.096C557.983 736.936 557.159 736.728 556.375 736.472ZM577.339 737V720.2H584.395V721.376L580.411 720.824C579.691 720.728 579.211 720.68 578.971 720.68V728.192C579.227 728.192 579.723 728.168 580.459 728.12L584.131 727.88V728.984L580.459 728.744C579.723 728.696 579.227 728.672 578.971 728.672V737H577.339ZM588.841 720.2H590.473V730.328C590.473 732.264 590.945 733.776 591.889 734.864C592.849 735.936 594.193 736.472 595.921 736.472C597.009 736.472 597.953 736.264 598.753 735.848C599.569 735.416 600.193 734.824 600.625 734.072C601.073 733.32 601.281 732.456 601.249 731.48L600.841 720.2H602.473L602.065 731.48C602.001 733.4 601.425 734.856 600.337 735.848C599.265 736.84 597.729 737.336 595.729 737.336C593.569 737.336 591.881 736.712 590.665 735.464C589.449 734.2 588.841 732.472 588.841 730.28V720.2ZM607.869 737L608.469 719.864H608.757L620.829 734.456H620.973L620.445 720.2H622.077L621.477 737.336H621.189L609.117 722.744H608.973L609.501 737H607.869ZM627.964 737V720.2H635.284V721.376L631.084 720.824C630.348 720.728 629.852 720.68 629.596 720.68V728C629.804 728 630.3 727.976 631.084 727.928L635.02 727.688V728.792L631.084 728.552C630.3 728.504 629.804 728.48 629.596 728.48V736.52C629.884 736.52 630.388 736.472 631.108 736.376L635.356 735.824V737H627.964ZM640.386 720.2H643.602C645.298 720.2 646.61 720.56 647.538 721.28C648.482 721.984 648.954 722.976 648.954 724.256C648.954 725.248 648.658 726.072 648.066 726.728C647.49 727.384 646.65 727.824 645.546 728.048V728.192C646.602 728.4 647.466 728.896 648.138 729.68C648.81 730.464 649.314 731.432 649.65 732.584C649.954 733.64 650.25 734.464 650.538 735.056C650.842 735.632 651.17 736.048 651.522 736.304C651.89 736.56 652.322 736.744 652.818 736.856V737H651.834C651.13 737 650.546 736.872 650.082 736.616C649.634 736.36 649.25 735.928 648.93 735.32C648.61 734.712 648.306 733.872 648.018 732.8C647.554 731.152 646.938 729.984 646.17 729.296C645.402 728.608 644.466 728.264 643.362 728.264H643.218V727.832H643.362C645.938 727.832 647.226 726.648 647.226 724.28C647.226 721.944 646.018 720.776 643.602 720.776H642.018V737H640.386V720.2ZM654.015 737L660.471 720.2H661.959L668.415 737H666.663L663.687 729.128H658.239L655.767 737H654.015ZM660.639 721.448L658.407 728.552H663.471L660.783 721.448H660.639ZM659.823 718.4L662.151 715.472H664.311V715.616L660.135 718.688L659.823 718.4ZM672.308 720.2H675.523C677.22 720.2 678.532 720.56 679.46 721.28C680.404 721.984 680.876 722.976 680.876 724.256C680.876 725.248 680.58 726.072 679.988 726.728C679.412 727.384 678.572 727.824 677.468 728.048V728.192C678.524 728.4 679.388 728.896 680.06 729.68C680.732 730.464 681.236 731.432 681.572 732.584C681.876 733.64 682.172 734.464 682.46 735.056C682.764 735.632 683.092 736.048 683.444 736.304C683.812 736.56 684.244 736.744 684.74 736.856V737H683.756C683.052 737 682.468 736.872 682.004 736.616C681.556 736.36 681.172 735.928 680.852 735.32C680.532 734.712 680.228 733.872 679.94 732.8C679.476 731.152 678.86 729.984 678.092 729.296C677.324 728.608 676.388 728.264 675.284 728.264H675.14V727.832H675.284C677.86 727.832 679.148 726.648 679.148 724.28C679.148 721.944 677.94 720.776 675.523 720.776H673.94V737H672.308V720.2ZM687.706 737V720.2H689.338V737H687.706ZM694.381 728.6C694.381 727.368 694.597 726.224 695.029 725.168C695.477 724.096 696.093 723.168 696.877 722.384C697.677 721.584 698.605 720.968 699.661 720.536C700.733 720.088 701.885 719.864 703.117 719.864C704.349 719.864 705.493 720.088 706.549 720.536C707.621 720.968 708.549 721.584 709.333 722.384C710.133 723.168 710.749 724.096 711.181 725.168C711.629 726.224 711.853 727.368 711.853 728.6C711.853 729.832 711.629 730.984 711.181 732.056C710.749 733.112 710.133 734.04 709.333 734.84C708.549 735.624 707.621 736.24 706.549 736.688C705.493 737.12 704.349 737.336 703.117 737.336C701.885 737.336 700.733 737.12 699.661 736.688C698.605 736.24 697.677 735.624 696.877 734.84C696.093 734.04 695.477 733.112 695.029 732.056C694.597 730.984 694.381 729.832 694.381 728.6ZM696.205 728.6C696.205 730.232 696.493 731.664 697.069 732.896C697.645 734.112 698.453 735.064 699.493 735.752C700.533 736.424 701.741 736.76 703.117 736.76C704.493 736.76 705.701 736.424 706.741 735.752C707.781 735.064 708.589 734.104 709.165 732.872C709.741 731.64 710.029 730.216 710.029 728.6C710.029 726.984 709.741 725.568 709.165 724.352C708.589 723.12 707.781 722.16 706.741 721.472C705.701 720.784 704.493 720.44 703.117 720.44C701.741 720.44 700.533 720.784 699.493 721.472C698.469 722.144 697.661 723.096 697.069 724.328C696.493 725.544 696.205 726.968 696.205 728.6ZM715.422 736.472L715.566 735.032H715.71C716.334 735.576 717.038 736 717.822 736.304C718.606 736.608 719.382 736.76 720.15 736.76C721.238 736.76 722.118 736.464 722.79 735.872C723.462 735.264 723.798 734.456 723.798 733.448C723.798 732.888 723.67 732.368 723.414 731.888C723.174 731.408 722.766 730.92 722.19 730.424C721.63 729.928 720.854 729.392 719.862 728.816C719.174 728.416 718.518 728 717.894 727.568C717.27 727.12 716.758 726.608 716.358 726.032C715.958 725.44 715.758 724.736 715.758 723.92C715.758 722.704 716.198 721.728 717.078 720.992C717.958 720.24 719.118 719.864 720.558 719.864C721.198 719.864 721.886 719.936 722.622 720.08C723.358 720.208 723.926 720.376 724.326 720.584L724.206 721.928H724.062C723.15 720.936 721.982 720.44 720.558 720.44C719.534 720.44 718.71 720.704 718.086 721.232C717.462 721.744 717.15 722.44 717.15 723.32C717.15 723.976 717.318 724.544 717.654 725.024C718.006 725.488 718.454 725.912 718.998 726.296C719.542 726.664 720.126 727.024 720.75 727.376C721.47 727.792 722.166 728.232 722.838 728.696C723.526 729.16 724.086 729.72 724.518 730.376C724.966 731.016 725.19 731.824 725.19 732.8C725.19 733.696 724.982 734.488 724.566 735.176C724.15 735.848 723.558 736.376 722.79 736.76C722.038 737.144 721.158 737.336 720.15 737.336C719.51 737.336 718.758 737.256 717.894 737.096C717.03 736.936 716.206 736.728 715.422 736.472Z" fill="url(#paint12_linear_13_260)"/>
<defs>
<linearGradient id="paint0_linear_13_260" x1="449.66" y1="157" x2="449.66" y2="743.364" gradientUnits="userSpaceOnUse">
<stop stop-color="#948E55"/>
<stop offset="0.302222" stop-color="#866625"/>
<stop offset="0.68" stop-color="#96925B"/>
<stop offset="1" stop-color="#765C2E"/>
</linearGradient>
<linearGradient id="paint1_linear_13_260" x1="449.66" y1="157" x2="449.66" y2="743.364" gradientUnits="userSpaceOnUse">
<stop stop-color="#948E55"/>
<stop offset="0.302222" stop-color="#866625"/>
<stop offset="0.68" stop-color="#96925B"/>
<stop offset="1" stop-color="#765C2E"/>
</linearGradient>
<linearGradient id="paint2_linear_13_260" x1="449.66" y1="157" x2="449.66" y2="743.364" gradientUnits="userSpaceOnUse">
<stop stop-color="#948E55"/>
<stop offset="0.302222" stop-color="#866625"/>
<stop offset="0.68" stop-color="#96925B"/>
<stop offset="1" stop-color="#765C2E"/>
</linearGradient>
<linearGradient id="paint3_linear_13_260" x1="449.66" y1="157" x2="449.66" y2="743.364" gradientUnits="userSpaceOnUse">
<stop stop-color="#948E55"/>
<stop offset="0.302222" stop-color="#866625"/>
<stop offset="0.68" stop-color="#96925B"/>
<stop offset="1" stop-color="#765C2E"/>
</linearGradient>
<linearGradient id="paint4_linear_13_260" x1="449.66" y1="157" x2="449.66" y2="743.364" gradientUnits="userSpaceOnUse">
<stop stop-color="#948E55"/>
<stop offset="0.302222" stop-color="#866625"/>
<stop offset="0.68" stop-color="#96925B"/>
<stop offset="1" stop-color="#765C2E"/>
</linearGradient>
<linearGradient id="paint5_linear_13_260" x1="449.66" y1="157" x2="449.66" y2="743.364" gradientUnits="userSpaceOnUse">
<stop stop-color="#948E55"/>
<stop offset="0.302222" stop-color="#866625"/>
<stop offset="0.68" stop-color="#96925B"/>
<stop offset="1" stop-color="#765C2E"/>
</linearGradient>
<linearGradient id="paint6_linear_13_260" x1="449.66" y1="157" x2="449.66" y2="743.364" gradientUnits="userSpaceOnUse">
<stop stop-color="#948E55"/>
<stop offset="0.302222" stop-color="#866625"/>
<stop offset="0.68" stop-color="#96925B"/>
<stop offset="1" stop-color="#765C2E"/>
</linearGradient>
<linearGradient id="paint7_linear_13_260" x1="449.66" y1="157" x2="449.66" y2="743.364" gradientUnits="userSpaceOnUse">
<stop stop-color="#948E55"/>
<stop offset="0.302222" stop-color="#866625"/>
<stop offset="0.68" stop-color="#96925B"/>
<stop offset="1" stop-color="#765C2E"/>
</linearGradient>
<linearGradient id="paint8_linear_13_260" x1="449.66" y1="157" x2="449.66" y2="743.364" gradientUnits="userSpaceOnUse">
<stop stop-color="#948E55"/>
<stop offset="0.302222" stop-color="#866625"/>
<stop offset="0.68" stop-color="#96925B"/>
<stop offset="1" stop-color="#765C2E"/>
</linearGradient>
<linearGradient id="paint9_linear_13_260" x1="449.66" y1="157" x2="449.66" y2="743.364" gradientUnits="userSpaceOnUse">
<stop stop-color="#948E55"/>
<stop offset="0.302222" stop-color="#866625"/>
<stop offset="0.68" stop-color="#96925B"/>
<stop offset="1" stop-color="#765C2E"/>
</linearGradient>
<linearGradient id="paint10_linear_13_260" x1="449.66" y1="157" x2="449.66" y2="743.364" gradientUnits="userSpaceOnUse">
<stop stop-color="#948E55"/>
<stop offset="0.302222" stop-color="#866625"/>
<stop offset="0.68" stop-color="#96925B"/>
<stop offset="1" stop-color="#765C2E"/>
</linearGradient>
<linearGradient id="paint11_linear_13_260" x1="449.66" y1="157" x2="449.66" y2="743.364" gradientUnits="userSpaceOnUse">
<stop stop-color="#948E55"/>
<stop offset="0.302222" stop-color="#866625"/>
<stop offset="0.68" stop-color="#96925B"/>
<stop offset="1" stop-color="#765C2E"/>
</linearGradient>
<linearGradient id="paint12_linear_13_260" x1="588.5" y1="714" x2="588.5" y2="743" gradientUnits="userSpaceOnUse">
<stop stop-color="#948E55"/>
<stop offset="0.302222" stop-color="#866625"/>
<stop offset="0.68" stop-color="#96925B"/>
<stop offset="1" stop-color="#765C2E"/>
</linearGradient>
</defs>
</svg>
