<svg width="1724" height="1018" viewBox="0 0 1724 1018" fill="none" xmlns="http://www.w3.org/2000/svg">
<g clip-path="url(#clip0_55_81)">
<path fill-rule="evenodd" clip-rule="evenodd" d="M1725 624L1676.94 631.897C1628.89 640.781 1533.78 657.561 1437.67 692.11C1341.56 725.671 1245.44 777 1150.33 828.329C1054.22 878.671 959.112 893.223 863.001 867.559C767.89 841.894 670.778 777 574.666 734.555C479.556 692.11 357.611 684.353 261.5 701.133C165.389 717.914 96.1115 760.219 48.0558 768.116L0 777V1083H48.0558C96.1115 1083 191.222 1083 287.333 1083C383.445 1083 479.556 1083 574.666 1083C670.778 1083 766.889 1083 863.001 1083C958.111 1083 1054.22 1083 1150.33 1083C1245.44 1083 1341.56 1083 1437.67 1083C1533.78 1083 1628.89 1083 1676.94 1083H1725V624Z" fill="url(#paint0_linear_55_81)"/>
<g clip-path="url(#clip1_55_81)">
<path d="M-124.096 189.904L4.92171 189.904L116.367 189.904" stroke="#F2F3EA" stroke-width="18" stroke-linecap="round"/>
<path d="M80.023 190.37L81.55 202.6C82.8884 213.322 89.51 222.655 99.1799 227.45C110.124 232.877 123.193 231.625 132.91 224.22L133.391 223.854C136.927 221.16 139.884 217.78 142.089 213.918L143.234 211.911C149.52 200.896 149.3 187.325 142.66 176.521C140.082 172.326 136.641 168.729 132.567 165.969L129.79 164.088C121.484 158.462 111.687 155.455 101.659 155.455L-2.37842 155.455" stroke="#F2F3EA" stroke-width="18"/>
<path d="M-83.7801 190.37L-85.3071 202.6C-86.6455 213.322 -93.2671 222.655 -102.937 227.45C-113.881 232.877 -126.95 231.625 -136.667 224.22L-137.148 223.854C-140.684 221.16 -143.642 217.78 -145.846 213.918L-146.992 211.911C-153.277 200.896 -153.057 187.325 -146.417 176.521C-143.839 172.326 -140.398 168.729 -136.324 165.969L-133.547 164.088C-125.241 158.462 -115.444 155.455 -105.416 155.455L16.8109 155.455" stroke="#F2F3EA" stroke-width="18"/>
<path d="M-63.3635 453.738V221.218H58.6071V453.738" stroke="#F2F3EA" stroke-width="20"/>
<path d="M18.7319 477.225V258.797" stroke="#F2F3EA" stroke-width="20" stroke-linecap="round"/>
<path d="M-89.165 444.343L-0.0326782 488.968L82.0629 444.343" stroke="#F2F3EA" stroke-width="20" stroke-linecap="round"/>
</g>
<g clip-path="url(#clip2_55_81)">
<path d="M1603.9 203.904L1732.92 203.904L1844.37 203.904" stroke="#F2F3EA" stroke-width="18" stroke-linecap="round"/>
<path d="M1644.22 204.37L1642.69 216.6C1641.35 227.322 1634.73 236.655 1625.06 241.45C1614.12 246.877 1601.05 245.625 1591.33 238.22L1590.85 237.854C1587.32 235.16 1584.36 231.78 1582.15 227.918L1581.01 225.911C1574.72 214.896 1574.94 201.325 1581.58 190.521C1584.16 186.326 1587.6 182.729 1591.68 179.969L1594.45 178.088C1602.76 172.462 1612.56 169.455 1622.58 169.455L1744.81 169.455" stroke="#F2F3EA" stroke-width="18"/>
<path d="M1664.64 467.738V235.218H1786.61V467.738" stroke="#F2F3EA" stroke-width="20"/>
<path d="M1704.51 491.225V272.797" stroke="#F2F3EA" stroke-width="20" stroke-linecap="round"/>
<path d="M1638.83 458.343L1727.97 502.968L1810.06 458.343" stroke="#F2F3EA" stroke-width="20" stroke-linecap="round"/>
</g>
</g>
<defs>
<linearGradient id="paint0_linear_55_81" x1="894" y1="702.529" x2="861.37" y2="1165.89" gradientUnits="userSpaceOnUse">
<stop stop-color="#F2F3EA"/>
<stop offset="1" stop-color="#FFFFFC"/>
</linearGradient>
<clipPath id="clip0_55_81">
<rect width="1724" height="1018" fill="white"/>
</clipPath>
<clipPath id="clip1_55_81">
<rect width="319" height="357" fill="white" transform="translate(-160 147)"/>
</clipPath>
<clipPath id="clip2_55_81">
<rect width="319" height="357" fill="white" transform="translate(1568 161)"/>
</clipPath>
</defs>
</svg>
