<svg width="512" height="587" viewBox="0 0 512 587" fill="none" xmlns="http://www.w3.org/2000/svg">
<path d="M275.122 334.425C274.181 340.94 272.645 345.92 270.682 353.114L269.182 356.614L264.182 366.114L264.018 366.361C263.73 366.999 263.451 367.588 263.182 368.114C261.015 372.614 257.598 378.78 254.432 384.613C251.265 390.446 247.681 396.947 243.682 404.113C238.182 413.946 233.432 422.613 229.432 430.113C225.599 437.613 222.515 443.947 220.182 449.113L239.432 448.113H240.182C241.681 448.113 242.431 448.613 242.432 449.613C242.431 450.279 242.015 450.947 241.182 451.613C240.348 452.28 239.265 452.696 237.932 452.863L217.682 454.363C217.514 454.697 216.598 456.698 214.932 460.363C213.265 464.03 210.848 469.28 207.682 476.113C201.349 490.113 198.182 502.03 198.182 511.863C198.182 518.529 200.682 521.863 205.682 521.863C207.015 521.863 208.765 521.196 210.932 519.863C213.265 518.696 215.432 517.28 217.432 515.613C219.598 513.947 221.182 512.446 222.182 511.113C223.348 509.447 224.515 508.613 225.682 508.613C225.781 508.613 225.873 508.621 225.957 508.635C228.144 505.842 230.375 503.083 232.65 500.363C239.483 492.03 244.234 485.78 246.9 481.613C249.067 477.946 251.567 472.613 254.4 465.613C257.4 458.447 260.734 449.696 264.4 439.363C264.734 438.363 265.984 437.696 268.15 437.363C270.817 437.363 272.15 439.363 272.15 443.363C272.15 445.529 271.9 447.113 271.4 448.113C271.234 448.946 270.984 449.78 270.65 450.613C270.484 451.279 270.317 451.78 270.15 452.113C269.651 453.112 269.401 453.78 269.4 454.113C269.404 454.124 269.488 454.375 269.65 454.863C269.817 455.363 269.984 456.03 270.15 456.863C275.65 454.197 280.484 452.113 284.65 450.613C288.817 448.946 292.817 448.113 296.65 448.113C301.15 448.113 304.234 449.613 305.9 452.613C306.4 453.613 306.65 454.863 306.65 456.363C306.65 460.03 305.233 464.697 302.4 470.363C299.567 475.863 295.9 481.613 291.4 487.613C287.067 493.446 282.317 498.697 277.15 503.363C275.317 505.03 272.65 506.863 269.15 508.863C265.817 510.863 262.15 512.696 258.15 514.363C254.317 516.196 250.567 517.696 246.9 518.863C243.401 520.03 240.65 520.613 238.65 520.613C236.484 525.113 234.317 529.447 232.15 533.613C229.984 537.946 227.734 542.113 225.4 546.113C214.734 565.113 205.234 578.363 196.9 585.863C196.567 586.196 195.483 586.363 193.65 586.363C191.984 586.363 190.817 586.196 190.15 585.863C189.65 585.363 189.15 584.78 188.65 584.113C188.151 583.447 187.901 582.863 187.9 582.363C188.234 575.197 190.484 567.029 194.65 557.863C198.817 548.697 204.317 539.113 211.15 529.113C213.355 525.806 215.616 522.545 217.93 519.329C215.346 521.569 212.765 523.499 210.182 525.113C207.515 526.78 205.265 527.696 203.432 527.863C192.765 528.53 187.432 523.696 187.432 513.363C187.432 507.197 188.932 500.113 191.932 492.113C195.098 484.113 199.015 474.779 203.682 464.113L207.682 455.113C202.015 455.613 194.265 456.863 184.432 458.863C180.932 459.53 177.765 460.113 174.932 460.613C172.265 460.946 170.015 461.28 168.182 461.613C158.348 472.779 147.765 483.697 136.432 494.363C125.099 505.029 113.515 514.697 101.682 523.363C90.0152 532.03 78.5148 538.863 67.1816 543.863C56.0152 549.03 45.5148 551.613 35.6816 551.613C26.8484 551.613 20.015 549.03 15.1816 543.863C10.1817 538.696 7.68173 531.696 7.68164 522.863C7.68166 520.697 7.84838 518.613 8.18164 516.613C8.34829 514.613 8.59837 512.779 8.93164 511.113C11.9317 496.947 19.5152 480.696 31.6816 462.363C39.6815 450.03 48.5985 438.863 58.4316 428.863C68.4315 418.863 78.6818 410.863 89.1816 404.863C99.8482 398.863 110.098 395.863 119.932 395.863C125.598 395.863 129.765 397.446 132.432 400.613C135.098 403.613 136.432 407.697 136.432 412.863C136.432 418.863 134.931 425.78 131.932 433.613C128.765 441.446 124.848 448.863 120.182 455.863C115.682 462.696 111.265 467.696 106.932 470.863C106.265 471.529 105.515 471.863 104.682 471.863C104.015 471.863 103.682 471.446 103.682 470.613C103.682 468.78 104.849 466.946 107.182 465.113C109.348 463.613 111.682 461.029 114.182 457.363C116.848 453.53 119.348 449.279 121.682 444.613C124.181 439.947 126.182 435.279 127.682 430.613C129.348 425.947 130.182 421.946 130.182 418.613C130.182 410.613 126.181 406.613 118.182 406.613C103.015 406.613 88.3482 412.447 74.1816 424.113C64.6819 431.78 56.0148 440.78 48.1816 451.113C40.5152 461.279 33.9315 471.697 28.4316 482.363C23.0985 493.029 19.1816 503.113 16.6816 512.613C15.6818 516.279 15.1817 519.947 15.1816 523.613C15.1817 530.779 17.2651 536.446 21.4316 540.613C25.4316 544.78 30.9318 546.53 37.9316 545.863C50.7648 544.696 64.9319 539.613 80.4316 530.613C90.5981 524.613 100.432 517.863 109.932 510.363C119.431 502.863 128.265 495.03 136.432 486.863C144.598 478.53 151.682 470.53 157.682 462.863L145.682 464.613C142.015 465.113 138.932 465.696 136.432 466.363C134.099 466.863 132.515 467.28 131.682 467.613C131.348 467.78 130.931 467.863 130.432 467.863C129.432 467.863 128.932 467.113 128.932 465.613C128.932 464.113 129.432 462.363 130.432 460.363C131.598 458.363 132.848 457.03 134.182 456.363C138.682 454.03 149.432 452.28 166.432 451.113C173.765 442.78 181.349 434.446 189.182 426.113C197.515 417.113 204.515 409.446 210.182 403.113C215.848 396.78 220.848 390.946 225.182 385.613C228.986 380.963 232.67 376.192 236.236 371.303L187.182 368.114L169.754 367.336C127.535 365.45 85.6505 375.604 48.9824 396.614C39.5134 401.249 30.8743 407.416 23.415 414.866L0 438.252L1.93066 433.751C6.24215 423.701 11.7338 414.199 18.2881 405.445C38.0915 378.996 66.7269 360.528 98.9902 353.398L105.12 352.044C130.535 346.278 156.793 345.23 182.587 348.951L187.182 349.614L223.718 355.678C233.991 357.384 244.54 356.003 254.028 351.713C262.253 347.993 269.384 342.222 274.734 334.952L275.122 334.425ZM312.267 562.81C312.795 562.81 313.387 562.85 314.043 562.93C314.699 563.01 315.339 563.122 315.963 563.266C316.587 563.394 317.115 563.546 317.547 563.722L317.427 565.067H317.282C316.69 564.523 315.947 564.107 315.051 563.819C314.155 563.531 313.227 563.386 312.267 563.386C310.827 563.386 309.554 563.731 308.45 564.419C307.362 565.091 306.507 566.043 305.883 567.275C305.275 568.491 304.971 569.915 304.971 571.547C304.971 573.194 305.275 574.627 305.883 575.843C306.507 577.058 307.362 578.011 308.45 578.699C309.538 579.371 310.811 579.707 312.267 579.707C313.355 579.707 314.363 579.53 315.291 579.178C316.235 578.827 317.003 578.394 317.595 577.883H317.738L317.595 579.346C317.147 579.538 316.603 579.706 315.963 579.85C315.323 579.994 314.675 580.099 314.019 580.163C313.382 580.24 312.813 580.28 312.312 580.282L311.954 581.195C313.458 581.483 314.211 582.155 314.211 583.211C314.211 583.818 314.003 584.307 313.587 584.675C313.171 585.042 312.61 585.226 311.906 585.226C311.666 585.226 311.418 585.195 311.162 585.131C310.922 585.083 310.578 584.986 310.131 584.843L310.251 584.434C310.683 584.578 311.075 584.651 311.427 584.651C311.842 584.651 312.17 584.53 312.41 584.291C312.65 584.067 312.77 583.755 312.771 583.355C312.771 582.491 312.242 581.963 311.187 581.771L311.785 580.272C310.672 580.225 309.633 580.012 308.667 579.635C307.563 579.187 306.595 578.571 305.763 577.787C304.947 577.003 304.307 576.083 303.843 575.027C303.379 573.955 303.147 572.794 303.146 571.547C303.147 570.299 303.379 569.146 303.843 568.091C304.307 567.019 304.947 566.09 305.763 565.306C306.595 564.523 307.563 563.915 308.667 563.483C309.771 563.035 310.971 562.81 312.267 562.81ZM242.792 562.81C243.432 562.81 244.12 562.883 244.856 563.027C245.592 563.155 246.16 563.323 246.56 563.531L246.44 564.875H246.296C245.384 563.883 244.216 563.386 242.792 563.386C241.768 563.386 240.944 563.651 240.32 564.178C239.697 564.69 239.384 565.387 239.384 566.266C239.384 566.922 239.552 567.491 239.888 567.97C240.24 568.434 240.689 568.859 241.232 569.243C241.776 569.611 242.361 569.971 242.984 570.323C243.704 570.739 244.4 571.178 245.072 571.642C245.76 572.106 246.32 572.667 246.752 573.323C247.2 573.963 247.424 574.771 247.424 575.747C247.424 576.643 247.216 577.435 246.8 578.123C246.384 578.795 245.792 579.323 245.024 579.707C244.272 580.091 243.392 580.283 242.384 580.283C241.744 580.283 240.992 580.203 240.128 580.043C239.264 579.883 238.44 579.675 237.656 579.419L237.8 577.979H237.944C238.568 578.523 239.272 578.947 240.056 579.251C240.84 579.555 241.616 579.707 242.384 579.707C243.472 579.707 244.352 579.411 245.024 578.819C245.696 578.211 246.032 577.403 246.032 576.395C246.032 575.835 245.904 575.315 245.648 574.835C245.408 574.355 245 573.867 244.424 573.371C243.864 572.875 243.088 572.338 242.096 571.762C241.408 571.363 240.752 570.946 240.128 570.514C239.504 570.067 238.992 569.555 238.592 568.979C238.192 568.387 237.992 567.683 237.992 566.867C237.992 565.651 238.432 564.675 239.312 563.939C240.192 563.187 241.352 562.81 242.792 562.81ZM285.292 578.075H285.436L290.932 563.147H292.731L285.1 580.283H284.572L276.939 563.147H278.74L285.292 578.075ZM330.07 562.81C331.302 562.81 332.446 563.035 333.502 563.483C334.574 563.915 335.502 564.531 336.286 565.331C337.086 566.115 337.702 567.043 338.134 568.115C338.582 569.171 338.806 570.315 338.806 571.547C338.806 572.778 338.582 573.931 338.134 575.003C337.702 576.059 337.086 576.987 336.286 577.787C335.502 578.571 334.574 579.187 333.502 579.635C332.446 580.066 331.302 580.283 330.07 580.283C328.838 580.283 327.686 580.066 326.614 579.635C325.558 579.187 324.63 578.571 323.83 577.787C323.046 576.987 322.43 576.059 321.982 575.003C321.55 573.931 321.334 572.778 321.334 571.547C321.334 570.315 321.551 569.171 321.982 568.115C322.43 567.043 323.046 566.115 323.83 565.331C324.63 564.531 325.558 563.915 326.614 563.483C327.686 563.035 328.838 562.81 330.07 562.81ZM347.511 562.81C348.151 562.81 348.839 562.883 349.575 563.027C350.311 563.155 350.878 563.323 351.278 563.531L351.159 564.875H351.015C350.103 563.883 348.935 563.386 347.511 563.386C346.487 563.386 345.663 563.651 345.039 564.178C344.415 564.69 344.103 565.387 344.103 566.266C344.103 566.922 344.271 567.491 344.606 567.97C344.958 568.434 345.407 568.859 345.951 569.243C346.495 569.611 347.079 569.971 347.703 570.323C348.423 570.739 349.119 571.178 349.791 571.642C350.479 572.106 351.039 572.667 351.471 573.323C351.919 573.963 352.143 574.771 352.143 575.747C352.143 576.643 351.934 577.435 351.519 578.123C351.103 578.795 350.511 579.323 349.743 579.707C348.991 580.091 348.11 580.283 347.103 580.283C346.463 580.283 345.711 580.203 344.847 580.043C343.983 579.883 343.159 579.675 342.375 579.419L342.519 577.979H342.663C343.287 578.523 343.991 578.947 344.774 579.251C345.558 579.555 346.335 579.707 347.103 579.707C348.19 579.707 349.071 579.411 349.743 578.819C350.415 578.211 350.751 577.403 350.751 576.395C350.751 575.835 350.623 575.315 350.367 574.835C350.127 574.355 349.718 573.867 349.143 573.371C348.583 572.875 347.806 572.338 346.814 571.762C346.127 571.363 345.471 570.946 344.847 570.514C344.223 570.067 343.71 569.555 343.311 568.979C342.911 568.387 342.711 567.683 342.711 566.867C342.711 565.651 343.151 564.675 344.03 563.939C344.91 563.187 346.071 562.81 347.511 562.81ZM376.473 573.275C376.473 575.211 376.945 576.722 377.889 577.81C378.849 578.882 380.193 579.419 381.921 579.419C383.009 579.419 383.953 579.211 384.753 578.795C385.569 578.363 386.193 577.77 386.625 577.018C387.073 576.267 387.281 575.402 387.249 574.427L386.841 563.147H388.473L388.064 574.427C388 576.346 387.425 577.803 386.337 578.795C385.265 579.787 383.728 580.283 381.729 580.283C379.569 580.283 377.881 579.659 376.665 578.411C375.449 577.147 374.841 575.418 374.841 573.226V563.147H376.473V573.275ZM406.829 577.403H406.974L406.445 563.147H408.077L407.478 580.283H407.189L395.117 565.691H394.974L395.501 579.947H393.869L394.47 562.81H394.758L406.829 577.403ZM489.117 562.81C490.349 562.81 491.493 563.035 492.549 563.483C493.621 563.915 494.549 564.531 495.333 565.331C496.133 566.115 496.749 567.043 497.181 568.115C497.629 569.171 497.853 570.315 497.853 571.547C497.852 572.778 497.629 573.931 497.181 575.003C496.749 576.059 496.133 576.987 495.333 577.787C494.549 578.571 493.621 579.187 492.549 579.635C491.493 580.066 490.349 580.283 489.117 580.283C487.885 580.283 486.733 580.066 485.661 579.635C484.605 579.187 483.677 578.571 482.877 577.787C482.093 576.987 481.477 576.059 481.029 575.003C480.597 573.931 480.381 572.778 480.381 571.547C480.381 570.315 480.597 569.171 481.029 568.115C481.477 567.043 482.093 566.115 482.877 565.331C483.677 564.531 484.605 563.915 485.661 563.483C486.733 563.035 487.885 562.81 489.117 562.81ZM506.558 562.81C507.198 562.81 507.886 562.883 508.622 563.027C509.358 563.155 509.925 563.323 510.325 563.531L510.206 564.875H510.062C509.15 563.883 507.982 563.386 506.558 563.386C505.534 563.386 504.71 563.651 504.086 564.178C503.462 564.69 503.15 565.387 503.149 566.266C503.149 566.922 503.318 567.491 503.653 567.97C504.005 568.434 504.454 568.859 504.998 569.243C505.542 569.611 506.126 569.971 506.75 570.323C507.47 570.739 508.166 571.178 508.838 571.642C509.526 572.106 510.086 572.667 510.518 573.323C510.965 573.963 511.189 574.771 511.189 575.747C511.189 576.643 510.981 577.435 510.565 578.123C510.15 578.795 509.558 579.323 508.79 579.707C508.038 580.091 507.157 580.283 506.149 580.283C505.509 580.283 504.757 580.203 503.894 580.043C503.03 579.883 502.206 579.675 501.422 579.419L501.565 577.979H501.71C502.334 578.523 503.038 578.947 503.821 579.251C504.605 579.555 505.382 579.707 506.149 579.707C507.237 579.707 508.118 579.411 508.79 578.819C509.462 578.211 509.798 577.403 509.798 576.395C509.798 575.835 509.67 575.315 509.414 574.835C509.174 574.355 508.765 573.867 508.189 573.371C507.629 572.875 506.853 572.338 505.861 571.762C505.174 571.363 504.517 570.946 503.894 570.514C503.27 570.067 502.757 569.555 502.357 568.979C501.958 568.387 501.758 567.683 501.758 566.867C501.758 565.651 502.198 564.675 503.077 563.939C503.957 563.187 505.118 562.81 506.558 562.81ZM259.472 564.323L255.271 563.771C254.535 563.675 254.039 563.627 253.783 563.627V570.947C253.991 570.947 254.488 570.923 255.271 570.875L259.207 570.635V571.739L255.271 571.499C254.487 571.451 253.991 571.427 253.783 571.427V579.467C254.071 579.467 254.575 579.419 255.295 579.323L259.543 578.771V579.947H252.151V563.147H259.472V564.323ZM267.789 563.147C269.485 563.147 270.798 563.506 271.726 564.226C272.669 564.93 273.142 565.923 273.142 567.203C273.141 568.195 272.845 569.019 272.253 569.675C271.677 570.33 270.837 570.771 269.733 570.995V571.138C270.789 571.346 271.653 571.843 272.325 572.627C272.997 573.411 273.501 574.379 273.837 575.531C274.141 576.587 274.438 577.411 274.726 578.003C275.029 578.578 275.357 578.995 275.709 579.251C276.077 579.507 276.509 579.691 277.005 579.802V579.947H276.021C275.318 579.947 274.733 579.819 274.27 579.563C273.822 579.307 273.437 578.874 273.117 578.266C272.797 577.658 272.493 576.818 272.205 575.747C271.741 574.099 271.125 572.931 270.357 572.243C269.589 571.555 268.653 571.211 267.549 571.211H267.405V570.779H267.549C270.125 570.779 271.413 569.594 271.413 567.226C271.413 564.891 270.205 563.722 267.789 563.722H266.205V579.947H264.573V563.147H267.789ZM298.104 579.947H296.472V563.147H298.104V579.947ZM370.395 564.323L366.411 563.771C365.691 563.675 365.211 563.627 364.971 563.627V571.138C365.227 571.138 365.723 571.115 366.459 571.067L370.131 570.827V571.93L366.459 571.691C365.723 571.643 365.227 571.619 364.971 571.619V579.947H363.339V563.147H370.395V564.323ZM421.284 564.323L417.084 563.771C416.348 563.675 415.852 563.627 415.596 563.627V570.947C415.804 570.947 416.3 570.923 417.084 570.875L421.02 570.635V571.739L417.084 571.499C416.3 571.451 415.804 571.427 415.596 571.427V579.467C415.884 579.467 416.388 579.419 417.107 579.323L421.355 578.771V579.947H413.964V563.147H421.284V564.323ZM429.602 563.147C431.298 563.147 432.61 563.506 433.538 564.226C434.482 564.93 434.954 565.923 434.954 567.203C434.954 568.195 434.657 569.019 434.065 569.675C433.489 570.33 432.65 570.771 431.546 570.995V571.138C432.602 571.346 433.466 571.843 434.138 572.627C434.81 573.411 435.313 574.379 435.649 575.531C435.953 576.587 436.25 577.411 436.538 578.003C436.842 578.578 437.17 578.995 437.521 579.251C437.889 579.507 438.322 579.691 438.817 579.802V579.947H437.834C437.13 579.947 436.546 579.819 436.082 579.563C435.634 579.307 435.25 578.874 434.93 578.266C434.61 577.658 434.305 576.818 434.018 575.747C433.554 574.099 432.938 572.931 432.17 572.243C431.402 571.555 430.465 571.211 429.361 571.211H429.218V570.779H429.361C431.937 570.779 433.225 569.594 433.226 567.226C433.225 564.891 432.017 563.722 429.602 563.722H428.018V579.947H426.386V563.147H429.602ZM454.415 579.947H452.663L449.687 572.075H444.238L441.767 579.947H440.015L446.471 563.147H447.959L454.415 579.947ZM461.523 563.147C463.219 563.147 464.532 563.506 465.46 564.226C466.404 564.93 466.876 565.923 466.876 567.203C466.876 568.195 466.579 569.019 465.987 569.675C465.411 570.33 464.572 570.771 463.468 570.995V571.138C464.524 571.346 465.388 571.843 466.06 572.627C466.731 573.411 467.235 574.379 467.571 575.531C467.875 576.587 468.172 577.411 468.46 578.003C468.764 578.578 469.091 578.995 469.443 579.251C469.811 579.507 470.243 579.691 470.739 579.802V579.947H469.756C469.052 579.947 468.468 579.819 468.004 579.563C467.556 579.307 467.172 578.874 466.852 578.266C466.532 577.658 466.227 576.818 465.939 575.747C465.476 574.099 464.86 572.931 464.092 572.243C463.324 571.555 462.387 571.211 461.283 571.211H461.14V570.779H461.283C463.859 570.779 465.147 569.594 465.147 567.226C465.147 564.891 463.939 563.722 461.523 563.722H459.939V579.947H458.308V563.147H461.523ZM475.338 579.947H473.706V563.147H475.338V579.947ZM330.07 563.386C328.694 563.386 327.486 563.731 326.446 564.419C325.422 565.091 324.614 566.043 324.022 567.275C323.447 568.491 323.158 569.915 323.158 571.547C323.158 573.178 323.447 574.611 324.022 575.843C324.598 577.058 325.406 578.011 326.446 578.699C327.486 579.371 328.695 579.707 330.07 579.707C331.446 579.707 332.654 579.371 333.694 578.699C334.734 578.011 335.542 577.051 336.118 575.819C336.694 574.587 336.982 573.162 336.982 571.547C336.982 569.931 336.694 568.514 336.118 567.299C335.542 566.067 334.734 565.107 333.694 564.419C332.654 563.731 331.446 563.387 330.07 563.386ZM489.117 563.386C487.741 563.386 486.533 563.731 485.493 564.419C484.469 565.091 483.661 566.043 483.069 567.275C482.494 568.491 482.205 569.915 482.205 571.547C482.205 573.178 482.493 574.611 483.069 575.843C483.645 577.058 484.453 578.011 485.493 578.699C486.533 579.371 487.741 579.707 489.117 579.707C490.493 579.707 491.701 579.371 492.741 578.699C493.781 578.011 494.589 577.051 495.165 575.819C495.741 574.587 496.029 573.162 496.029 571.547C496.029 569.931 495.741 568.514 495.165 567.299C494.589 566.067 493.781 565.107 492.741 564.419C491.701 563.731 490.493 563.387 489.117 563.386ZM234.4 507.363C231.901 509.863 228.983 513.447 225.65 518.113C222.151 522.946 218.65 528.28 215.15 534.113C211.484 539.946 208.15 545.697 205.15 551.363C201.984 557.196 199.567 562.363 197.9 566.863C197.067 569.695 196.651 571.279 196.65 571.613C196.65 572.279 196.817 572.613 197.15 572.613C197.984 572.613 199.484 571.363 201.65 568.863C205.15 565.197 207.817 561.863 209.65 558.863C212.984 553.53 216.151 548.196 219.15 542.863C221.984 537.53 224.734 532.196 227.4 526.863C232.9 516.197 235.233 509.697 234.4 507.363ZM444.406 571.499H449.471L446.782 564.395H446.639L444.406 571.499ZM450.311 558.563L446.135 561.635L445.822 561.346L448.15 558.419H450.311V558.563ZM420.854 396.363C422.187 396.363 423.52 397.53 424.854 399.863C425.686 401.53 424.02 405.614 419.854 412.113C417.687 415.446 414.937 419.613 411.604 424.613C408.437 429.613 404.603 435.28 400.104 441.613C399.27 442.78 397.853 444.864 395.854 447.863C394.02 450.696 391.52 454.447 388.354 459.113C385.187 463.779 382.437 468.03 380.104 471.863C377.77 475.529 375.853 478.78 374.354 481.613C371.354 487.113 368.52 493.03 365.854 499.363C363.187 505.529 361.854 510.363 361.854 513.863C361.854 517.029 363.104 518.613 365.604 518.613C369.604 518.613 376.021 515.196 384.854 508.363C385.853 508.53 386.353 509.03 386.354 509.863C386.353 510.53 385.52 511.697 383.854 513.363C382.354 514.863 380.437 516.447 378.104 518.113C375.937 519.946 373.353 522.03 370.354 524.363L366.354 527.363C363.687 529.529 360.937 530.613 358.104 530.613C356.27 530.613 354.687 530.03 353.354 528.863C352.187 527.696 351.687 526.28 351.854 524.613C352.187 517.78 353.437 511.196 355.604 504.863C357.937 498.53 361.27 490.946 365.604 482.113C366.103 480.947 366.52 479.946 366.854 479.113L368.104 476.613C371.77 468.78 375.52 461.279 379.354 454.113C383.187 446.947 387.02 439.946 390.854 433.113L394.354 426.863C398.353 419.697 401.854 413.946 404.854 409.613C407.853 405.113 410.854 401.863 413.854 399.863C417.687 397.53 420.02 396.363 420.854 396.363ZM461.229 509.114C466.475 509.114 470.729 513.367 470.729 518.614C470.728 523.86 466.475 528.114 461.229 528.114C455.982 528.114 453.229 523.298 454.729 519.799C449.229 514.299 455.982 509.114 461.229 509.114ZM337.021 465.113C340.188 465.113 342.938 465.613 345.271 466.613C347.771 467.446 349.522 468.78 350.521 470.613C351.521 472.28 352.021 474.197 352.021 476.363C352.021 476.696 351.938 477.197 351.771 477.863C351.771 478.529 351.688 479.28 351.521 480.113C351.855 479.947 352.355 479.863 353.021 479.863C353.855 479.863 354.855 479.78 356.021 479.613C357.188 479.446 358.272 479.28 359.271 479.113C360.438 478.946 361.605 478.863 362.771 478.863H363.771C365.604 478.863 365.771 479.613 364.271 481.113C362.938 482.446 361.104 483.28 358.771 483.613L350.271 484.613C348.605 489.279 345.688 493.947 341.521 498.613C337.522 503.279 333.021 507.363 328.021 510.863C323.188 514.196 318.605 516.363 314.271 517.363C311.772 518.03 309.188 518.363 306.521 518.363C300.022 518.363 296.772 515.446 296.771 509.613V507.863C296.938 507.03 297.105 506.029 297.271 504.863C298.938 498.03 302.272 491.446 307.271 485.113C312.438 478.613 318.355 472.946 325.021 468.113C327.522 466.113 331.522 465.113 337.021 465.113ZM434.678 465.113C437.844 465.113 440.594 465.613 442.928 466.613C445.427 467.446 447.178 468.78 448.178 470.613C449.178 472.28 449.678 474.197 449.678 476.363C449.678 476.696 449.594 477.197 449.428 477.863C449.428 478.529 449.344 479.28 449.178 480.113C449.511 479.947 450.011 479.863 450.678 479.863C451.511 479.863 452.511 479.78 453.678 479.613C454.844 479.446 455.928 479.28 456.928 479.113C458.096 478.946 465.182 475.614 467.682 473.614C471.684 470.412 484.182 464.114 464.682 482.114C464.139 482.614 458.761 483.28 456.428 483.613L447.928 484.613C446.261 489.279 443.344 493.947 439.178 498.613C435.178 503.279 430.677 507.363 425.678 510.863C420.845 514.196 416.261 516.363 411.928 517.363C409.428 518.03 406.844 518.363 404.178 518.363C397.678 518.363 394.428 515.446 394.428 509.613V507.863C394.594 507.03 394.761 506.029 394.928 504.863C396.594 498.03 399.928 491.446 404.928 485.113C410.094 478.613 416.011 472.946 422.678 468.113C425.178 466.113 429.178 465.113 434.678 465.113ZM292.65 452.363C290.484 452.363 287.734 453.113 284.4 454.613C281.234 456.113 277.984 458.03 274.65 460.363C271.317 462.696 268.317 465.03 265.65 467.363C263.151 469.696 261.4 471.697 260.4 473.363C259.567 474.53 258.567 476.614 257.4 479.613C256.734 480.946 256.234 482.113 255.9 483.113C255.567 484.112 255.317 484.78 255.15 485.113C254.317 487.279 253.317 489.697 252.15 492.363C250.984 494.863 249.734 497.53 248.4 500.363L243.9 509.863C251.734 508.53 260.067 505.113 268.9 499.613C277.733 494.113 285.067 487.529 290.9 479.863C296.733 472.197 299.4 464.529 298.9 456.863C297.9 453.863 295.817 452.363 292.65 452.363ZM339.021 486.113C329.688 487.446 321.355 488.196 314.021 488.363C310.355 494.363 308.105 499.363 307.271 503.363C307.105 505.529 307.688 507.113 309.021 508.113C310.355 509.113 312.022 509.613 314.021 509.613C315.688 509.613 318.022 508.863 321.021 507.363C324.188 505.696 327.438 503.529 330.771 500.863C334.105 498.197 337.105 495.363 339.771 492.363C340.605 491.53 341.438 490.529 342.271 489.363C343.105 488.03 344.022 486.696 345.021 485.363L339.021 486.113ZM436.678 486.113C427.345 487.446 419.011 488.196 411.678 488.363C408.011 494.363 405.761 499.363 404.928 503.363C404.761 505.529 405.344 507.113 406.678 508.113C408.011 509.113 409.678 509.613 411.678 509.613C413.344 509.613 415.678 508.863 418.678 507.363C421.844 505.696 425.095 503.529 428.428 500.863C431.761 498.197 434.761 495.363 437.428 492.363C438.261 491.53 439.095 490.529 439.928 489.363C440.761 488.03 441.678 486.696 442.678 485.363L436.678 486.113ZM338.521 470.863C336.022 470.863 333.438 471.697 330.771 473.363C328.272 474.863 325.605 476.863 322.771 479.363C326.271 480.53 331.522 481.113 338.521 481.113H342.021C343.521 480.946 345.188 480.78 347.021 480.613C347.188 480.28 347.271 479.529 347.271 478.363C347.271 475.363 346.021 473.28 343.521 472.113C342.188 471.28 340.521 470.863 338.521 470.863ZM436.178 470.863C433.678 470.863 431.094 471.697 428.428 473.363C425.928 474.863 423.261 476.863 420.428 479.363C423.928 480.53 429.178 481.113 436.178 481.113H439.678C441.178 480.946 442.845 480.78 444.678 480.613C444.844 480.28 444.928 479.529 444.928 478.363C444.928 475.363 443.677 473.28 441.178 472.113C439.844 471.28 438.178 470.863 436.178 470.863ZM241.412 371.64C236.132 379.023 230.64 386.266 224.932 393.363C218.765 401.03 211.931 409.197 204.432 417.863C197.098 426.363 188.765 436.03 179.432 446.863L176.182 450.613L187.682 450.113L209.682 449.363C209.819 449.089 210.569 447.589 211.932 444.863C213.598 441.363 216.099 436.029 219.432 428.863C224.098 419.197 228.182 410.613 231.682 403.113C235.348 395.447 238.348 388.863 240.682 383.363C242.627 379.002 244.191 375.179 245.381 371.898L241.412 371.64ZM178.511 52.6492C179.558 52.1096 180.647 52.8817 182.995 55.8484C184.705 58.0031 187.11 60.432 188.341 61.2458C189.574 62.0678 192.11 63.1337 193.979 63.615C195.926 64.114 198.597 64.0595 200.213 63.4841C201.764 62.9313 204.655 61.2452 206.628 59.7449C208.601 58.2448 211.109 56.9477 212.209 56.8708C213.309 56.7943 215.682 57.114 217.182 58.114C218.572 59.2538 221.681 61.1143 222.857 62.614C223.372 63.1969 224.114 64.1223 224.84 65.1492C224.861 65.1301 224.883 65.1111 224.904 65.0925C226.278 63.8809 229.302 62.2908 232.204 61.2507C235.476 60.0811 238.532 59.5019 241.212 59.5388C243.646 59.5772 247.373 60.4931 250.543 61.8416C253.794 63.2232 257.021 65.2817 258.957 67.2087C261.71 69.9558 262.39 71.1708 264.496 77.1804C265.815 80.9453 267.068 85.265 267.668 89.5203L271.912 89.5701C274.243 89.5986 276.465 89.5116 276.842 89.3796C277.218 89.2472 277.457 87.5178 277.379 85.5398C277.294 83.5641 277.503 81.4391 277.837 80.8142C278.165 80.1922 278.934 79.7535 279.538 79.8337C280.434 79.9579 280.645 80.8463 280.744 89.5486L282.881 89.615C284.054 89.6498 285.689 89.6227 286.509 89.5505C287.764 89.4487 288.015 88.6914 288.087 84.7312C288.134 81.8403 288.559 79.893 289.195 79.6697C289.757 79.473 290.514 79.6381 290.878 80.0408C291.242 80.4442 291.532 82.7645 291.527 89.613L298.688 89.2097L298.597 85.114C298.546 82.8647 298.897 80.6201 299.374 80.1375C299.869 79.6413 300.741 79.4972 301.372 79.8064C302.262 80.2402 302.464 81.3232 302.339 84.8484C302.253 87.3215 302.263 89.3231 302.366 89.3113C302.467 89.2914 303.528 89.3579 304.727 89.4451C305.918 89.5346 307.512 89.3914 308.266 89.1277C309.313 88.7607 309.594 87.7622 309.463 84.865C309.365 82.7861 309.681 80.6845 310.157 80.2019C310.641 79.7174 311.434 79.5243 311.936 79.7712C312.516 80.0681 312.834 81.7875 312.854 89.0574L314.99 89.1228C316.163 89.1576 317.795 89.1237 318.615 89.0515C319.866 88.936 320.083 88.2599 319.969 84.6882C319.892 82.3637 320.152 80.1438 320.545 79.7517C320.929 79.3558 321.685 79.2747 322.21 79.5671C322.851 79.9269 323.229 81.2711 323.369 83.6658C323.479 85.6252 323.68 87.6684 323.808 88.2078C323.955 88.8246 325.768 89.1507 328.618 89.0818C331.131 89.0226 333.163 88.8621 333.139 88.7341C333.117 88.598 333.395 85.7971 333.759 82.4988C334.233 78.2593 335.213 74.9797 337.106 71.3035C338.895 67.8328 340.962 65.1097 343.338 63.0935C346.315 60.5591 347.838 59.7942 352.81 58.321C357.434 56.954 359.61 56.6917 362.773 57.1433C364.996 57.4557 368.366 58.4956 370.262 59.4529C372.157 60.4103 374.826 62.3658 376.186 63.7878C377.703 65.3772 379.163 67.8323 379.98 70.1433C380.707 72.2174 381.363 75.2707 381.432 76.9373C381.496 78.6363 380.682 81.8418 379.574 84.2283C377.98 87.6614 376.925 88.9078 374.128 90.6414C371.399 92.3278 369.927 92.8433 367.28 93.033C365.234 93.1813 362.579 92.6444 360.538 91.6687C358.295 90.5898 356.689 89.1943 355.721 87.4841C354.926 86.0718 354.118 83.765 353.922 82.3503C353.71 80.803 354.282 78.3124 355.354 76.0847C357.077 72.514 357.267 72.355 360.88 71.4578C363.561 70.795 365.325 70.83 369.551 72.6462L368.466 71.1052C367.877 70.2586 365.982 68.9313 364.266 68.157C362.385 67.3095 360.067 66.9462 358.429 67.2283C356.933 67.4991 354.549 68.3273 353.122 69.0808C351.695 69.8345 349.513 71.7667 348.269 73.3708C347.031 74.9728 345.564 78.0012 345.014 80.0925C344.466 82.1909 344.087 85.7819 344.175 88.072C344.289 91.0295 345.154 94.5313 347.15 100.095C348.699 104.426 351.461 110.529 353.294 113.699C355.125 116.862 360.391 125.308 364.997 132.464C369.596 139.622 375.656 149.435 378.469 154.26C382.679 161.515 384.313 165.125 387.848 174.992C391.047 183.947 392.309 188.424 392.863 192.834C393.268 196.074 393.647 201.475 393.703 204.837C393.759 208.199 393.491 213.312 393.115 216.187C392.742 219.07 391.625 224.304 390.642 227.815C389.661 231.333 387.219 237.546 385.222 241.628C383.231 245.707 379.464 251.846 376.86 255.272C374.256 258.698 370.063 263.488 367.533 265.92C365.006 268.358 360.749 272.003 358.075 274.023C355.402 276.044 351.643 278.653 349.727 279.808C347.923 280.902 346.305 281.673 345.979 281.613C342.318 283.355 338.414 284.747 334.335 286.024L329.587 287.128C321.771 288.945 313.754 289.754 305.732 289.535C293.931 289.212 282.297 286.669 271.438 282.038L263.961 278.85C254.427 274.785 244.464 269.256 237.182 261.881V261.88C236.539 261.287 235.907 260.694 235.338 260.144C233.328 258.205 229.889 254.052 227.689 250.911C224.629 246.539 222.984 243.335 220.123 236.078C215.298 237.457 211.412 236.981 208 237.484C203.67 238.122 195.525 238.259 190.5 237.484C185.475 236.709 176.304 233.313 173 232.444C169.696 231.575 157.581 225.916 154 223.483C150.787 221.3 147.212 219.664 144.01 217.464C143.414 217.054 143.249 217.06 143.433 217.855C143.685 218.522 145.058 220.285 146.475 221.788C147.9 223.288 150.934 224.905 153.22 226.603C155.505 228.302 160.147 230.12 163.54 231.866C166.925 233.615 172.428 235.832 175.763 236.79C178.417 237.558 185.668 239.75 190.434 240.852C192.456 241.32 193.424 241.444 195.5 241.444C195.5 239.944 195.499 247.26 195.313 250.569C195.139 253.884 194.349 262.341 193.564 269.359C192.782 276.386 192.063 284.708 191.971 287.867C191.87 291.028 192.064 294.432 192.407 295.439C192.936 297.026 193.201 296.715 194.404 293.149C195.164 290.884 196.102 287.492 196.485 285.603C196.879 283.722 197.235 281.963 197.285 281.688C197.338 281.424 201.54 282.806 206.615 284.762C211.691 286.719 223.112 291.714 231.999 295.861C240.887 300.008 252.25 305.85 257.252 308.842C262.264 311.838 267.305 315.279 268.461 316.501C269.624 317.72 270.987 319.897 271.503 321.343C272.011 322.791 272.169 324.981 271.849 326.22C271.528 327.46 270.005 329.83 268.463 331.497C266.051 334.105 264.476 334.929 257.145 337.453C250.946 339.58 246.572 340.531 241.099 340.94C236.953 341.248 229.018 341.349 223.457 341.171C217.893 340.985 207.776 340.122 200.973 339.253C197.691 338.833 193.414 338.185 189.111 337.474C158.565 334.405 127.72 335.689 97.5039 341.305L93.1025 342.124L76.0146 347.303C68.7754 349.498 62.0071 353.02 56.0557 357.689L32.5596 376.123L38.6025 350.624L44.6895 334.392C47.5033 326.889 51.502 319.3 57.1865 313.637L57.7422 313.095C57.6343 312.761 59.6303 310.625 62.1885 308.356C64.7551 306.084 70.0909 300.615 74.0566 296.19C78.0252 291.773 83.8311 284.376 86.9639 279.752C90.0936 275.12 94.2075 267.77 96.1074 263.415C98.0072 259.059 100.333 252.291 101.282 248.359C102.833 241.918 103.323 241.009 106.314 239.015C108.143 237.802 110.528 235.867 111.625 234.719C112.722 233.571 114.919 230.683 116.508 228.318C118.094 225.945 120.273 221.245 121.353 217.868C122.432 214.49 123.794 207.978 125.451 195.074L128.642 195.747C130.397 196.113 132.568 196.188 133.473 195.917C134.374 195.637 135.368 194.688 135.686 193.804C136.003 192.921 135.947 191.595 135.564 190.866C135.114 189.997 133.838 189.727 131.883 190.085C130.233 190.381 127.534 190.254 125.875 189.8C124.219 189.353 121.07 187.602 118.883 185.925C116.684 184.241 113.382 180.654 111.542 177.945C108.595 173.634 108.061 172.293 107.259 167.177C106.733 163.862 106.752 159.712 107.305 157.582C107.837 155.523 109.199 152.692 110.336 151.294C111.475 149.904 113.415 148.151 114.654 147.408C115.896 146.673 118.457 145.812 120.352 145.511C121.323 145.352 122.284 145.336 123.553 145.611C129.306 146.859 132.987 152.352 134.595 158.015C136.997 166.452 137.314 167.096 140.895 170.803C143.488 173.484 145.565 174.82 147.524 175.069C149.095 175.273 151.107 175.177 151.997 174.865C152.171 174.804 152.374 174.679 152.612 174.474C157.153 170.561 156.614 163.403 154.632 157.746C151.923 150.016 151.654 148.574 152.512 146.51C153.059 145.219 154.55 143.07 155.837 141.737C157.127 140.413 160.425 137.583 163.176 135.447C166.714 132.708 168.663 130.462 169.829 127.772C170.738 125.672 172.508 120.944 173.759 117.252C175.012 113.568 176.231 108.333 176.472 105.622C176.873 101.037 177.165 100.517 180.714 97.9646C182.812 96.4568 188.836 92.3549 194.104 88.8455C199.37 85.328 204.603 82.1853 205.74 81.8503C207.749 81.2553 207.835 81.3708 209.573 86.9783C210.552 90.1346 213.527 97.1717 216.188 102.61C219.578 109.537 221.16 113.61 221.463 116.212C221.706 118.253 221.821 121.485 221.709 123.396C221.605 125.305 222.028 128.329 222.652 130.109C223.277 131.891 226.942 138.466 231.5 146.493C231.567 146.61 231.633 146.729 231.699 146.846C233.403 143.523 235.212 140.05 236.994 136.702C242.841 125.73 249.028 113.622 250.75 109.783C252.464 105.947 254.393 100.637 255.031 97.9841C255.67 95.3319 256.297 91.2225 256.426 88.8484C256.557 86.3508 256.156 83.1016 255.468 81.114C254.7 78.9236 253.339 76.7941 251.679 75.1931C250.251 73.818 247.5 72.1075 245.558 71.3894C243.615 70.6713 240.673 70.1728 239.021 70.283C237.366 70.3863 234.99 71.0194 233.75 71.6921C232.503 72.3673 231.2 73.5845 230.854 74.3972C230.267 75.7478 230.438 75.7502 232.804 74.4753C234.731 73.4388 236.118 73.2066 238.252 73.573C239.823 73.8449 242.019 74.9129 243.117 75.9421C244.218 76.9783 245.494 78.9059 245.947 80.2224C246.403 81.5461 246.511 84.0681 246.185 85.8347C245.858 87.6015 245.027 89.8997 244.341 90.947C243.648 91.9968 241.604 93.5577 239.794 94.4226C237.599 95.4685 235.403 95.9649 233.206 95.9099C231.999 95.8865 230.376 95.5134 228.903 94.9685C221.108 93.6554 214.945 86.4623 214.459 85.114L214.458 85.1111C214.094 84.5556 213.7 83.8152 213.385 82.9158C212.681 80.9086 211.426 78.4951 210.589 77.5339C209.755 76.581 208.214 75.6847 207.168 75.5515C205.825 75.3769 203.785 76.246 200.25 78.5027C197.086 80.5205 191.503 83.0042 185.114 85.2341C175.879 88.4706 175.24 88.804 177.815 89.0466C179.366 89.1937 181.281 89.1045 182.063 88.8484C182.849 88.6004 183.598 88.6649 183.723 88.9939C183.853 89.3214 181.231 91.4853 177.904 93.7869C174.579 96.0976 168.462 100.559 156.779 109.415L161.457 107.848C164.029 106.993 166.566 106.349 167.088 106.412C167.61 106.474 168.946 106.214 170.062 105.823C172.005 105.142 172.077 105.217 171.725 107.74C171.521 109.183 170.665 111.692 169.816 113.316C168.965 114.932 167.079 117.538 165.628 119.101C164.176 120.664 162.171 122.23 161.164 122.574C160.16 122.926 156.203 123.304 152.372 123.42C148.541 123.535 143.863 123.903 141.977 124.227C140.094 124.56 137.001 125.644 135.096 126.638C133.19 127.633 131.039 129.352 130.312 130.469C129.027 132.428 129.196 132.414 135.654 130.151C141.175 128.217 143.445 127.875 148.812 128.176C152.383 128.379 156.999 128.142 159.08 127.649C161.291 127.138 163.549 126.037 164.521 125.024C166.115 123.348 166.154 123.353 165.392 125.274C164.96 126.38 162.645 129.108 160.252 131.355C157.856 133.595 154.398 136.852 152.572 138.592C150.743 140.323 148.613 143.296 147.842 145.193C147.071 147.09 146.558 149.724 146.711 151.043C146.856 152.364 147.632 154.655 148.436 156.118C149.242 157.589 150.581 159.983 151.417 161.435C152.577 163.473 152.72 164.742 152.016 166.906C151.513 168.454 150.376 169.98 149.485 170.292C148.571 170.612 146.67 169.988 145.123 168.867C142.932 167.281 142.016 165.811 140.593 161.594C139.613 158.693 138.409 154.197 137.917 151.625C137.202 147.822 136.608 146.567 134.786 144.997C133.549 143.931 130.867 142.58 128.829 142.004C126.78 141.422 123.692 140.96 121.948 140.989C120.202 141.01 117.329 141.554 115.551 142.186C113.773 142.819 111.079 144.18 109.567 145.21C108.053 146.231 105.997 148.533 104.996 150.32C103.995 152.107 102.773 155.907 102.277 158.771C101.435 163.628 100.335 164.963 103.115 172.895C105.401 179.418 108.034 181.783 110.337 184.466C111.983 186.388 115.082 189.083 121.079 192.97L120.225 197.587C119.759 200.122 118.695 203.803 117.865 205.766C117.043 207.727 114.549 211.164 112.335 213.403C108.945 216.827 107.343 217.806 102.228 219.572C97.1278 221.332 94.8742 221.595 88.2549 221.197C83.9108 220.938 77.0769 220.679 73.0645 220.64C67.443 220.575 64.3738 221.05 59.6953 222.689C56.3524 223.861 52.3664 225.767 50.8271 226.925C49.277 228.077 47.0333 230.699 45.8252 232.749C44.6175 234.798 43.3731 236.252 43.0781 235.984C42.7757 235.718 42.243 233.55 41.8838 231.177C41.5246 228.803 41.5982 224.733 42.0439 222.141C42.4869 219.541 43.7357 215.868 44.8213 213.961C45.9097 212.062 48.321 209.035 50.1895 207.235C52.0607 205.443 55.512 203.025 57.8516 201.869C61.2384 200.2 62.9826 199.834 66.3203 200.1C68.6398 200.287 73.7982 201.598 77.791 203.007C81.7864 204.424 86.8812 205.555 89.127 205.532C91.3726 205.508 94.2911 205.094 95.6211 204.61C96.9509 204.126 99.2617 202.552 100.756 201.111C102.25 199.67 103.929 197.454 104.484 196.187C105.037 194.912 105.241 193.759 104.946 193.617C104.651 193.475 103.225 194.383 101.793 195.639C100.358 196.887 97.3616 198.556 95.1357 199.336C92.9099 200.116 89.734 200.675 88.0752 200.584C86.4136 200.484 81.9842 199.283 78.2197 197.903C74.4553 196.523 69.6254 195.188 63.582 194.489L66.5684 186.545L72.4248 185.101C76.6456 184.049 79.5665 182.789 82.877 180.565C85.4088 178.869 88.9024 176 90.6406 174.191C92.3788 172.382 94.3798 169.636 96.3828 165.29L94.1621 164.141C92.9399 163.506 90.9029 162.957 89.6465 162.925C87.4648 162.871 87.5435 162.707 91.1777 159.516C93.2732 157.664 96.3906 154.29 98.0918 152.012C99.7901 149.727 102.727 145.271 104.615 142.101C106.503 138.932 108.283 135.609 108.571 134.717C108.851 133.828 108.788 132.795 108.422 132.424C108.049 132.054 113.403 127.415 120.308 122.124C127.585 116.548 132.722 112.066 132.536 111.476C132.356 110.912 131.205 109.989 129.971 109.422C128.738 108.855 127.682 108.199 127.619 107.974C127.551 107.753 129.64 106.948 132.249 106.197C134.858 105.446 139.504 103.245 142.577 101.304C145.642 99.3667 150.552 95.2744 153.48 92.2214C156.406 89.1603 159.687 84.802 160.765 82.5339C162.381 79.1322 163.795 77.6918 168.811 74.3708C172.159 72.1525 175.418 69.7836 176.054 69.1062C176.689 68.4293 176.894 66.9663 176.503 65.8494C176.075 64.6272 174.653 63.3979 172.918 62.7517C171.338 62.1602 167.662 61.6043 164.761 61.5212C161.857 61.4302 156.505 61.9237 152.875 62.614C149.244 63.296 146.036 63.7849 145.755 63.6921C145.477 63.5988 145.674 62.9936 146.192 62.3484C146.711 61.7031 147.415 61.0655 147.747 60.949C148.076 60.8246 151.016 60.448 154.271 60.116C158.012 59.7413 163.316 58.3824 168.663 56.4451C173.312 54.7522 177.747 53.0439 178.511 52.6492ZM152.297 254.182C152.172 254.175 152.051 254.213 151.955 254.286C151.8 254.404 151.766 254.567 151.759 254.598C151.746 254.656 151.743 254.708 151.742 254.742C151.74 254.869 151.764 255.047 151.795 255.232C151.86 255.626 151.988 256.232 152.165 256.995C152.52 258.526 153.082 260.733 153.763 263.247L153.764 263.249C155.415 269.29 157.626 275.21 160.259 280.611L160.687 281.478C162.916 285.93 166.405 292.007 168.722 295.438V295.439C171.182 299.097 175.309 304.42 177.907 307.289L177.908 307.29C180.52 310.158 186.164 315.162 190.473 318.423L191.289 319.034C193.209 320.458 195.232 321.871 197.027 323.052C198.812 324.225 200.398 325.187 201.439 325.7L201.852 325.892C202.707 326.264 203.37 326.551 203.794 326.709C203.988 326.781 204.193 326.851 204.352 326.866C204.395 326.87 204.469 326.874 204.553 326.856C204.634 326.839 204.794 326.785 204.898 326.617C205.005 326.446 204.982 326.275 204.958 326.189C204.934 326.104 204.895 326.038 204.87 326.001C204.78 325.865 204.613 325.713 204.441 325.565C204.252 325.402 203.997 325.196 203.676 324.946C203.033 324.445 202.105 323.748 200.876 322.824L199.795 321.993C197.137 319.909 193.627 316.889 191.477 314.813C189.016 312.437 185.283 308.455 183.195 305.953C181.374 303.769 177.935 299.01 175.063 294.72L173.875 292.92C170.845 288.252 164.971 277.861 160.82 269.827C158.747 265.804 156.8 262.066 155.335 259.283C154.603 257.892 153.99 256.738 153.542 255.907C153.318 255.492 153.134 255.156 152.996 254.91C152.932 254.795 152.874 254.691 152.823 254.605L152.701 254.413L152.646 254.347C152.62 254.32 152.585 254.289 152.541 254.261C152.494 254.232 152.409 254.19 152.297 254.182ZM248.003 279.364C248.295 279.262 249.929 279.362 251.633 279.583C253.329 279.806 256.543 280.625 258.76 281.402C260.977 282.179 264.335 284.32 266.216 286.16C268.105 287.997 271.191 291.824 273.076 294.662C274.97 297.497 277.936 302.902 279.676 306.673C281.746 311.154 282.56 313.632 282.037 313.825C281.594 313.989 279.468 312.589 277.315 310.699C275.165 308.817 270.591 304.376 267.141 300.832C263.701 297.293 258.241 291.436 255.009 287.815C251.773 284.207 248.757 280.866 248.301 280.396C247.846 279.929 247.712 279.466 248.003 279.364ZM208.977 273.919C217.427 270.957 218.188 270.846 224.021 271.619C227.397 272.072 231.919 273.459 234.081 274.701C236.235 275.946 240.092 279.092 242.648 281.695C245.206 284.298 249.401 289.371 251.963 292.972C254.524 296.573 257.086 300.175 257.649 300.977C258.216 301.775 251.161 298.887 241.975 294.555C232.778 290.226 220.071 284.7 213.73 282.296C207.387 279.884 201.72 277.717 201.138 277.484C200.51 277.222 203.727 275.768 208.977 273.919ZM114.393 218.626C116.502 216.423 116.545 216.418 116.313 218.271C116.18 219.318 114.793 222.076 113.233 224.394C111.666 226.716 108.646 230.056 106.522 231.827C103.635 234.22 99.5971 236.289 90.7314 239.932C81.6958 243.635 78.062 245.508 75.7217 247.674C74.0179 249.243 71.6696 252.266 70.5059 254.391C69.3313 256.512 68.1897 259.948 67.9639 262.026C67.689 264.613 68.1797 267.595 69.5303 271.474C70.9664 275.624 72.2235 277.811 76.873 282.08L72.5361 284.617C70.1432 286.01 66.1131 287.631 63.5723 288.213C61.0234 288.797 57.2337 288.953 55.1416 288.559C53.0416 288.168 50.3245 287.184 49.083 286.365C47.8526 285.551 45.9661 283.204 44.9121 281.156C42.9922 277.467 42.9973 277.429 45.1914 277.26C46.4052 277.17 48.8153 276.162 50.542 275.02C52.2657 273.871 54.2251 271.63 54.9111 270.009C55.5916 268.398 55.9822 266.116 55.7852 264.93C55.5906 263.753 53.9965 260.422 52.249 257.536C50.4792 254.612 48.8603 250.953 48.6064 249.269C48.3452 247.616 48.4005 244.324 48.7168 241.96C49.036 239.604 49.7587 236.815 50.3232 235.781C50.885 234.739 52.7235 232.568 54.4131 230.958C56.0945 229.351 58.7443 227.577 60.3066 227.029C61.8579 226.476 65.5041 225.78 68.3965 225.475C71.2889 225.171 78.0444 225.202 83.415 225.538C88.7804 225.884 95.3342 225.914 97.9854 225.621C100.626 225.323 104.915 224.129 107.51 222.974C110.104 221.82 113.199 219.862 114.393 218.626ZM93.4961 244.581C94.9141 244.011 96.3426 243.756 96.6533 244.019C96.9715 244.281 96.3287 247.27 95.2334 250.652C94.1297 254.038 91.9234 259.647 90.3301 263.113C88.7367 266.58 86.2226 271.232 84.751 273.438C83.2741 275.655 81.6141 277.636 81.0693 277.845C80.5163 278.057 79.0732 277.154 77.8623 275.825C76.6459 274.506 75.0824 271.782 74.3789 269.775C73.6783 267.776 73.1397 264.993 73.1807 263.606C73.2299 262.217 73.8745 259.7 74.6299 258.017C75.3852 256.335 76.8927 253.999 77.9785 252.818C79.0644 251.638 82.4185 249.536 85.4326 248.152C88.4436 246.761 92.0696 245.153 93.4961 244.581ZM306.626 93.7449C305.238 93.7088 303.706 93.8152 303.238 93.9714C302.711 94.1597 302.59 105.984 302.918 124.244C303.217 140.734 303.711 173.157 304.026 196.297C304.31 217.583 303.119 253.198 302.94 259.84C305.079 259.948 307.22 259.956 309.357 259.866C309.756 245.764 311.227 197.897 310.792 165.487C310.272 127.213 309.693 95.4344 309.501 94.8435C309.318 94.2775 308.021 93.7787 306.626 93.7449ZM316.399 93.3865C314.858 93.3963 313.552 93.685 313.486 94.0232C313.421 94.3993 313.759 125.31 314.228 162.746C314.674 198.413 313.127 252.817 312.456 259.665C315.694 259.382 318.914 258.873 322.094 258.134C322.188 258.112 322.283 258.087 322.377 258.064C322.134 238.993 321.777 187.658 321.315 159.109C320.744 123.607 320.029 94.2913 319.732 93.948C319.436 93.6291 317.934 93.379 316.399 93.3865ZM295.139 93.8894C293.2 93.9696 291.872 94.3267 291.804 94.7888C291.737 95.2354 292.182 130.534 292.786 173.258C293.497 223.622 293.184 248.144 292.446 258.561L295.42 259.043C296.784 259.263 298.153 259.443 299.524 259.581C299.624 254.292 299.764 246.69 299.71 240.653C299.621 230.33 300.253 182.961 299.829 152.035C299.408 121.128 298.903 95.3724 298.711 94.782C298.495 94.1659 297.071 93.8116 295.139 93.8894ZM284.29 93.8787C281.584 93.8972 281.493 93.9677 281.405 96.0427C281.35 97.2325 281.625 125.756 282.015 159.431C282.405 193.113 281.772 241.006 281.886 249.206C281.921 251.657 281.94 253.999 281.949 256.086C284.396 256.851 286.89 257.495 289.433 258.011C289.454 243.057 289.619 205.975 289.157 172.684C288.574 130.006 287.865 94.8128 287.582 94.4548C287.306 94.1287 285.825 93.8712 284.29 93.8787ZM332.641 93.4744C332.077 93.3568 329.91 93.3174 327.816 93.3748C325.725 93.4389 324.001 93.6054 323.989 93.7478C323.97 93.972 324.346 120.039 324.812 151.735C325.28 183.492 325.41 253.732 325.387 256.845C325.386 256.992 325.382 257.137 325.38 257.281C333.461 254.978 341.034 251.228 347.737 246.23C348.391 245.395 349.242 244.38 350.325 243.135C353.039 240.025 356.431 235.885 357.862 233.938C359.294 231.992 361.569 228.265 362.929 225.652C364.281 223.042 366.06 218.598 366.87 215.778C367.68 212.958 368.623 208.476 368.954 205.824C369.285 203.172 369.547 198.415 369.528 195.247C369.512 192.086 368.883 186.08 368.126 181.903C367.058 176.005 365.735 171.681 362.189 162.463C359.59 155.726 354.897 145.272 351.312 138.22C347.84 131.406 343.237 121.782 341.071 116.83C338.527 110.996 336.53 105.339 335.399 100.755C334.057 95.3233 333.418 93.6326 332.641 93.4744ZM272.581 94.1541C270.109 94.0749 267.854 94.0889 267.571 94.1804C267.281 94.2757 266.556 97.0278 265.945 100.307C265.342 103.586 263.992 108.817 262.959 111.923C261.921 115.038 258.746 123.345 255.906 130.396C253.064 137.441 249.175 147.136 247.269 151.939C245.356 156.745 242.731 164.298 241.434 168.734C240.141 173.161 238.595 180.243 237.999 184.464C237.405 188.691 237.014 194.878 237.132 198.219C237.243 201.561 237.813 206.896 238.396 210.073C239.027 213.518 240.443 218.149 241.903 221.526C243.252 224.651 245.854 229.443 247.696 232.178C249.509 234.882 252.487 238.6 257.634 243.795C264.069 248.359 270.898 252.102 278.153 254.789C278.134 249.192 278.091 241.312 278.024 232.881C277.906 217.496 278.56 169.773 278.191 143.477C277.825 117.205 277.424 95.3899 277.299 94.9841C277.174 94.6052 275.053 94.2332 272.581 94.1541ZM231 145.974C232.184 148.264 233.233 150.618 234.204 152.997C235.877 157.104 237.31 161.294 238.623 165.538C239.087 166.936 239.1 168.038 238.121 168.894C236.792 170.157 234.468 170.446 232.314 170.747C229.123 171.152 225.976 171.651 222.809 172.239C221.976 172.399 221.159 172.557 220.291 172.777C219.857 172.895 219.428 172.995 218.866 173.266C218.718 173.343 218.559 173.431 218.359 173.598C218.172 173.76 217.869 174.071 217.775 174.591C217.688 175.114 217.865 175.503 217.982 175.719C218.109 175.944 218.225 176.079 218.33 176.2C219.044 176.894 219.442 176.917 219.897 177.103C220.338 177.249 220.76 177.35 221.182 177.433C222.021 177.596 222.854 177.684 223.702 177.707C224.529 177.724 225.278 177.745 226.097 177.76C226.096 177.765 226.096 177.77 226.096 177.774C226.029 178.266 225.948 178.766 225.859 179.264C225.724 180.105 225.544 180.929 225.643 182.069C225.69 183.287 226.721 184.528 227.406 185.024C228.049 185.547 228.832 186.545 229.046 187.099C229.075 187.145 229.108 187.659 229.033 188.062C228.967 188.488 228.833 188.932 228.666 189.27C228.355 190.579 225.762 190.965 223.56 191.556C222.762 191.748 221.96 191.934 221.155 192.118C219.809 192.427 218.471 192.756 217.132 193.116C216.46 193.297 215.794 193.483 215.119 193.688C214.781 193.791 214.44 193.899 214.09 194.02C213.913 194.082 213.739 194.145 213.541 194.224C213.442 194.265 213.336 194.309 213.216 194.367C213.143 194.403 213.089 194.428 212.979 194.494C212.929 194.525 212.877 194.557 212.783 194.63C212.71 194.699 212.552 194.773 212.331 195.174L212.318 195.198C212.19 195.454 212.121 195.843 212.196 196.184C212.264 196.51 212.408 196.728 212.518 196.864C212.737 197.124 212.883 197.2 212.992 197.27C213.211 197.397 213.344 197.442 213.467 197.487C213.708 197.569 213.893 197.611 214.077 197.65C214.439 197.725 214.77 197.769 215.096 197.806C215.747 197.879 216.378 197.913 217.011 197.927C219.276 197.986 221.633 198.138 223.877 198.382C225.196 198.479 226.652 199.118 226.688 199.481C226.768 199.572 226.689 200.188 226.375 200.753C226.074 201.333 225.634 201.924 225.145 202.48C223.894 204.028 222.797 205.299 222.319 207.777C222.284 210.074 223.438 211.556 224.522 212.903C225.674 214.293 226.768 216.001 227.476 217.632C228.043 219.085 228.407 220.855 228.445 222.411C227.449 225.716 225.44 229.784 223.124 232.958C222.156 234.25 220.64 235.118 219.049 235.689C216.659 236.537 214.069 236.835 211.5 236.946C214.072 237.033 216.686 236.934 219.223 236.231C220.91 235.752 222.615 234.958 223.84 233.535C226.508 230.205 228.606 226.958 230.085 222.46C230.126 220.526 229.855 218.797 229.252 216.959C228.476 214.937 227.478 213.24 226.193 211.533C225.293 210.401 224.55 208.953 224.659 207.969C224.865 206.968 225.977 205.272 227.011 204.18C228.076 202.83 229.764 201.592 229.203 198.6C227.958 195.996 225.818 195.964 224.225 195.63C223.088 195.482 221.968 195.363 220.848 195.266C221.172 195.19 221.496 195.113 221.82 195.039C222.63 194.855 223.442 194.67 224.26 194.473C225.423 194.19 226.593 193.909 227.825 193.484C228.438 193.263 229.101 193.015 229.802 192.513C230.521 192.018 231.069 191.173 231.342 190.571C231.926 189.143 232.327 188.039 231.803 186.068C231.101 184.515 230.333 183.72 229.228 182.765C228.963 182.557 228.757 182.356 228.66 182.217C228.564 182.077 228.522 181.982 228.488 181.745C228.426 181.27 228.522 180.487 228.642 179.731C228.726 179.198 228.803 178.664 228.865 178.118C228.896 177.846 228.924 177.568 228.945 177.277C228.956 177.131 228.964 176.98 228.967 176.809C228.968 176.72 228.969 176.631 228.962 176.506C228.957 176.437 228.953 176.371 228.932 176.243C228.92 176.18 228.904 176.091 228.851 175.946C228.807 175.843 228.785 175.758 228.625 175.549C228.537 175.44 228.416 175.317 228.219 175.204C227.999 175.075 227.686 175.002 227.418 175.027C226.391 175.039 224.964 175.036 223.733 175.04C223.109 175.04 222.47 174.992 221.853 174.901C222.323 174.783 222.807 174.67 223.292 174.559C226.364 173.875 229.502 173.248 232.604 172.711C234.824 172.257 237.334 172.014 239.308 170.051C239.894 169.445 240.43 168.515 240.457 167.555C240.497 166.609 240.232 165.804 239.954 165.064C238.409 160.914 236.688 156.758 234.725 152.763C233.584 150.446 232.358 148.165 231 145.974ZM80.5303 166.737C82.9689 166.564 86.1168 166.806 90.1055 168.126L88.5273 170.106C87.6538 171.194 84.7895 173.525 82.1611 175.282C79.5215 177.034 75.4338 179.011 73.0732 179.666C70.7128 180.32 68.2408 180.632 67.5908 180.36C66.7506 180.009 67.0286 178.13 68.541 173.839C70.5092 168.277 70.8929 167.788 73.3857 167.432C74.8774 167.228 78.0919 166.91 80.5303 166.737ZM122.324 153.687C121.649 153.707 120.952 153.809 120.402 154.007C119.814 154.218 119.111 154.768 118.46 155.418C117.794 156.082 117.126 156.908 116.611 157.743L116.418 158.076C115.978 158.882 115.605 159.892 115.341 160.91C115.039 162.073 114.866 163.292 114.91 164.279L114.911 164.281C115.006 166.204 115.929 169.438 116.97 171.504C118.227 173.995 119.986 175.928 122.134 177.137C123.01 177.631 124.024 178.11 124.953 178.485C125.87 178.855 126.746 179.138 127.335 179.222V179.223C127.509 179.249 127.67 179.265 127.809 179.264C127.927 179.264 128.108 179.255 128.268 179.171C128.359 179.122 128.47 179.033 128.536 178.886C128.603 178.738 128.593 178.593 128.564 178.487C128.515 178.306 128.391 178.167 128.309 178.085C128.122 177.896 127.817 177.675 127.431 177.427C127.035 177.172 126.522 176.87 125.894 176.518H125.893C124.922 175.977 123.815 175.156 122.816 174.266C121.816 173.374 120.952 172.439 120.451 171.677C119.249 169.851 118.472 167.675 118.285 165.649L118.284 165.648C118.118 163.892 118.376 161.313 118.841 159.976L118.843 159.973C119.17 159.021 119.539 158.396 120.098 157.899C120.668 157.392 121.475 156.981 122.747 156.535C123.471 156.281 124.04 156.072 124.458 155.895C124.667 155.807 124.848 155.723 124.996 155.64C125.137 155.562 125.281 155.465 125.39 155.345C125.503 155.221 125.636 154.998 125.563 154.717C125.501 154.477 125.321 154.338 125.213 154.268C124.986 154.122 124.635 154.003 124.257 153.891H124.255L124.039 153.836C123.524 153.717 122.915 153.67 122.324 153.687ZM227.655 177.775C227.58 177.783 227.499 177.782 227.419 177.775C227.49 177.775 227.561 177.776 227.634 177.776L227.655 177.775ZM126.75 34.0984C130.805 32.8319 135.085 31.9225 138.42 32.3894L137.736 37.8552C137.362 40.8583 137.091 45.3517 137.135 47.8357C137.186 50.317 137.761 54.1609 138.416 56.3669C139.549 60.2224 139.465 60.5527 136.45 64.3718C134.718 66.5603 132.157 69.7571 128.225 74.5886L128.972 71.1453C129.382 69.2562 129.712 64.024 129.716 59.5242C129.711 54.7909 129.02 48.6165 126.436 38.3894L124.421 39.1228C123.315 39.5197 119.84 42.445 116.699 45.6179C112.279 50.0935 110.111 53.2442 107.044 59.6628C104.274 65.4774 102.794 70.1499 102.087 75.3416C101.531 79.4073 100.802 82.8256 100.473 82.9509C100.141 83.067 99.579 82.3458 99.2354 81.3396C98.8916 80.333 97.3217 77.7201 95.75 75.5173C94.1893 73.32 92.3207 71.2308 91.6152 70.8777C90.6201 70.3721 89.8176 70.7532 87.9932 72.6013C86.7027 73.8991 84.1009 77.964 82.2041 81.6277C79.6226 86.631 78.4942 90.3624 77.6787 96.6189C77.0844 101.198 76.816 105.591 77.0801 106.372C77.4973 107.588 77.392 107.653 76.3574 106.852C75.6959 106.339 74.7639 104.82 74.2959 103.485C73.8196 102.152 71.6711 98.4064 69.5166 95.1628C67.3623 91.9196 64.9924 88.9697 64.2539 88.6003C63.1851 88.0661 62.4174 88.9893 60.4785 93.1042C59.1387 95.946 57.1429 101.662 56.0371 105.794C54.9261 109.937 53.9345 116.52 53.8154 120.433C53.7046 124.344 54.124 130.132 54.7393 133.288C55.3546 136.444 56.2539 140.464 57.6045 145.407L51.8877 141.412C48.7482 139.222 45.7624 137.706 45.2578 138.055C44.7533 138.406 44.0792 140.578 43.7568 142.898C43.4345 145.22 43.6492 150.425 44.2373 154.463C45.1323 160.647 45.757 162.637 48.1748 166.943C49.7533 169.762 51.9786 172.972 53.1104 174.075C54.2419 175.178 55.2253 176.506 55.2793 177.023C55.3333 177.547 53.0582 177.173 50.2158 176.189C47.3745 175.213 43.5671 173.347 41.7539 172.038C39.9437 170.736 37.0324 167.512 35.2803 164.873C33.1366 161.634 31.8161 158.698 31.2324 155.84C30.7519 153.509 30.5127 149.712 30.6914 147.395C30.8702 145.079 31.6421 141.809 32.3975 140.127C33.1581 138.433 35.4471 134.359 37.4854 131.073C39.5207 127.779 41.5331 123.328 41.9453 121.184C42.3573 119.04 42.6421 113.215 42.5713 108.241C42.5086 103.265 42.8394 96.869 43.3057 94.0242C43.7639 91.1826 45.4868 86.2433 47.1143 83.0554C48.7416 79.8679 51.5774 75.6936 53.4062 73.78C55.2378 71.8749 58.5223 68.9787 60.7002 67.3611C63.5405 65.2479 69.3045 62.5822 81.0332 57.9539C95.7494 52.1513 98.173 50.9478 105.048 46.0847C109.247 43.1044 114.192 39.7077 116.038 38.5427C117.881 37.3697 122.698 35.3729 126.75 34.0984ZM51.0391 147.081C52.6161 148.028 55.6284 150.453 57.7314 152.461C59.8374 154.476 62.4587 157.338 63.5449 158.83C65.3595 161.311 65.4457 161.945 64.5156 166.216C63.9528 168.785 62.9629 171.795 62.3125 172.895C61.1547 174.855 61.0477 174.837 57.9365 172.156C56.1801 170.645 53.6178 167.562 52.2402 165.291C50.8657 163.028 49.2654 159.291 48.6875 156.994C48.1179 154.695 47.7696 151.135 47.9062 149.088L48.1719 145.359L51.0391 147.081ZM96.1895 138.156C98.9515 137.143 101.489 136.526 101.824 136.781C102.158 137.038 100.712 140.225 98.6201 143.847C96.5274 147.471 93.1456 152.11 91.1152 154.148C88.4199 156.856 86.0956 158.343 82.5781 159.612C79.9155 160.572 76.5434 161.455 72.4307 161.778L74.7852 156.827C76.0752 154.103 78.437 150.339 80.0303 148.454C81.6154 146.571 84.7679 143.894 87.0361 142.509C89.2963 141.126 93.4166 139.164 96.1895 138.156ZM64.7041 96.3953C65.1979 96.2224 66.3002 97.3716 67.1436 98.948C67.987 100.525 69.8719 105.282 71.3311 109.523C73.1849 114.917 74.1159 119.363 74.4336 124.341C74.6861 128.251 74.5108 134.857 74.043 139.019C73.5751 143.182 72.5174 147.969 71.6807 149.653C70.5549 151.938 69.9172 152.506 69.1836 151.891C68.6419 151.435 66.9165 149.259 65.3398 147.068C63.771 144.873 61.5987 140.517 60.5146 137.398C59.1608 133.483 58.5221 129.48 58.4375 124.493C58.3712 120.518 58.6867 115.3 59.1406 112.886C59.5946 110.474 60.8292 105.85 61.8916 102.606C62.9458 99.3653 64.2103 96.5688 64.7041 96.3953ZM208.312 129.733C206.763 128.988 205.75 128.568 204.349 128.667C203.005 128.762 201.319 129.335 198.393 130.392C194.932 131.642 190.459 133.839 188.441 135.292C187.445 136.009 186.567 136.729 185.956 137.315C185.653 137.606 185.401 137.878 185.232 138.108C185.15 138.221 185.07 138.346 185.02 138.474C184.979 138.578 184.902 138.822 185.038 139.065L185.045 139.075C185.093 139.157 185.156 139.22 185.196 139.257C185.242 139.299 185.295 139.34 185.349 139.38C185.456 139.459 185.592 139.549 185.748 139.644C186.062 139.836 186.487 140.074 186.989 140.338C187.995 140.866 189.334 141.518 190.762 142.168H190.763C193.628 143.465 197.399 144.739 199.181 144.986C200.055 145.107 200.965 145.174 201.73 145.185C202.113 145.191 202.467 145.182 202.765 145.158C203.051 145.135 203.327 145.095 203.532 145.019L203.539 145.017C203.552 145.016 203.601 145.013 203.701 145.049C203.832 145.094 204.002 145.188 204.199 145.337C204.593 145.634 205.035 146.106 205.411 146.683L205.412 146.684C205.794 147.268 206.155 147.974 206.425 148.635C206.666 149.226 206.818 149.743 206.864 150.092L206.878 150.23C206.883 150.343 206.891 150.445 206.905 150.53C206.912 150.572 206.922 150.627 206.941 150.681C206.951 150.71 207 150.857 207.146 150.959C207.24 151.025 207.373 151.068 207.52 151.046C207.651 151.025 207.741 150.96 207.788 150.918C207.874 150.841 207.917 150.75 207.932 150.719C207.97 150.637 207.998 150.539 208.019 150.455C208.105 150.102 208.206 149.421 208.302 148.516L208.301 148.513C208.486 146.654 208.339 143.986 207.939 142.544C207.566 141.198 207.022 138.645 206.731 136.888C206.59 136.034 206.554 135.238 206.601 134.651C206.624 134.355 206.667 134.135 206.717 133.995C206.728 133.962 206.742 133.939 206.75 133.922C206.81 133.911 206.907 133.898 207.046 133.892C207.244 133.885 207.494 133.89 207.777 133.909C208.344 133.947 209.025 134.038 209.674 134.175H209.677C210.22 134.286 210.66 134.369 211.004 134.41C211.325 134.448 211.65 134.465 211.911 134.374C212.059 134.322 212.208 134.228 212.314 134.07C212.417 133.917 212.447 133.75 212.449 133.611C212.453 133.359 212.364 133.072 212.272 132.81C212.177 132.538 211.965 132.269 211.735 132.031C211.494 131.781 211.186 131.517 210.837 131.255C210.138 130.728 209.242 130.18 208.312 129.733ZM200.289 133.24C200.408 133.231 200.582 133.227 200.764 133.264C200.88 133.288 201.4 133.411 201.596 133.969C201.652 134.131 201.667 134.297 201.673 134.376C201.681 134.484 201.686 134.613 201.688 134.757C201.69 135.046 201.683 135.45 201.662 135.991C201.62 137.077 201.523 138.763 201.349 141.29L201.273 142.386L200.188 142.208L195.337 141.409V141.408C193.975 141.185 192.702 140.909 191.745 140.64C191.271 140.507 190.848 140.369 190.522 140.23C190.363 140.162 190.193 140.08 190.045 139.982C189.971 139.933 189.877 139.864 189.788 139.772C189.706 139.688 189.571 139.529 189.501 139.293L189.476 139.191C189.373 138.695 189.617 138.289 189.726 138.127C189.88 137.897 190.087 137.687 190.297 137.505C190.725 137.133 191.31 136.753 191.952 136.433C193.152 135.836 195.485 134.807 197.15 134.15C198.001 133.815 198.809 133.549 199.432 133.394C199.736 133.319 200.036 133.258 200.289 133.24ZM81.8447 128.242C83.4935 132.299 83.5697 133.163 82.3906 134.985C81.6487 136.136 80.5242 137.648 79.9004 138.357C79.0207 139.346 78.896 137.798 79.3545 131.613L79.9502 123.589L81.8447 128.242ZM113.571 113.197C117.192 112.119 121.344 111.39 122.799 111.571C124.256 111.76 125.527 112.197 125.635 112.532C125.731 112.872 122.65 115.487 118.782 118.342C114.912 121.198 109.109 125.076 105.894 126.948C102.681 128.828 98.2249 130.999 95.999 131.779C93.775 132.558 91.8669 132.918 91.7559 132.585C91.6557 132.247 93.2912 129.628 95.3984 126.772C97.5138 123.913 100.988 120.133 103.115 118.37C106.145 115.863 108.422 114.738 113.571 113.197ZM209.664 114.732C208.226 114.675 206.596 114.702 205.118 114.828H205.117C202.158 115.088 197.004 116.282 193.643 117.478C190.046 118.757 186.032 120.832 183.883 122.528H183.882C181.901 124.097 179.37 126.629 178.236 128.178C177.683 128.935 177.189 129.649 176.837 130.189C176.662 130.458 176.519 130.692 176.42 130.869C176.372 130.956 176.326 131.041 176.295 131.115C176.28 131.151 176.261 131.199 176.248 131.253C176.242 131.28 176.234 131.321 176.231 131.37C176.23 131.413 176.23 131.503 176.273 131.603L176.28 131.62L176.289 131.635C176.399 131.847 176.597 131.896 176.672 131.907C176.753 131.919 176.82 131.908 176.851 131.903C176.917 131.892 176.98 131.87 177.022 131.854C177.115 131.82 177.231 131.767 177.358 131.704C177.618 131.576 177.98 131.381 178.412 131.137C179.279 130.649 180.457 129.951 181.738 129.16L181.737 129.159C184.62 127.389 188.907 125.607 193.3 124.365H193.301C197.468 123.184 202.454 122.421 205.662 122.465L206.243 122.468C207.615 122.465 209.094 122.388 210.434 122.26C211.953 122.115 213.331 121.9 214.17 121.64V121.641C214.799 121.448 215.314 121.273 215.715 121.092C216.111 120.912 216.449 120.702 216.678 120.41C216.923 120.096 217.002 119.74 216.978 119.362C216.955 119.007 216.84 118.613 216.689 118.184C216.453 117.509 215.951 116.873 215.336 116.355C214.717 115.834 213.951 115.407 213.142 115.165H213.143C212.375 114.932 211.088 114.789 209.664 114.732ZM90.7559 77.2683C91.0878 77.1521 91.9899 77.9623 92.75 79.0681C93.5104 80.1748 95.734 85.6396 97.6826 91.2C100.352 98.8162 101.196 102.338 101.113 105.448C101.056 107.722 100.317 110.88 99.4844 112.471C98.6484 114.055 95.8254 118.316 93.2148 121.939C90.6018 125.553 88.0832 128.299 87.6309 128.05C87.1766 127.791 85.7927 124.594 84.5596 120.946C83.0822 116.575 82.2169 112.006 82.0244 107.594C81.8594 103.907 81.9522 99.1659 82.2266 97.0701C82.501 94.9745 83.4196 91.0083 84.2725 88.2556C85.1144 85.4977 86.7803 81.9509 87.9766 80.3591C89.1726 78.7678 90.421 77.3768 90.7559 77.2683ZM154.209 85.2224C152.619 87.1157 150.155 89.7066 148.731 90.9871C147.305 92.2595 144.237 94.6068 141.921 96.1912C139.172 98.0724 134.463 100.195 128.375 102.274C123.248 104.035 116.953 105.913 109.764 107.415L113.473 102.489C115.512 99.7752 119.266 95.9144 121.807 93.906C125.433 91.0538 128.195 89.6494 134.544 87.4607C139.004 85.9248 145.898 84.0183 157.091 81.7771L154.209 85.2224ZM122.312 45.323C122.658 45.1929 123.455 47.0504 124.08 49.4578C124.714 51.8626 125.232 56.8974 125.235 60.6404C125.233 64.3946 124.51 70.3189 123.623 73.8289C122.733 77.3309 120.951 82.1542 119.658 84.5339C118.365 86.9138 115.337 91.3926 112.924 94.4919C110.512 97.5904 108.189 100.013 107.771 99.8884C107.352 99.7538 106.637 97.0408 106.176 93.8582C105.72 90.6644 105.519 85.1362 105.738 81.5603C105.949 77.9875 107.069 72.0787 108.223 68.4207C109.379 64.771 111.455 59.9075 112.836 57.6238C114.225 55.3376 116.781 51.6877 118.52 49.5154C120.257 47.3438 121.958 45.457 122.312 45.323ZM156.51 66.5027C159.527 66.1906 163.704 66.1543 165.797 66.4207C167.889 66.6869 169.705 67.1766 169.83 67.5056C169.953 67.8352 168.856 69.0563 167.374 70.2205C165.9 71.3824 161.311 73.7726 157.172 75.5232C152.639 77.4481 145.401 79.6937 138.93 81.198C133.033 82.5653 128.136 83.4992 128.038 83.2878C127.954 83.0711 129.755 80.9227 132.056 78.5173C134.357 76.1114 137.574 73.2841 139.207 72.239C140.84 71.1941 144.171 69.5998 146.604 68.7107C149.035 67.8136 153.496 66.8229 156.51 66.5027ZM191.958 41.8748C192.279 41.7261 193.355 42.7481 194.345 44.1462C196.133 46.6817 196.171 46.6868 200.798 45.0564C203.353 44.1519 207.553 43.2981 210.128 43.1501C213.006 42.9868 215.819 43.4918 217.439 44.4597C218.896 45.3218 221.077 47.3198 222.3 48.8904C223.589 50.547 224.869 53.3434 225.351 55.5466C225.811 57.6391 226.062 60.5596 225.914 62.0564C225.649 64.7481 225.646 64.7401 222.857 59.947C220.506 55.9088 219.41 54.8566 216.036 53.449C212.214 51.8529 211.794 51.8725 207.728 53.8064C205.377 54.9302 201.896 56.6687 199.993 57.6716C196.91 59.2974 196.164 59.3491 193.051 58.114C190.813 57.2261 188.601 55.4289 186.908 53.114C185.457 51.1248 184.458 49.2313 184.692 48.8923C184.923 48.566 186.523 46.9051 188.241 45.2214C189.965 43.5271 191.637 42.0239 191.958 41.8748ZM163.606 6.35815C164.313 6.0654 164.552 7.34515 164.42 10.781C164.325 13.4408 163.765 17.9633 163.169 20.8259C162.584 23.694 160.99 28.7153 159.635 31.9802C158.28 35.2452 155.693 40.1323 153.898 42.8425C152.101 45.5447 149.119 49.5894 147.279 51.8337C145.438 54.0685 143.719 55.879 143.451 55.8474C143.177 55.8164 142.569 52.8658 142.086 49.282C141.605 45.7062 141.627 40.2175 142.138 37.0847C142.651 33.9601 144.542 28.5899 146.339 25.1609C148.133 21.7238 151.067 17.2598 152.856 15.2332C154.645 13.2067 157.569 10.4738 159.36 9.15503C161.155 7.84459 163.059 6.58644 163.606 6.35815ZM173.803 38.6941C176.553 37.9847 180.698 37.6502 183.008 37.9402C185.318 38.2303 187.362 38.8228 187.551 39.2566C187.729 39.6948 186.013 41.6952 183.729 43.7039C180.771 46.3125 177.501 48.2127 172.409 50.2791C168.474 51.8855 162.472 53.7164 159.066 54.3464C155.662 54.9763 152.567 55.1971 152.191 54.8289C151.817 54.4602 153.378 52.223 155.674 49.8552C157.97 47.4872 161.861 44.2966 164.322 42.7615C166.875 41.1763 170.95 39.4214 173.803 38.6941ZM191.588 2.15112C195.937 0.763452 199.893 -0.186562 200.388 0.0310059C200.884 0.257682 201.025 2.00732 200.699 3.92944C200.37 5.84445 198.715 9.88725 197.031 12.9128C195.344 15.9307 191.689 20.6736 188.911 23.4558C186.141 26.2353 181.866 29.8062 179.428 31.406C176.1 33.5808 173.439 34.6493 162.559 37.1082L165.474 28.8796C167.078 24.355 169.919 18.5881 171.782 16.072C173.645 13.5562 177.092 9.9579 179.434 8.08276C182.853 5.33947 185.236 4.17712 191.588 2.15112Z" fill="url(#paint0_linear_22_124)"/>
<defs>
<linearGradient id="paint0_linear_22_124" x1="255.595" y1="-0.000244141" x2="255.595" y2="586.363" gradientUnits="userSpaceOnUse">
<stop stop-color="#948E55"/>
<stop offset="0.302222" stop-color="#866625"/>
<stop offset="0.68" stop-color="#96925B"/>
<stop offset="1" stop-color="#765C2E"/>
</linearGradient>
</defs>
</svg>
