<svg width="476" height="587" viewBox="0 0 476 587" fill="none" xmlns="http://www.w3.org/2000/svg">
<path d="M220.797 69.822C221.761 68.3619 223.611 66.2299 224.904 65.0929C226.278 63.8812 229.302 62.291 232.204 61.2509C235.476 60.0813 238.532 59.5022 241.212 59.5392C243.646 59.5775 247.372 60.4931 250.543 61.8416C253.794 63.2232 257.021 65.282 258.957 67.2092C261.711 69.9565 262.39 71.1711 264.496 77.1813C265.816 80.9463 267.068 85.2651 267.668 89.5205L271.912 89.5702C274.243 89.5987 276.465 89.5119 276.842 89.3799C277.218 89.248 277.458 87.5192 277.379 85.5406C277.294 83.5645 277.502 81.4393 277.837 80.8148C278.164 80.1927 278.933 79.7542 279.538 79.8344C280.434 79.9583 280.645 80.8452 280.744 89.5495L282.881 89.6154C284.054 89.6502 285.689 89.6229 286.509 89.5506C287.765 89.4488 288.014 88.6925 288.087 84.7319C288.134 81.8407 288.559 79.8934 289.195 79.6703C289.757 79.4736 290.514 79.6386 290.878 80.0414C291.242 80.4442 291.532 82.7636 291.527 89.6137L298.687 89.2103L298.597 85.1145C298.547 82.8648 298.898 80.6205 299.374 80.1383C299.869 79.6421 300.741 79.4979 301.372 79.8071C302.262 80.2408 302.464 81.3228 302.339 84.8484C302.253 87.3227 302.263 89.3252 302.366 89.3122C302.467 89.2923 303.528 89.3586 304.727 89.4458C305.919 89.5353 307.513 89.3916 308.266 89.1277C309.313 88.7607 309.594 87.763 309.462 84.8654C309.364 82.7862 309.681 80.6846 310.157 80.2024C310.641 79.7179 311.434 79.5245 311.935 79.7714C312.516 80.0676 312.833 81.7856 312.853 89.0574L314.99 89.1233C316.163 89.1581 317.795 89.1239 318.616 89.0517C319.866 88.9361 320.083 88.2607 319.969 84.6883C319.892 82.3633 320.151 80.1433 320.545 79.7519C320.929 79.356 321.684 79.2756 322.21 79.5681C322.85 79.9276 323.229 81.2707 323.369 83.6658C323.479 85.6255 323.68 87.6687 323.808 88.2082C323.955 88.8253 325.768 89.1508 328.618 89.0819C331.134 89.0227 333.168 88.863 333.139 88.735C333.116 88.6046 333.394 85.8016 333.759 82.4995C334.233 78.2597 335.213 74.9803 337.107 71.3037C338.895 67.833 340.962 65.1104 343.338 63.0942C346.315 60.5595 347.838 59.7952 352.81 58.3219C357.434 56.9549 359.61 56.6922 362.773 57.1438C364.996 57.4561 368.366 58.4964 370.262 59.4538C372.158 60.4112 374.826 62.3661 376.185 63.7883C377.703 65.3777 379.163 67.8329 379.98 70.1442C380.707 72.2184 381.362 75.2709 381.431 76.9376C381.496 78.6365 380.683 81.8422 379.575 84.2289C377.98 87.6623 376.926 88.9081 374.128 90.6417C371.399 92.3284 369.927 92.8441 367.28 93.0338C365.234 93.1822 362.579 92.6448 360.538 91.669C358.295 90.59 356.689 89.1953 355.721 87.4851C354.926 86.0726 354.117 83.7657 353.921 82.351C353.71 80.8035 354.282 78.3126 355.353 76.0847C357.076 72.514 357.267 72.3551 360.88 71.4578C363.561 70.795 365.325 70.8299 369.551 72.6463L368.465 71.1053C367.877 70.2586 365.982 68.9319 364.266 68.1576C362.385 67.3101 360.067 66.9464 358.429 67.2285C356.933 67.4992 354.548 68.3271 353.122 69.0808C351.695 69.8345 349.513 71.7674 348.269 73.3716C347.032 74.9735 345.564 78.0012 345.013 80.0926C344.465 82.1909 344.087 85.7822 344.175 88.0727C344.289 91.0302 345.154 94.5314 347.151 100.096C348.699 104.426 351.461 110.53 353.294 113.7C355.125 116.863 360.391 125.309 364.997 132.464C369.596 139.622 375.656 149.435 378.469 154.26C382.679 161.516 384.313 165.125 387.848 174.992C391.048 183.947 392.309 188.424 392.863 192.834C393.268 196.074 393.647 201.475 393.703 204.837C393.759 208.2 393.491 213.312 393.116 216.188C392.742 219.07 391.625 224.304 390.642 227.815C389.661 231.333 387.219 237.546 385.222 241.628C383.231 245.708 379.464 251.847 376.86 255.273C374.256 258.699 370.063 263.489 367.533 265.92C365.006 268.359 360.749 272.003 358.075 274.023C355.401 276.044 351.642 278.653 349.726 279.808C347.806 280.973 346.095 281.773 345.932 281.592C345.759 281.406 345.756 280.17 345.928 278.841C346.094 277.515 345.837 275.268 345.357 273.854C344.65 271.772 344.839 270.491 346.341 267.167C347.371 264.908 348.426 261.426 348.687 259.428C349.024 256.881 348.809 255.127 347.972 253.53C347.313 252.285 346.461 250.708 346.086 250.032C345.541 249.07 346.468 247.57 350.325 243.136C353.039 240.025 356.431 235.885 357.862 233.938C359.294 231.992 361.569 228.266 362.929 225.653C364.281 223.042 366.06 218.599 366.87 215.778C367.68 212.958 368.623 208.477 368.954 205.825C369.285 203.172 369.547 198.415 369.528 195.247C369.512 192.086 368.883 186.081 368.126 181.903C367.059 176.006 365.735 171.681 362.19 162.463C359.591 155.726 354.897 145.273 351.311 138.221C347.839 131.406 343.237 121.782 341.071 116.83C338.527 110.996 336.529 105.34 335.399 100.756C334.057 95.3232 333.418 93.6331 332.64 93.4753C332.076 93.3577 329.91 93.3175 327.817 93.3748C325.726 93.439 324.001 93.6054 323.989 93.7478C323.968 93.8857 324.345 119.986 324.811 151.735C325.28 183.492 325.41 253.732 325.387 256.846C325.36 260.367 324.893 263.068 324.145 264.006C323.484 264.837 322.76 265.491 322.534 265.462C322.302 265.436 321.89 194.633 321.316 159.109C320.744 123.593 320.028 94.2673 319.732 93.9484C319.436 93.6295 317.934 93.3795 316.4 93.3869C314.858 93.3968 313.553 93.6852 313.487 94.0235C313.421 94.3617 313.759 125.287 314.228 162.746C314.697 200.205 312.97 258.332 312.365 260.329C312.338 260.976 311.675 262.154 310.889 262.96C310.103 263.766 309.375 264.19 309.263 263.914C309.158 263.636 311.306 203.776 310.792 165.487C310.272 127.201 309.693 95.4145 309.501 94.8439C309.318 94.2778 308.021 93.7792 306.625 93.7455C305.237 93.7094 303.706 93.8155 303.238 93.9718C302.711 94.1565 302.59 105.982 302.918 124.244C303.216 140.734 303.711 173.157 304.027 196.297C304.335 219.439 302.9 259.519 302.919 260.888C302.941 262.487 302.375 263.853 301.321 264.73C300.413 265.471 299.577 266.025 299.454 265.961C299.329 265.889 299.802 250.983 299.71 240.654C299.62 230.332 300.253 182.962 299.829 152.036C299.408 121.116 298.903 95.3527 298.711 94.7822C298.495 94.1661 297.072 93.8117 295.139 93.8895C293.2 93.9696 291.872 94.3272 291.804 94.7894C291.737 95.2125 292.181 130.52 292.786 173.258C293.807 245.587 292.72 264.617 291.289 265.118C290.443 265.423 289.624 265.279 289.465 264.804C289.307 264.33 289.75 215.389 289.157 172.685C288.574 129.986 287.865 94.7786 287.582 94.4549C287.306 94.1288 285.825 93.8716 284.29 93.8791C281.584 93.8976 281.493 93.9679 281.406 96.043C281.35 97.223 281.625 125.75 282.015 159.432C282.405 193.114 281.771 241.007 281.885 249.206C282.002 257.413 281.971 264.387 281.825 264.715C281.676 265.036 280.76 265.273 279.8 265.232C278.239 265.165 278.054 264.922 278.144 263.007C278.2 261.827 278.146 248.273 278.024 232.881C277.906 217.497 278.56 169.774 278.191 143.478C277.825 117.189 277.424 95.363 277.299 94.9841C277.174 94.6053 275.053 94.234 272.581 94.1549C270.109 94.0758 267.855 94.0897 267.572 94.1812C267.282 94.2751 266.555 97.0276 265.945 100.308C265.341 103.587 263.992 108.817 262.959 111.923C261.922 115.038 258.746 123.345 255.906 130.397C253.064 137.442 249.175 147.137 247.269 151.94C245.356 156.745 242.73 164.299 241.433 168.734C240.141 173.161 238.595 180.244 237.999 184.465C237.406 188.692 237.014 194.879 237.132 198.219C237.243 201.562 237.813 206.896 238.397 210.074C239.027 213.519 240.443 218.149 241.903 221.527C243.252 224.651 245.853 229.443 247.696 232.179C249.532 234.917 252.563 238.697 257.833 243.998L254.531 249.137C252.713 251.957 249.606 257.281 244.017 267.671L241.501 265.67C240.124 264.57 237.347 262.084 235.338 260.144C233.328 258.205 229.89 254.052 227.69 250.911C224.535 246.406 222.884 243.141 219.857 235.402C217.424 229.183 215.673 223.617 215.065 220.172C214.542 217.188 214.016 212.53 213.897 209.821C213.787 207.115 214.177 200.576 214.778 195.293C215.378 190.01 216.862 182.488 218.073 178.574C219.29 174.658 221.659 168.124 223.328 164.05C225.005 159.973 231.154 147.672 236.994 136.702C242.841 125.729 249.029 113.623 250.75 109.784C252.464 105.947 254.393 100.637 255.031 97.9842C255.669 95.3317 256.297 91.2226 256.426 88.8486C256.557 86.3507 256.156 83.1016 255.467 81.1141C254.7 78.9235 253.339 76.7949 251.679 75.1939C250.251 73.8187 247.5 72.1082 245.557 71.3901C243.615 70.672 240.673 70.1734 239.021 70.2836C237.366 70.387 234.99 71.0198 233.75 71.6926C232.503 72.3679 231.2 73.5853 230.855 74.3981C230.268 75.7491 230.438 75.7511 232.804 74.4761C234.731 73.4394 236.118 73.2071 238.252 73.5736C239.823 73.8454 242.019 74.9129 243.117 75.9422C244.218 76.9783 245.494 78.9063 245.947 80.2231C246.403 81.5466 246.511 84.0684 246.185 85.8352C245.859 87.6021 245.027 89.8997 244.341 90.9471C243.648 91.9969 241.605 93.5583 239.794 94.4234C237.599 95.4695 235.403 95.965 233.206 95.91C231.356 95.8741 228.528 95.0205 226.764 93.9785C225.028 92.9499 238.181 93.114 235.181 94.614C224.657 97.7495 215.068 86.8069 214.459 85.114C213.73 83.0789 218.054 79.7605 218.445 76.864C218.771 74.4594 219.828 71.2912 220.797 69.822Z" fill="url(#paint0_linear_19_33)"/>
<path d="M271.437 282.039L263.961 278.851C254.427 274.785 244.464 269.256 237.181 261.881L255.816 243.253C256.37 243.164 256.936 243.3 257.393 243.626C267.945 251.155 279.56 256.479 292.376 258.551L295.42 259.044C304.286 260.477 313.346 260.168 322.094 258.134C335.016 255.129 346.8 248.467 356.036 238.943L377.06 217.267L367.293 261.087L359.681 271.614C352.877 279.263 344.105 282.966 334.335 286.024L329.587 287.128C321.771 288.946 313.754 289.755 305.732 289.536C293.931 289.213 282.297 286.67 271.437 282.039Z" fill="url(#paint1_linear_19_33)"/>
<path fill-rule="evenodd" clip-rule="evenodd" d="M159.361 9.15571C157.569 10.4744 154.646 13.2074 152.857 15.234C151.068 17.2606 148.133 21.7244 146.339 25.1617C144.541 28.5909 142.651 33.9609 142.138 37.0856C141.627 40.2184 141.605 45.7063 142.086 49.2823C142.57 52.8664 143.176 55.8166 143.451 55.8476C143.717 55.8815 145.436 54.0703 147.279 51.834C149.119 49.5895 152.101 45.5455 153.898 42.8433C155.693 40.133 158.28 35.2459 159.635 31.9809C160.99 28.7158 162.584 23.6947 163.169 20.8267C163.765 17.9639 164.325 13.4415 164.42 10.7817C164.552 7.34551 164.313 6.06611 163.606 6.35905C163.059 6.58716 161.155 7.84514 159.361 9.15571ZM179.434 8.08311C177.092 9.95816 173.645 13.5564 171.782 16.0724C169.919 18.5884 167.078 24.3556 165.473 28.8804L162.559 37.109C173.439 34.6501 176.1 33.5812 179.428 31.4062C181.866 29.8064 186.141 26.2362 188.911 23.4567C191.69 20.6744 195.344 15.931 197.031 12.9131C198.716 9.88715 200.371 5.8444 200.699 3.92968C201.025 2.00687 200.885 0.25668 200.387 0.0310154C199.893 -0.186555 195.936 0.763819 191.588 2.15151C185.236 4.17753 182.853 5.33979 179.434 8.08311ZM116.038 38.5436C114.192 39.7084 109.247 43.1044 105.048 46.0849C98.1727 50.9482 95.7498 52.1517 81.0333 57.9544C69.3044 62.5829 63.5403 65.2482 60.7 67.3614C58.5222 68.979 55.2382 71.8748 53.4065 73.78C51.5777 75.6933 48.7419 79.8681 47.1143 83.056C45.4868 86.2438 43.7641 91.1827 43.3058 94.0245C42.8394 96.869 42.5088 103.265 42.5716 108.242C42.6424 113.215 42.3573 119.041 41.9453 121.185C41.5333 123.329 39.5209 127.779 37.4854 131.073C35.4471 134.359 33.1577 138.434 32.397 140.127C31.6415 141.81 30.8697 145.079 30.6909 147.396C30.5121 149.712 30.7521 153.509 31.2327 155.84C31.8163 158.698 33.1362 161.635 35.28 164.873C37.0321 167.513 39.9433 170.737 41.7536 172.039C43.5667 173.348 47.374 175.213 50.2155 176.189C53.0598 177.174 55.336 177.549 55.2791 177.023C55.2251 176.506 54.2418 175.178 53.11 174.075C51.9782 172.972 49.7535 169.762 48.1749 166.943C45.7571 162.638 45.1325 160.648 44.2375 154.463C43.6494 150.425 43.434 145.22 43.7565 142.899C44.079 140.577 44.7536 138.405 45.2583 138.055C45.7629 137.706 48.7483 139.223 51.8878 141.412L57.6048 145.407C56.2541 140.464 55.3543 136.444 54.739 133.288C54.1237 130.132 53.7041 124.344 53.815 120.433C53.9341 116.52 54.9264 109.938 56.0374 105.795C57.1432 101.663 59.1389 95.9464 60.4788 93.1048C62.4176 88.9899 63.1847 88.0667 64.2535 88.601C64.9916 88.9694 67.3615 91.9197 69.5162 95.1635C71.6709 98.4073 73.8197 102.153 74.2959 103.486C74.7639 104.821 75.6959 106.34 76.3575 106.853C77.3925 107.654 77.4973 107.59 77.0799 106.373C76.8157 105.593 77.0847 101.2 77.6791 96.6198C78.4946 90.3629 79.6229 86.6321 82.2045 81.6284C84.1014 77.9644 86.7029 73.899 87.9932 72.6016C89.8176 70.7535 90.6201 70.3723 91.6153 70.8779C92.3205 71.2305 94.189 73.3205 95.7499 75.5182C97.3217 77.7211 98.8917 80.3337 99.2353 81.3402C99.579 82.3468 100.141 83.0679 100.473 82.9516C100.802 82.8272 101.53 79.409 102.087 75.3424C102.794 70.1504 104.274 65.4783 107.044 59.6635C110.111 53.2445 112.279 50.0945 116.7 45.6188C119.841 42.4457 123.314 39.5198 124.42 39.1231L126.436 38.3896C129.02 48.6172 129.711 54.7914 129.716 59.5248C129.712 64.0251 129.383 69.2574 128.972 71.1462L128.225 74.5891C132.157 69.7574 134.718 66.5606 136.45 64.3721C139.465 60.5527 139.549 60.2232 138.416 56.3669C137.761 54.1608 137.187 50.3177 137.135 47.8364C137.092 45.3523 137.362 40.8588 137.736 37.8556L138.42 32.3901C135.085 31.9231 130.804 32.8323 126.75 34.0989C122.697 35.3735 117.881 37.3706 116.038 38.5436ZM118.52 49.516C116.782 51.6883 114.225 55.338 112.836 57.6243C111.455 59.9078 109.379 64.7708 108.222 68.4207C107.068 72.0787 105.949 77.9876 105.738 81.5607C105.519 85.1365 105.72 90.6645 106.176 93.8584C106.637 97.0413 107.352 99.7539 107.771 99.8885C108.188 100.015 110.511 97.5923 112.924 94.4928C115.337 91.3932 118.366 86.9144 119.659 84.5346C120.951 82.1549 122.733 77.3317 123.623 73.8296C124.511 70.3194 125.234 64.3949 125.236 60.6406C125.233 56.8972 124.713 51.8624 124.08 49.4579C123.454 47.0506 122.658 45.1938 122.313 45.3238C121.96 45.4568 120.258 47.3437 118.52 49.516ZM164.322 42.7622C161.861 44.2973 157.971 47.4872 155.674 49.8553C153.378 52.2233 151.817 54.4607 152.191 54.8293C152.566 55.1979 155.66 54.9769 159.066 54.3469C162.471 53.7169 168.474 51.8862 172.409 50.2796C177.502 48.2132 180.771 46.3131 183.729 43.7044C186.014 41.6946 187.731 39.6935 187.55 39.2568C187.362 38.823 185.318 38.2304 183.008 37.9403C180.698 37.6502 176.553 37.985 173.802 38.6944C170.949 39.4217 166.874 41.1769 164.322 42.7622ZM87.9765 80.36C86.7802 81.9516 85.1148 85.4981 84.2728 88.2562C83.4198 91.009 82.5013 94.9753 82.2269 97.071C81.9525 99.1666 81.8597 103.907 82.0247 107.594C82.2171 112.007 83.0819 116.575 84.5595 120.947C85.7927 124.595 87.1763 127.791 87.6305 128.05C88.082 128.301 90.6006 125.555 93.2144 121.94C95.8253 118.317 98.649 114.055 99.4846 112.472C100.317 110.88 101.056 107.722 101.113 105.448C101.196 102.338 100.352 98.8168 97.6829 91.2C95.7341 85.6392 93.5101 80.1748 92.7499 79.0688C91.9897 77.9629 91.0875 77.1521 90.7557 77.2684C90.421 77.3766 89.1728 78.7683 87.9765 80.36ZM188.241 45.2221C186.523 46.9059 184.924 48.5661 184.693 48.8924C184.456 49.2297 185.456 51.124 186.908 53.1145C188.601 55.4296 190.812 57.2267 193.05 58.1147C196.164 59.35 196.91 59.2979 199.993 57.6719C201.896 56.6689 205.377 54.931 207.727 53.8073C211.794 51.8732 212.214 51.8532 216.036 53.4493C219.41 54.857 220.506 55.909 222.857 59.9473C225.646 64.7411 225.649 64.7492 225.914 62.057C226.062 60.56 225.811 57.6397 225.351 55.5472C224.869 53.3438 223.59 50.5477 222.3 48.8911C221.077 47.3202 218.895 45.3219 217.439 44.4599C215.818 43.492 213.006 42.9871 210.127 43.1506C207.553 43.2986 203.353 44.1523 200.798 45.0568C196.171 46.6874 196.133 46.6826 194.344 44.1466C193.355 42.7485 192.278 41.7261 191.958 41.8748C191.637 42.0234 189.965 43.5274 188.241 45.2221ZM146.192 62.3484C145.673 62.9938 145.477 63.599 145.755 63.6924C146.033 63.7858 149.242 63.2972 152.875 62.6149C156.505 61.9245 161.857 61.4302 164.761 61.5213C167.662 61.6043 171.338 62.161 172.918 62.7526C174.653 63.3987 176.074 64.6274 176.503 65.8497C176.894 66.9667 176.689 68.4292 176.053 69.1063C175.418 69.7833 172.159 72.1526 168.81 74.3713C163.794 77.6924 162.381 79.1328 160.765 82.5347C159.687 84.8027 156.407 89.1606 153.481 92.2219C150.552 95.2751 145.642 99.3677 142.577 101.305C139.503 103.246 134.858 105.446 132.249 106.197C129.64 106.948 127.55 107.753 127.619 107.974C127.679 108.199 128.736 108.855 129.971 109.422C131.206 109.989 132.357 110.913 132.536 111.477C132.724 112.065 127.587 116.547 120.308 122.124C113.401 127.417 108.047 132.056 108.422 132.424C108.788 132.796 108.85 133.828 108.571 134.717C108.284 135.608 106.503 138.932 104.615 142.102C102.727 145.272 99.7898 149.728 98.0914 152.013C96.3903 154.291 93.2736 157.664 91.1781 159.516C87.5433 162.708 87.4644 162.872 89.6461 162.925C90.9026 162.958 92.94 163.507 94.1623 164.142L96.3825 165.29C94.3794 169.637 92.3789 172.383 90.6407 174.192C88.9026 176.001 85.4093 178.87 82.8773 180.566C79.5667 182.79 76.6455 184.05 72.4246 185.102L66.5685 186.545L63.5816 194.49C69.6252 195.189 74.4551 196.523 78.2196 197.903C81.9842 199.283 86.4133 200.485 88.0749 200.584C89.7337 200.675 92.9098 200.117 95.1357 199.337C97.3617 198.557 100.358 196.888 101.793 195.64C103.225 194.384 104.651 193.475 104.946 193.617C105.242 193.759 105.037 194.912 104.484 196.188C103.928 197.455 102.251 199.67 100.756 201.111C99.2621 202.553 96.9506 204.126 95.6207 204.611C94.2908 205.095 91.373 205.508 89.1273 205.532C86.8816 205.556 81.7863 204.424 77.7906 203.007C73.7977 201.598 68.64 200.288 66.3205 200.101C62.9826 199.835 61.2386 200.201 57.8517 201.869C55.5122 203.025 52.0608 205.444 50.1895 207.236C48.3209 209.036 45.9097 212.062 44.8212 213.961C43.7356 215.868 42.4871 219.541 42.0441 222.141C41.5983 224.733 41.525 228.803 41.8842 231.177C42.2434 233.55 42.7757 235.718 43.0782 235.984C43.3726 236.254 44.6171 234.8 45.8253 232.749C47.0335 230.699 49.2774 228.077 50.8276 226.925C52.3669 225.767 56.3524 223.862 59.6953 222.69C64.3739 221.051 67.4427 220.575 73.0642 220.641C77.0768 220.68 83.9111 220.938 88.2552 221.197C94.8747 221.595 97.1276 221.332 102.227 219.572C107.343 217.807 108.945 216.827 112.335 213.404C114.549 211.164 117.044 207.727 117.866 205.767C118.695 203.804 119.759 200.123 120.225 197.588L121.079 192.971C115.082 189.084 111.983 186.389 110.337 184.466C108.034 181.784 106.64 179 104.354 172.476C101.574 164.544 101.435 163.629 102.277 158.771C102.773 155.907 103.996 152.107 104.996 150.32C105.997 148.534 108.053 146.232 109.567 145.21C111.079 144.181 113.773 142.819 115.551 142.186C117.329 141.554 120.201 141.011 121.948 140.99C123.692 140.96 126.78 141.423 128.829 142.005C130.867 142.581 133.549 143.931 134.786 144.997C136.608 146.567 137.203 147.822 137.917 151.625C138.41 154.197 139.613 158.693 140.593 161.594C142.017 165.812 142.932 167.282 145.123 168.867C146.67 169.988 148.571 170.613 149.485 170.292C150.376 169.98 151.513 168.455 152.016 166.906C152.72 164.742 152.576 163.474 151.417 161.436C150.581 159.984 149.242 157.59 148.435 156.119C147.632 154.656 146.856 152.364 146.711 151.043C146.558 149.724 147.071 147.09 147.842 145.193C148.613 143.296 150.743 140.323 152.572 138.592C154.398 136.852 157.856 133.595 160.252 131.356C162.645 129.109 164.96 126.379 165.391 125.274C166.154 123.353 166.116 123.348 164.522 125.024C163.55 126.038 161.291 127.138 159.08 127.65C156.999 128.143 152.383 128.379 148.813 128.176C143.445 127.876 141.175 128.217 135.654 130.152C129.195 132.415 129.027 132.429 130.313 130.469C131.039 129.352 133.191 127.634 135.096 126.639C137.001 125.644 140.093 124.561 141.976 124.228C143.862 123.903 148.541 123.536 152.372 123.42C156.203 123.305 160.16 122.927 161.164 122.575C162.171 122.231 164.176 120.665 165.627 119.102C167.079 117.539 168.965 114.933 169.817 113.317C170.665 111.693 171.522 109.184 171.725 107.741C172.077 105.218 172.005 105.143 170.062 105.824C168.945 106.215 167.609 106.474 167.088 106.412C166.566 106.349 164.029 106.993 161.457 107.849L156.78 109.415C168.463 100.559 174.579 96.0977 177.905 93.7871C181.233 91.4846 183.855 89.3204 183.723 88.9942C183.599 88.6652 182.849 88.6008 182.063 88.8488C181.281 89.1049 179.367 89.1939 177.816 89.0468C175.24 88.8042 175.878 88.4716 185.114 85.235C191.503 83.0049 197.086 80.5214 200.25 78.5036C203.785 76.2467 205.825 75.3773 207.168 75.552C208.215 75.6851 209.756 76.5811 210.589 77.534C211.426 78.495 212.681 80.909 213.384 82.9164C214.088 84.9238 215.181 86.1385 215.47 86.2752C216.187 86.614 235.681 96.8046 235.181 94.614C237.181 92.614 221.499 78.7367 222.062 77.076C222.636 75.4207 227.344 71.7644 227.181 69.822C227.018 67.8795 224.181 64.114 222.857 62.614C221.681 61.114 218.571 59.2537 217.181 58.114C215.681 57.114 213.31 56.7951 212.209 56.8716C211.109 56.9482 208.601 58.2453 206.628 59.7458C204.654 61.2462 201.764 62.9317 200.213 63.4844C198.597 64.0598 195.925 64.1143 193.978 63.6152C192.11 63.1339 189.574 62.0687 188.34 61.2467C187.11 60.4328 184.705 58.0039 182.995 55.8492C180.647 52.8823 179.558 52.1096 178.511 52.6492C177.749 53.0433 173.313 54.7525 168.663 56.4459C163.316 58.3832 158.012 59.7422 154.272 60.1169C151.016 60.4489 148.076 60.8249 147.747 60.9493C147.415 61.0656 146.712 61.703 146.192 62.3484ZM61.8912 102.607C60.8288 105.851 59.5949 110.474 59.1409 112.887C58.6869 115.3 58.3708 120.518 58.4372 124.494C58.5217 129.481 59.1608 133.483 60.5148 137.398C61.5988 140.518 63.7706 144.873 65.3395 147.068C66.9166 149.26 68.6426 151.436 69.184 151.892C69.9177 152.507 70.5546 151.939 71.6806 149.654C72.5174 147.97 73.5751 143.182 74.043 139.019C74.5109 134.857 74.6863 128.251 74.4338 124.341C74.1161 119.363 73.1853 114.917 71.3313 109.523C69.872 105.282 67.9871 100.525 67.1437 98.9487C66.3004 97.372 65.1977 96.2225 64.7039 96.3955C64.2102 96.5686 62.9456 99.3657 61.8912 102.607ZM139.207 72.2399C137.574 73.2848 134.357 76.1119 132.055 78.518C129.754 80.924 127.953 83.0729 128.038 83.2886C128.131 83.5015 133.029 82.5665 138.929 81.1984C145.4 79.6941 152.639 77.4484 157.172 75.5235C161.311 73.7728 165.9 71.3832 167.374 70.2213C168.856 69.0566 169.955 67.8353 169.831 67.5063C169.706 67.1773 167.889 66.687 165.797 66.4207C163.704 66.1544 159.527 66.1912 156.51 66.5033C153.496 66.8235 149.035 67.8142 146.605 68.7113C144.172 69.6004 140.84 71.1949 139.207 72.2399ZM121.807 93.9063C119.266 95.9146 115.511 99.7753 113.472 102.489L109.764 107.415C116.954 105.913 123.248 104.035 128.375 102.274C134.463 100.196 139.172 98.0726 141.921 96.1913C144.237 94.6069 147.305 92.2596 148.731 90.9872C150.154 89.7068 152.619 87.1164 154.209 85.2231L157.091 81.7773C145.898 84.0186 139.005 85.9254 134.544 87.4613C128.195 89.65 125.433 91.054 121.807 93.9063ZM79.3547 131.614C78.8962 137.8 79.0202 139.347 79.9002 138.357C80.5241 137.648 81.6484 136.136 82.3903 134.985C83.5695 133.163 83.4938 132.299 81.8448 128.242L79.9506 123.589L79.3547 131.614ZM103.115 118.37C100.988 120.134 97.5143 123.914 95.3989 126.773C93.2915 129.629 91.6553 132.247 91.7554 132.585C91.8636 132.92 93.7732 132.559 95.9991 131.779C98.2251 130.999 102.681 128.829 105.894 126.948C109.11 125.076 114.912 121.198 118.783 118.342C122.653 115.486 125.735 112.87 125.635 112.532C125.527 112.197 124.256 111.761 122.799 111.572C121.345 111.391 117.193 112.119 113.571 113.197C108.422 114.738 106.144 115.864 103.115 118.37ZM194.105 88.846C188.836 92.3555 182.812 96.457 180.714 97.9649C177.164 100.518 176.874 101.037 176.472 105.622C176.231 108.333 175.012 113.568 173.759 117.252C172.508 120.944 170.738 125.672 169.829 127.772C168.663 130.462 166.715 132.708 163.176 135.448C160.426 137.584 157.127 140.413 155.837 141.737C154.55 143.07 153.059 145.219 152.512 146.511C151.654 148.575 151.922 150.016 154.631 157.746L157.743 166.626C154.547 172.572 152.887 174.553 151.997 174.865C151.106 175.177 149.095 175.273 147.524 175.07C145.564 174.82 143.488 173.485 140.894 170.804C137.314 167.096 136.997 166.453 134.595 158.016L132.072 149.13C125.062 145.597 122.741 145.12 120.352 145.512C118.458 145.812 115.897 146.673 114.655 147.408C113.415 148.152 111.476 149.904 110.336 151.294C109.199 152.692 107.837 155.523 107.305 157.582C106.751 159.712 106.734 163.862 107.259 167.177C108.062 172.294 108.595 173.634 111.542 177.946C113.382 180.655 116.684 184.242 118.883 185.925C121.07 187.603 124.219 189.353 125.875 189.8C127.534 190.255 130.233 190.381 131.883 190.085C133.838 189.727 135.115 189.997 135.565 190.867C135.948 191.596 136.003 192.922 135.686 193.805C135.368 194.689 134.374 195.637 133.472 195.917C132.568 196.189 130.396 196.113 128.641 195.747L125.452 195.074C123.794 207.979 122.432 214.491 121.352 217.869C120.273 221.246 118.094 225.945 116.508 228.319C114.919 230.684 112.723 233.571 111.625 234.719C110.528 235.867 108.144 237.803 106.315 239.016C103.324 241.01 102.833 241.918 101.282 248.36C100.334 252.291 98.0069 259.06 96.107 263.415C94.2071 267.771 90.0935 275.12 86.9636 279.752C83.8309 284.377 78.0253 291.773 74.0567 296.191C70.0909 300.616 64.7549 306.085 62.1883 308.357C59.6298 310.626 57.6335 312.761 57.7417 313.096C57.858 313.428 60.6658 314.153 63.9808 314.69C67.2985 315.236 71.1515 316.013 72.5465 316.415C74.9989 317.137 75.5024 318.001 79.2299 314.841C81.8273 312.631 87.1407 317.536 91.2194 316.053C96.2262 314.234 98.1641 313.955 102.477 314.461C105.338 314.794 107.579 308.6 110.366 310.041C113.422 311.605 116.786 314.253 118.828 316.682C120.695 318.899 122.39 321.168 122.594 321.724C122.798 322.279 125.307 323.318 128.177 324.039C131.044 324.752 140.307 326.986 148.755 328.997C157.2 331 169.626 333.779 176.363 335.163C183.09 336.541 194.169 338.384 200.972 339.253C207.775 340.123 217.893 340.985 223.457 341.171C229.018 341.349 236.953 341.249 241.099 340.941C246.572 340.532 250.947 339.58 257.145 337.454C264.476 334.93 266.051 334.105 268.463 331.497C270.005 329.829 271.528 327.46 271.849 326.22C272.169 324.981 272.01 322.792 271.503 321.343C270.987 319.897 269.624 317.721 268.461 316.502C267.305 315.28 262.264 311.839 257.251 308.842C252.25 305.851 240.887 300.008 231.999 295.861C223.111 291.714 211.69 286.719 206.615 284.762C201.54 282.806 197.338 281.424 197.285 281.688C197.235 281.96 196.88 283.721 196.485 285.604C196.102 287.492 195.164 290.884 194.404 293.15C193.2 296.716 192.936 297.027 192.407 295.44C192.064 294.434 191.87 291.029 191.971 287.868C192.064 284.709 192.783 276.386 193.565 269.36C194.349 262.341 195.139 253.884 195.314 250.57C195.499 247.26 195.642 244.038 195.633 243.414C195.625 242.744 192.832 241.933 188.723 241.41C184.931 240.939 179.1 239.756 175.762 238.79C172.428 237.832 166.925 235.616 163.54 233.867C160.147 232.12 155.506 229.303 153.22 227.604C150.935 225.906 147.9 223.289 146.474 221.789C145.057 220.286 143.684 218.522 143.433 217.856C143.176 217.201 145.641 218.582 148.919 220.932C152.188 223.285 157.968 226.604 161.749 228.314C165.534 230.014 171.336 232.125 174.64 232.994C177.944 233.863 184.751 235.213 189.776 235.987C194.801 236.762 202.769 237.351 207.501 237.292C212.977 237.227 217.721 236.628 220.556 235.643C223.052 234.778 225.887 233.166 226.997 231.977C228.089 230.813 229.475 228.728 230.081 227.343C230.686 225.958 231.223 223.68 231.265 222.293C231.314 220.903 230.912 218.59 230.364 217.156C229.824 215.718 228.471 213.438 227.356 212.075C226.057 210.494 225.39 208.928 225.489 207.731C225.573 206.701 226.738 204.657 228.077 203.188C229.633 201.48 230.309 199.934 229.946 198.898C229.58 197.854 228.191 197.132 226.052 196.864C224.225 196.631 221.07 196.392 219.051 196.336C217.032 196.28 215.503 195.989 215.645 195.694C215.789 195.407 219.322 194.387 223.487 193.436C230.297 191.886 231.159 191.52 232.003 189.779C232.521 188.716 232.713 187.213 232.424 186.442C232.136 185.67 231.192 184.456 230.319 183.753C229 182.688 228.818 181.934 229.25 179.356C229.539 177.637 229.669 176.246 229.528 176.259C229.396 176.27 227.681 176.253 225.719 176.231C223.747 176.204 221.752 175.749 221.271 175.209C220.543 174.401 221.205 174.06 225.05 173.257C227.608 172.725 231.85 171.965 234.461 171.586C237.899 171.072 239.625 170.449 240.715 169.331C241.818 168.199 241.971 167.082 241.288 165.158C240.772 163.712 236.631 155.966 232.073 147.939C227.515 139.912 223.277 131.89 222.652 130.109C222.028 128.329 221.605 125.305 221.709 123.397C221.82 121.485 221.706 118.254 221.463 116.212C221.16 113.61 219.578 109.538 216.187 102.61C213.527 97.1717 210.552 90.1347 209.573 86.9786C207.835 81.3712 207.749 81.2558 205.74 81.8509C204.603 82.1857 199.37 85.3284 194.105 88.846ZM47.9067 149.088C47.7699 151.135 48.1174 154.694 48.687 156.994C49.2647 159.291 50.8655 163.029 52.2402 165.292C53.6178 167.563 56.1796 170.646 57.9361 172.157C61.0479 174.838 61.154 174.855 62.312 172.895C62.9625 171.795 63.9526 168.785 64.5154 166.216C65.4455 161.945 65.3598 161.312 63.545 158.831C62.4588 157.339 59.838 154.477 57.7319 152.461C55.6287 150.453 52.6158 148.028 51.0388 147.081L48.1723 145.359L47.9067 149.088ZM87.0357 142.509C84.7674 143.895 81.6157 146.572 80.0306 148.454C78.4373 150.34 76.0753 154.103 74.7852 156.827L72.4306 161.779C76.5434 161.455 79.9152 160.573 82.5778 159.613C86.0956 158.344 88.4193 156.857 91.1148 154.149C93.1451 152.111 96.5272 147.472 98.62 143.848C100.713 140.225 102.159 137.037 101.824 136.782C101.489 136.526 98.9513 137.143 96.1891 138.156C93.416 139.165 89.2958 141.127 87.0357 142.509ZM68.5411 173.839C67.0282 178.132 66.7504 180.01 67.5913 180.361C68.2411 180.633 70.7129 180.321 73.0737 179.667C75.4345 179.012 79.5219 177.034 82.1616 175.282C84.7903 173.525 87.6543 171.194 88.5274 170.106L90.1056 168.126C86.1168 166.807 82.9692 166.565 80.5305 166.738C78.0918 166.911 74.8768 167.229 73.3853 167.433C70.8924 167.789 70.5093 168.278 68.5411 173.839ZM54.4131 230.958C52.7234 232.568 50.885 234.739 50.3232 235.781C49.7585 236.815 49.0363 239.604 48.7171 241.961C48.4007 244.325 48.3453 247.617 48.6067 249.27C48.8603 250.953 50.4789 254.612 52.2489 257.537C53.9967 260.423 55.5912 263.754 55.7856 264.931C55.9828 266.116 55.5918 268.398 54.9113 270.009C54.2254 271.631 52.266 273.872 50.5421 275.021C48.8154 276.162 46.4058 277.17 45.1919 277.26C42.9973 277.429 42.9924 277.467 44.9125 281.156C45.9666 283.205 47.8526 285.552 49.083 286.366C50.3244 287.185 53.0412 288.169 55.1413 288.56C57.2334 288.954 61.0232 288.798 63.5722 288.214C66.1132 287.632 70.1437 286.011 72.5366 284.618L76.8731 282.08C72.2234 277.811 70.9665 275.625 69.5303 271.475C68.1796 267.595 67.689 264.613 67.9641 262.026C68.1899 259.948 69.3308 256.512 70.5054 254.392C71.6691 252.267 74.018 249.244 75.7219 247.674C78.0622 245.509 81.6955 243.636 90.7315 239.933C99.5974 236.29 103.635 234.221 106.522 231.827C108.646 230.056 111.666 226.717 113.233 224.395C114.793 222.076 116.18 219.318 116.313 218.272C116.545 216.418 116.502 216.424 114.393 218.627C113.199 219.863 110.104 221.82 107.509 222.975C104.915 224.129 100.626 225.323 97.9854 225.622C95.3342 225.914 88.7801 225.885 83.4147 225.538C78.044 225.203 71.2891 225.171 68.3967 225.476C65.5043 225.78 61.8583 226.476 60.3071 227.029C58.7448 227.577 56.0947 229.351 54.4131 230.958ZM85.4322 248.152C82.418 249.536 79.0649 251.638 77.979 252.818C76.893 253.999 75.3853 256.336 74.6299 258.018C73.8744 259.701 73.2294 262.217 73.1802 263.607C73.1391 264.993 73.6781 267.776 74.3788 269.776C75.0823 271.783 76.6458 274.507 77.8623 275.826C79.0735 277.155 80.5169 278.058 81.0697 277.846C81.6145 277.637 83.2741 275.656 84.751 273.439C86.2227 271.233 88.7365 266.58 90.3299 263.113C91.9234 259.646 94.1296 254.038 95.2332 250.652C96.3288 247.269 96.972 244.281 96.6533 244.02C96.3428 243.756 94.9144 244.011 93.4963 244.581C92.0701 245.153 88.4436 246.761 85.4322 248.152ZM201.138 277.484C201.719 277.717 207.387 279.884 213.73 282.296C220.071 284.7 232.778 290.226 241.975 294.556C251.164 298.888 258.22 301.777 257.649 300.978C257.086 300.175 254.524 296.574 251.963 292.973C249.401 289.372 245.206 284.299 242.648 281.696C240.091 279.093 236.235 275.946 234.081 274.701C231.919 273.459 227.397 272.072 224.021 271.619C218.188 270.846 217.427 270.958 208.977 273.919C203.727 275.768 200.51 277.223 201.138 277.484ZM248.301 280.396C248.755 280.864 251.771 284.206 255.009 287.816C258.241 291.436 263.701 297.293 267.141 300.832C270.591 304.376 275.165 308.817 277.315 310.699C279.468 312.589 281.595 313.989 282.037 313.825C282.56 313.633 281.747 311.155 279.676 306.673C277.936 302.902 274.97 297.498 273.077 294.662C271.191 291.824 268.105 287.997 266.216 286.16C264.335 284.32 260.977 282.18 258.76 281.403C256.542 280.625 253.329 279.807 251.633 279.583C249.929 279.362 248.294 279.263 248.003 279.365C247.711 279.467 247.846 279.929 248.301 280.396Z" fill="url(#paint2_linear_19_33)"/>
<path d="M190.591 329.783L254.125 331.902L249.116 337.661L239.93 338.441L199.126 338.638C165.322 334.175 131.026 335.076 97.5038 341.306L93.1029 342.124L76.0142 347.304C68.7749 349.498 62.0068 353.02 56.0554 357.69L32.56 376.124L38.6029 350.624L44.6898 334.393C47.5945 326.647 51.761 318.811 57.7417 313.096L92.9733 280.702L96.7072 292.631L190.591 329.783Z" fill="url(#paint3_linear_19_33)"/>
<path d="M187.181 349.614L223.718 355.679C233.991 357.384 244.539 356.004 254.028 351.713C262.253 347.994 269.383 342.222 274.734 334.952L275.122 334.425C274.181 340.941 272.644 345.919 270.681 353.114L269.181 356.614L264.181 366.114L258.728 374.339C256.764 377.603 252.036 377.617 250.053 374.364C249.193 372.954 247.7 372.05 246.052 371.943L187.181 368.114L169.754 367.336C127.536 365.45 85.6507 375.604 48.9825 396.614C39.5134 401.249 30.8748 407.416 23.4154 414.866L0 438.253L1.93103 433.751C6.24259 423.701 11.7333 414.199 18.2878 405.445C38.0912 378.996 66.7264 360.528 98.9898 353.399L105.12 352.044C130.535 346.278 156.793 345.23 182.586 348.951L187.181 349.614Z" fill="url(#paint4_linear_19_33)"/>
<path d="M35.6813 551.614C26.848 551.614 20.0146 549.031 15.1813 543.864C10.1813 538.697 7.68129 531.697 7.68129 522.864C7.68129 520.697 7.84795 518.614 8.18129 516.614C8.34795 514.614 8.59795 512.781 8.93129 511.114C11.9313 496.947 19.5146 480.697 31.6813 462.364C39.6813 450.031 48.598 438.864 58.4313 428.864C68.4313 418.864 78.6813 410.864 89.1813 404.864C99.848 398.864 110.098 395.864 119.931 395.864C125.598 395.864 129.765 397.447 132.431 400.614C135.098 403.614 136.431 407.697 136.431 412.864C136.431 418.864 134.931 425.781 131.931 433.614C128.765 441.447 124.848 448.864 120.181 455.864C115.681 462.697 111.265 467.697 106.931 470.864C106.265 471.531 105.515 471.864 104.681 471.864C104.015 471.864 103.681 471.447 103.681 470.614C103.681 468.781 104.848 466.947 107.181 465.114C109.348 463.614 111.681 461.031 114.181 457.364C116.848 453.531 119.348 449.281 121.681 444.614C124.181 439.947 126.181 435.281 127.681 430.614C129.348 425.947 130.181 421.947 130.181 418.614C130.181 410.614 126.181 406.614 118.181 406.614C103.015 406.614 88.348 412.447 74.1813 424.114C64.6813 431.781 56.0146 440.781 48.1813 451.114C40.5146 461.281 33.9313 471.697 28.4313 482.364C23.098 493.031 19.1813 503.114 16.6813 512.614C15.6813 516.281 15.1813 519.947 15.1813 523.614C15.1813 530.781 17.2646 536.447 21.4313 540.614C25.4313 544.781 30.9313 546.531 37.9313 545.864C50.7646 544.697 64.9313 539.614 80.4313 530.614C90.598 524.614 100.431 517.864 109.931 510.364C119.431 502.864 128.265 495.031 136.431 486.864C144.598 478.531 151.681 470.531 157.681 462.864L145.681 464.614C142.015 465.114 138.931 465.697 136.431 466.364C134.098 466.864 132.515 467.281 131.681 467.614C131.348 467.781 130.931 467.864 130.431 467.864C129.431 467.864 128.931 467.114 128.931 465.614C128.931 464.114 129.431 462.364 130.431 460.364C131.598 458.364 132.848 457.031 134.181 456.364C138.681 454.031 149.431 452.281 166.431 451.114C173.765 442.781 181.348 434.447 189.181 426.114C197.515 417.114 204.515 409.447 210.181 403.114C215.848 396.781 220.848 390.947 225.181 385.614C229.681 380.114 234.015 374.447 238.181 368.614C239.515 366.781 240.848 365.864 242.181 365.864C243.181 365.864 243.681 366.364 243.681 367.364C243.681 368.364 243.348 369.197 242.681 369.864C237.015 377.864 231.098 385.697 224.931 393.364C218.765 401.031 211.931 409.197 204.431 417.864C197.098 426.364 188.765 436.031 179.431 446.864L176.181 450.614L187.681 450.114L209.681 449.364C209.515 449.697 210.265 448.197 211.931 444.864C213.598 441.364 216.098 436.031 219.431 428.864C224.098 419.197 228.181 410.614 231.681 403.114C235.348 395.447 238.348 388.864 240.681 383.364C245.515 372.531 248.015 365.031 248.181 360.864C248.348 358.697 249.431 357.031 251.431 355.864C253.431 354.697 255.681 354.114 258.181 354.114C260.015 354.114 261.681 354.447 263.181 355.114C264.848 355.614 270.348 343.281 270.681 344.114C271.515 345.614 266.514 361.614 263.181 368.114C261.014 372.614 257.598 378.781 254.431 384.614C251.265 390.447 247.681 396.947 243.681 404.114C238.181 413.947 233.431 422.614 229.431 430.114C225.598 437.614 222.515 443.947 220.181 449.114L239.431 448.114H240.181C241.681 448.114 242.431 448.614 242.431 449.614C242.431 450.281 242.015 450.947 241.181 451.614C240.348 452.281 239.265 452.697 237.931 452.864L217.681 454.364C217.515 454.697 216.598 456.697 214.931 460.364C213.265 464.031 210.848 469.281 207.681 476.114C201.348 490.114 198.181 502.031 198.181 511.864C198.181 518.531 200.681 521.864 205.681 521.864C207.015 521.864 208.765 521.197 210.931 519.864C213.265 518.697 215.431 517.281 217.431 515.614C219.598 513.947 221.181 512.447 222.181 511.114C223.348 509.447 224.515 508.614 225.681 508.614C226.348 508.614 226.681 508.947 226.681 509.614C226.681 510.447 226.015 511.531 224.681 512.864C223.015 514.697 220.848 516.781 218.181 519.114C215.515 521.447 212.848 523.447 210.181 525.114C207.515 526.781 205.265 527.697 203.431 527.864C192.765 528.531 187.431 523.697 187.431 513.364C187.431 507.197 188.931 500.114 191.931 492.114C195.098 484.114 199.015 474.781 203.681 464.114L207.681 455.114C202.015 455.614 194.265 456.864 184.431 458.864C180.931 459.531 177.765 460.114 174.931 460.614C172.265 460.947 170.015 461.281 168.181 461.614C158.348 472.781 147.765 483.697 136.431 494.364C125.098 505.031 113.515 514.697 101.681 523.364C90.0146 532.031 78.5146 538.864 67.1813 543.864C56.0146 549.031 45.5146 551.614 35.6813 551.614Z" fill="url(#paint5_linear_19_33)"/>
<path d="M193.65 586.364C191.983 586.364 190.817 586.197 190.15 585.864C189.65 585.364 189.15 584.781 188.65 584.114C188.15 583.447 187.9 582.864 187.9 582.364C188.233 575.197 190.483 567.031 194.65 557.864C198.817 548.697 204.317 539.114 211.15 529.114C217.817 519.114 224.983 509.531 232.65 500.364C239.483 492.031 244.233 485.781 246.9 481.614C249.067 477.947 251.567 472.614 254.4 465.614C257.4 458.447 260.733 449.697 264.4 439.364C264.733 438.364 265.983 437.697 268.15 437.364C270.817 437.364 272.15 439.364 272.15 443.364C272.15 445.531 271.9 447.114 271.4 448.114C271.233 448.947 270.983 449.781 270.65 450.614C270.483 451.281 270.317 451.781 270.15 452.114C269.65 453.114 269.4 453.781 269.4 454.114C269.4 454.114 269.483 454.364 269.65 454.864C269.817 455.364 269.983 456.031 270.15 456.864C275.65 454.197 280.483 452.114 284.65 450.614C288.817 448.947 292.817 448.114 296.65 448.114C301.15 448.114 304.233 449.614 305.9 452.614C306.4 453.614 306.65 454.864 306.65 456.364C306.65 460.031 305.233 464.697 302.4 470.364C299.567 475.864 295.9 481.614 291.4 487.614C287.067 493.447 282.317 498.697 277.15 503.364C275.317 505.031 272.65 506.864 269.15 508.864C265.817 510.864 262.15 512.697 258.15 514.364C254.317 516.197 250.567 517.697 246.9 518.864C243.4 520.031 240.65 520.614 238.65 520.614C236.483 525.114 234.317 529.447 232.15 533.614C229.983 537.947 227.733 542.114 225.4 546.114C214.733 565.114 205.233 578.364 196.9 585.864C196.567 586.197 195.483 586.364 193.65 586.364ZM243.9 509.864C251.733 508.531 260.067 505.114 268.9 499.614C277.733 494.114 285.067 487.531 290.9 479.864C296.733 472.197 299.4 464.531 298.9 456.864C297.9 453.864 295.817 452.364 292.65 452.364C290.483 452.364 287.733 453.114 284.4 454.614C281.233 456.114 277.983 458.031 274.65 460.364C271.317 462.697 268.317 465.031 265.65 467.364C263.15 469.697 261.4 471.697 260.4 473.364C259.567 474.531 258.567 476.614 257.4 479.614C256.733 480.947 256.233 482.114 255.9 483.114C255.567 484.114 255.317 484.781 255.15 485.114C254.317 487.281 253.317 489.697 252.15 492.364C250.983 494.864 249.733 497.531 248.4 500.364L243.9 509.864ZM196.65 571.614C196.65 572.281 196.817 572.614 197.15 572.614C197.983 572.614 199.483 571.364 201.65 568.864C205.15 565.197 207.817 561.864 209.65 558.864C212.983 553.531 216.15 548.197 219.15 542.864C221.983 537.531 224.733 532.197 227.4 526.864C232.9 516.197 235.233 509.697 234.4 507.364C231.9 509.864 228.983 513.447 225.65 518.114C222.15 522.947 218.65 528.281 215.15 534.114C211.483 539.947 208.15 545.697 205.15 551.364C201.983 557.197 199.567 562.364 197.9 566.864C197.067 569.697 196.65 571.281 196.65 571.614Z" fill="url(#paint6_linear_19_33)"/>
<path d="M306.521 518.364C300.021 518.364 296.771 515.447 296.771 509.614C296.771 509.281 296.771 508.697 296.771 507.864C296.938 507.031 297.104 506.031 297.271 504.864C298.938 498.031 302.271 491.447 307.271 485.114C312.438 478.614 318.354 472.947 325.021 468.114C327.521 466.114 331.521 465.114 337.021 465.114C340.188 465.114 342.938 465.614 345.271 466.614C347.771 467.447 349.521 468.781 350.521 470.614C351.521 472.281 352.021 474.197 352.021 476.364C352.021 476.697 351.938 477.197 351.771 477.864C351.771 478.531 351.688 479.281 351.521 480.114C351.854 479.947 352.354 479.864 353.021 479.864C353.854 479.864 354.854 479.781 356.021 479.614C357.188 479.447 358.271 479.281 359.271 479.114C360.438 478.947 361.604 478.864 362.771 478.864H363.771C365.604 478.864 365.771 479.614 364.271 481.114C362.938 482.447 361.104 483.281 358.771 483.614L350.271 484.614C348.604 489.281 345.688 493.947 341.521 498.614C337.521 503.281 333.021 507.364 328.021 510.864C323.188 514.197 318.604 516.364 314.271 517.364C311.771 518.031 309.188 518.364 306.521 518.364ZM338.521 481.114C339.521 481.114 340.688 481.114 342.021 481.114C343.521 480.947 345.188 480.781 347.021 480.614C347.188 480.281 347.271 479.531 347.271 478.364C347.271 475.364 346.021 473.281 343.521 472.114C342.188 471.281 340.521 470.864 338.521 470.864C336.021 470.864 333.438 471.697 330.771 473.364C328.271 474.864 325.604 476.864 322.771 479.364C326.271 480.531 331.521 481.114 338.521 481.114ZM314.021 509.614C315.688 509.614 318.021 508.864 321.021 507.364C324.188 505.697 327.438 503.531 330.771 500.864C334.104 498.197 337.104 495.364 339.771 492.364C340.604 491.531 341.438 490.531 342.271 489.364C343.104 488.031 344.021 486.697 345.021 485.364L339.021 486.114C329.688 487.447 321.354 488.197 314.021 488.364C310.354 494.364 308.104 499.364 307.271 503.364C307.104 505.531 307.688 507.114 309.021 508.114C310.354 509.114 312.021 509.614 314.021 509.614Z" fill="url(#paint7_linear_19_33)"/>
<path d="M358.103 530.614C356.27 530.614 354.686 530.031 353.353 528.864C352.186 527.697 351.686 526.281 351.853 524.614C352.186 517.781 353.436 511.197 355.603 504.864C357.936 498.531 361.27 490.947 365.603 482.114C366.103 480.947 366.52 479.947 366.853 479.114C367.353 478.114 367.77 477.281 368.103 476.614C371.77 468.781 375.52 461.281 379.353 454.114C383.186 446.947 387.02 439.947 390.853 433.114L394.353 426.864C398.353 419.697 401.853 413.947 404.853 409.614C407.853 405.114 410.853 401.864 413.853 399.864C417.686 397.531 420.02 396.364 420.853 396.364C422.186 396.364 423.52 397.531 424.853 399.864C425.686 401.531 424.02 405.614 419.853 412.114C417.686 415.447 414.936 419.614 411.603 424.614C408.436 429.614 404.603 435.281 400.103 441.614C399.27 442.781 397.853 444.864 395.853 447.864C394.02 450.697 391.52 454.447 388.353 459.114C385.186 463.781 382.436 468.031 380.103 471.864C377.77 475.531 375.853 478.781 374.353 481.614C371.353 487.114 368.52 493.031 365.853 499.364C363.186 505.531 361.853 510.364 361.853 513.864C361.853 517.031 363.103 518.614 365.603 518.614C369.603 518.614 376.02 515.197 384.853 508.364C385.853 508.531 386.353 509.031 386.353 509.864C386.353 510.531 385.52 511.697 383.853 513.364C382.353 514.864 380.436 516.447 378.103 518.114C375.936 519.947 373.353 522.031 370.353 524.364L366.353 527.364C363.686 529.531 360.936 530.614 358.103 530.614Z" fill="url(#paint8_linear_19_33)"/>
<path d="M404.177 518.364C397.677 518.364 394.427 515.447 394.427 509.614C394.427 509.281 394.427 508.697 394.427 507.864C394.594 507.031 394.761 506.031 394.927 504.864C396.594 498.031 399.927 491.447 404.927 485.114C410.094 478.614 416.011 472.947 422.677 468.114C425.177 466.114 429.177 465.114 434.677 465.114C437.844 465.114 440.594 465.614 442.927 466.614C445.427 467.447 447.177 468.781 448.177 470.614C449.177 472.281 449.677 474.197 449.677 476.364C449.677 476.697 449.594 477.197 449.427 477.864C449.427 478.531 449.344 479.281 449.177 480.114C449.511 479.947 450.011 479.864 450.677 479.864C451.511 479.864 452.511 479.781 453.677 479.614C454.844 479.447 455.927 479.281 456.927 479.114C458.094 478.947 465.181 475.614 467.681 473.614C471.684 470.412 484.181 464.114 464.681 482.114C464.14 482.614 458.761 483.281 456.427 483.614L447.927 484.614C446.261 489.281 443.344 493.947 439.177 498.614C435.177 503.281 430.677 507.364 425.677 510.864C420.844 514.197 416.261 516.364 411.927 517.364C409.427 518.031 406.844 518.364 404.177 518.364ZM436.177 481.114C437.177 481.114 438.344 481.114 439.677 481.114C441.177 480.947 442.844 480.781 444.677 480.614C444.844 480.281 444.927 479.531 444.927 478.364C444.927 475.364 443.677 473.281 441.177 472.114C439.844 471.281 438.177 470.864 436.177 470.864C433.677 470.864 431.094 471.697 428.427 473.364C425.927 474.864 423.261 476.864 420.427 479.364C423.927 480.531 429.177 481.114 436.177 481.114ZM411.677 509.614C413.344 509.614 415.677 508.864 418.677 507.364C421.844 505.697 425.094 503.531 428.427 500.864C431.761 498.197 434.761 495.364 437.427 492.364C438.261 491.531 439.094 490.531 439.927 489.364C440.761 488.031 441.677 486.697 442.677 485.364L436.677 486.114C427.344 487.447 419.011 488.197 411.677 488.364C408.011 494.364 405.761 499.364 404.927 503.364C404.761 505.531 405.344 507.114 406.677 508.114C408.011 509.114 409.677 509.614 411.677 509.614Z" fill="url(#paint9_linear_19_33)"/>
<path d="M454.729 519.799C453.229 523.299 455.982 528.114 461.229 528.114C466.475 528.114 470.729 523.861 470.729 518.614C470.729 513.367 466.475 509.114 461.229 509.114C455.982 509.114 449.229 514.299 454.729 519.799Z" fill="url(#paint10_linear_19_33)"/>
<defs>
<linearGradient id="paint0_linear_19_33" x1="237.66" y1="0" x2="237.66" y2="586.364" gradientUnits="userSpaceOnUse">
<stop stop-color="#948E55"/>
<stop offset="0.302222" stop-color="#866625"/>
<stop offset="0.68" stop-color="#96925B"/>
<stop offset="1" stop-color="#765C2E"/>
</linearGradient>
<linearGradient id="paint1_linear_19_33" x1="237.66" y1="0" x2="237.66" y2="586.364" gradientUnits="userSpaceOnUse">
<stop stop-color="#948E55"/>
<stop offset="0.302222" stop-color="#866625"/>
<stop offset="0.68" stop-color="#96925B"/>
<stop offset="1" stop-color="#765C2E"/>
</linearGradient>
<linearGradient id="paint2_linear_19_33" x1="237.66" y1="0" x2="237.66" y2="586.364" gradientUnits="userSpaceOnUse">
<stop stop-color="#948E55"/>
<stop offset="0.302222" stop-color="#866625"/>
<stop offset="0.68" stop-color="#96925B"/>
<stop offset="1" stop-color="#765C2E"/>
</linearGradient>
<linearGradient id="paint3_linear_19_33" x1="237.66" y1="0" x2="237.66" y2="586.364" gradientUnits="userSpaceOnUse">
<stop stop-color="#948E55"/>
<stop offset="0.302222" stop-color="#866625"/>
<stop offset="0.68" stop-color="#96925B"/>
<stop offset="1" stop-color="#765C2E"/>
</linearGradient>
<linearGradient id="paint4_linear_19_33" x1="237.66" y1="0" x2="237.66" y2="586.364" gradientUnits="userSpaceOnUse">
<stop stop-color="#948E55"/>
<stop offset="0.302222" stop-color="#866625"/>
<stop offset="0.68" stop-color="#96925B"/>
<stop offset="1" stop-color="#765C2E"/>
</linearGradient>
<linearGradient id="paint5_linear_19_33" x1="237.66" y1="0" x2="237.66" y2="586.364" gradientUnits="userSpaceOnUse">
<stop stop-color="#948E55"/>
<stop offset="0.302222" stop-color="#866625"/>
<stop offset="0.68" stop-color="#96925B"/>
<stop offset="1" stop-color="#765C2E"/>
</linearGradient>
<linearGradient id="paint6_linear_19_33" x1="237.66" y1="0" x2="237.66" y2="586.364" gradientUnits="userSpaceOnUse">
<stop stop-color="#948E55"/>
<stop offset="0.302222" stop-color="#866625"/>
<stop offset="0.68" stop-color="#96925B"/>
<stop offset="1" stop-color="#765C2E"/>
</linearGradient>
<linearGradient id="paint7_linear_19_33" x1="237.66" y1="0" x2="237.66" y2="586.364" gradientUnits="userSpaceOnUse">
<stop stop-color="#948E55"/>
<stop offset="0.302222" stop-color="#866625"/>
<stop offset="0.68" stop-color="#96925B"/>
<stop offset="1" stop-color="#765C2E"/>
</linearGradient>
<linearGradient id="paint8_linear_19_33" x1="237.66" y1="0" x2="237.66" y2="586.364" gradientUnits="userSpaceOnUse">
<stop stop-color="#948E55"/>
<stop offset="0.302222" stop-color="#866625"/>
<stop offset="0.68" stop-color="#96925B"/>
<stop offset="1" stop-color="#765C2E"/>
</linearGradient>
<linearGradient id="paint9_linear_19_33" x1="237.66" y1="0" x2="237.66" y2="586.364" gradientUnits="userSpaceOnUse">
<stop stop-color="#948E55"/>
<stop offset="0.302222" stop-color="#866625"/>
<stop offset="0.68" stop-color="#96925B"/>
<stop offset="1" stop-color="#765C2E"/>
</linearGradient>
<linearGradient id="paint10_linear_19_33" x1="237.66" y1="0" x2="237.66" y2="586.364" gradientUnits="userSpaceOnUse">
<stop stop-color="#948E55"/>
<stop offset="0.302222" stop-color="#866625"/>
<stop offset="0.68" stop-color="#96925B"/>
<stop offset="1" stop-color="#765C2E"/>
</linearGradient>
</defs>
</svg>
